<svg width="1545" height="390" viewBox="0 0 1545 390" fill="none" xmlns="http://www.w3.org/2000/svg">
<path d="M311.708 172.141C291.628 172.141 284.658 181.371 253.838 184.141V184.091C252.618 184.211 252.018 184.091 251.918 184.631C251.818 185.171 253.798 185.341 254.658 185.551C293.478 194.851 297.728 235.851 295.858 267.191C295.288 269.851 296.468 269.921 297.488 268.011C311.648 238.621 330.158 198.861 336.058 184.341C331.798 175.641 320.478 172.141 311.708 172.141Z" fill="url(#paint0_linear_34131_7832)"/>
<path d="M209.258 194.84C244.078 188.69 270.948 165.1 270.948 134.21C270.948 105.84 251.228 86.42 211.648 83.73C234.408 75.41 250.208 61.61 250.208 39.46C250.208 17.66 233.438 0.400004 185.928 0.0200043L184.828 0C182.998 0.06 183.098 0.859998 184.828 1.56C203.348 7.48 213.178 24.04 213.178 42.5C213.178 63.6 202.398 78.22 183.178 88.53C182.728 88.81 182.098 88.96 182.098 89.31C182.098 89.65 182.368 89.68 183.178 89.82C219.298 97.46 232.918 120.28 232.918 142.33C232.918 171.36 215.898 183.8 192.288 183.8C180.338 183.8 168.908 179.99 161.018 174.21V0.150009H97.7279C97.2279 0.150009 97.2979 0.870004 98.9579 1.91C112.868 9.92 126.108 22.8 126.108 48.48V155.82C126.108 175.28 116.648 180.88 100.288 180.88C84.3179 180.88 67.2279 169.18 43.0579 169.18C28.3979 169.18 10.0779 177.2 0.477881 184.14C-0.172119 184.8 -0.442117 185.53 1.55788 185.53C33.0979 185.53 50.5079 209.35 62.2279 235.36L126.928 387.92L127.198 388.52L127.468 387.92L150.108 340.05C150.108 340.05 105.308 232.8 103.108 226.57C95.7579 205.62 106.338 193.36 127.258 193.36C148.178 193.36 162.198 202.52 172.138 225.78L240.748 387.04L241.558 389.01L242.368 387.04L264.178 340.85L204.218 195.68C205.738 195.4 207.758 195.11 209.258 194.84Z" fill="url(#paint1_linear_34131_7832)"/>
<path d="M534.268 149.929C534.268 174.749 517.078 187.159 482.708 187.159C465.088 187.159 451.438 184.679 441.758 179.709V62.8094C451.318 57.8494 464.468 55.3594 481.228 55.3594C497.358 55.3594 509.768 58.6494 518.458 65.2294C526.528 71.3094 530.558 79.3794 530.558 89.4294C530.558 97.1294 528.008 103.579 522.928 108.789C518.828 113.259 513.738 116.239 507.668 117.729V118.099C514.368 119.839 520.258 123.309 525.348 128.529C531.288 134.729 534.268 141.869 534.268 149.929ZM501.698 91.4794C501.698 78.6994 494.978 72.3094 481.528 72.3094C477.208 72.3094 473.568 72.8094 470.608 73.7994V111.589H476.528C485.778 111.589 492.288 110.009 496.048 106.839C499.808 103.669 501.698 98.5494 501.698 91.4794ZM504.118 148.819C504.118 140.999 502.018 135.259 497.828 131.599C493.628 127.939 486.528 126.109 476.538 126.109H470.618V167.249C473.948 168.489 477.778 169.109 482.098 169.109C496.768 169.109 504.118 162.349 504.118 148.819Z" fill="#0F0064"/>
<path d="M693.988 57.2305L665.318 185.31H638.698L622.128 117.92C621.128 113.7 620.328 109.17 619.708 104.33H619.338L617.108 117.92L600.908 185.31H574.098L545.248 57.2305H575.028L588.428 132.06C589.168 136.53 589.788 141.37 590.288 146.58H590.658C590.908 144.22 591.708 139.38 593.078 132.06L610.018 57.2305H631.608L648.178 132.06C649.168 136.41 649.918 141.25 650.408 146.58H650.778C650.898 144.1 651.518 139.26 652.638 132.06L666.598 57.2305H693.988Z" fill="#0F0064"/>
<path d="M855.937 121.269C855.937 140.759 852.087 156.269 844.397 167.809C835.587 180.719 822.737 187.169 805.867 187.169C788.987 187.169 776.207 180.719 767.517 167.809C759.697 156.269 755.787 140.759 755.787 121.269C755.787 101.789 759.697 86.2691 767.517 74.7291C776.197 61.8191 788.987 55.3691 805.867 55.3691C822.747 55.3691 835.587 61.8191 844.397 74.7291C852.097 86.2691 855.937 101.779 855.937 121.269ZM825.227 120.059C825.227 90.0891 818.777 75.0991 805.867 75.0991C792.957 75.0991 786.507 90.0791 786.507 120.059C786.507 150.029 792.957 165.019 805.867 165.019C818.767 165.009 825.227 150.029 825.227 120.059Z" fill="#0F0064"/>
<path d="M941.568 77.5205H906.568V110.1H937.099V129.83H906.568V185.3H876.229V57.2305H941.568V77.5205Z" fill="#0F0064"/>
<path d="M1025.9 77.5205H990.899V110.1H1021.43V129.83H990.899V185.3H960.559V57.2305H1025.9V77.5205Z" fill="#0F0064"/>
<path d="M1115.25 146.96C1115.25 158.63 1111.22 168.25 1103.15 175.81C1095.08 183.38 1084.78 187.16 1072.25 187.16C1057.6 187.16 1046.43 184.62 1038.74 179.53L1045.63 158.49C1051.46 162.46 1058.35 164.45 1066.29 164.45C1071.5 164.45 1075.66 163.05 1078.76 160.26C1081.86 157.47 1083.41 153.78 1083.41 149.18C1083.41 145.08 1082.07 141.64 1079.41 138.85C1076.74 136.06 1072.12 133.17 1065.54 130.19C1048.54 122.62 1040.04 110.83 1040.04 94.8196C1040.04 83.6496 1043.76 74.2796 1051.21 66.7096C1058.66 59.1396 1068.46 55.3496 1080.62 55.3496C1093.15 55.3496 1103.14 57.8296 1110.59 62.7996L1104.26 81.2296C1098.3 77.5096 1091.91 75.6396 1085.09 75.6396C1074.79 75.6396 1069.64 80.5396 1069.64 90.3496C1069.64 94.6996 1071.19 98.3496 1074.29 101.33C1076.77 103.81 1080.99 106.42 1086.95 109.15C1098.24 114.24 1106.06 120.32 1110.41 127.39C1113.64 132.62 1115.25 139.14 1115.25 146.96Z" fill="#0F0064"/>
<path d="M1228.06 185.3H1197.72V129.83H1165.33V185.3H1134.99V57.2305H1165.33V110.1H1197.72V57.2305H1228.06V185.3Z" fill="#0F0064"/>
<path d="M1348.5 121.269C1348.5 140.759 1344.65 156.269 1336.96 167.809C1328.15 180.719 1315.3 187.169 1298.43 187.169C1281.55 187.169 1268.77 180.719 1260.08 167.809C1252.26 156.269 1248.35 140.759 1248.35 121.269C1248.35 101.789 1252.26 86.2691 1260.08 74.7291C1268.77 61.8191 1281.55 55.3691 1298.43 55.3691C1315.31 55.3691 1328.15 61.8191 1336.96 74.7291C1344.65 86.2691 1348.5 101.779 1348.5 121.269ZM1317.79 120.059C1317.79 90.0891 1311.34 75.0991 1298.43 75.0991C1285.52 75.0991 1279.07 90.0791 1279.07 120.059C1279.07 150.029 1285.52 165.019 1298.43 165.019C1311.33 165.009 1317.79 150.029 1317.79 120.059Z" fill="#0F0064"/>
<path d="M1462.61 185.299H1429.28L1398.76 128.709V185.299H1368.98V62.8094C1379.28 57.8494 1392.12 55.3594 1407.51 55.3594C1424.39 55.3594 1437.17 58.9594 1445.86 66.1594C1454.05 73.1094 1458.15 82.8494 1458.15 95.3894C1458.15 103.709 1455.33 110.869 1449.68 116.889C1444.03 122.909 1436.99 126.599 1428.55 127.969V128.339L1462.61 185.299ZM1428.55 96.8794C1428.55 88.4394 1427 82.2694 1423.9 78.3594C1420.8 74.4494 1415.34 72.4994 1407.52 72.4994C1404.42 72.4994 1401.5 73.0594 1398.77 74.1794V121.089C1400.26 121.589 1402.43 121.829 1405.28 121.829C1420.79 121.819 1428.55 113.509 1428.55 96.8794Z" fill="#0F0064"/>
<path d="M1544.33 185.3H1478.8V57.2305H1544.33V77.5205H1509.15V110.1H1539.87V129.83H1509.15V165.01H1544.33V185.3Z" fill="#0F0064"/>
<defs>
<linearGradient id="paint0_linear_34131_7832" x1="293.98" y1="389.289" x2="293.98" y2="10.5864" gradientUnits="userSpaceOnUse">
<stop stop-color="#0F0064"/>
<stop offset="0.3" stop-color="#0F0064"/>
<stop offset="0.4634" stop-color="#0A2B6B"/>
<stop offset="0.6168" stop-color="#064D71"/>
<stop offset="0.6997" stop-color="#055A73"/>
<stop offset="0.709" stop-color="#0B6074"/>
<stop offset="0.7684" stop-color="#31827B"/>
<stop offset="0.8278" stop-color="#4E9C80"/>
<stop offset="0.8865" stop-color="#62AF84"/>
<stop offset="0.9443" stop-color="#6FBA86"/>
<stop offset="1" stop-color="#73BE87"/>
</linearGradient>
<linearGradient id="paint1_linear_34131_7832" x1="135.466" y1="388.997" x2="135.466" y2="10.2938" gradientUnits="userSpaceOnUse">
<stop stop-color="#0F0064"/>
<stop offset="0.3" stop-color="#0F0064"/>
<stop offset="0.4634" stop-color="#0A2B6B"/>
<stop offset="0.6168" stop-color="#064D71"/>
<stop offset="0.6997" stop-color="#055A73"/>
<stop offset="0.709" stop-color="#0B6074"/>
<stop offset="0.7684" stop-color="#31827B"/>
<stop offset="0.8278" stop-color="#4E9C80"/>
<stop offset="0.8865" stop-color="#62AF84"/>
<stop offset="0.9443" stop-color="#6FBA86"/>
<stop offset="1" stop-color="#73BE87"/>
</linearGradient>
</defs>
</svg>
