<?xml version="1.0" encoding="UTF-8"?>
<svg id="Layer_1" data-name="Layer 1" xmlns="http://www.w3.org/2000/svg" viewBox="0 0 433.6 165.2">
  <defs>
    <style>
      .cls-1 {
        fill: #fefefe;
      }

      .cls-2 {
        fill: #01771c;
      }
    </style>
  </defs>
  <path class="cls-1" d="M414.89,108.09c-1.09,3.7-3.09,6.63-5.11,9.83-.81,1.28-2.04,3.58-3.81,3.62-2.81.06-5.42-1.22-8.25-1.32l-7.09,7.12c-.2.2.4,1.27.16,1.7-9.75,3.03-20.32,4.24-30.77,1.87,11.3-2.34,20.74-7.53,28.34-15.68,15.2-16.29,18.01-40.56,7.36-59.81-15.66-28.3-53.01-35.23-77.84-14.92-2.59,2.12-4.61,4.6-7.08,6.88-.43.4-.27,1.39-1.49,1.33,3.51-10.75,9.45-20.62,17.97-28.45.91-.01,1.79,1.23,2.35,1.99,3.23-.99,6.4-2.04,9.77-2.47l3.36-9.14c4.81-.51,8-1.17,12.94-.23.8.15,2.69-.56,3.03.43l2.99,8.81c3.24.6,6.3,1.34,9.66,2.5,2.75-1.86,4.94-4.69,7.5-6.2,4.71,2.28,9.19,4.6,13.51,7.9l-1.88,9.44c2.58,2.03,4.95,4.41,7.08,7.09,3.33-.71,6.28-1.41,9.59-1.75,2.45,3.55,5.02,6.81,6.58,10.69l1.17,2.92-6.16,7.2c1.05,3.19,1.92,6.18,2.52,9.62l9.13,3.22c.6,6.61.53,9.2.03,15.92l-9.15,3.12c-.61,3.42-1.47,6.42-2.53,9.61l6.14,7.14Z"/>
  <path class="cls-2" d="M332.14,138.99c-1.27-.42-2.17-.95-3.17-.06-2.14,1.89-4.19,3.75-6.47,5.56-4.99-1.97-9.32-4.91-13.74-7.87l1.88-9.38-7.15-7.06-9.36,1.64c-3.4-4.09-5.46-8.74-7.9-13.41,1.53-2.02,4.25-5.3,6.33-7.16-1.2-3.3-1.98-6.57-2.64-10.05-3.18-.98-6.24-1.66-9.29-3.23l-.1-14.13c0-1.04.69-1.73,1.59-2.04l7.97-2.71c.43-3.18,1.32-6.82,2.41-9.62l-6.35-7.1c2.14-4.87,4.87-9.32,7.91-13.76l3.56.53c1.97-3,5.36-7.02,8.12-9.26l-4.89,9.52c-1.4,2.73-2.36,6.91-3.19,10.06-3.02,11.42-2.97,23.21-.35,34.7.6,2.62,1.14,4.85,1.96,7.29,8.53,25.13,29.42,43.98,55.5,49.85,6.52,1.47,12.46.55,18.6-.77-.36,1.69-11.79,4.94-12.31,4.96-2.67.08-.75,4.1-3.48,4.42l-3.56.42c-4.33.51-7.23-.33-11.36-.18l-3.16-9.23c-2.44-.58-4.82-1.08-7.38-1.93Z"/>
  <path class="cls-1" d="M340.7,110.52c-.78,1.35-.69,3.19-2.36,3.47-2.03.34-4.12.04-6.29.15-1.55.08-3.11-1.16-3.11-2.93v-40.1c-.01-.89,1.2-2.34,1.97-2.38,2.55-.15,5.04-.22,7.56.02,1.24.11,1.97,1.97,1.98,3.09l.14,16.92,24-41.46c.73-1.26,1.99-2.04,2.93-2.19,1.52-.24,2.63.27,3.89,1.13,2.29.76,4.24,3.44,2.83,5.89l-15.69,27.34,19.37,25.96c.85,1.13,1.42,2.22.54,3.56l-4.52,3.48c-.9.7-2.88,1.57-3.77.38l-17.42-23.21-12.05,20.88Z"/>
  <path class="cls-1" d="M142.59,62.62c-1.56,1.82-1.04,1.19-4.41,1.17.41-1.31,1.14-2.17,2.07-3.3-3.25-4.62-3.31-18.78,1.35-22.44,3.75-2.94,9.14-2.83,12.96-.68,1.08-1.49,2.53-1.09,4.39-.99-.41,1.11-.95,2.09-2.02,3.34,2.9,3.69,2.62,14.83,1.08,18.65s-5.04,6.19-9.38,5.92c-2.07-.13-4.1.07-6.06-1.67ZM144.54,53.51l7.17-11.19c-1.39-1.53-3.47-1.61-5.14-.78-2.92,1.46-3.35,10.35-2.03,11.97ZM151.42,58.06c2.26-2.32,1.57-8.76,1.59-11.8l-7.46,11.47c1.19,1.6,4.17,2.07,5.87.33Z"/>
  <path class="cls-1" d="M125.09,63.76c-2.16.16-4.19.13-6.21.03l-6.09-11.63-2.43-4.36-.08,16.03h-5.59s0-27.5,0-27.5l6.38.02,5.15,10,3.2,6,.07-16.02h5.59s0,27.43,0,27.43Z"/>
  <path class="cls-1" d="M224.19,36.34v27.49s-6.31-.03-6.31-.03l-8.35-15.97-.14,16h-5.58s0-27.49,0-27.49h6.29c.68,1.69,1.53,3.04,2.32,4.55l6.08,11.61.12-16.17h5.58Z"/>
  <path class="cls-1" d="M57.56,63.75l-6.15.13-3.78-7.31-4.72-9.13c-.56,1.97.12,3.73.19,5.6.14,3.6.07,7.03,0,10.64-1.99.3-3.63.14-5.53.12v-27.48s5.97,0,5.97,0l1.95,3.66,6.42,12.32.06-15.99h5.59s0,27.43,0,27.43Z"/>
  <path class="cls-1" d="M75,58.4c.29-1.77.09-2.97.12-4.51l-3.19-.05v-5.18s9.5.12,9.5.12l.14,11.93c-2.74,2.73-6.28,3.54-10.02,3.66-5.71.18-10-3.37-10.62-9.2-.33-3.16-.27-6.6-.02-9.8.45-5.74,4.44-9.77,10.23-9.54,2.86.11,5.75.47,7.9,2.57,1.67,1.63,2.02,3.85,2.26,6.15.08.81.74,2.37-.57,2.48-1.79.15-3.68.15-5.47-.09-.35-1.74.28-3.62-1.09-4.97s-4.58-1.26-5.85.25c-1.93,2.3-1.57,5.25-1.58,8.09-.01,2.67-.26,5.82,1.76,7.82,1.59,1.58,4.48,1.04,6.5.29Z"/>
  <path class="cls-1" d="M221.59,83.69c.33,4.71.78,13.12-3.79,16.03s-10.63,1.89-16.35,1.95l-.05-27.46,11.45.11c5.26.05,8.39,4.39,8.73,9.37ZM215.44,91.29c.77-2.67.27-5.01-.05-7.45-.3-2.31-1.52-4.15-4.04-4.4-1.26-.13-2.57-.02-3.95,0v17.08c1.97.17,3.86.1,5.61-.78,1.54-.77,2.39-2.6,2.43-4.45Z"/>
  <path class="cls-1" d="M126.78,101.71h-6.4s-3.74-9.85-3.74-9.85c-1.01-.16-1.76-.17-2.76-.02l.02,9.8c-1.86.2-3.77.21-5.97-.04l-.05-27.38,10.04-.03c2.57,0,5.5.72,7.13,2.82,2.64,3.42,2.53,12.2-2.67,13.9l4.39,10.79ZM118.97,86.33c1.64-.76,1.84-2.52,1.74-3.91-.07-.99-.71-2.61-2.06-2.91-1.57-.36-3.12.04-4.76-.12v7.22c1.66-.27,3.55.43,5.08-.28Z"/>
  <path class="cls-1" d="M172.28,101.78l-3.95-9.71c-.26-.65-1.84-.25-2.45-.24l-.14,9.77c-1.86.18-5.09.43-6.11-.23-.31-.2.19-.51.19-.9l.04-26.28c4.14.2,8.2-.29,12.14.2,5.33.66,6.81,5.26,6.44,9.91-.24,2.91-1.39,5.36-4.3,6.69l4.3,10.56c-1.94.44-3.75.07-6.15.23ZM171.63,80.22c-.47-.51-1.24-.84-2.18-.83l-3.61.04v7.15c1.52-.02,2.9.12,4.34-.05,3.04-.37,2.18-5.51,1.45-6.31Z"/>
  <path class="cls-1" d="M260.58,95.9l-.04-4.11-3.57-.04v-5.18s9.51.11,9.51.11l.06,12.15c-4.54,4.07-14.41,4.65-17.82.4-3.86-4.81-3.62-14.95-1.78-19.78,1.7-4.46,5.6-5.78,10.02-5.78,4.98,0,9.08,2.69,9.38,8.04.04.81.51,1.84.15,2.88l-5.89-.03c-.14-1.67,0-3.51-1.29-4.78-1.56-1.55-4.87-1.31-6.15.54-2.05,2.98-1.82,12.03-.21,14.7s5.38,2.35,7.64.87Z"/>
  <path class="cls-1" d="M104.89,101.59c-2.23.35-4.07.12-6.22.12l-3.9-9.63c-.24-.58-2.22-.55-2.42.03l-.14,9.46c-2.05.36-3.87.13-5.89.15v-27.53c7,.61,17.7-2.66,18.4,7.17.78,3.41-.39,8.03-4.11,9.65l4.28,10.58ZM98.1,80.22c-.47-.51-1.24-.84-2.18-.83l-3.61.04v7.15c1.52-.02,2.9.12,4.34-.05,3.04-.37,2.18-5.51,1.45-6.31Z"/>
  <path class="cls-1" d="M170.6,53.98c-1.05.37-1.7.07-2.65.01l-.12,9.84h-5.16c-.32,0-.48-.26-.64-.36-.32-.2.2-.51.2-.9v-24.98c0-.29-.34-.56-.29-.7.08-.18.31-.61.75-.6,3.66.13,7.4-.2,10.88.17,4.95.52,7.4,4,7.18,8.64-.16,3.26-.74,6.57-4.25,8.08l4.2,10.51c-1.98.36-3.89.02-6.28.2l-3.82-9.91ZM174.74,45.25c.08-1.89-.7-3.35-2.61-3.68-1.37-.23-2.76-.01-4.29-.06l.12,7.34c1.39.61,2.7.07,3.98,0,2.02-.12,2.71-1.39,2.81-3.59Z"/>
  <path class="cls-1" d="M265.38,50.67c2.39,3.05,2.23,7.95-.36,10.79-3.41,3.75-13.62,4.41-16.81-1.25-.99-1.76-1.29-3.88-1.25-5.92l6.03-.02c-.12,1.46.04,2.72.87,3.69s2.15,1.12,3.5,1.16c1.92.05,3.27-.97,3.62-2.71.3-1.47-.89-3.14-2.68-3.49-5.33-1.05-11.15-1.33-11.02-8.63.07-3.54,1.65-6.59,5.22-7.72,3.3-1.05,7.24-1.05,10.42.59,2.62,1.36,3.62,4.27,3.75,7.04.03.6.72,1.76-.23,1.95-1.73.35-3.62.06-5.38.12-.41-1.55-.23-3.18-1.43-4.31-1.39-1.31-4.25-1.28-5.69.1-.79.75-.92,3.12-.24,3.82,2.17,2.24,8.82,1.11,11.7,4.78Z"/>
  <path class="cls-1" d="M61.39,101.55c-2.45.44-4.35.13-6.55.18l-4.82-10.99c-.84,1.01-1.76,1.94-2.2,2.86.06,2.64.34,5.24,0,8.01-2.03.27-3.83.12-5.86.11v-27.48s5.98-.02,5.98-.02l.15,9.76,6.13-9.72,7.11.02-7.7,10.9,7.77,16.36Z"/>
  <path class="cls-1" d="M76.34,95.83l-6.29-.04-1.39,5.94h-6.42s1.02-4.29,1.02-4.29l5.71-23.11,8.27-.09,6.85,27.46-6.21.03-1.54-5.9ZM75.26,90.41c-1.05-3.15-1.22-5.85-2.02-8.82l-2.22,8.95c1.67,0,2.83.23,4.24-.13Z"/>
  <path class="cls-1" d="M236.92,95.84l-6.27-.04-1.61,5.93-6.18-.02,6.82-27.47h8.23s6.75,27.47,6.75,27.47c-2.22.02-4.2.19-6.29-.1l-1.46-5.78ZM235.92,90.45l-2.32-8.58-1.9,8.67c1.54.02,2.61.2,4.22-.09Z"/>
  <path class="cls-1" d="M199.02,52.26l-9.18.02-.03,6.29,11.06.19c.31,1.78.15,3.34.13,5.09h-17.16s0-27.54,0-27.54l17.05-.02c.26,1.58.21,3.24-.01,5.11l-11.03.1v5.57s9.17,0,9.17,0v5.18Z"/>
  <path class="cls-1" d="M196.62,90.17l-9.19.02v6.38s11.16,0,11.16,0c0,1.76.17,3.28-.14,5.14h-16.98s-.05-27.48-.05-27.48l17.06-.02c.26,1.58.21,3.24-.01,5.11l-11.03.1v5.57s9.17,0,9.17,0v5.18Z"/>
  <path class="cls-1" d="M242.98,52.26l-9.18.02-.04,6.29,11.03.19c.32,1.7.33,3.27,0,5.03l-16.99.07v-27.55s16.84.01,16.84.01c.62,1.56.43,3.29.15,5.09l-10.98.1v5.57s9.17,0,9.17,0v5.18Z"/>
  <polygon class="cls-1" points="99.91 52.26 90.72 52.28 90.72 58.66 101.49 58.66 101.48 63.85 84.72 63.85 84.72 36.31 101.48 36.31 101.49 41.5 90.73 41.5 90.73 47.08 99.9 47.09 99.91 52.26"/>
  <path class="cls-1" d="M154.94,90.07l-9.47.13v6.37s11.17,0,11.17,0v5.19s-16.77,0-16.77,0v-27.53s16.66-.02,16.66-.02c.26,1.58.21,3.24-.02,5.11l-11.03.11-.04,5.47,9.43.21c.33,1.59.27,3.02.07,4.96Z"/>
  <rect class="cls-1" x="129.88" y="74.22" width="5.99" height="27.53"/>
  <rect class="cls-1" x="27.57" y="36.31" width="5.99" height="27.53"/>
  <rect class="cls-1" x="128.68" y="36.31" width="5.99" height="27.53"/>
  <path class="cls-2" d="M341.34,58.02c-.63,3.19-3.91,5.05-6.65,5.1-3.11.05-6.2-2.11-6.88-5.26-.89-4.1,1.46-7.62,5.45-8.56,3.31-.78,7.61,1.44,8.09,5.31.1.85.16,2.51-.02,3.42Z"/>
</svg>