<svg xmlns="http://www.w3.org/2000/svg" width="273" height="106.113" viewBox="0 0 273 106.113">
  <g id="Group_984" data-name="Group 984" transform="translate(-129.472 -287.481)">
    <path id="Path_2" data-name="Path 2" d="M162.085,346.33h-4.362V333.665l-9.309,11.474a3.248,3.248,0,0,1-5.1,0l-9.479-11.551v12.727l-4.362.016v-17.6a2.049,2.049,0,0,1,.656-1.609,2.442,2.442,0,0,1,1.695-.588,2.937,2.937,0,0,1,2.38,1.052l11.706,13.854,11.43-13.871a2.862,2.862,0,0,1,2.318-1.065,2.412,2.412,0,0,1,1.748.656,2.275,2.275,0,0,1,.681,1.71Z" transform="translate(0 47.202)" fill="#0b1761"/>
    <path id="Path_3" data-name="Path 3" d="M154.677,326.415h0l.914,1.295Z" transform="translate(30.485 47.091)" fill="#0b1761"/>
    <path id="Path_4" data-name="Path 4" d="M162.555,327.836a2.812,2.812,0,0,0-2.428-1.33,2.87,2.87,0,0,0-2.444,1.343l-13.036,18.542h5.135l3.526-5.135h0l6.662-9.68,6.834,9.68h0l.913,1.295.111.157,2.6,3.683h4.9Z" transform="translate(18.354 47.202)" fill="#0b1761"/>
    <path id="Path_5" data-name="Path 5" d="M175.342,346.415H170.98V326.436h4.362Z" transform="translate(50.205 47.117)" fill="#0b1761"/>
    <path id="Path_6" data-name="Path 6" d="M198.358,343.842q0,2.615-2.15,2.614a3.776,3.776,0,0,1-2.475-1.021L178.473,332.46v14l-4.362-.015v-17.5q0-2.522,2.088-2.521a4.149,4.149,0,0,1,2.722,1.129l15.06,12.8V326.415h4.377Z" transform="translate(53.992 47.092)" fill="#0b1761"/>
    <path id="Path_7" data-name="Path 7" d="M211.713,330.21h-8.876v16.145h-4.346V330.21h-8.845v-3.725h22.067Z" transform="translate(72.782 47.176)" fill="#0b1761"/>
    <path id="Path_8" data-name="Path 8" d="M222.363,346.247h-13.98A12.287,12.287,0,0,1,203.1,345.2a4.418,4.418,0,0,1-2.861-4.114v-9.34a4.449,4.449,0,0,1,2.97-4.189,12.8,12.8,0,0,1,5.473-1.067h13.686v3.725H208.894q-4.328,0-4.328,1.531v2.83h17.8v3.758H204.6v2.629q0,1.528,3.942,1.529h13.825Z" transform="translate(85.59 47.176)" fill="#0b1761"/>
    <path id="Path_9" data-name="Path 9" d="M229.447,346.391h-6.014l-7.762-7.561v7.561h-4.284V326.443h4.284v7.314l7.762-7.314h6.014l-11.056,9.618Z" transform="translate(99.077 47.125)" fill="#0b1761"/>
    <path id="Path_10" data-name="Path 10" d="M244.507,343.842q0,2.615-2.15,2.614a3.766,3.766,0,0,1-2.472-1.021L224.622,332.46v14l-4.362-.015v-17.5q0-2.522,2.088-2.521a4.148,4.148,0,0,1,2.722,1.129l15.06,12.8V326.415h4.377Z" transform="translate(109.81 47.092)" fill="#0b1761"/>
    <path id="Path_11" data-name="Path 11" d="M236.7,346.415h-4.362V326.436H236.7Z" transform="translate(124.424 47.117)" fill="#0b1761"/>
    <path id="Path_12" data-name="Path 12" d="M253.632,346.391h-6.014l-7.764-7.561v7.561h-4.282V326.443h4.282v7.314l7.764-7.314h6.014l-11.056,9.618Z" transform="translate(128.329 47.125)" fill="#0b1761"/>
    <path id="Path_13" data-name="Path 13" d="M262.916,346.391H256.9l-7.762-7.561v7.561h-4.284V326.443h4.284v7.314l7.762-7.314h6.017l-11.059,9.618Z" transform="translate(139.556 47.125)" fill="#0b1761"/>
    <g id="Group_2" data-name="Group 2" transform="translate(234.243 287.481)">
      <path id="Path_14" data-name="Path 14" d="M189.321,300.329c2.3-7.075,8.038-12.157,19.013-12.778-.749-.042-1.5-.071-2.269-.071-16.114,0-29.175,9.594-29.175,21.43,0,.115.009.228.011.342A31.608,31.608,0,0,1,189.321,300.329Z" transform="translate(-176.89 -287.481)" fill="#050c2f"/>
    </g>
    <g id="Group_3" data-name="Group 3" transform="translate(244.071 312.385)">
      <path id="Path_15" data-name="Path 15" d="M181.446,311.384a35.669,35.669,0,0,0,19.238,5.327c.765,0,1.52-.029,2.269-.071-13.471-.762-19.051-8.241-20.074-17.888a29.3,29.3,0,0,0-1.542,9.806C181.338,309.486,181.371,310.432,181.446,311.384Z" transform="translate(-181.338 -298.752)" fill="#050c2f"/>
    </g>
    <g id="Group_4" data-name="Group 4" transform="translate(266.257 287.481)">
      <path id="Path_16" data-name="Path 16" d="M222.812,309.254c0-.115.011-.228.011-.342,0-11.836-13.06-21.43-29.175-21.43-.764,0-1.52.029-2.269.071,10.973.621,16.708,5.7,19.011,12.778A31.616,31.616,0,0,1,222.812,309.254Z" transform="translate(-191.379 -287.481)" fill="#050c2f"/>
    </g>
    <g id="Group_5" data-name="Group 5" transform="translate(266.257 312.385)">
      <path id="Path_17" data-name="Path 17" d="M211.45,298.752c-1.023,9.647-6.6,17.126-20.071,17.888.749.042,1.5.071,2.269.071a35.675,35.675,0,0,0,19.238-5.327c.075-.952.108-1.9.108-2.826A29.251,29.251,0,0,0,211.45,298.752Z" transform="translate(-191.379 -298.752)" fill="#050c2f"/>
    </g>
    <path id="Path_18" data-name="Path 18" d="M187.765,318.382q-.056-1.021-.057-2.064a28.555,28.555,0,0,1,2.45-12.278c3.093-6.5,9.364-11.01,20.213-11.624-.837-.046-1.684-.08-2.539-.08A41.709,41.709,0,0,0,191,295.765a29.43,29.43,0,0,0-11.927,9.192,19.088,19.088,0,0,0-3.891,11.359c0,13.246,14.616,23.984,32.648,23.984.855,0,1.7-.033,2.539-.08C194.458,339.322,188.386,330.044,187.765,318.382Z" transform="translate(55.29 5.872)" fill="#0b1761"/>
    <path id="Path_19" data-name="Path 19" d="M222.688,304.957a29.423,29.423,0,0,0-11.929-9.192,41.7,41.7,0,0,0-16.828-3.429c-.855,0-1.7.033-2.541.08,10.849.614,17.122,5.124,20.213,11.626a28.506,28.506,0,0,1,2.453,12.276c0,.7-.022,1.383-.057,2.064-.623,11.662-6.695,20.94-22.608,21.839.84.046,1.686.08,2.541.08,18.03,0,32.646-10.738,32.646-23.984A19.1,19.1,0,0,0,222.688,304.957Z" transform="translate(74.891 5.872)" fill="#0b1761"/>
    <path id="Path_20" data-name="Path 20" d="M183.288,346.338l-13.255-7.322H175.1a12.486,12.486,0,0,0,5.254-.974,4.276,4.276,0,0,0,2.811-4.079v-2.271a4.428,4.428,0,0,0-3.058-4.264,14.279,14.279,0,0,0-5.639-.957H158.985v19.868h4.357V341.3h0v-6.065h0v-5.042h11.649q3.818,0,3.818,1.421v2.38q0,1.3-3.045,1.3H164.655v5.1l10.707,5.944Z" transform="translate(35.697 47.158)" fill="#0b1761"/>
  </g>
</svg>
