<svg width="464" height="180" viewBox="0 0 464 180" fill="none" xmlns="http://www.w3.org/2000/svg">
<mask id="mask0_12254_455" style="mask-type:luminance" maskUnits="userSpaceOnUse" x="10" y="0" width="404" height="54">
<path d="M413.5 0H10V54H413.5V0Z" fill="white"/>
</mask>
<g mask="url(#mask0_12254_455)">
<path d="M106.068 27.0299C108.018 27.5275 116.636 29.0203 116.636 39.1913C116.636 51.8105 105.035 54.0199 90.6061 54.0199C82.6313 54.0199 74.3055 53.5621 71.1272 53.1242C69.6258 52.9053 69.1774 52.348 69.1774 50.8153V9.27534C69.1774 8.63841 68.9239 8.28013 68.2025 8.28013H63.6983C62.9379 8.28013 62.6259 8.1408 62.5089 7.32473C62.3724 6.54847 62.2944 5.47365 62.2944 4.2993C62.2944 3.12495 62.3724 2.05013 62.5089 1.27387C62.6454 0.457796 62.9574 0.338371 63.6983 0.338371H69.1774C69.1774 0.338371 80.6619 0 90.0992 0C102.305 0 114.18 0.81607 114.18 13.9727C114.18 22.1533 108.779 24.1438 106.088 25.139C105.776 25.2385 105.6 25.2783 105.6 25.6764V26.4924C105.6 26.9104 105.776 26.9502 106.088 27.0299M80.9934 7.60339C80.233 7.70291 79.9795 7.96167 79.9795 8.77774V22.1931C79.9795 22.8301 80.233 23.1884 80.9544 23.1884H90.6061C99.3219 23.1884 103.612 21.8349 103.612 15.2466C103.612 8.65831 99.3219 7.28492 90.6061 7.28492C86.8039 7.28492 82.7678 7.38444 80.9934 7.60339ZM105.659 38.5544C105.659 32.6826 102.325 30.4136 92.283 30.4136H80.9544C80.233 30.4136 79.9795 30.7718 79.9795 31.4088V45.063C79.9795 45.8393 80.194 46.098 80.9544 46.2374C82.9432 46.5558 88.5588 46.6952 92.283 46.6952C102.325 46.6952 105.659 44.446 105.659 38.5544Z" fill="#009BAC"/>
<path d="M130.773 8.28013H126.249C125.508 8.28013 125.196 8.1408 125.06 7.32473C124.923 6.56838 124.845 5.47365 124.845 4.2993C124.845 3.12495 124.943 2.05013 125.06 1.27387C125.196 0.457796 125.508 0.318467 126.249 0.318467H131.748C131.748 0.318467 141.711 0 151.714 0C166.864 0 177.042 2.48802 177.042 16.9584C177.042 26.2735 171.017 30.6126 166.786 32.0457C166.435 32.185 166.299 32.3642 166.299 32.6229C166.299 32.8021 166.396 33.0409 166.513 33.2201L179.928 51.5717C180.455 52.2882 180.494 53.2436 179.304 53.4228C178.193 53.6019 176.301 53.6815 174.352 53.6815C172.402 53.6815 170.374 53.5422 169.399 53.4228C168.366 53.2436 167.937 53.1441 167.313 52.2882L155.926 35.927C155.438 35.2105 155.009 35.0313 153.976 35.0313C151.324 35.0313 143.876 34.7527 143.447 34.7129C142.745 34.7129 142.53 35.0313 142.53 35.7479V51.7508C142.53 52.8058 142.355 53.2038 141.243 53.383C140.171 53.5621 138.806 53.7014 137.129 53.7014C135.452 53.7014 134.068 53.5621 133.054 53.383C131.943 53.2038 131.767 52.8058 131.767 51.7508V9.27534C131.767 8.63841 131.514 8.28013 130.792 8.28013M151.909 7.56358C148.594 7.56358 144.87 7.70291 143.505 7.88205C142.745 7.98157 142.53 8.20052 142.53 9.0564V25.9152C142.53 26.7711 142.745 26.99 143.505 27.0896C144.87 27.2687 148.594 27.408 151.909 27.408C159.747 27.408 166.065 26.2735 166.065 17.4759C166.065 8.67822 159.728 7.56358 151.909 7.56358Z" fill="#009BAC"/>
<path d="M207.85 45.461H213.505C214.265 45.461 214.577 45.6003 214.694 46.4164C214.831 47.1728 214.909 48.2675 214.909 49.4418C214.909 50.6162 214.811 51.691 214.694 52.4673C214.558 53.2833 214.246 53.4227 213.505 53.4227H189.463C188.703 53.4227 188.391 53.2833 188.274 52.4673C188.138 51.691 188.06 50.6162 188.06 49.4418C188.06 48.2675 188.157 47.1728 188.274 46.4164C188.411 45.6003 188.723 45.461 189.463 45.461H195.118C195.839 45.461 196.093 45.1027 196.093 44.4658V9.27523C196.093 8.6383 195.839 8.28002 195.118 8.28002H189.463C188.703 8.28002 188.391 8.1407 188.274 7.32463C188.138 6.56827 188.06 5.47354 188.06 4.29919C188.06 3.12485 188.157 2.05002 188.274 1.27376C188.411 0.457689 188.723 0.318359 189.463 0.318359H213.505C214.265 0.318359 214.577 0.457689 214.694 1.27376C214.831 2.05002 214.909 3.12485 214.909 4.29919C214.909 5.47354 214.811 6.56827 214.694 7.32463C214.558 8.1407 214.246 8.28002 213.505 8.28002H207.85C207.149 8.28002 206.876 8.6383 206.876 9.27523V44.4658C206.876 45.1027 207.149 45.461 207.85 45.461Z" fill="#009BAC"/>
<path d="M280.814 10.3104H280.248C279.8 10.3104 279.663 10.4497 279.488 10.8876L266.599 43.2916C266.073 44.6451 265.585 44.864 264.084 44.864H255.856C254.354 44.864 253.867 44.6451 253.34 43.2916L240.472 10.8876C240.296 10.4298 240.16 10.3104 239.711 10.3104H239.146C238.756 10.3104 238.522 10.4895 238.483 10.9473L236.396 52.2086C236.357 53.0247 236.123 53.3432 235.207 53.4825C234.232 53.6218 232.497 53.7014 230.82 53.7014C229.357 53.7014 227.856 53.6019 226.979 53.5223C226.004 53.383 225.828 53.0247 225.867 52.3082L229.357 2.22927C229.455 0.696654 230.02 0.338379 231.385 0.338379H244.586C246.087 0.338379 246.575 0.557325 247.101 1.91081L259.229 33.1006C259.404 33.5584 259.541 33.6381 259.989 33.6381H260.574C261.023 33.6381 261.14 33.5385 261.315 33.1006L273.443 1.91081C273.97 0.557325 274.457 0.338379 275.959 0.338379H288.613C289.978 0.338379 290.602 0.696654 290.699 2.22927L294.19 52.4276C294.229 53.0645 294.014 53.383 293.078 53.5223C292.181 53.6616 290.641 53.7014 289.101 53.7014C287.463 53.7014 285.727 53.6616 284.811 53.5223C283.797 53.383 283.622 53.0645 283.563 52.3082L281.477 10.9672C281.438 10.5094 281.223 10.3303 280.814 10.3303" fill="#009BAC"/>
<path d="M363.993 8.28013H359.47C358.729 8.28013 358.417 8.1408 358.28 7.32473C358.144 6.56838 358.066 5.47365 358.066 4.2993C358.066 3.12495 358.144 2.05013 358.28 1.27387C358.417 0.457796 358.729 0.318467 359.47 0.318467H364.968C364.968 0.318467 374.932 0 384.935 0C400.085 0 410.263 2.48802 410.263 16.9584C410.263 26.2735 404.238 30.6126 400.007 32.0457C399.656 32.185 399.52 32.3642 399.52 32.6229C399.52 32.8021 399.617 33.0409 399.734 33.2201L413.149 51.5717C413.675 52.2882 413.714 53.2436 412.525 53.4228C411.414 53.6019 409.522 53.6815 407.572 53.6815C405.623 53.6815 403.595 53.5422 402.62 53.4228C401.606 53.2436 401.157 53.1441 400.533 52.2882L389.146 35.927C388.659 35.2105 388.23 35.0313 387.197 35.0313C384.545 35.0313 377.116 34.7527 376.667 34.7129C375.946 34.7129 375.731 35.0313 375.731 35.7479V51.7508C375.731 52.8058 375.556 53.2038 374.445 53.383C373.372 53.5621 372.007 53.7014 370.33 53.7014C368.654 53.7014 367.269 53.5621 366.255 53.383C365.144 53.2038 364.968 52.8058 364.968 51.7508V9.27534C364.968 8.63841 364.695 8.28013 363.993 8.28013ZM385.11 7.56358C381.795 7.56358 378.071 7.70291 376.706 7.88205C375.946 7.98157 375.731 8.20052 375.731 9.0564V25.9152C375.731 26.7711 375.946 26.99 376.706 27.0896C378.071 27.2687 381.795 27.408 385.11 27.408C392.949 27.408 399.266 26.2735 399.266 17.4759C399.266 8.67822 392.929 7.56358 385.11 7.56358Z" fill="#009BAC"/>
<path d="M319.459 20.621V9.2557C319.459 8.61877 319.713 8.2605 320.434 8.2605H349.253C350.013 8.2605 350.325 8.12117 350.442 7.3051C350.579 6.52883 350.657 5.45401 350.657 4.27966C350.657 3.10532 350.559 2.01059 350.442 1.25423C350.306 0.438157 349.994 0.298828 349.253 0.298828H310.744C309.359 0.298828 308.716 0.716816 308.716 2.28924V20.6011H319.479L319.459 20.621Z" fill="#009BAC"/>
<path d="M351.651 46.4161C351.515 45.6001 351.203 45.4607 350.462 45.4607H320.454C319.752 45.4607 319.479 45.1025 319.479 44.4655V31.1297C319.479 30.871 319.537 30.6719 319.635 30.5127H308.716V51.432C308.716 53.0044 309.379 53.4224 310.763 53.4224H350.462C351.222 53.4224 351.534 53.2831 351.651 52.467C351.788 51.7106 351.866 50.6159 351.866 49.4416C351.866 48.2672 351.768 47.1924 351.651 46.4161Z" fill="#009BAC"/>
<path d="M336.15 25.457C336.15 28.2436 333.927 30.5127 331.198 30.5127C328.468 30.5127 326.245 28.2436 326.245 25.457C326.245 22.6704 328.468 20.4014 331.198 20.4014C333.927 20.4014 336.15 22.6704 336.15 25.457Z" fill="#009BAC"/>
<path d="M48.6654 27.01C48.6654 29.9757 46.3061 32.3642 43.4204 32.3642C40.5346 32.3642 38.1753 29.9558 38.1753 27.01C38.1753 24.0642 40.5346 21.6558 43.4204 21.6558C46.3061 21.6558 48.6654 24.0642 48.6654 27.01Z" fill="#009BAC"/>
<path d="M31.9357 27.0097C31.9357 29.438 30.0053 31.4085 27.6265 31.4085C25.2477 31.4085 23.3174 29.438 23.3174 27.0097C23.3174 24.5814 25.2477 22.6108 27.6265 22.6108C30.0053 22.6108 31.9357 24.5814 31.9357 27.0097Z" fill="#009BAC"/>
<path d="M17.1949 27.0099C17.1949 29.0401 15.5765 30.6922 13.5877 30.6922C11.5989 30.6922 10 29.0202 10 27.0099C10 24.9996 11.6184 23.3276 13.6072 23.3276C15.596 23.3276 17.2144 24.9797 17.2144 27.0099" fill="#009BAC"/>
</g>
<path d="M114.313 122.192C109.585 122.192 106.009 119 106.009 113.6C106.009 108.224 109.537 105.008 114.313 105.008C118.345 105.008 121.129 107.48 121.465 110.912H118.657C118.321 108.872 116.641 107.432 114.313 107.432C111.121 107.432 108.841 109.736 108.841 113.6C108.841 117.464 111.145 119.768 114.313 119.768C116.641 119.768 118.417 118.184 118.729 116.12H121.537C121.153 119.528 118.393 122.192 114.313 122.192ZM123.72 122V105.008H126.48V122H123.72ZM135.507 122.192C131.451 122.192 128.883 119.36 128.883 115.352C128.883 111.344 131.643 108.512 135.435 108.512C139.611 108.512 142.203 111.728 141.675 115.856H131.619C131.787 118.4 133.347 119.864 135.507 119.864C137.259 119.864 138.483 119.024 138.795 117.68H141.627C141.075 120.2 138.939 122.192 135.507 122.192ZM131.739 113.768H138.843C138.795 111.896 137.427 110.72 135.435 110.72C133.491 110.72 132.171 111.8 131.739 113.768ZM148.166 122.192C145.334 122.192 143.558 120.728 143.558 118.4C143.558 115.976 145.286 114.464 149.174 114.032L152.366 113.672V113.312C152.366 111.68 151.142 110.72 149.39 110.72C147.638 110.72 146.462 111.68 146.27 113.288H143.582C143.942 110.552 146.246 108.512 149.39 108.512C152.726 108.512 155.102 110.384 155.102 113.624V122H152.366V120.032C151.766 121.328 150.086 122.192 148.166 122.192ZM146.318 118.304C146.318 119.312 147.23 120.008 148.526 120.008C150.782 120.008 152.366 118.496 152.366 115.856V115.76L149.222 116.12C147.254 116.336 146.318 117.128 146.318 118.304ZM158.056 122V108.704H160.816V110.72C161.608 109.472 163.336 108.512 165.256 108.512C168.088 108.512 170.224 110.384 170.224 113.216V122H167.464V113.888C167.464 112.112 166.36 110.96 164.632 110.96C162.4 110.96 160.816 112.688 160.816 116.024V122H158.056ZM181.197 122L176.445 108.704H179.421L182.589 118.328L185.733 108.704H188.349L191.493 118.328L194.637 108.704H197.541L192.765 122H190.125L187.005 112.688L183.837 122H181.197ZM202.94 122.192C200.108 122.192 198.332 120.728 198.332 118.4C198.332 115.976 200.06 114.464 203.948 114.032L207.14 113.672V113.312C207.14 111.68 205.916 110.72 204.164 110.72C202.412 110.72 201.236 111.68 201.044 113.288H198.356C198.716 110.552 201.02 108.512 204.164 108.512C207.5 108.512 209.876 110.384 209.876 113.624V122H207.14V120.032C206.54 121.328 204.86 122.192 202.94 122.192ZM201.092 118.304C201.092 119.312 202.004 120.008 203.3 120.008C205.556 120.008 207.14 118.496 207.14 115.856V115.76L203.996 116.12C202.028 116.336 201.092 117.128 201.092 118.304ZM217.538 122.168C215.162 122.168 213.386 120.704 213.386 117.968V110.936H211.418V108.704H213.386V105.944H216.122V108.704H219.074V110.936H216.122V117.728C216.122 119.072 216.842 119.792 217.898 119.792C218.33 119.792 218.858 119.672 219.266 119.528V121.856C218.762 122.048 218.21 122.168 217.538 122.168ZM226.937 122.192C222.881 122.192 220.313 119.36 220.313 115.352C220.313 111.344 223.073 108.512 226.865 108.512C231.041 108.512 233.633 111.728 233.105 115.856H223.049C223.217 118.4 224.777 119.864 226.937 119.864C228.689 119.864 229.913 119.024 230.225 117.68H233.057C232.505 120.2 230.369 122.192 226.937 122.192ZM223.169 113.768H230.273C230.225 111.896 228.857 110.72 226.865 110.72C224.921 110.72 223.601 111.8 223.169 113.768ZM235.564 122V108.704H238.324V110.816C238.996 109.472 240.628 108.512 242.26 108.512C242.836 108.512 243.412 108.608 243.844 108.776V111.416C243.316 111.224 242.764 111.104 242.092 111.104C240.004 111.104 238.324 113 238.324 117.032V122H235.564ZM254.703 122.192C251.559 122.192 249.423 120.416 249.255 117.68H251.943C252.063 119.096 253.095 119.936 254.703 119.936C256.143 119.936 257.031 119.24 257.031 118.136C257.031 115.28 249.615 117.104 249.615 112.232C249.615 110.12 251.487 108.512 254.247 108.512C257.295 108.512 259.191 110.024 259.431 112.568H256.767C256.575 111.368 255.687 110.696 254.271 110.696C253.071 110.696 252.255 111.248 252.255 112.136C252.255 114.704 259.719 112.832 259.719 118.064C259.719 120.56 257.655 122.192 254.703 122.192ZM268.144 122.192C264.184 122.192 261.328 119.36 261.328 115.352C261.328 111.344 264.184 108.512 268.144 108.512C272.104 108.512 274.96 111.344 274.96 115.352C274.96 119.36 272.104 122.192 268.144 122.192ZM268.144 119.816C270.496 119.816 272.176 117.992 272.176 115.352C272.176 112.712 270.496 110.864 268.144 110.864C265.768 110.864 264.112 112.712 264.112 115.352C264.112 117.992 265.768 119.816 268.144 119.816ZM277.33 122V105.008H280.09V122H277.33ZM288.036 122.192C285.204 122.192 283.068 120.32 283.068 117.152V108.704H285.828V116.672C285.828 118.592 287.004 119.744 288.708 119.744C291.06 119.744 292.5 117.704 292.5 114.44V108.704H295.26V122H292.5V119.816C291.756 121.136 290.124 122.192 288.036 122.192ZM303.272 122.168C300.896 122.168 299.12 120.704 299.12 117.968V110.936H297.152V108.704H299.12V105.944H301.856V108.704H304.808V110.936H301.856V117.728C301.856 119.072 302.576 119.792 303.632 119.792C304.064 119.792 304.592 119.672 305 119.528V121.856C304.496 122.048 303.944 122.168 303.272 122.168ZM307.001 122V108.704H309.761V122H307.001ZM308.393 107C307.433 107 306.713 106.328 306.713 105.392C306.713 104.456 307.433 103.76 308.393 103.76C309.353 103.76 310.073 104.456 310.073 105.392C310.073 106.328 309.353 107 308.393 107ZM318.956 122.192C314.996 122.192 312.14 119.36 312.14 115.352C312.14 111.344 314.996 108.512 318.956 108.512C322.916 108.512 325.772 111.344 325.772 115.352C325.772 119.36 322.916 122.192 318.956 122.192ZM318.956 119.816C321.308 119.816 322.988 117.992 322.988 115.352C322.988 112.712 321.308 110.864 318.956 110.864C316.58 110.864 314.924 112.712 314.924 115.352C314.924 117.992 316.58 119.816 318.956 119.816ZM328.142 122V108.704H330.902V110.72C331.694 109.472 333.422 108.512 335.342 108.512C338.174 108.512 340.31 110.384 340.31 113.216V122H337.55V113.888C337.55 112.112 336.446 110.96 334.718 110.96C332.486 110.96 330.902 112.688 330.902 116.024V122H328.142ZM347.914 122.192C344.77 122.192 342.634 120.416 342.466 117.68H345.154C345.274 119.096 346.306 119.936 347.914 119.936C349.354 119.936 350.242 119.24 350.242 118.136C350.242 115.28 342.826 117.104 342.826 112.232C342.826 110.12 344.698 108.512 347.458 108.512C350.506 108.512 352.402 110.024 352.642 112.568H349.978C349.786 111.368 348.898 110.696 347.482 110.696C346.282 110.696 345.466 111.248 345.466 112.136C345.466 114.704 352.93 112.832 352.93 118.064C352.93 120.56 350.866 122.192 347.914 122.192ZM127.803 150.472V148.24H138.699V150.472H127.803ZM146.821 157V140.2H153.541C156.829 140.2 158.989 142.192 158.989 145.192C158.989 148.24 156.829 150.208 153.541 150.208H149.629V157H146.821ZM153.253 147.808C155.029 147.808 156.181 146.776 156.181 145.192C156.181 143.632 155.029 142.624 153.253 142.624H149.629V147.808H153.253ZM161.021 157V143.704H163.781V145.816C164.453 144.472 166.085 143.512 167.717 143.512C168.293 143.512 168.869 143.608 169.301 143.776V146.416C168.773 146.224 168.221 146.104 167.549 146.104C165.461 146.104 163.781 148 163.781 152.032V157H161.021ZM176.609 157.192C172.649 157.192 169.793 154.36 169.793 150.352C169.793 146.344 172.649 143.512 176.609 143.512C180.569 143.512 183.425 146.344 183.425 150.352C183.425 154.36 180.569 157.192 176.609 157.192ZM176.609 154.816C178.961 154.816 180.641 152.992 180.641 150.352C180.641 147.712 178.961 145.864 176.609 145.864C174.233 145.864 172.577 147.712 172.577 150.352C172.577 152.992 174.233 154.816 176.609 154.816ZM190.479 157.168C188.103 157.168 186.327 155.704 186.327 152.968V145.936H184.359V143.704H186.327V140.944H189.063V143.704H192.015V145.936H189.063V152.728C189.063 154.072 189.783 154.792 190.839 154.792C191.271 154.792 191.799 154.672 192.207 154.528V156.856C191.703 157.048 191.151 157.168 190.479 157.168ZM199.878 157.192C195.822 157.192 193.254 154.36 193.254 150.352C193.254 146.344 196.014 143.512 199.806 143.512C203.982 143.512 206.574 146.728 206.046 150.856H195.99C196.158 153.4 197.718 154.864 199.878 154.864C201.63 154.864 202.854 154.024 203.166 152.68H205.998C205.446 155.2 203.31 157.192 199.878 157.192ZM196.11 148.768H203.214C203.166 146.896 201.798 145.72 199.806 145.72C197.862 145.72 196.542 146.8 196.11 148.768ZM214.409 157.192C210.569 157.192 207.761 154.336 207.761 150.352C207.761 146.344 210.569 143.512 214.409 143.512C217.745 143.512 220.121 145.36 220.505 148.36H217.721C217.409 146.872 216.113 145.864 214.409 145.864C212.201 145.864 210.545 147.688 210.545 150.352C210.545 153.016 212.225 154.816 214.409 154.816C216.233 154.816 217.601 153.76 217.817 152.32H220.625C220.313 155.104 217.937 157.192 214.409 157.192ZM227.604 157.168C225.228 157.168 223.452 155.704 223.452 152.968V145.936H221.484V143.704H223.452V140.944H226.188V143.704H229.14V145.936H226.188V152.728C226.188 154.072 226.908 154.792 227.964 154.792C228.396 154.792 228.924 154.672 229.332 154.528V156.856C228.828 157.048 228.276 157.168 227.604 157.168ZM237.003 157.192C232.947 157.192 230.379 154.36 230.379 150.352C230.379 146.344 233.139 143.512 236.931 143.512C241.107 143.512 243.699 146.728 243.171 150.856H233.115C233.283 153.4 234.843 154.864 237.003 154.864C238.755 154.864 239.979 154.024 240.291 152.68H243.123C242.571 155.2 240.435 157.192 237.003 157.192ZM233.235 148.768H240.339C240.291 146.896 238.923 145.72 236.931 145.72C234.987 145.72 233.667 146.8 233.235 148.768ZM251.318 157.192C247.526 157.192 244.91 154.504 244.91 150.352C244.91 146.2 247.526 143.512 251.294 143.512C253.166 143.512 254.894 144.376 255.734 145.624V140.008H258.494V157H255.734V155.104C254.894 156.328 253.19 157.192 251.318 157.192ZM251.726 154.816C254.078 154.816 255.734 153.016 255.734 150.352C255.734 147.688 254.078 145.864 251.726 145.864C249.35 145.864 247.694 147.688 247.694 150.352C247.694 153.016 249.35 154.816 251.726 154.816ZM267.779 142.984C267.779 140.296 269.411 138.76 271.739 138.76C272.459 138.76 273.203 138.88 273.539 139.024V141.376C273.179 141.208 272.723 141.112 272.291 141.112C271.235 141.112 270.539 141.832 270.539 143.152V143.704H273.491V145.936H270.539V157H267.779V145.936H265.691V143.704H267.779V142.984ZM280.929 157.192C276.969 157.192 274.113 154.36 274.113 150.352C274.113 146.344 276.969 143.512 280.929 143.512C284.889 143.512 287.745 146.344 287.745 150.352C287.745 154.36 284.889 157.192 280.929 157.192ZM280.929 154.816C283.281 154.816 284.961 152.992 284.961 150.352C284.961 147.712 283.281 145.864 280.929 145.864C278.553 145.864 276.897 147.712 276.897 150.352C276.897 152.992 278.553 154.816 280.929 154.816ZM290.115 157V143.704H292.875V145.816C293.547 144.472 295.179 143.512 296.811 143.512C297.387 143.512 297.963 143.608 298.395 143.776V146.416C297.867 146.224 297.315 146.104 296.643 146.104C294.555 146.104 292.875 148 292.875 152.032V157H290.115ZM304.646 157V140.008H307.406V157H304.646ZM310.529 157V143.704H313.289V157H310.529ZM311.921 142C310.961 142 310.241 141.328 310.241 140.392C310.241 139.456 310.961 138.76 311.921 138.76C312.881 138.76 313.601 139.456 313.601 140.392C313.601 141.328 312.881 142 311.921 142ZM317.42 142.984C317.42 140.296 319.052 138.76 321.38 138.76C322.1 138.76 322.844 138.88 323.18 139.024V141.376C322.82 141.208 322.364 141.112 321.932 141.112C320.876 141.112 320.18 141.832 320.18 143.152V143.704H323.132V145.936H320.18V157H317.42V145.936H315.332V143.704H317.42V142.984ZM330.402 157.192C326.346 157.192 323.778 154.36 323.778 150.352C323.778 146.344 326.538 143.512 330.33 143.512C334.506 143.512 337.098 146.728 336.57 150.856H326.514C326.682 153.4 328.242 154.864 330.402 154.864C332.154 154.864 333.378 154.024 333.69 152.68H336.522C335.97 155.2 333.834 157.192 330.402 157.192ZM326.634 148.768H333.738C333.69 146.896 332.322 145.72 330.33 145.72C328.386 145.72 327.066 146.8 326.634 148.768Z" fill="#009BAC"/>
</svg>
