<?xml version="1.0" encoding="UTF-8"?>
<svg version="1.1" xmlns="http://www.w3.org/2000/svg" width="1601" height="701">
<path d="M0 0 C19.47 0 38.94 0 59 0 C66.10705939 20.09279754 73.18020403 40.19644763 80.18823242 60.32397461 C80.82209022 62.14437289 81.45596074 63.96476674 82.08984375 65.78515625 C82.56377815 67.14630806 82.56377815 67.14630806 83.04728699 68.53495789 C85.08553293 74.38535902 87.13247206 80.23265273 89.18528748 86.07795715 C90.58099389 90.05255069 91.97431911 94.02797723 93.36752319 98.00344849 C94.03449456 99.90447749 94.70262999 101.80509852 95.37197876 103.70529175 C96.30047577 106.34154491 97.22488327 108.97919943 98.1484375 111.6171875 C98.42373795 112.39537338 98.69903839 113.17355927 98.98268127 113.97532654 C100.25817698 117.63092315 101.37537371 121.16409319 102 125 C102.66 125 103.32 125 104 125 C104.25942383 123.72519775 104.51884766 122.45039551 104.78613281 121.13696289 C105.95715534 115.88291795 107.63199223 110.87976721 109.421875 105.80859375 C109.7584613 104.84200333 110.09504761 103.8754129 110.4418335 102.87953186 C111.53972419 99.73047678 112.64475628 96.58398105 113.75 93.4375 C114.51800689 91.23973312 115.28558005 89.04181462 116.05273438 86.84375 C117.61238982 82.37774228 119.1750071 77.91278839 120.74023438 73.44873047 C122.80732841 67.55272975 124.86595667 61.65381143 126.921875 55.75390625 C131.9991322 41.19206282 137.09702132 26.63800686 142.3125 12.125 C142.67988281 11.10212891 143.04726563 10.07925781 143.42578125 9.02539062 C145.87107387 2.25785226 145.87107387 2.25785226 147 0 C166.47 0 185.94 0 206 0 C206 63.36 206 126.72 206 192 C190.49 192 174.98 192 159 192 C158.67 156.03 158.34 120.06 158 83 C153.05 97.52 148.1 112.04 143 127 C140.34469447 134.65013807 137.68695238 142.29856742 135 149.9375 C133.81054538 153.32093214 132.62286492 156.70497656 131.4375 160.08984375 C131.15632324 160.8919931 130.87514648 161.69414246 130.58544922 162.52059937 C128.0432572 169.80696494 125.61196154 177.12940924 123.22045898 184.46653748 C122.94403564 185.30717239 122.6676123 186.14780731 122.3828125 187.01391602 C122.01760498 188.13419945 122.01760498 188.13419945 121.64501953 189.27711487 C121 191 121 191 120 192 C117.47905924 192.08847743 114.98569107 192.11527301 112.46484375 192.09765625 C111.33496788 192.09553383 111.33496788 192.09553383 110.18226624 192.09336853 C107.7673044 192.08775376 105.35243399 192.07519883 102.9375 192.0625 C101.30403779 192.0574869 99.67057414 192.05292366 98.03710938 192.04882812 C94.02470415 192.03777954 90.01236759 192.02050506 86 192 C82.38867109 184.3164439 79.65103496 176.41117974 76.96484375 168.37109375 C76.48165405 166.93590312 75.99804769 165.5008527 75.51405334 164.06593323 C74.24047576 160.28688929 72.97189396 156.50618829 71.70458984 152.72503662 C69.70418826 146.75964429 67.69553563 140.79702334 65.68808174 134.83400154 C65.00753947 132.81054119 64.32873143 130.78650795 63.65037537 128.76231384 C58.5165703 113.47882935 53.24166669 98.24848492 48 83 C47.67 118.97 47.34 154.94 47 192 C31.49 192 15.98 192 0 192 C0 128.64 0 65.28 0 0 Z " fill="#08435A" transform="translate(162,386)"/>
<path d="M0 0 C7.37033844 5.51623767 12.41474967 11.47409982 16 20 C16 20.66 16 21.32 16 22 C16.66 22 17.32 22 18 22 C18.20625 21.175 18.4125 20.35 18.625 19.5 C22.5114508 9.60721614 30.96340218 1.68808949 40.4375 -2.875 C53.56328096 -8.3044665 66.4740948 -8.16777606 80 -4 C83.58373268 -2.30093949 86.77744087 -0.30270988 90 2 C91.3303125 2.86625 91.3303125 2.86625 92.6875 3.75 C102.04366641 12.85329705 107.5551531 26.10215634 108.08854866 39.16926193 C108.12288342 41.79487683 108.12365253 44.41861086 108.11352539 47.04443359 C108.11367142 48.04017395 108.11381744 49.03591431 108.1139679 50.06182861 C108.11327333 53.34072069 108.10550227 56.61955539 108.09765625 59.8984375 C108.09579045 62.17672698 108.09436731 64.45501686 108.09336853 66.73330688 C108.08955611 72.72065342 108.0797367 78.70797558 108.06866455 84.6953125 C108.05662138 91.88401282 108.05204212 99.07272131 108.04621124 106.26142883 C108.03652427 117.17430283 108.01735876 128.08712336 108 139 C92.82 139 77.64 139 62 139 C61.94392578 129.41130859 61.94392578 129.41130859 61.88671875 119.62890625 C61.85642678 115.56833291 61.82527084 111.50780275 61.79101562 107.44726562 C61.73677982 101.00856757 61.6856662 94.56995493 61.65356445 88.13110352 C61.62746953 82.93733846 61.58702329 77.74386174 61.53681374 72.5502758 C61.52018685 70.57328833 61.50864664 68.59625104 61.50238609 66.61920357 C61.49269947 63.8403139 61.46458607 61.06215501 61.43237305 58.28344727 C61.43380814 57.47423828 61.43524323 56.6650293 61.4367218 55.83129883 C61.32438234 48.93541568 60.06142361 42.63404128 55.75 37.125 C50.83781551 33.32922108 46.16677568 31.43963087 39.98046875 31.71484375 C32.81153874 32.74705655 28.64119683 36.67404844 24.3125 42.125 C19.68047498 52.27134052 20.65637297 64.32035784 20.5859375 75.23046875 C20.56719596 77.07563616 20.5476204 78.92079527 20.5272522 80.76594543 C20.47624016 85.58756585 20.43645027 90.40921396 20.39910889 95.23095703 C20.35178124 101.03488403 20.29031773 106.83867696 20.23126221 112.6424942 C20.14342769 121.42827442 20.07339343 130.21403388 20 139 C5.15 139 -9.7 139 -25 139 C-25.03738281 132.93109375 -25.07476563 126.8621875 -25.11328125 120.609375 C-25.14358803 116.74476428 -25.17475362 112.88019811 -25.20898438 109.015625 C-25.26313286 102.89325313 -25.3142492 96.77096937 -25.34643555 90.6484375 C-25.37261018 85.70752299 -25.41311092 80.76690753 -25.46318626 75.8261795 C-25.47975979 73.94936111 -25.49133289 72.07249111 -25.49761391 70.19561005 C-25.04902239 52.99554253 -25.04902239 52.99554253 -31.25 37.4375 C-35.97917604 33.24573032 -40.57064826 31.41383696 -46.95703125 31.72265625 C-52.35719939 32.45575747 -56.50593191 34.07735217 -60.3125 38.0625 C-67.62612623 48.00699351 -66.47308029 60.25617707 -66.51171875 72.0078125 C-66.52858595 73.94409306 -66.5467389 75.88036281 -66.56611633 77.81661987 C-66.61340089 82.88322571 -66.64334918 87.94978768 -66.66955566 93.01654053 C-66.70474112 99.11164328 -66.76169201 105.2065777 -66.81494904 111.30154419 C-66.89321001 120.53434072 -66.94400684 129.76692072 -67 139 C-82.18 139 -97.36 139 -113 139 C-113 91.81 -113 44.62 -113 -4 C-97.82 -4 -82.64 -4 -67 -4 C-66.67 4.58 -66.34 13.16 -66 22 C-64.35 18.7 -62.7 15.4 -61 12 C-53.8428475 1.9613965 -44.95489316 -3.95609432 -32.9375 -6.53125 C-21.75937938 -8.31499265 -9.53184926 -6.38559433 0 0 Z " fill="#08435A" transform="translate(949,439)"/>
<path d="M0 0 C1.83274925 1.58810625 3.3918554 3.17743611 5 5 C5.33 1.04 5.66 -2.92 6 -7 C21.18 -7 36.36 -7 52 -7 C52.04526356 11.14232959 52.08205685 29.28461048 52.10362434 47.42698097 C52.11390764 55.85205746 52.12791118 64.27709619 52.15087891 72.70214844 C52.17090349 80.05113737 52.18373781 87.40009894 52.18817699 94.74911439 C52.19076912 98.63516211 52.19679925 102.5211316 52.21146011 106.40715408 C52.22518786 110.07609439 52.22919248 113.74492538 52.22621536 117.41388893 C52.22701498 119.37929821 52.23769616 121.344696 52.24884033 123.31007385 C52.20741125 141.47763863 49.39588834 158.0300306 37 172 C20.13580776 188.62956 -2.89842337 192.2333491 -25.56616211 192.18066406 C-45.19297481 191.99145852 -64.3678208 187.89514899 -79.0625 174.06640625 C-87.85721391 164.68656017 -90 153.49297235 -90 141 C-76.8 141 -63.6 141 -50 141 C-48.35 143.97 -46.7 146.94 -45 150 C-35.2055248 156.02736935 -23.85747191 156.45303073 -12.68359375 154.38671875 C-5.15530972 152.00991698 -0.81408509 147.8716957 3.08984375 141.11328125 C6.37708666 133.40265157 5.238852 124.20058543 5 116 C4.47792969 116.51949219 3.95585938 117.03898437 3.41796875 117.57421875 C-8.73227895 129.08609967 -21.92653807 131.55210013 -38.08203125 131.2421875 C-53.28365425 130.65939611 -66.11622268 124.14985423 -76.4921875 113.078125 C-92.82789652 93.02744166 -94.1630695 66.95775703 -91.71582031 42.11523438 C-89.18171981 25.11705892 -80.68713767 10.45491721 -67.26953125 -0.16015625 C-47.29220789 -13.73781758 -19.66839843 -14.29431931 0 0 Z M-42.53515625 37.09375 C-49.27921565 45.8700193 -50.7638006 56.25519476 -49.53125 67.08203125 C-47.87082847 76.20214067 -43.74773003 83.85153377 -36.1328125 89.34765625 C-29.0794059 93.57061857 -22.05395992 93.671952 -14 93 C-7.83539729 91.38260049 -2.06758769 87.93776814 2 83 C8.03373075 72.37062977 10.06138136 60.72704522 6.875 48.75 C4.12515937 40.84742062 -0.40300656 33.87633477 -8 30 C-20.16799563 25.24372547 -33.65643886 27.23315092 -42.53515625 37.09375 Z " fill="#08435A" transform="translate(706,178)"/>
<path d="M0 0 C1.24608032 0.00737183 1.24608032 0.00737183 2.51733398 0.01489258 C16.89250538 0.28839813 28.23496326 5.49968753 38.625 15.3125 C38.955 11.3525 39.285 7.3925 39.625 3.3125 C54.475 3.3125 69.325 3.3125 84.625 3.3125 C84.71556322 22.2025935 84.78913422 41.09250913 84.83224869 59.9827652 C84.85280642 68.75535396 84.88079587 77.52779748 84.92675781 86.30029297 C84.96683489 93.95327628 84.99248204 101.60615432 85.00135398 109.25923967 C85.00653371 113.30529864 85.01856316 117.35105666 85.04792023 121.39701843 C85.07542081 125.21871071 85.08337657 129.03998307 85.07743073 132.86176491 C85.0790263 134.90555354 85.10036523 136.94929827 85.12268066 138.9929657 C85.05002377 155.62720311 80.95171757 170.82854282 69.3125 183.1875 C51.1716634 200.16389101 26.14107985 203.1130104 2.38378906 202.44873047 C-13.31709747 201.67341236 -28.8238539 198.24470616 -41.375 188.3125 C-41.98859375 187.83554687 -42.6021875 187.35859375 -43.234375 186.8671875 C-50.1951298 180.7380273 -54.58438913 171.26555436 -56.375 162.3125 C-56.375 158.6825 -56.375 155.0525 -56.375 151.3125 C-43.175 151.3125 -29.975 151.3125 -16.375 151.3125 C-15.055 153.9525 -13.735 156.5925 -12.375 159.3125 C-4.31797309 166.11621162 5.62576055 166.04812404 15.62207031 165.51220703 C22.68766285 164.80771475 28.8415572 161.43761728 33.625 156.3125 C37.87522053 148.93269586 38.793765 141.87330585 38.6875 133.4375 C38.68298828 132.74914062 38.67847656 132.06078125 38.67382812 131.3515625 C38.66216336 129.67183665 38.64423271 127.99215625 38.625 126.3125 C38.18671875 126.74820313 37.7484375 127.18390625 37.296875 127.6328125 C26.91679281 137.37996285 14.94689855 141.71949663 0.875 141.625 C-0.00607422 141.61936035 -0.88714844 141.6137207 -1.79492188 141.60791016 C-17.47054452 141.31708762 -30.5606882 135.94149482 -41.90234375 125.0078125 C-56.8203253 108.7465056 -60.20697079 86.74764731 -59.66015625 65.46875 C-58.91920503 48.82679947 -54.80440031 33.56507132 -44.375 20.3125 C-43.74851562 19.4771875 -43.12203125 18.641875 -42.4765625 17.78125 C-31.93823286 5.40165087 -15.8220628 -0.11168515 0 0 Z M-7.99609375 45.5625 C-15.57934637 55.18657131 -17.12271148 65.4460419 -16.375 77.3125 C-15.01990496 85.4086187 -11.5752049 93.15405208 -4.90234375 98.171875 C3.47930916 103.35640257 11.59438026 104.96325371 21.38671875 102.6640625 C29.06987163 99.91083467 34.23164081 95.35217459 38 88.125 C42.15833117 79.24786693 41.89857999 67.58066176 39.9765625 58.12109375 C36.82030832 49.50209196 30.85717461 43.19560123 22.625 39.3125 C12.32950226 36.10463965 0.07705921 38.20236055 -7.99609375 45.5625 Z " fill="#08435A" transform="translate(1353.375,167.6875)"/>
<path d="M0 0 C15.51 0 31.02 0 47 0 C47.33 27.06 47.66 54.12 48 82 C52.455 76.555 52.455 76.555 57 71 C58.82642936 68.82751034 60.65852668 66.65975266 62.5 64.5 C67.40681946 58.72575262 72.22031538 52.88004367 77 47 C82.23789344 40.55626059 87.5338025 34.16983338 92.90917969 27.84082031 C97.34061698 22.61550762 101.6773113 17.3155324 106 12 C107.66584542 9.9576632 109.33249599 7.91598283 111 5.875 C111.7425 4.96492188 112.485 4.05484375 113.25 3.1171875 C114.13277792 2.04918385 115.02022231 0.97977769 116 0 C117.71865409 -0.0935919 119.44115744 -0.11744611 121.16235352 -0.11352539 C122.26341934 -0.11344986 123.36448517 -0.11337433 124.49891663 -0.11329651 C125.6968132 -0.10813522 126.89470978 -0.10297394 128.12890625 -0.09765625 C129.34827377 -0.0962413 130.5676413 -0.09482635 131.82395935 -0.09336853 C135.7368307 -0.08774967 139.64964581 -0.07519396 143.5625 -0.0625 C146.20768147 -0.05748743 148.85286383 -0.0529241 151.49804688 -0.04882812 C157.99871726 -0.03777411 164.49935461 -0.02101764 171 0 C169.24096357 2.97269873 167.5384618 5.72190982 165.25 8.3125 C164.46955322 9.20316162 164.46955322 9.20316162 163.67333984 10.11181641 C163.1211377 10.73491699 162.56893555 11.35801758 162 12 C160.8248888 13.34059208 159.65042012 14.68174761 158.4765625 16.0234375 C157.89036133 16.69213867 157.30416016 17.36083984 156.70019531 18.04980469 C154.22943697 20.8838681 151.79814797 23.75021324 149.375 26.625 C148.9310791 27.1514209 148.4871582 27.6778418 148.02978516 28.22021484 C147.13685005 29.2794587 146.2441083 30.33886558 145.3515625 31.3984375 C143.9668453 33.03928736 142.57781109 34.67638805 141.1875 36.3125 C136.9537243 41.29738213 132.7437889 46.29415822 128.625 51.375 C125.00271885 55.82819869 121.27063669 60.17286185 117.5 64.5 C113.5360387 69.06112799 109.5741801 73.62270841 105.6875 78.25 C104.96949219 79.10078125 104.25148438 79.9515625 103.51171875 80.828125 C101.71435964 82.96934529 101.71435964 82.96934529 102 86 C103.03515431 87.83210891 103.03515431 87.83210891 104.5 89.7109375 C105.04946289 90.45061768 105.59892578 91.19029785 106.16503906 91.95239258 C106.77057617 92.75185303 107.37611328 93.55131348 108 94.375 C108.62358398 95.20990967 109.24716797 96.04481934 109.88964844 96.9050293 C115.3129133 104.14658017 120.81624694 111.32801201 126.31640625 118.51123047 C130.36333951 123.80858753 134.30307046 129.15960486 138.13378906 134.61450195 C141.95235441 140.01411787 145.97687268 145.25187753 150 150.5 C155.3320305 157.45815456 160.55612577 164.46348427 165.60546875 171.62890625 C168.85927254 176.23949786 172.22942407 180.76601651 175.59887695 185.29248047 C179 189.89185956 179 189.89185956 179 191 C171.56837307 191.46023697 164.14045691 191.7730529 156.69775391 191.98876953 C154.17292094 192.07874634 151.64901189 192.20119496 149.12744141 192.35791016 C128.77685251 193.59005899 128.77685251 193.59005899 122.49908447 189.28494263 C118.23067119 185.13628716 115.13441472 180.40073312 112.25637817 175.21839905 C110.4446642 172.01943822 108.3073935 169.14418366 106.125 166.1875 C105.33360308 165.06805293 104.54430611 163.94711617 103.7578125 162.82421875 C99.62649981 157.02816558 95.24106378 151.41931829 90.9074707 145.77416992 C86.14878262 139.5581513 81.5587304 133.25563767 77.11328125 126.8125 C74.95001101 123.93347121 72.60442999 121.48127831 70 119 C69.72760498 119.59079346 69.45520996 120.18158691 69.17456055 120.7902832 C68.02835472 122.94665589 66.82515275 124.53711237 65.20703125 126.35546875 C64.38428711 127.29036133 64.38428711 127.29036133 63.54492188 128.24414062 C62.97322266 128.88544922 62.40152344 129.52675781 61.8125 130.1875 C60.1056607 132.1094369 58.41217806 134.03395823 56.76049805 136.00366211 C55 138 55 138 53.04614258 139.70141602 C47.02897256 145.60341754 47.20718165 152.14700435 47.04434204 160.11151123 C47.02506753 163.26178767 47.0461155 166.4122072 47.0625 169.5625 C47.041875 176.636875 47.02125 183.71125 47 191 C31.49 191 15.98 191 0 191 C0 127.97 0 64.94 0 0 Z " fill="#08435A" transform="translate(162,122)"/>
<path d="M0 0 C15.18 0 30.36 0 46 0 C46.33 20.46 46.66 40.92 47 62 C49.64 59.36 52.28 56.72 55 54 C58.125 51.9765625 58.125 51.9765625 61 50.625 C62.423125 49.93277344 62.423125 49.93277344 63.875 49.2265625 C79.26541418 43.18582493 95.9568955 44.84097264 110.91796875 51.25 C126.41617508 58.94445505 135.91509182 72.16134195 142 88 C149.44163529 110.94504213 148.90079111 138.67036413 138.25 160.5 C130.62042393 175.07537774 119.7261104 185.49377567 104 191 C88.667059 195.3909577 73.63155036 195.59554238 59.125 188.3125 C53.95964088 185.31008775 50.64604432 181.69934601 47 177 C46.67 181.62 46.34 186.24 46 191 C30.82 191 15.64 191 0 191 C0 127.97 0 64.94 0 0 Z M52.63671875 92.02734375 C43.67628566 102.82691107 42.92075379 115.63440326 44 129 C45.62445554 137.47501662 49.09439651 145.02055817 55.8828125 150.52734375 C62.28711941 154.85966902 69.2413422 156.78901605 77 156 C86.23705507 153.68380151 92.3157385 149.48085858 98.3125 142.1875 C104.05748763 131.33585671 104.74928575 118.57841827 102.30859375 106.609375 C99.11695894 97.04782469 94.06399809 91.1004475 85.3671875 86.12890625 C74.19957817 80.80309916 61.51778576 83.93294468 52.63671875 92.02734375 Z " fill="#08435A" transform="translate(897,122)"/>
<path d="M0 0 C7.70397449 6.93791324 12.6509147 16.75517669 13.20507908 27.19253254 C13.20415729 27.99172706 13.20323549 28.79092157 13.20228577 29.61433411 C13.20434776 31.00035828 13.20434776 31.00035828 13.20645142 32.41438293 C13.20285614 33.41563705 13.19926086 34.41689117 13.19555664 35.44848633 C13.19570267 36.51235565 13.19584869 37.57622498 13.19599915 38.67233276 C13.19530325 42.18391977 13.18752593 45.69545353 13.1796875 49.20703125 C13.17782217 51.64369172 13.17639881 54.08035257 13.17539978 56.51701355 C13.17158364 62.92688026 13.16176103 69.33672428 13.1506958 75.74658203 C13.14046229 82.28873386 13.135898 88.83088935 13.13085938 95.37304688 C13.12013798 108.20704282 13.10254845 121.04101597 13.08203125 133.875 C-1.43796875 133.875 -15.95796875 133.875 -30.91796875 133.875 C-31.24796875 126.615 -31.57796875 119.355 -31.91796875 111.875 C-32.88734375 113.545625 -33.85671875 115.21625 -34.85546875 116.9375 C-41.10735409 126.74388467 -50.39096292 132.77092032 -61.64526367 135.46264648 C-75.96142999 138.06013331 -92.13493751 136.64200499 -104.41796875 128.5625 C-112.53930231 122.2917654 -117.70757339 115.0054013 -119.91796875 104.875 C-121.04147454 91.44716875 -120.74923103 79.48756188 -112.04296875 68.625 C-97.67762812 53.86127309 -74.63371492 52.29441569 -55.29980469 49.44506836 C-52.87688307 49.08515541 -50.45606078 48.713047 -48.03515625 48.33984375 C-47.306987 48.23663315 -46.57881775 48.13342255 -45.82858276 48.02708435 C-41.37653296 47.33544533 -37.78742275 46.19719 -33.91796875 43.875 C-31.93972062 39.91850375 -32.49769841 35.18733917 -32.91796875 30.875 C-34.68931833 26.74185099 -36.50503752 24.78192107 -40.54296875 23 C-48.28158641 20.58796333 -56.68897854 21.10579888 -63.91796875 24.875 C-69.19669278 29.37873977 -69.19669278 29.37873977 -69.91796875 40.875 C-84.10796875 40.875 -98.29796875 40.875 -112.91796875 40.875 C-112.91796875 24.96077081 -112.87843549 14.43283119 -102.1015625 2.9375 C-79.32089042 -18.41650373 -24.56114265 -18.89945305 0 0 Z M-50.91796875 75.875 C-51.68947266 76.05111816 -52.46097656 76.22723633 -53.25585938 76.40869141 C-55.41679193 76.90747684 -57.57399726 77.41980445 -59.73046875 77.9375 C-60.99503906 78.23785156 -62.25960937 78.53820312 -63.5625 78.84765625 C-68.1292355 80.2458535 -71.04160359 81.6188766 -73.79296875 85.5625 C-75.21042993 89.73613569 -75.50293075 92.72272977 -73.91796875 96.875 C-71.41209363 100.50068807 -68.59445312 102.44830443 -64.32421875 103.53515625 C-55.59712571 104.60152857 -48.10537708 103.2994384 -40.77734375 98.375 C-37.18603764 95.47781188 -33.99007871 92.01921993 -31.91796875 87.875 C-31.84615054 85.15739892 -31.82497369 82.46640612 -31.85546875 79.75 C-31.85998047 78.99589844 -31.86449219 78.24179687 -31.86914062 77.46484375 C-31.88093376 75.60152873 -31.89886933 73.73825445 -31.91796875 71.875 C-38.01201809 71.875 -44.97325796 74.51490808 -50.91796875 75.875 Z " fill="#08435A" transform="translate(492.91796875,444.125)"/>
<path d="M0 0 C9.75482146 9.21288693 15.03288256 20.72131567 18.375 33.5 C18.61992188 34.42554688 18.86484375 35.35109375 19.1171875 36.3046875 C20.9825317 45.12035529 23.50392229 62.24215542 19.375 70.5 C-12.635 70.5 -44.645 70.5 -77.625 70.5 C-73.94250637 84.22700498 -73.94250637 84.22700498 -64.625 93.5 C-58.67118769 96.1266819 -53.73574106 97.05099161 -47.25 97 C-45.99981079 96.99250732 -45.99981079 96.99250732 -44.72436523 96.98486328 C-38.18206927 96.79970998 -32.80728407 95.76841892 -27.625 91.5 C-24.98714044 88.26862204 -23.49262055 85.23524109 -21.625 81.5 C-8.425 81.5 4.775 81.5 18.375 81.5 C16.15408991 97.04637062 9.12168764 109.21712488 -2.79296875 119.4296875 C-11.10237413 125.50414936 -20.55329513 129.45418495 -30.625 131.5 C-31.4809375 131.68304687 -32.336875 131.86609375 -33.21875 132.0546875 C-56.13032692 135.05000834 -78.85345588 131.59242022 -97.625 117.5 C-113.46595811 104.12112629 -119.5677517 86.31554227 -121.34765625 66.25390625 C-121.48494141 64.39572266 -121.48494141 64.39572266 -121.625 62.5 C-121.68558594 61.68402344 -121.74617188 60.86804688 -121.80859375 60.02734375 C-121.88082696 57.82210624 -121.78820719 55.70156081 -121.625 53.5 C-121.48771484 51.62441406 -121.48771484 51.62441406 -121.34765625 49.7109375 C-119.69564344 30.95294584 -113.6349432 14.24685791 -99.70703125 1.04296875 C-72.75484117 -21.19515006 -27.31376963 -22.15397606 0 0 Z M-70.5625 27.125 C-74.05413525 31.59026431 -77.625 37.68101671 -77.625 43.5 C-59.475 43.5 -41.325 43.5 -22.625 43.5 C-24.64372161 33.40639196 -25.91867251 29.30511585 -33.5625 23.125 C-45.07900673 17.01420051 -61.15112408 17.23304318 -70.5625 27.125 Z " fill="#08435A" transform="translate(1182.625,447.5)"/>
<path d="M0 0 C16.13581483 13.46918776 21.41244424 33.04574536 23.2265625 53.13525391 C23.73149919 59.71723315 23.46549038 65.60158898 22.37890625 72.12109375 C-9.96109375 72.12109375 -42.30109375 72.12109375 -75.62109375 72.12109375 C-71.27560639 87.37131358 -71.27560639 87.37131358 -60.55859375 96.49609375 C-51.45984118 100.77567062 -40.03155509 100.30876458 -30.70703125 97.01953125 C-23.47485263 93.90454795 -23.07880731 90.90094927 -19.62109375 83.12109375 C-6.09109375 83.12109375 7.43890625 83.12109375 21.37890625 83.12109375 C17.06664497 100.37013889 10.76122227 114.95983907 -4.77734375 124.59375 C-24.9825032 136.24716433 -48.2708476 137.73054583 -70.62109375 132.12109375 C-87.6516831 127.04538317 -101.37083444 117.08452732 -109.99145508 101.43969727 C-112.91257563 95.84952487 -115.05262766 90.22160132 -116.62109375 84.12109375 C-116.95753906 82.83138672 -116.95753906 82.83138672 -117.30078125 81.515625 C-121.6152725 61.03656721 -119.88963075 35.23716268 -108.80078125 17.15234375 C-97.52457294 1.05610914 -82.30479272 -8.62977807 -62.91015625 -12.37109375 C-41.01597233 -15.39798874 -18.3084585 -13.12424521 0 0 Z M-69.05859375 30.43359375 C-72.72407023 35.18936776 -74.62109375 40.0629158 -74.62109375 46.12109375 C-56.80109375 46.12109375 -38.98109375 46.12109375 -20.62109375 46.12109375 C-21.63743809 36.97399466 -22.65495652 32.98285894 -28.99609375 26.80859375 C-34.96714077 22.97006352 -39.92454057 21.55849169 -46.93359375 21.62109375 C-47.67907471 21.62681396 -48.42455566 21.63253418 -49.19262695 21.63842773 C-57.35984759 21.90177205 -63.40144701 24.44690448 -69.05859375 30.43359375 Z " fill="#08435A" transform="translate(1166.62109375,180.87890625)"/>
<path d="M0 0 C1.03447266 0.38285156 1.03447266 0.38285156 2.08984375 0.7734375 C11.91173948 5.01338457 19.62956319 13.36859849 24 23 C27.69844059 32.97746513 29.15577523 42.29969483 29.11352539 52.88256836 C29.11367142 53.84919403 29.11381744 54.8158197 29.1139679 55.81173706 C29.11327455 58.98779593 29.10550928 62.1637952 29.09765625 65.33984375 C29.09579002 67.54944324 29.09436708 69.75904314 29.09336853 71.96864319 C29.08955952 77.77020419 29.07974307 83.57173995 29.06866455 89.37329102 C29.0566121 96.34175342 29.05204049 103.31022429 29.04621124 110.27869415 C29.03653043 120.85248029 29.01736254 131.42621112 29 142 C13.82 142 -1.36 142 -17 142 C-17.02578125 135.77511719 -17.0515625 129.55023438 -17.078125 123.13671875 C-17.10331258 119.17639199 -17.12966023 115.21614015 -17.16015625 111.25585938 C-17.20837583 104.97973414 -17.25246386 98.7037825 -17.27099609 92.42749023 C-17.28621923 87.36332882 -17.32076469 82.29962372 -17.36830902 77.23566628 C-17.38306467 75.31057531 -17.39103765 73.38541917 -17.39188385 71.46027184 C-16.91953299 55.43385933 -16.91953299 55.43385933 -23.44683838 41.31352234 C-29.5592112 35.89827036 -35.23297592 35.39952235 -43.15234375 35.6171875 C-49.81951703 36.28052048 -54.6149246 38.73723616 -59.4375 43.3125 C-63.25473878 49.8781507 -64.44585424 55.52654488 -64.43237305 62.98632812 C-64.4425647 63.84581055 -64.45275635 64.70529297 -64.46325684 65.59082031 C-64.49321791 68.40436464 -64.50262678 71.21756757 -64.51171875 74.03125 C-64.52857797 75.99280921 -64.54672988 77.9543577 -64.56611633 79.91589355 C-64.61348737 85.05815276 -64.64338007 90.20036848 -64.66955566 95.34277344 C-64.70468578 101.52376194 -64.76166172 107.70458351 -64.81494904 113.88543701 C-64.89331163 123.25693644 -64.94403179 132.6282196 -65 142 C-80.18 142 -95.36 142 -111 142 C-111 95.14 -111 48.28 -111 0 C-95.82 0 -80.64 0 -65 0 C-64.505 12.375 -64.505 12.375 -64 25 C-62.35 21.7 -60.7 18.4 -59 15 C-52.21306251 5.74508524 -42.79949744 0.29883065 -31.7421875 -2.58984375 C-21.25119851 -4.15900877 -9.92266576 -3.86161273 0 0 Z " fill="#08435A" transform="translate(578,171)"/>
<path d="M0 0 C14.9378506 11.90060385 23.76767206 28.42474536 26.04101562 47.39941406 C28.06240864 69.63941641 25.4240398 91.70918822 11.25195312 109.72021484 C10.81496094 110.33251953 10.37796875 110.94482422 9.92773438 111.57568359 C-0.34493543 125.05663467 -18.28451387 131.96461921 -34.52148438 134.25146484 C-55.29287926 136.74971006 -76.89869139 132.60789313 -93.74804688 119.72021484 C-109.39567604 106.51954003 -116.41898662 89.66073155 -118.43554688 69.49755859 C-120.16067749 48.6450423 -116.19747844 27.81479696 -103.56445312 10.77490234 C-79.07194892 -18.10131773 -30.32683558 -22.20297097 0 0 Z M-68.28320312 33.80615234 C-75.95164731 43.82625274 -76.54323789 55.48941976 -75.74804688 67.72021484 C-74.48953843 76.6989852 -71.64060606 84.50717777 -64.63867188 90.53662109 C-57.78303844 95.44194502 -50.27090924 97.91614047 -41.74804688 96.72021484 C-33.35766297 94.66868613 -26.39797146 91.0589105 -21.43945312 83.80615234 C-15.17116739 72.27985404 -14.94518208 57.28549223 -18.18554688 44.78271484 C-20.86688772 37.27496047 -25.36476991 31.52347337 -32.09960938 27.21630859 C-44.37999225 21.47612963 -59.14821118 23.70392596 -68.28320312 33.80615234 Z " fill="#08435A" transform="translate(434.748046875,181.27978515625)"/>
<path d="M0 0 C8.68462124 6.97076809 12.79333018 16.81057093 15.55859375 27.33984375 C15.55859375 31.62984375 15.55859375 35.91984375 15.55859375 40.33984375 C3.01859375 40.33984375 -9.52140625 40.33984375 -22.44140625 40.33984375 C-23.43140625 37.03984375 -24.42140625 33.73984375 -25.44140625 30.33984375 C-30.57226212 24.86693083 -35.4906123 23.26985279 -42.81640625 23.02734375 C-48.07010492 23.15635681 -51.83431877 23.74312172 -56.44140625 26.33984375 C-58.34608525 29.63066088 -58.34608525 29.63066088 -58.44140625 33.33984375 C-56.77754176 37.64631655 -54.45986405 39.2736288 -50.44140625 41.33984375 C-47.8276978 42.0475431 -45.28915912 42.64815166 -42.640625 43.171875 C-41.08916473 43.49921636 -39.53773342 43.82669505 -37.98632812 44.15429688 C-35.57656709 44.65158768 -33.16604997 45.14480806 -30.75463867 45.6340332 C-22.17012327 47.38868216 -13.81699162 49.32092673 -5.59375 52.38671875 C-4.94572922 52.62771805 -4.29770844 52.86871735 -3.63005066 53.11701965 C1.92262199 55.28931347 6.30239412 58.20212505 10.55859375 62.33984375 C11.12964844 62.88382812 11.70070313 63.4278125 12.2890625 63.98828125 C19.44303368 71.51319908 21.94039848 81.62246243 21.76953125 91.7890625 C20.83204033 103.12575821 16.31815227 113.79689155 7.90625 121.6171875 C-2.33896141 129.13488838 -14.0941767 132.97431694 -26.44140625 135.33984375 C-27.61509766 135.56607422 -27.61509766 135.56607422 -28.8125 135.796875 C-47.98598263 138.60001574 -71.40958391 136.96010092 -87.87890625 126.08984375 C-98.15961533 118.14876448 -103.88335477 109.13010115 -106.44140625 96.33984375 C-106.44140625 92.37984375 -106.44140625 88.41984375 -106.44140625 84.33984375 C-93.24140625 84.33984375 -80.04140625 84.33984375 -66.44140625 84.33984375 C-65.12140625 87.63984375 -63.80140625 90.93984375 -62.44140625 94.33984375 C-57.30140739 99.61163746 -51.40147607 100.77777658 -44.29296875 101.3046875 C-38.72777094 101.37329953 -34.25046346 100.39512712 -29.44140625 97.58984375 C-26.9172454 94.7501628 -26.44140625 93.12801226 -26.44140625 89.33984375 C-27.08586972 86.48445291 -27.08586972 86.48445291 -29.44140625 84.33984375 C-38.47819012 80.67092358 -48.63364146 79.19046434 -58.12304688 77.12109375 C-69.83513751 74.4746977 -81.34077142 71.51838783 -90.44140625 63.33984375 C-91.06789063 62.79328125 -91.694375 62.24671875 -92.33984375 61.68359375 C-99.91130688 54.65523135 -102.8282792 46.48370291 -103.69921875 36.3359375 C-104.10622869 25.06176223 -101.76415345 14.91735528 -94.27734375 6.26171875 C-93.67148437 5.6275 -93.065625 4.99328125 -92.44140625 4.33984375 C-91.91804687 3.788125 -91.3946875 3.23640625 -90.85546875 2.66796875 C-68.25840411 -18.71657047 -24.37450464 -16.57466315 0 0 Z " fill="#08435A" transform="translate(869.44140625,179.66015625)"/>
<path d="M0 0 C15.18 0 30.36 0 46 0 C46 12.21 46 24.42 46 37 C54.91 37 63.82 37 73 37 C73 48.88 73 60.76 73 73 C64.09 73 55.18 73 46 73 C46.06764969 80.97333279 46.13807984 88.94577263 46.2355423 96.9186554 C46.28012755 100.63178433 46.31957807 104.34480239 46.34643555 108.05810547 C46.37252489 111.63744733 46.41296603 115.21637036 46.46318626 118.79545212 C46.47981715 120.15807239 46.49135493 121.52076505 46.49761391 122.88347244 C46.50729531 124.79824651 46.53708538 126.71288645 46.56762695 128.62744141 C46.57873001 129.71554108 46.58983307 130.80364075 46.60127258 131.92471313 C47.06707486 135.51733196 48.11025378 137.92006369 50 141 C55.34417764 144.16068009 60.32659372 144.51383403 66.4375 144.6875 C70.6759375 144.8421875 70.6759375 144.8421875 75 145 C75 155.89 75 166.78 75 178 C60.79714198 183.68114321 40.09378569 183.43739522 25.69921875 178.25390625 C15.10900569 173.33428484 7.42522409 166.28806376 3.0625 155.3125 C0.70983026 148.7808508 -0.12604027 142.82630898 -0.11352539 135.89306641 C-0.11367142 135.20944031 -0.11381744 134.52581421 -0.1139679 133.82147217 C-0.11327608 131.58146901 -0.10551822 129.34155097 -0.09765625 127.1015625 C-0.09578947 125.54072108 -0.09436679 123.97987908 -0.09336853 122.41903687 C-0.08956383 118.3255652 -0.07975116 114.23212943 -0.06866455 110.13867188 C-0.05840628 105.9557341 -0.05386147 101.77279049 -0.04882812 97.58984375 C-0.03812694 89.39321092 -0.02054685 81.19661407 0 73 C-7.92 73 -15.84 73 -24 73 C-24 61.12 -24 49.24 -24 37 C-16.08 37 -8.16 37 0 37 C0 24.79 0 12.58 0 0 Z " fill="#08435A" transform="translate(699,398)"/>
<path d="M0 0 C1 1 1 1 1.11352539 4.60180664 C1.11336625 6.20459856 1.10767063 7.8073956 1.09765625 9.41015625 C1.0962413 10.25219101 1.09482635 11.09422577 1.09336853 11.96177673 C1.08775263 14.66205335 1.07519748 17.36224828 1.0625 20.0625 C1.05748705 21.88867068 1.05292379 23.71484266 1.04882812 25.54101562 C1.03777804 30.02737542 1.02050279 34.51367384 1 39 C0.0867395 39.01401855 0.0867395 39.01401855 -0.8449707 39.02832031 C-16.97703889 38.93669698 -16.97703889 38.93669698 -32 44 C-32.79277344 44.43828125 -33.58554687 44.8765625 -34.40234375 45.328125 C-43.09706568 51.0570932 -47.45179935 61.19548761 -49.57759094 71.12646484 C-50.50418085 77.42980665 -50.36542708 83.83169323 -50.4140625 90.19140625 C-50.43280261 91.74797052 -50.45237808 93.30452493 -50.4727478 94.86106873 C-50.52377507 98.92976026 -50.56355682 102.99848463 -50.60089111 107.06732178 C-50.64820667 111.96430189 -50.70967683 116.86112288 -50.76873779 121.75797272 C-50.85659098 129.17191653 -50.92661155 136.58583541 -51 144 C-66.18 144 -81.36 144 -97 144 C-97 96.81 -97 49.62 -97 1 C-81.82 1 -66.64 1 -51 1 C-50.505 15.355 -50.505 15.355 -50 30 C-48.2675 26.2875 -48.2675 26.2875 -46.5 22.5 C-41.32568583 11.94647985 -35.19433463 5.24494646 -24 1 C-16.08287788 -1.61291159 -8.18633782 -1.12718699 0 0 Z " fill="#08435A" transform="translate(612,434)"/>
<path d="M0 0 C1.30066406 -0.00257813 2.60132813 -0.00515625 3.94140625 -0.0078125 C7.4375 0.125 7.4375 0.125 11.4375 1.125 C11.4375 13.995 11.4375 26.865 11.4375 40.125 C5.1675 40.125 -1.1025 40.125 -7.5625 40.125 C-18.80534237 42.81559475 -26.87165162 46.47083882 -33.5625 56.125 C-37.6148099 64.15669907 -39.656113 71.2255882 -39.76782227 80.21020508 C-39.77772186 80.90343872 -39.78762146 81.59667236 -39.79782104 82.31091309 C-39.82925875 84.58875177 -39.85412284 86.86661127 -39.87890625 89.14453125 C-39.89949112 90.72922794 -39.92048799 92.31391933 -39.94187927 93.89860535 C-39.99694171 98.05943495 -40.04642045 102.22031279 -40.09472656 106.38122559 C-40.1539144 111.37901815 -40.22005488 116.37672298 -40.28502655 121.37444305 C-40.38283679 128.95790823 -40.47182899 136.54143097 -40.5625 144.125 C-55.7425 144.125 -70.9225 144.125 -86.5625 144.125 C-86.5625 97.265 -86.5625 50.405 -86.5625 2.125 C-71.3825 2.125 -56.2025 2.125 -40.5625 2.125 C-40.2325 11.365 -39.9025 20.605 -39.5625 30.125 C-38.386875 27.629375 -37.21125 25.13375 -36 22.5625 C-30.44894208 11.31972285 -24.36287143 5.91588649 -12.5625 1.125 C-8.37606004 -0.02234407 -4.32747174 -0.00859478 0 0 Z " fill="#08435A" transform="translate(1283.5625,168.875)"/>
<path d="M0 0 C15.18 0 30.36 0 46 0 C46 47.19 46 94.38 46 143 C30.82 143 15.64 143 0 143 C0 95.81 0 48.62 0 0 Z " fill="#08435A" transform="translate(782,435)"/>
<path d="M0 0 C14.85 0 29.7 0 45 0 C45 47.19 45 94.38 45 143 C30.15 143 15.3 143 0 143 C0 95.81 0 48.62 0 0 Z " fill="#08435A" transform="translate(623,435)"/>
<path d="M0 0 C6.00363353 3.49553663 9.36269175 8.10503354 11.875 14.5 C13.47581526 23.46456546 12.32985937 30.54082765 7.4375 38.25 C1.9000114 44.11515065 -4.69202691 46.31592313 -12.625 46.5625 C-21.03309502 46.20722838 -25.69397459 44.20823096 -31.375 38.0625 C-36.61506198 31.9328461 -36.95256475 26.31566857 -36.8046875 18.4453125 C-36.10939797 10.58319245 -32.45245981 6.45041296 -26.59765625 1.4453125 C-18.96089572 -3.81651505 -8.31570881 -3.74774737 0 0 Z " fill="#08435A" transform="translate(657.5,376)"/>
<path d="M0 0 C5.82485779 3.51996782 10.54466582 8.98962934 12.5625 15.5 C13.36764105 23.33608208 13.68710392 31.11922577 8.5625 37.5 C3.75801361 42.54521222 -0.59927055 46.10562995 -7.70703125 46.8359375 C-16.23583438 46.92997061 -21.93740953 46.53550624 -28.3671875 40.76953125 C-33.7349991 35.19012542 -36.00870057 29.57359459 -36.8125 21.9375 C-36.09622478 15.37164386 -33.64574929 9.61814102 -29.4375 4.5 C-21.07450472 -1.76378189 -9.99251765 -4.46516045 0 0 Z " fill="#08435A" transform="translate(816.4375,375.5)"/>
</svg>
