<svg xmlns="http://www.w3.org/2000/svg" xmlns:xlink="http://www.w3.org/1999/xlink" zoomAndPan="magnify" preserveAspectRatio="xMidYMid meet" version="1.0" viewBox="100.93 425.53 607.95 160.96"><defs><clipPath id="a77d62e8c5"><path d="M 100.929688 427 L 169 427 L 169 519 L 100.929688 519 Z M 100.929688 427 " clip-rule="nonzero"/></clipPath><clipPath id="e68830e29a"><path d="M 369 425.425781 L 454 425.425781 L 454 520 L 369 520 Z M 369 425.425781 " clip-rule="nonzero"/></clipPath><clipPath id="523c845274"><path d="M 465 425.425781 L 538 425.425781 L 538 521 L 465 521 Z M 465 425.425781 " clip-rule="nonzero"/></clipPath><clipPath id="f739cb6a78"><path d="M 629 427 L 708.882812 427 L 708.882812 519 L 629 519 Z M 629 427 " clip-rule="nonzero"/></clipPath><clipPath id="b6203b3160"><path d="M 196 546 L 227 546 L 227 586.59375 L 196 586.59375 Z M 196 546 " clip-rule="nonzero"/></clipPath><clipPath id="0df8f616f9"><path d="M 242 546 L 281 546 L 281 586.59375 L 242 586.59375 Z M 242 546 " clip-rule="nonzero"/></clipPath><clipPath id="4d439103b8"><path d="M 343 547 L 375 547 L 375 586.59375 L 343 586.59375 Z M 343 547 " clip-rule="nonzero"/></clipPath><clipPath id="b36d43e4d1"><path d="M 477 546 L 516 546 L 516 586.59375 L 477 586.59375 Z M 477 546 " clip-rule="nonzero"/></clipPath><clipPath id="25db1b8922"><path d="M 581 546 L 612 546 L 612 586.59375 L 581 586.59375 Z M 581 546 " clip-rule="nonzero"/></clipPath><clipPath id="f8fe60db1f"><path d="M 100.929688 563 L 169 563 L 169 570 L 100.929688 570 Z M 100.929688 563 " clip-rule="nonzero"/></clipPath><clipPath id="cfe92b3980"><path d="M 641 563 L 708.882812 563 L 708.882812 570 L 641 570 Z M 641 563 " clip-rule="nonzero"/></clipPath></defs><g clip-path="url(#a77d62e8c5)"><path fill="#000000" d="M 100.929688 427.28125 L 121.210938 427.28125 L 121.210938 498.800781 L 168.785156 498.800781 L 168.785156 518.4375 L 101.058594 518.4375 Z M 100.929688 427.28125 " fill-opacity="1" fill-rule="nonzero"/></g><path fill="#000000" d="M 239.359375 501.539062 L 203.226562 501.539062 L 196.339844 518.574219 L 176.453125 518.574219 L 214.269531 427.152344 L 229.867188 427.152344 L 266.003906 518.574219 L 245.59375 518.574219 L 239.355469 501.539062 Z M 210.113281 483.074219 L 232.46875 483.074219 L 221.417969 454.464844 L 210.105469 483.074219 Z M 210.113281 483.074219 " fill-opacity="1" fill-rule="nonzero"/><path fill="#000000" d="M 296.9375 466.558594 C 296.9375 483.851562 296.808594 501.277344 296.808594 518.441406 L 277.183594 518.441406 L 277.183594 427.28125 L 289.398438 427.28125 L 333.203125 476.824219 L 333.332031 427.28125 L 352.699219 427.28125 L 352.699219 518.441406 L 342.949219 518.441406 L 296.933594 466.558594 Z M 296.9375 466.558594 " fill-opacity="1" fill-rule="nonzero"/><g clip-path="url(#e68830e29a)"><path fill="#000000" d="M 428.691406 448.351562 C 424.664062 446.664062 419.070312 445.363281 412.441406 445.363281 C 398.273438 445.363281 388.136719 455.765625 388.136719 472.152344 C 388.136719 488.539062 398.921875 499.984375 412.441406 499.984375 C 420.371094 499.984375 428.691406 496.996094 434.152344 492.570312 C 434.152344 489.316406 434.28125 486.714844 434.28125 483.46875 L 414.972656 483.46875 C 414.996094 477.53125 415.011719 471.589844 415.035156 465.652344 L 452.347656 465.652344 L 452.347656 503.363281 C 449.359375 506.480469 444.289062 510.382812 437.792969 513.636719 C 431.421875 516.890625 422.582031 519.878906 412.441406 519.878906 C 392.035156 519.878906 369.15625 503.621094 369.15625 472.671875 C 369.15625 441.722656 392.558594 425.851562 412.578125 425.851562 C 416.347656 425.851562 425.058594 426.242188 432.726562 428.96875 C 440.398438 431.832031 450.011719 438.726562 453.007812 442.234375 L 443.910156 457.320312 C 440.269531 454.332031 432.210938 449.90625 428.699219 448.347656 Z M 428.691406 448.351562 " fill-opacity="1" fill-rule="nonzero"/></g><g clip-path="url(#523c845274)"><path fill="#000000" d="M 500.308594 520.195312 C 487.3125 520.195312 478.992188 516.554688 465.605469 507.191406 L 471.84375 489.503906 C 484.582031 497.046875 492.640625 500.949219 499.011719 500.949219 C 507.980469 500.949219 518.636719 497.703125 518.636719 490.417969 C 518.636719 482.484375 505.117188 481.574219 499.398438 480.925781 C 484.578125 479.109375 465.210938 475.726562 465.210938 454.394531 C 465.210938 430.335938 487.832031 425.527344 500.957031 425.527344 C 513.042969 425.527344 523.964844 429.429688 535.792969 437.886719 L 529.8125 454.402344 C 519.671875 447.769531 509.925781 444.644531 500.957031 444.644531 C 487.046875 444.644531 483.800781 450.234375 483.800781 453.617188 C 483.800781 460.121094 498.75 461.550781 502.78125 461.550781 C 516.429688 462.980469 537.488281 465.582031 537.488281 490.417969 C 537.488281 515.253906 514.480469 520.195312 500.308594 520.195312 Z M 500.308594 520.195312 " fill-opacity="1" fill-rule="nonzero"/></g><path fill="#000000" d="M 553.882812 427.28125 L 617.707031 427.28125 L 617.707031 446.011719 L 574.164062 446.011719 C 574.164062 451.996094 574.035156 457.972656 574.035156 464.085938 L 610.949219 464.085938 L 610.949219 482.292969 L 574.164062 482.292969 L 574.164062 499.585938 L 619.136719 499.585938 L 619.136719 518.441406 L 553.753906 518.441406 Z M 553.882812 427.28125 " fill-opacity="1" fill-rule="nonzero"/><g clip-path="url(#f739cb6a78)"><path fill="#000000" d="M 679.503906 518.441406 L 658.964844 518.441406 L 658.964844 446.011719 L 629.460938 446.011719 L 629.460938 427.28125 L 708.882812 427.28125 L 708.882812 446.011719 L 679.503906 446.011719 Z M 679.503906 518.441406 " fill-opacity="1" fill-rule="nonzero"/></g><g clip-path="url(#b6203b3160)"><path fill="#000000" d="M 211.640625 586.007812 C 206.171875 586.007812 202.632812 584.507812 197.425781 580.914062 L 199.574219 574.898438 C 204.507812 577.855469 208.046875 579.566406 211.054688 579.566406 C 214.753906 579.566406 220.167969 578.171875 220.167969 573.980469 C 220.167969 570.597656 215.824219 569.796875 210.625 569.152344 C 204.296875 568.34375 196.996094 567.109375 196.996094 558.417969 C 196.996094 548.976562 206.226562 546.878906 211.90625 546.878906 C 217 546.878906 221.617188 548.433594 226.015625 551.660156 L 224.035156 557.128906 C 220.222656 554.605469 215.777344 553.265625 211.914062 553.265625 C 205.742188 553.265625 203.707031 555.839844 203.707031 558.09375 C 203.707031 561.90625 210.359375 562.015625 212.558594 562.277344 C 218.621094 562.921875 226.984375 564.207031 226.984375 573.976562 C 226.984375 583.742188 217.707031 585.996094 211.648438 585.996094 Z M 211.640625 586.007812 " fill-opacity="1" fill-rule="nonzero"/></g><g clip-path="url(#0df8f616f9)"><path fill="#000000" d="M 261.203125 586.492188 C 252.085938 586.492188 242.324219 579.730469 242.324219 566.746094 C 242.324219 553.757812 252.085938 546.78125 261.203125 546.78125 C 270.320312 546.78125 280.03125 553.917969 280.03125 566.851562 C 280.03125 579.785156 270.265625 586.492188 261.203125 586.492188 Z M 261.203125 553.382812 C 253.800781 553.382812 248.863281 559.285156 248.863281 566.851562 C 248.863281 574.417969 253.800781 579.890625 261.203125 579.890625 C 268.609375 579.890625 273.488281 574.253906 273.488281 566.851562 C 273.488281 559.449219 268.554688 553.382812 261.203125 553.382812 Z M 261.203125 553.382812 " fill-opacity="1" fill-rule="nonzero"/></g><path fill="#000000" d="M 297.675781 547.855469 L 304.597656 547.855469 L 304.597656 578.929688 L 324.226562 578.929688 L 324.226562 585.480469 L 297.734375 585.480469 L 297.679688 547.863281 Z M 297.675781 547.855469 " fill-opacity="1" fill-rule="nonzero"/><g clip-path="url(#4d439103b8)"><path fill="#000000" d="M 349.894531 547.855469 L 349.894531 566.855469 C 349.894531 576.351562 353.757812 579.089844 359.121094 579.089844 C 364.164062 579.089844 368.078125 575.28125 368.078125 566.585938 L 368.027344 547.855469 L 374.835938 547.855469 L 374.835938 566.210938 C 374.835938 578.441406 368.886719 586.066406 359.121094 586.066406 C 349.359375 586.066406 343.03125 578.449219 343.085938 566.75 L 343.136719 547.863281 L 349.894531 547.863281 Z M 349.894531 547.855469 " fill-opacity="1" fill-rule="nonzero"/></g><path fill="#000000" d="M 414.570312 585.472656 L 407.648438 585.472656 L 407.597656 554.03125 L 394.828125 554.03125 L 394.828125 547.855469 L 427.335938 547.855469 L 427.335938 554.03125 L 414.566406 554.03125 L 414.566406 585.472656 Z M 414.570312 585.472656 " fill-opacity="1" fill-rule="nonzero"/><path fill="#000000" d="M 449.136719 547.855469 L 456.113281 547.855469 L 456.113281 585.472656 L 449.136719 585.472656 Z M 449.136719 547.855469 " fill-opacity="1" fill-rule="nonzero"/><g clip-path="url(#b36d43e4d1)"><path fill="#000000" d="M 496.539062 586.492188 C 487.417969 586.492188 477.660156 579.730469 477.660156 566.746094 C 477.660156 553.757812 487.425781 546.78125 496.539062 546.78125 C 505.65625 546.78125 515.367188 553.917969 515.367188 566.851562 C 515.367188 579.785156 505.605469 586.492188 496.539062 586.492188 Z M 496.539062 553.382812 C 489.136719 553.382812 484.203125 559.285156 484.203125 566.851562 C 484.203125 574.417969 489.136719 579.890625 496.539062 579.890625 C 503.945312 579.890625 508.820312 574.253906 508.820312 566.851562 C 508.820312 559.449219 503.886719 553.382812 496.539062 553.382812 Z M 496.539062 553.382812 " fill-opacity="1" fill-rule="nonzero"/></g><path fill="#000000" d="M 537.433594 561.753906 L 537.433594 585.472656 L 530.621094 585.472656 L 530.621094 547.855469 L 534.644531 547.855469 L 555.1875 570.453125 L 555.1875 547.855469 L 561.945312 547.855469 L 561.945312 585.472656 L 558.890625 585.472656 Z M 537.433594 561.753906 " fill-opacity="1" fill-rule="nonzero"/><g clip-path="url(#25db1b8922)"><path fill="#000000" d="M 596.292969 586.007812 C 590.824219 586.007812 587.285156 584.507812 582.078125 580.914062 L 584.226562 574.898438 C 589.160156 577.855469 592.699219 579.566406 595.707031 579.566406 C 599.40625 579.566406 604.820312 578.171875 604.820312 573.980469 C 604.820312 570.597656 600.476562 569.796875 595.277344 569.152344 C 588.949219 568.34375 581.648438 567.109375 581.648438 558.417969 C 581.648438 548.976562 590.878906 546.878906 596.558594 546.878906 C 601.652344 546.878906 606.269531 548.433594 610.667969 551.660156 L 608.6875 557.128906 C 604.875 554.605469 600.421875 553.265625 596.566406 553.265625 C 590.394531 553.265625 588.359375 555.839844 588.359375 558.09375 C 588.359375 561.90625 595.011719 562.015625 597.210938 562.277344 C 603.273438 562.921875 611.636719 564.207031 611.636719 573.976562 C 611.636719 583.742188 602.359375 585.996094 596.300781 585.996094 Z M 596.292969 586.007812 " fill-opacity="1" fill-rule="nonzero"/></g><g clip-path="url(#f8fe60db1f)"><path fill="#cc1503" d="M 100.929688 563.433594 L 168.785156 563.433594 L 168.785156 569.839844 L 100.929688 569.839844 Z M 100.929688 563.433594 " fill-opacity="1" fill-rule="nonzero"/></g><g clip-path="url(#cfe92b3980)"><path fill="#cc1503" d="M 641.027344 563.433594 L 708.878906 563.433594 L 708.878906 569.839844 L 641.027344 569.839844 Z M 641.027344 563.433594 " fill-opacity="1" fill-rule="nonzero"/></g></svg>