<svg version="1.1" id="Layer_1" xmlns="http://www.w3.org/2000/svg" xmlns:xlink="http://www.w3.org/1999/xlink" x="0px" y="0px"
	 width="100%" viewBox="0 0 3130 982" enable-background="new 0 0 3130 982" xml:space="preserve">
<path fill="#FFFFFF" opacity="1.000000" stroke="none" 
	d="
M2024.000000,983.000000 
	C1349.333374,983.000000 675.166687,983.000000 1.000000,983.000000 
	C1.000000,655.666687 1.000000,328.333344 1.000000,1.000000 
	C1044.333374,1.000000 2087.666748,1.000000 3131.000000,1.000000 
	C3131.000000,328.333344 3131.000000,655.666687 3131.000000,983.000000 
	C2762.166748,983.000000 2393.333252,983.000000 2024.000000,983.000000 
M162.022079,336.906097 
	C162.070267,340.271210 162.118454,343.636322 162.022217,347.925110 
	C162.069962,352.950378 162.117691,357.975616 162.021423,363.918732 
	C162.069824,368.613312 162.118225,373.307861 162.022842,378.928192 
	C162.070755,384.619110 162.118652,390.310028 162.022079,396.891296 
	C162.070557,399.594696 162.119034,402.298096 162.021561,405.920166 
	C162.069901,410.614105 162.118240,415.308014 162.021805,420.920258 
	C162.021805,424.519958 162.021805,428.119629 162.021805,432.161835 
	C167.546463,432.161835 172.637314,432.161804 177.728149,432.161835 
	C192.083008,432.161865 192.083008,432.161865 201.200455,443.729279 
	C218.256882,463.841614 235.313309,483.953949 252.658432,504.406677 
	C264.224060,490.176544 275.599396,476.160339 286.998749,462.163696 
	C292.451660,455.468414 297.950012,448.810150 303.973206,441.752808 
	C307.617950,435.737274 311.456024,431.530396 319.971832,431.740662 
	C349.447479,432.468475 378.950012,432.137726 408.442230,432.114807 
	C411.308685,432.112579 413.229401,432.754425 415.096619,435.253296 
	C418.464569,439.760468 422.487366,443.778290 426.449921,448.614288 
	C442.034760,467.128510 457.619568,485.642731 473.494904,504.502045 
	C488.998749,485.443848 504.178802,466.783661 519.927856,447.770630 
	C523.631042,443.015472 527.192871,438.137482 531.139709,433.593964 
	C532.094055,432.495422 534.316040,432.085602 535.962891,432.067444 
	C547.449890,431.940796 558.938904,432.000519 570.427307,432.000488 
	C575.525818,432.000488 580.624390,432.000488 586.133362,432.000488 
	C586.133362,456.064728 586.133362,479.545471 586.133362,503.026215 
	C587.308350,501.964233 587.790283,500.788757 588.315125,499.632843 
	C601.140625,471.387512 621.846924,451.238129 650.541748,439.450775 
	C671.639404,430.784241 693.713501,428.378418 716.393677,428.846405 
	C731.033630,429.148529 745.213806,431.561584 759.282776,435.094116 
	C766.398010,436.880585 773.380676,439.194824 780.833496,441.391388 
	C780.833496,433.894073 780.833496,426.948029 780.981323,419.082794 
	C780.931702,414.389008 780.882080,409.695251 780.979492,404.111328 
	C780.930786,401.407898 780.882141,398.704468 780.980774,395.075317 
	C780.931641,389.384369 780.882568,383.693420 780.981201,377.084625 
	C780.932312,372.390045 780.883484,367.695465 780.981079,362.077179 
	C780.931885,357.051941 780.882629,352.026672 780.979553,346.096436 
	C780.930908,342.731506 780.882202,339.366547 780.979614,335.096710 
	C780.930908,331.731293 780.882202,328.365875 780.978638,324.089020 
	C780.930237,320.392944 780.881836,316.696838 780.979065,312.081390 
	C780.930603,307.721191 780.882202,303.360992 780.979309,298.076996 
	C780.930664,293.051910 780.882019,288.026855 780.978027,282.102875 
	C780.930115,279.068756 780.882202,276.034637 780.979004,272.080963 
	C780.930542,267.721100 780.882019,263.361267 780.978577,258.087402 
	C780.930176,254.058563 780.881775,250.029724 780.978271,245.073486 
	C780.929993,235.050186 780.881714,225.026901 780.980713,214.076157 
	C780.980713,195.149490 780.980713,176.222809 780.980713,157.310211 
	C574.353760,157.310211 368.335419,157.310211 162.166595,157.310211 
	C162.166595,176.742645 162.166595,195.873108 162.027863,215.931381 
	C162.074158,225.954544 162.120468,235.977692 162.023834,246.914871 
	C162.071411,250.943710 162.118988,254.972565 162.023636,259.920990 
	C162.071014,264.280823 162.118378,268.640656 162.023483,273.899475 
	C162.071228,276.933563 162.118988,279.967621 162.023605,283.925568 
	C162.071152,288.950653 162.118698,293.975708 162.023468,299.920624 
	C162.071167,304.280670 162.118866,308.640686 162.023499,313.912689 
	C162.071182,317.608582 162.118851,321.304474 162.022232,325.905334 
	C162.070343,329.270752 162.118454,332.636200 162.022079,336.906097 
M422.870819,622.924683 
	C422.870819,633.656921 422.870819,644.389160 422.870819,655.353516 
	C381.556061,655.353516 341.376984,655.353516 300.609650,655.353516 
	C300.609650,638.591187 300.609650,622.306152 300.812927,605.100708 
	C300.812927,583.090820 300.812927,561.080933 300.812927,538.135925 
	C284.290009,559.857727 268.427765,580.710876 252.246078,601.984009 
	C235.466324,580.358887 219.132858,559.308960 202.057648,537.303101 
	C202.057648,561.110291 202.057648,583.557739 201.875717,606.926514 
	C201.875717,622.999023 201.875717,639.071594 201.875717,655.627563 
	C188.199387,655.627563 175.286026,655.627563 162.166061,655.627563 
	C162.166061,664.746826 162.166061,673.376526 162.022614,682.932922 
	C162.022614,713.867004 162.022614,744.801086 162.022614,775.715332 
	C368.621124,775.715332 574.689026,775.715332 780.833984,775.715332 
	C780.833984,744.283630 780.833984,713.144836 780.989746,681.079346 
	C780.989746,669.033691 780.989746,656.988037 780.989746,644.446472 
	C778.714905,645.265930 777.172302,645.807922 775.639160,646.375732 
	C743.916443,658.123962 711.386780,663.732422 677.680054,657.942444 
	C641.689453,651.760254 613.130615,634.064087 594.513672,601.942749 
	C591.419189,596.603699 589.039795,590.850281 585.800903,584.202454 
	C585.800903,608.627747 585.800903,631.886047 585.800903,655.228760 
	C564.344604,655.228760 543.258545,655.228760 521.616089,655.228760 
	C521.616089,643.968933 521.616089,632.993774 521.817871,621.098572 
	C521.817871,593.826233 521.817871,566.553833 521.817871,537.917114 
	C505.036804,559.969849 489.195190,580.787964 473.072815,601.975037 
	C456.288757,580.343689 440.046417,559.410522 423.051941,537.507935 
	C423.051941,566.530945 423.051941,594.266724 422.870819,622.924683 
M578.168823,626.501587 
	C578.168823,564.765869 578.168823,503.030121 578.168823,441.160858 
	C564.387695,441.160858 551.244507,441.106384 538.103271,441.245514 
	C536.795105,441.259338 535.093262,442.122040 534.258789,443.147766 
	C520.723633,459.785309 507.306610,476.518921 493.846588,493.217651 
	C487.107788,501.577911 480.336273,509.911804 473.348663,518.542847 
	C455.346893,496.792725 437.190430,475.926941 420.362396,454.039764 
	C412.757660,444.148743 404.900970,439.134583 392.219635,440.778870 
	C383.436462,441.917725 374.386414,440.997864 365.406281,440.997864 
	C365.406281,509.985992 365.406281,578.340942 365.406281,646.543823 
	C381.903778,646.543823 397.991516,646.543823 414.806091,646.543823 
	C414.806091,602.937805 414.806091,559.623657 414.806091,514.809692 
	C434.854370,539.469788 453.876312,562.867432 473.096649,586.509094 
	C491.801575,562.638306 510.025970,539.380737 528.250366,516.123169 
	C528.660095,516.215515 529.069763,516.307922 529.479492,516.400269 
	C529.479492,559.729858 529.479492,603.059387 529.479492,646.599121 
	C546.087585,646.599121 561.823792,646.599121 578.168823,646.599121 
	C578.168823,640.079529 578.168823,633.790649 578.168823,626.501587 
M357.003204,590.500000 
	C357.003204,540.755859 357.003204,491.011688 357.003204,441.159882 
	C343.677795,441.159882 331.023834,441.012878 318.380096,441.306976 
	C316.311981,441.355072 313.707001,442.865723 312.338135,444.518616 
	C302.141754,456.830872 292.197662,469.352020 282.168152,481.802582 
	C272.366486,493.970367 262.557465,506.132263 252.583359,518.505554 
	C251.121414,516.787231 249.923569,515.413147 248.762070,514.008972 
	C231.884567,493.605347 214.527374,473.571350 198.366516,452.614838 
	C191.490540,443.698425 184.414810,439.468689 173.058014,440.778290 
	C163.756134,441.850952 154.232071,440.996796 144.489777,440.996796 
	C144.489777,509.853027 144.489777,578.095093 144.489777,646.497742 
	C160.901031,646.497742 177.116241,646.497742 194.003906,646.497742 
	C194.003906,602.827637 194.003906,559.494812 194.003906,514.899536 
	C213.936371,539.419556 232.981171,562.847595 252.214905,586.508118 
	C270.935455,562.646545 289.236053,539.320251 307.536652,515.993958 
	C308.013306,516.163635 308.489990,516.333252 308.966675,516.502869 
	C308.966675,559.886841 308.966675,603.270752 308.966675,646.600769 
	C325.359833,646.600769 340.961212,646.600769 357.003204,646.600769 
	C357.003204,628.076660 357.003204,609.788330 357.003204,590.500000 
M2127.945801,594.656067 
	C2132.883789,611.390991 2142.143555,624.954895 2156.486816,635.197998 
	C2174.197021,647.845581 2194.582031,650.226501 2215.287109,650.794922 
	C2223.840820,651.029846 2232.559814,649.534363 2241.024902,647.900757 
	C2264.442871,643.381653 2282.379395,631.047791 2294.074219,609.853394 
	C2304.536621,590.892944 2306.597412,570.110535 2307.889648,549.166321 
	C2308.272949,542.956177 2307.768799,536.603760 2306.907959,530.422791 
	C2305.209961,518.229919 2304.065186,505.801361 2300.708496,494.035950 
	C2295.889404,477.142914 2286.412109,463.109924 2271.516846,452.656525 
	C2254.841064,440.953705 2236.003906,437.897064 2216.623291,437.238251 
	C2206.415283,436.891266 2196.016357,438.388367 2185.895264,440.151154 
	C2171.754883,442.614014 2159.281250,449.106995 2148.679443,458.863190 
	C2136.057129,470.478973 2129.208496,485.370789 2125.014648,501.669769 
	C2120.916504,517.596130 2120.869873,533.850891 2120.923096,550.158203 
	C2120.971924,565.131165 2122.955566,579.724426 2127.945801,594.656067 
M700.721619,651.686707 
	C737.174194,651.861267 770.439026,641.840088 800.801331,620.919922 
	C793.642639,611.076965 786.854919,601.744019 780.468872,592.963440 
	C771.348083,597.033325 763.174500,601.149292 754.667114,604.388916 
	C729.174744,614.096741 703.637695,615.938843 678.099670,604.139343 
	C652.033386,592.095886 636.701477,568.383362 637.527222,540.839722 
	C638.266113,516.190247 655.877319,493.057709 681.799377,483.357117 
	C701.332886,476.047302 721.511780,474.951813 741.723938,479.719604 
	C754.571838,482.750275 767.108276,487.101471 780.245911,490.997375 
	C785.835449,480.847748 791.909302,469.818726 798.009583,458.741669 
	C797.344055,458.328613 796.956543,458.014343 796.515381,457.824829 
	C761.774414,442.902100 725.976135,433.864380 687.802551,439.038147 
	C657.246826,443.179443 631.419006,456.100769 611.881287,480.592346 
	C581.271729,518.963074 580.111084,569.403992 609.632385,607.463562 
	C632.374207,636.782959 663.397888,649.812988 700.721619,651.686707 
M1943.000488,442.693024 
	C1943.000488,510.744232 1943.000488,578.795471 1943.000488,646.648682 
	C1957.080200,646.648682 1970.478638,646.648682 1984.259399,646.648682 
	C1984.259399,616.231506 1984.259399,586.164612 1984.259399,555.932678 
	C1995.153320,555.931641 2001.949585,561.972595 2006.958008,570.182312 
	C2021.835205,594.568542 2036.468872,619.103577 2051.105713,643.635437 
	C2052.498535,645.970032 2053.863770,647.133972 2056.823730,647.087646 
	C2069.814453,646.884338 2082.809814,647.007874 2095.803711,646.984863 
	C2096.843506,646.983032 2097.883057,646.768311 2099.412354,646.597961 
	C2098.358643,644.845703 2097.655762,643.601135 2096.882324,642.402588 
	C2087.246582,627.474426 2077.688721,612.494873 2067.933105,597.645447 
	C2057.490479,581.750427 2048.238525,564.882751 2033.126099,553.723999 
	C2039.083130,551.881897 2045.606934,550.471985 2051.621582,547.880249 
	C2064.917480,542.150940 2074.822998,532.819031 2080.061523,518.949890 
	C2084.832275,506.318420 2085.337891,493.461212 2081.925781,480.553680 
	C2077.746338,464.745331 2068.084473,453.701691 2052.974854,446.797974 
	C2041.783081,441.684357 2029.987305,440.590607 2018.277832,440.226410 
	C1994.146240,439.475861 1969.974731,439.981171 1945.820068,440.073578 
	C1944.880371,440.077179 1943.944824,441.153015 1943.000488,442.693024 
M1174.500000,440.000000 
	C1161.076416,440.000000 1147.652710,440.000000 1134.277710,440.000000 
	C1134.277710,509.305359 1134.277710,578.013306 1134.277710,646.711548 
	C1147.953735,646.711548 1161.349976,646.711548 1175.000000,646.711548 
	C1175.000000,631.457153 1175.000000,616.489929 1175.000000,601.522644 
	C1175.000000,586.406738 1175.000000,571.290833 1175.000000,556.085754 
	C1181.201904,555.679871 1186.029541,557.595032 1190.056274,561.557068 
	C1202.988403,574.281677 1210.507690,590.688904 1219.908325,605.794006 
	C1227.835815,618.532349 1235.184692,631.630066 1242.890991,644.508118 
	C1243.529175,645.574829 1244.933716,646.879944 1245.994873,646.891357 
	C1260.580444,647.048279 1275.168213,646.997192 1290.432739,646.997192 
	C1289.429565,645.111938 1288.857178,643.822205 1288.102661,642.649597 
	C1276.651733,624.853455 1265.485229,606.863464 1253.605957,589.357422 
	C1244.809448,576.394226 1236.832397,562.590088 1223.295898,553.374146 
	C1225.810303,552.889404 1228.154419,552.535522 1230.449463,551.979065 
	C1245.233521,548.393860 1257.804443,541.082947 1266.108276,528.179016 
	C1273.606812,516.526001 1275.740234,503.598999 1274.198975,489.541168 
	C1271.743774,467.148804 1259.515503,452.512512 1239.185181,444.962402 
	C1228.444580,440.973663 1217.144287,440.764435 1205.976440,440.123016 
	C1195.848755,439.541321 1185.661133,440.000000 1174.500000,440.000000 
M1898.057373,470.462036 
	C1893.539185,461.085754 1886.631104,454.187469 1877.630615,448.828705 
	C1865.133423,441.387909 1851.303711,440.521118 1837.576050,440.171753 
	C1813.432617,439.557343 1789.262207,439.997162 1765.103149,440.008362 
	C1763.826904,440.008972 1762.550659,440.129608 1761.265137,440.194855 
	C1761.265137,509.258087 1761.265137,577.976929 1761.265137,646.720886 
	C1774.930298,646.720886 1788.328491,646.720886 1802.000000,646.720886 
	C1802.000000,633.474670 1802.000000,620.505859 1802.000000,607.537048 
	C1802.000000,594.438660 1802.000000,581.340271 1802.000000,567.582214 
	C1807.505737,568.093506 1812.400757,569.049011 1817.261597,568.899414 
	C1828.771729,568.544861 1840.353271,568.329285 1851.743286,566.825806 
	C1865.118042,565.060364 1877.270630,559.537598 1887.182251,550.194275 
	C1897.360596,540.599548 1902.411621,528.497864 1904.156494,514.549927 
	C1906.047852,499.431519 1904.747681,484.997375 1898.057373,470.462036 
M2735.984619,551.477234 
	C2748.715820,554.978394 2761.466309,558.410522 2774.170898,562.006226 
	C2782.066162,564.240723 2789.277832,568.051758 2792.987549,575.623352 
	C2801.051758,592.082031 2794.691650,609.858459 2777.285156,616.728760 
	C2761.310791,623.033752 2744.426025,622.266785 2727.856445,619.263062 
	C2716.740967,617.248169 2705.879639,613.830444 2694.617920,610.967468 
	C2691.199951,619.145264 2687.575928,627.816467 2683.964600,636.457336 
	C2685.603516,637.305115 2686.835938,638.121216 2688.186279,638.614746 
	C2712.419434,647.471436 2737.253418,651.777161 2763.212402,650.186218 
	C2777.163330,649.331238 2790.606201,647.213135 2803.549072,641.995544 
	C2818.799805,635.847534 2829.875732,625.566040 2834.951416,609.627380 
	C2838.433105,598.695923 2838.719482,587.546936 2837.080811,576.170776 
	C2834.776611,560.173218 2827.553467,547.173584 2814.219238,538.128357 
	C2802.756104,530.352539 2789.425049,526.725708 2776.232910,523.001465 
	C2764.467285,519.679871 2752.474854,516.983337 2741.007568,512.836121 
	C2730.832275,509.156189 2725.982178,503.753693 2726.134521,490.489960 
	C2726.245361,480.892578 2731.384521,473.462769 2741.670898,470.009949 
	C2752.478271,466.382111 2763.395264,465.627075 2774.878906,466.743835 
	C2788.563721,468.074615 2801.538086,471.559052 2814.846191,475.670929 
	C2818.329102,467.171021 2821.897217,458.462433 2825.516113,449.630219 
	C2823.868164,449.120789 2822.929443,448.902466 2822.045654,448.546661 
	C2804.412354,441.448853 2785.963379,437.858551 2767.094727,437.184906 
	C2756.796631,436.817230 2746.285156,437.477966 2736.132812,439.213684 
	C2722.661377,441.516785 2709.996826,446.587463 2699.593506,455.953247 
	C2682.968750,470.919952 2682.232666,490.363739 2686.693604,509.881500 
	C2692.441895,535.032715 2712.329102,545.257446 2735.984619,551.477234 
M2884.048584,451.447845 
	C2875.064941,457.700287 2868.398193,465.872650 2865.386963,476.397339 
	C2863.148193,484.221985 2863.005859,492.307373 2863.845947,500.572327 
	C2865.434814,516.207947 2871.691895,528.786987 2884.495605,538.187805 
	C2895.178223,546.031372 2907.612793,549.357666 2919.978516,553.000183 
	C2933.850586,557.086426 2948.435303,558.703186 2961.452881,565.765442 
	C2974.032715,572.590088 2976.901123,582.784363 2974.126465,596.394470 
	C2971.701416,608.290527 2963.249268,614.460999 2952.584961,617.910034 
	C2939.540527,622.128906 2926.033936,622.242615 2912.678223,619.909668 
	C2899.728760,617.647827 2886.942383,614.454224 2873.261963,611.491760 
	C2870.166504,618.840698 2866.464355,627.630249 2862.744873,636.461365 
	C2865.646973,637.812988 2867.900146,639.153687 2870.331543,639.949524 
	C2893.855713,647.649780 2917.788818,651.841614 2942.750000,650.183594 
	C2956.200684,649.290100 2969.069824,647.039307 2981.627441,642.156921 
	C2992.055908,638.102478 3000.674072,631.972473 3007.018066,622.762573 
	C3018.507324,606.082153 3018.657471,587.829651 3014.505127,568.924927 
	C3012.302246,558.895203 3007.188477,550.438721 2999.908203,543.618408 
	C2990.167969,534.493286 2977.891357,529.673157 2965.244873,526.030640 
	C2950.700439,521.841431 2936.000244,518.187256 2921.486816,513.898193 
	C2915.826172,512.225281 2910.772217,509.000946 2907.927002,503.445770 
	C2901.500977,490.899567 2904.435791,474.496490 2922.433594,469.139252 
	C2932.437744,466.161438 2942.736816,465.662659 2953.393555,466.733337 
	C2967.230713,468.123566 2980.405762,471.507660 2993.711670,475.618683 
	C2997.177979,467.112518 3000.732910,458.388885 3004.365967,449.472900 
	C3003.332520,449.219025 3002.859375,449.151947 3002.422363,448.988281 
	C2976.874756,439.421478 2950.659668,434.959747 2923.313965,437.931915 
	C2909.386963,439.445587 2896.615234,443.904846 2884.048584,451.447845 
M1341.445923,617.005127 
	C1334.074219,614.859619 1326.702393,612.714111 1319.294312,610.558044 
	C1316.210205,618.057800 1312.928711,625.755127 1309.955078,633.569580 
	C1309.505005,634.752258 1310.078857,637.487183 1310.867554,637.807251 
	C1327.626709,644.607849 1345.120728,648.572998 1363.120239,649.891174 
	C1371.749268,650.523132 1380.464600,649.887695 1389.137573,650.028564 
	C1399.855957,650.202698 1410.163086,648.015259 1420.317017,644.919800 
	C1436.880493,639.870239 1450.240234,630.610596 1457.689087,614.540527 
	C1462.408081,604.359863 1462.676147,593.444092 1462.165771,582.248718 
	C1461.098267,558.824951 1449.722656,542.356323 1429.035278,532.864746 
	C1417.577148,527.607605 1404.991821,524.775635 1392.859497,521.029053 
	C1383.333252,518.087280 1373.424927,516.153931 1364.230835,512.428589 
	C1354.534424,508.499603 1350.207031,500.430634 1350.924316,489.647278 
	C1351.531372,480.523712 1355.825073,474.464264 1364.156372,470.961761 
	C1375.409180,466.231018 1386.929077,465.720734 1399.048462,466.759949 
	C1413.066040,467.961975 1426.345825,471.475372 1439.462158,475.762878 
	C1442.894043,467.302612 1446.324463,458.846100 1450.093628,449.554688 
	C1444.376709,447.670197 1438.841064,445.598236 1433.167969,444.019775 
	C1412.550781,438.283295 1391.711182,435.522827 1370.186646,437.829956 
	C1356.861938,439.258240 1344.404175,442.840332 1333.069946,449.613373 
	C1322.202393,456.107605 1314.075073,465.104980 1310.847900,478.022583 
	C1308.774536,486.321014 1308.756836,494.405579 1309.916748,502.785583 
	C1311.944336,517.435364 1318.179321,529.287781 1330.354736,538.113037 
	C1343.132324,547.374756 1358.129517,550.645386 1372.776123,555.023438 
	C1384.314087,558.472107 1396.167969,561.244385 1407.197876,565.927185 
	C1426.470337,574.109436 1424.333862,602.192871 1409.612671,612.126343 
	C1402.682251,616.802856 1395.239624,619.090515 1387.042480,620.127319 
	C1371.878662,622.045410 1356.996826,621.230469 1341.445923,617.005127 
M2571.500000,440.000000 
	C2557.072510,440.000000 2542.645264,440.000000 2528.312988,440.000000 
	C2528.312988,509.336853 2528.312988,578.064575 2528.312988,646.674438 
	C2570.690674,646.674438 2612.754639,646.674438 2654.657227,646.674438 
	C2654.657227,636.610046 2654.657227,626.874023 2654.657227,616.717896 
	C2625.915283,616.717896 2597.514404,616.717896 2569.372070,616.717896 
	C2569.372070,593.217957 2569.372070,570.151001 2569.372070,546.834290 
	C2589.025879,546.834290 2608.308350,546.834290 2627.771973,546.834290 
	C2627.771973,536.511108 2627.771973,526.444702 2627.771973,515.945801 
	C2608.146484,515.945801 2588.743408,515.945801 2569.259766,515.945801 
	C2569.259766,500.778503 2569.259766,486.045685 2569.259766,470.882935 
	C2596.917480,470.882935 2624.318604,470.882935 2651.708496,470.882935 
	C2651.708496,460.380951 2651.708496,450.313477 2651.708496,440.000000 
	C2625.111816,440.000000 2598.805908,440.000000 2571.500000,440.000000 
M2385.389648,497.096771 
	C2389.205322,491.610565 2392.507080,485.661194 2396.944336,480.734680 
	C2406.145996,470.518463 2418.955811,468.633881 2431.696045,468.138855 
	C2448.299561,467.493774 2464.057617,472.185425 2479.971924,477.866302 
	C2483.221436,467.743011 2486.473633,457.611908 2489.587891,447.911041 
	C2470.547852,440.403290 2451.793213,438.055847 2432.973145,437.231293 
	C2420.291260,436.675598 2407.446289,437.890839 2395.081787,441.455872 
	C2381.225342,445.451050 2368.702148,452.053589 2359.411621,463.276398 
	C2344.620850,481.143707 2340.079834,502.887054 2338.165527,525.185547 
	C2337.212891,536.281860 2337.946533,547.527893 2338.012695,558.705627 
	C2338.104248,574.118530 2340.357178,589.176941 2346.025391,603.584351 
	C2352.122070,619.080566 2362.092041,631.113159 2377.027832,639.077332 
	C2394.546387,648.418579 2413.645264,649.944336 2432.797363,650.824402 
	C2441.092041,651.205627 2449.534668,650.086975 2457.803711,648.905884 
	C2469.917725,647.175598 2481.936035,644.776794 2494.880371,642.507629 
	C2491.905029,631.523743 2489.267578,621.787537 2486.532471,611.691162 
	C2485.037354,612.101074 2483.828369,612.516479 2482.585449,612.760254 
	C2470.200439,615.189392 2457.895996,618.451416 2445.391357,619.703613 
	C2436.711670,620.572693 2427.619629,619.405945 2418.950439,617.833191 
	C2403.902832,615.103516 2393.400879,606.102600 2386.926270,592.154724 
	C2381.471924,580.404968 2379.894531,567.794189 2379.196533,555.246643 
	C2378.120361,535.894470 2378.955322,516.535034 2385.389648,497.096771 
M726.916809,602.447754 
	C745.189514,599.427673 762.147949,593.013977 777.758118,582.993835 
	C780.100281,581.490417 781.098022,579.922852 781.081726,577.034973 
	C780.946960,553.228333 780.941284,529.420349 781.068970,505.613708 
	C781.083862,502.826874 780.205505,501.373322 777.744751,500.328888 
	C772.552124,498.124847 767.557556,495.412598 762.276611,493.465271 
	C737.562683,484.352081 712.503662,481.601318 687.234497,490.999542 
	C646.463074,506.163422 635.481384,555.742371 666.663574,584.891968 
	C683.292419,600.436829 703.410767,606.293884 726.916809,602.447754 
M881.000000,580.500000 
	C881.000000,602.593994 881.000000,624.687988 881.000000,646.676270 
	C895.015442,646.676270 908.417419,646.676270 922.247437,646.676270 
	C922.247437,613.284912 922.247437,580.215759 922.247437,546.717163 
	C942.084656,546.717163 961.488953,546.717163 980.622131,546.717163 
	C980.622131,536.208679 980.622131,526.137878 980.622131,515.823242 
	C960.961426,515.823242 941.677856,515.823242 922.236206,515.823242 
	C922.236206,500.829010 922.236206,486.095276 922.236206,470.927246 
	C949.871826,470.927246 977.274963,470.927246 1004.727905,470.927246 
	C1004.727905,460.422272 1004.727905,450.354645 1004.727905,440.289307 
	C963.388489,440.289307 922.321777,440.289307 881.000000,440.289307 
	C881.000000,486.885437 881.000000,533.192688 881.000000,580.500000 
M1535.477539,471.000000 
	C1538.913818,471.000000 1542.350098,471.000000 1546.167480,471.000000 
	C1546.167480,529.976013 1546.167480,588.359863 1546.167480,646.699707 
	C1559.975708,646.699707 1573.373291,646.699707 1587.174316,646.699707 
	C1587.174316,588.016663 1587.174316,529.632812 1587.174316,470.825012 
	C1607.311401,470.825012 1627.042969,470.825012 1646.698730,470.825012 
	C1646.698730,460.394104 1646.698730,450.392578 1646.698730,440.974304 
	C1593.028198,440.974304 1539.654541,440.974304 1486.289062,440.974304 
	C1486.289062,451.284698 1486.289062,461.016663 1486.289062,471.000000 
	C1502.545166,471.000000 1518.513672,471.000000 1535.477539,471.000000 
M1042.000000,608.500000 
	C1042.000000,621.258545 1042.000000,634.017090 1042.000000,646.686951 
	C1056.001465,646.686951 1069.399292,646.686951 1082.699463,646.686951 
	C1082.699463,577.659912 1082.699463,508.946320 1082.699463,440.312958 
	C1068.998901,440.312958 1055.600952,440.312958 1042.000000,440.312958 
	C1042.000000,496.250427 1042.000000,551.875244 1042.000000,608.500000 
z"/>
<path fill="#003461" opacity="1.000000" stroke="none" 
	d="
M780.833984,682.006042 
	C780.833984,713.144836 780.833984,744.283630 780.833984,775.715332 
	C574.689026,775.715332 368.621124,775.715332 162.022614,775.715332 
	C162.022614,744.801086 162.022614,713.867004 162.552307,682.467529 
	C368.999329,682.003479 574.916687,682.004761 780.833984,682.006042 
z"/>
<path fill="#0096BE" opacity="1.000000" stroke="none" 
	d="
M162.166595,215.003571 
	C162.166595,195.873108 162.166595,176.742645 162.166595,157.310211 
	C368.335419,157.310211 574.353760,157.310211 780.980713,157.310211 
	C780.980713,176.222809 780.980713,195.149490 780.449402,214.538727 
	C574.000916,215.002045 368.083771,215.002808 162.166595,215.003571 
z"/>
<path fill="#012F5B" opacity="1.000000" stroke="none" 
	d="
M578.168823,627.001709 
	C578.168823,633.790649 578.168823,640.079529 578.168823,646.599121 
	C561.823792,646.599121 546.087585,646.599121 529.479492,646.599121 
	C529.479492,603.059387 529.479492,559.729858 529.479492,516.400269 
	C529.069763,516.307922 528.660095,516.215515 528.250366,516.123169 
	C510.025970,539.380737 491.801575,562.638306 473.096649,586.509094 
	C453.876312,562.867432 434.854370,539.469788 414.806091,514.809692 
	C414.806091,559.623657 414.806091,602.937805 414.806091,646.543823 
	C397.991516,646.543823 381.903778,646.543823 365.406281,646.543823 
	C365.406281,578.340942 365.406281,509.985992 365.406281,440.997864 
	C374.386414,440.997864 383.436462,441.917725 392.219635,440.778870 
	C404.900970,439.134583 412.757660,444.148743 420.362396,454.039764 
	C437.190430,475.926941 455.346893,496.792725 473.348663,518.542847 
	C480.336273,509.911804 487.107788,501.577911 493.846588,493.217651 
	C507.306610,476.518921 520.723633,459.785309 534.258789,443.147766 
	C535.093262,442.122040 536.795105,441.259338 538.103271,441.245514 
	C551.244507,441.106384 564.387695,441.160858 578.168823,441.160858 
	C578.168823,503.030121 578.168823,564.765869 578.168823,627.001709 
z"/>
<path fill="#022F5B" opacity="1.000000" stroke="none" 
	d="
M357.003204,591.000000 
	C357.003204,609.788330 357.003204,628.076660 357.003204,646.600769 
	C340.961212,646.600769 325.359833,646.600769 308.966675,646.600769 
	C308.966675,603.270752 308.966675,559.886841 308.966675,516.502869 
	C308.489990,516.333252 308.013306,516.163635 307.536652,515.993958 
	C289.236053,539.320251 270.935455,562.646545 252.214905,586.508118 
	C232.981171,562.847595 213.936371,539.419556 194.003906,514.899536 
	C194.003906,559.494812 194.003906,602.827637 194.003906,646.497742 
	C177.116241,646.497742 160.901031,646.497742 144.489777,646.497742 
	C144.489777,578.095093 144.489777,509.853027 144.489777,440.996796 
	C154.232071,440.996796 163.756134,441.850952 173.058014,440.778290 
	C184.414810,439.468689 191.490540,443.698425 198.366516,452.614838 
	C214.527374,473.571350 231.884567,493.605347 248.762070,514.008972 
	C249.923569,515.413147 251.121414,516.787231 252.583359,518.505554 
	C262.557465,506.132263 272.366486,493.970367 282.168152,481.802582 
	C292.197662,469.352020 302.141754,456.830872 312.338135,444.518616 
	C313.707001,442.865723 316.311981,441.355072 318.380096,441.306976 
	C331.023834,441.012878 343.677795,441.159882 357.003204,441.159882 
	C357.003204,491.011688 357.003204,540.755859 357.003204,591.000000 
z"/>
<path fill="#013E6B" opacity="1.000000" stroke="none" 
	d="
M780.911865,681.542725 
	C574.916687,682.004761 368.999329,682.003479 162.624023,682.004150 
	C162.166061,673.376526 162.166061,664.746826 162.166061,655.627563 
	C175.286026,655.627563 188.199387,655.627563 201.875717,655.627563 
	C201.875717,639.071594 201.875717,622.999023 202.431549,606.464539 
	C235.528137,606.008728 268.068878,606.014954 300.609650,606.021118 
	C300.609650,622.306152 300.609650,638.591187 300.609650,655.353516 
	C341.376984,655.353516 381.556061,655.353516 422.870819,655.353516 
	C422.870819,644.389160 422.870819,633.656921 423.426636,622.462280 
	C456.526978,622.006165 489.071533,622.012390 521.616089,622.018616 
	C521.616089,632.993774 521.616089,643.968933 521.616089,655.228760 
	C543.258545,655.228760 564.344604,655.228760 585.800903,655.228760 
	C585.800903,631.886047 585.800903,608.627747 585.800903,584.202454 
	C589.039795,590.850281 591.419189,596.603699 594.513672,601.942749 
	C613.130615,634.064087 641.689453,651.760254 677.680054,657.942444 
	C711.386780,663.732422 743.916443,658.123962 775.639160,646.375732 
	C777.172302,645.807922 778.714905,645.265930 780.989746,644.446472 
	C780.989746,656.988037 780.989746,669.033691 780.911865,681.542725 
z"/>
<path fill="#002E5A" opacity="1.000000" stroke="none" 
	d="
M2127.713135,594.319580 
	C2122.955566,579.724426 2120.971924,565.131165 2120.923096,550.158203 
	C2120.869873,533.850891 2120.916504,517.596130 2125.014648,501.669769 
	C2129.208496,485.370789 2136.057129,470.478973 2148.679443,458.863190 
	C2159.281250,449.106995 2171.754883,442.614014 2185.895264,440.151154 
	C2196.016357,438.388367 2206.415283,436.891266 2216.623291,437.238251 
	C2236.003906,437.897064 2254.841064,440.953705 2271.516846,452.656525 
	C2286.412109,463.109924 2295.889404,477.142914 2300.708496,494.035950 
	C2304.065186,505.801361 2305.209961,518.229919 2306.907959,530.422791 
	C2307.768799,536.603760 2308.272949,542.956177 2307.889648,549.166321 
	C2306.597412,570.110535 2304.536621,590.892944 2294.074219,609.853394 
	C2282.379395,631.047791 2264.442871,643.381653 2241.024902,647.900757 
	C2232.559814,649.534363 2223.840820,651.029846 2215.287109,650.794922 
	C2194.582031,650.226501 2174.197021,647.845581 2156.486816,635.197998 
	C2142.143555,624.954895 2132.883789,611.390991 2127.713135,594.319580 
M2266.000000,543.499878 
	C2265.666748,537.084290 2265.776611,530.606934 2264.893799,524.267883 
	C2263.648193,515.322815 2262.445312,506.242828 2259.821777,497.648560 
	C2255.791016,484.442017 2247.239014,474.591064 2233.679932,470.393616 
	C2222.378662,466.895020 2210.526367,466.531738 2199.133789,469.224884 
	C2185.496338,472.448669 2175.516113,480.462250 2169.755859,494.085602 
	C2164.288574,507.016266 2163.021729,520.513672 2162.192383,534.029663 
	C2161.185791,550.425659 2162.084961,566.896057 2166.045898,582.968689 
	C2169.648193,597.587280 2176.742188,609.824524 2191.351318,616.005310 
	C2202.329834,620.650085 2213.740479,620.719849 2225.458496,619.114929 
	C2244.490723,616.508118 2255.429443,604.964661 2260.866211,587.649902 
	C2265.251709,573.682312 2266.210693,559.112488 2266.000000,543.499878 
z"/>
<path fill="#02305B" opacity="1.000000" stroke="none" 
	d="
M700.252258,651.628601 
	C663.397888,649.812988 632.374207,636.782959 609.632385,607.463562 
	C580.111084,569.403992 581.271729,518.963074 611.881287,480.592346 
	C631.419006,456.100769 657.246826,443.179443 687.802551,439.038147 
	C725.976135,433.864380 761.774414,442.902100 796.515381,457.824829 
	C796.956543,458.014343 797.344055,458.328613 798.009583,458.741669 
	C791.909302,469.818726 785.835449,480.847748 780.245911,490.997375 
	C767.108276,487.101471 754.571838,482.750275 741.723938,479.719604 
	C721.511780,474.951813 701.332886,476.047302 681.799377,483.357117 
	C655.877319,493.057709 638.266113,516.190247 637.527222,540.839722 
	C636.701477,568.383362 652.033386,592.095886 678.099670,604.139343 
	C703.637695,615.938843 729.174744,614.096741 754.667114,604.388916 
	C763.174500,601.149292 771.348083,597.033325 780.468872,592.963440 
	C786.854919,601.744019 793.642639,611.076965 800.801331,620.919922 
	C770.439026,641.840088 737.174194,651.861267 700.252258,651.628601 
z"/>
<path fill="#002E5A" opacity="1.000000" stroke="none" 
	d="
M1943.003906,442.211121 
	C1943.944824,441.153015 1944.880371,440.077179 1945.820068,440.073578 
	C1969.974731,439.981171 1994.146240,439.475861 2018.277832,440.226410 
	C2029.987305,440.590607 2041.783081,441.684357 2052.974854,446.797974 
	C2068.084473,453.701691 2077.746338,464.745331 2081.925781,480.553680 
	C2085.337891,493.461212 2084.832275,506.318420 2080.061523,518.949890 
	C2074.822998,532.819031 2064.917480,542.150940 2051.621582,547.880249 
	C2045.606934,550.471985 2039.083130,551.881897 2033.126099,553.723999 
	C2048.238525,564.882751 2057.490479,581.750427 2067.933105,597.645447 
	C2077.688721,612.494873 2087.246582,627.474426 2096.882324,642.402588 
	C2097.655762,643.601135 2098.358643,644.845703 2099.412354,646.597961 
	C2097.883057,646.768311 2096.843506,646.983032 2095.803711,646.984863 
	C2082.809814,647.007874 2069.814453,646.884338 2056.823730,647.087646 
	C2053.863770,647.133972 2052.498535,645.970032 2051.105713,643.635437 
	C2036.468872,619.103577 2021.835205,594.568542 2006.958008,570.182312 
	C2001.949585,561.972595 1995.153320,555.931641 1984.259399,555.932678 
	C1984.259399,586.164612 1984.259399,616.231506 1984.259399,646.648682 
	C1970.478638,646.648682 1957.080200,646.648682 1943.000488,646.648682 
	C1943.000488,578.795471 1943.000488,510.744232 1943.003906,442.211121 
M2028.215942,473.026917 
	C2013.864014,467.276672 1998.921997,469.396454 1984.364258,469.014099 
	C1984.364258,488.781403 1984.364258,507.841461 1984.364258,526.999939 
	C1994.384033,526.999939 2004.076660,527.505066 2013.681396,526.804810 
	C2019.176270,526.404236 2024.945190,524.875732 2029.868408,522.411926 
	C2046.530518,514.073303 2046.889893,481.947998 2028.215942,473.026917 
z"/>
<path fill="#002E5A" opacity="1.000000" stroke="none" 
	d="
M1175.000000,440.000000 
	C1185.661133,440.000000 1195.848755,439.541321 1205.976440,440.123016 
	C1217.144287,440.764435 1228.444580,440.973663 1239.185181,444.962402 
	C1259.515503,452.512512 1271.743774,467.148804 1274.198975,489.541168 
	C1275.740234,503.598999 1273.606812,516.526001 1266.108276,528.179016 
	C1257.804443,541.082947 1245.233521,548.393860 1230.449463,551.979065 
	C1228.154419,552.535522 1225.810303,552.889404 1223.295898,553.374146 
	C1236.832397,562.590088 1244.809448,576.394226 1253.605957,589.357422 
	C1265.485229,606.863464 1276.651733,624.853455 1288.102661,642.649597 
	C1288.857178,643.822205 1289.429565,645.111938 1290.432739,646.997192 
	C1275.168213,646.997192 1260.580444,647.048279 1245.994873,646.891357 
	C1244.933716,646.879944 1243.529175,645.574829 1242.890991,644.508118 
	C1235.184692,631.630066 1227.835815,618.532349 1219.908325,605.794006 
	C1210.507690,590.688904 1202.988403,574.281677 1190.056274,561.557068 
	C1186.029541,557.595032 1181.201904,555.679871 1175.000000,556.085754 
	C1175.000000,571.290833 1175.000000,586.406738 1175.000000,601.522644 
	C1175.000000,616.489929 1175.000000,631.457153 1175.000000,646.711548 
	C1161.349976,646.711548 1147.953735,646.711548 1134.277710,646.711548 
	C1134.277710,578.013306 1134.277710,509.305359 1134.277710,440.000000 
	C1147.652710,440.000000 1161.076416,440.000000 1175.000000,440.000000 
M1175.000000,496.500000 
	C1175.000000,506.584595 1175.000000,516.669189 1175.000000,525.999329 
	C1187.285156,525.999329 1199.039429,526.691345 1210.668091,525.780701 
	C1219.997437,525.050110 1227.744629,520.045105 1230.875244,510.663574 
	C1234.569946,499.591553 1234.886597,488.535797 1226.481445,479.021637 
	C1220.884644,472.686432 1213.546021,470.200653 1205.221191,469.935913 
	C1195.228394,469.618073 1185.243530,469.047760 1175.000000,468.574982 
	C1175.000000,478.235870 1175.000000,486.867920 1175.000000,496.500000 
z"/>
<path fill="#008BB5" opacity="1.000000" stroke="none" 
	d="
M162.097229,215.467468 
	C368.083771,215.002808 574.000916,215.002045 780.375793,215.002441 
	C780.881714,225.026901 780.929993,235.050186 780.453430,245.536880 
	C574.007996,246.000473 368.087372,246.000656 162.166763,246.000854 
	C162.120468,235.977692 162.074158,225.954544 162.097229,215.467468 
z"/>
<path fill="#002E5A" opacity="1.000000" stroke="none" 
	d="
M1898.309326,470.756897 
	C1904.747681,484.997375 1906.047852,499.431519 1904.156494,514.549927 
	C1902.411621,528.497864 1897.360596,540.599548 1887.182251,550.194275 
	C1877.270630,559.537598 1865.118042,565.060364 1851.743286,566.825806 
	C1840.353271,568.329285 1828.771729,568.544861 1817.261597,568.899414 
	C1812.400757,569.049011 1807.505737,568.093506 1802.000000,567.582214 
	C1802.000000,581.340271 1802.000000,594.438660 1802.000000,607.537048 
	C1802.000000,620.505859 1802.000000,633.474670 1802.000000,646.720886 
	C1788.328491,646.720886 1774.930298,646.720886 1761.265137,646.720886 
	C1761.265137,577.976929 1761.265137,509.258087 1761.265137,440.194855 
	C1762.550659,440.129608 1763.826904,440.008972 1765.103149,440.008362 
	C1789.262207,439.997162 1813.432617,439.557343 1837.576050,440.171753 
	C1851.303711,440.521118 1865.133423,441.387909 1877.630615,448.828705 
	C1886.631104,454.187469 1893.539185,461.085754 1898.309326,470.756897 
M1802.000000,528.468872 
	C1802.000000,531.931824 1802.000000,535.394775 1802.000000,539.452271 
	C1816.000244,539.921936 1829.491211,541.497009 1842.867676,537.118042 
	C1853.313477,533.698425 1859.696045,526.643860 1861.817139,516.271179 
	C1863.119629,509.902313 1863.506348,503.084930 1862.821411,496.626221 
	C1861.465576,483.841858 1857.472290,475.606720 1843.858765,471.451965 
	C1830.218628,467.289154 1816.148560,469.422211 1802.000000,468.995880 
	C1802.000000,488.892914 1802.000000,508.184753 1802.000000,528.468872 
z"/>
<path fill="#002E5A" opacity="1.000000" stroke="none" 
	d="
M2735.625977,551.263062 
	C2712.329102,545.257446 2692.441895,535.032715 2686.693604,509.881500 
	C2682.232666,490.363739 2682.968750,470.919952 2699.593506,455.953247 
	C2709.996826,446.587463 2722.661377,441.516785 2736.132812,439.213684 
	C2746.285156,437.477966 2756.796631,436.817230 2767.094727,437.184906 
	C2785.963379,437.858551 2804.412354,441.448853 2822.045654,448.546661 
	C2822.929443,448.902466 2823.868164,449.120789 2825.516113,449.630219 
	C2821.897217,458.462433 2818.329102,467.171021 2814.846191,475.670929 
	C2801.538086,471.559052 2788.563721,468.074615 2774.878906,466.743835 
	C2763.395264,465.627075 2752.478271,466.382111 2741.670898,470.009949 
	C2731.384521,473.462769 2726.245361,480.892578 2726.134521,490.489960 
	C2725.982178,503.753693 2730.832275,509.156189 2741.007568,512.836121 
	C2752.474854,516.983337 2764.467285,519.679871 2776.232910,523.001465 
	C2789.425049,526.725708 2802.756104,530.352539 2814.219238,538.128357 
	C2827.553467,547.173584 2834.776611,560.173218 2837.080811,576.170776 
	C2838.719482,587.546936 2838.433105,598.695923 2834.951416,609.627380 
	C2829.875732,625.566040 2818.799805,635.847534 2803.549072,641.995544 
	C2790.606201,647.213135 2777.163330,649.331238 2763.212402,650.186218 
	C2737.253418,651.777161 2712.419434,647.471436 2688.186279,638.614746 
	C2686.835938,638.121216 2685.603516,637.305115 2683.964600,636.457336 
	C2687.575928,627.816467 2691.199951,619.145264 2694.617920,610.967468 
	C2705.879639,613.830444 2716.740967,617.248169 2727.856445,619.263062 
	C2744.426025,622.266785 2761.310791,623.033752 2777.285156,616.728760 
	C2794.691650,609.858459 2801.051758,592.082031 2792.987549,575.623352 
	C2789.277832,568.051758 2782.066162,564.240723 2774.170898,562.006226 
	C2761.466309,558.410522 2748.715820,554.978394 2735.625977,551.263062 
z"/>
<path fill="#002E5A" opacity="1.000000" stroke="none" 
	d="
M2884.360596,451.243134 
	C2896.615234,443.904846 2909.386963,439.445587 2923.313965,437.931915 
	C2950.659668,434.959747 2976.874756,439.421478 3002.422363,448.988281 
	C3002.859375,449.151947 3003.332520,449.219025 3004.365967,449.472900 
	C3000.732910,458.388885 2997.177979,467.112518 2993.711670,475.618683 
	C2980.405762,471.507660 2967.230713,468.123566 2953.393555,466.733337 
	C2942.736816,465.662659 2932.437744,466.161438 2922.433594,469.139252 
	C2904.435791,474.496490 2901.500977,490.899567 2907.927002,503.445770 
	C2910.772217,509.000946 2915.826172,512.225281 2921.486816,513.898193 
	C2936.000244,518.187256 2950.700439,521.841431 2965.244873,526.030640 
	C2977.891357,529.673157 2990.167969,534.493286 2999.908203,543.618408 
	C3007.188477,550.438721 3012.302246,558.895203 3014.505127,568.924927 
	C3018.657471,587.829651 3018.507324,606.082153 3007.018066,622.762573 
	C3000.674072,631.972473 2992.055908,638.102478 2981.627441,642.156921 
	C2969.069824,647.039307 2956.200684,649.290100 2942.750000,650.183594 
	C2917.788818,651.841614 2893.855713,647.649780 2870.331543,639.949524 
	C2867.900146,639.153687 2865.646973,637.812988 2862.744873,636.461365 
	C2866.464355,627.630249 2870.166504,618.840698 2873.261963,611.491760 
	C2886.942383,614.454224 2899.728760,617.647827 2912.678223,619.909668 
	C2926.033936,622.242615 2939.540527,622.128906 2952.584961,617.910034 
	C2963.249268,614.460999 2971.701416,608.290527 2974.126465,596.394470 
	C2976.901123,582.784363 2974.032715,572.590088 2961.452881,565.765442 
	C2948.435303,558.703186 2933.850586,557.086426 2919.978516,553.000183 
	C2907.612793,549.357666 2895.178223,546.031372 2884.495605,538.187805 
	C2871.691895,528.786987 2865.434814,516.207947 2863.845947,500.572327 
	C2863.005859,492.307373 2863.148193,484.221985 2865.386963,476.397339 
	C2868.398193,465.872650 2875.064941,457.700287 2884.360596,451.243134 
z"/>
<path fill="#002E5A" opacity="1.000000" stroke="none" 
	d="
M1341.871948,617.029541 
	C1356.996826,621.230469 1371.878662,622.045410 1387.042480,620.127319 
	C1395.239624,619.090515 1402.682251,616.802856 1409.612671,612.126343 
	C1424.333862,602.192871 1426.470337,574.109436 1407.197876,565.927185 
	C1396.167969,561.244385 1384.314087,558.472107 1372.776123,555.023438 
	C1358.129517,550.645386 1343.132324,547.374756 1330.354736,538.113037 
	C1318.179321,529.287781 1311.944336,517.435364 1309.916748,502.785583 
	C1308.756836,494.405579 1308.774536,486.321014 1310.847900,478.022583 
	C1314.075073,465.104980 1322.202393,456.107605 1333.069946,449.613373 
	C1344.404175,442.840332 1356.861938,439.258240 1370.186646,437.829956 
	C1391.711182,435.522827 1412.550781,438.283295 1433.167969,444.019775 
	C1438.841064,445.598236 1444.376709,447.670197 1450.093628,449.554688 
	C1446.324463,458.846100 1442.894043,467.302612 1439.462158,475.762878 
	C1426.345825,471.475372 1413.066040,467.961975 1399.048462,466.759949 
	C1386.929077,465.720734 1375.409180,466.231018 1364.156372,470.961761 
	C1355.825073,474.464264 1351.531372,480.523712 1350.924316,489.647278 
	C1350.207031,500.430634 1354.534424,508.499603 1364.230835,512.428589 
	C1373.424927,516.153931 1383.333252,518.087280 1392.859497,521.029053 
	C1404.991821,524.775635 1417.577148,527.607605 1429.035278,532.864746 
	C1449.722656,542.356323 1461.098267,558.824951 1462.165771,582.248718 
	C1462.676147,593.444092 1462.408081,604.359863 1457.689087,614.540527 
	C1450.240234,630.610596 1436.880493,639.870239 1420.317017,644.919800 
	C1410.163086,648.015259 1399.855957,650.202698 1389.137573,650.028564 
	C1380.464600,649.887695 1371.749268,650.523132 1363.120239,649.891174 
	C1345.120728,648.572998 1327.626709,644.607849 1310.867554,637.807251 
	C1310.078857,637.487183 1309.505005,634.752258 1309.955078,633.569580 
	C1312.928711,625.755127 1316.210205,618.057800 1319.294312,610.558044 
	C1326.702393,612.714111 1334.074219,614.859619 1341.871948,617.029541 
z"/>
<path fill="#002E5A" opacity="1.000000" stroke="none" 
	d="
M2572.000000,440.000000 
	C2598.805908,440.000000 2625.111816,440.000000 2651.708496,440.000000 
	C2651.708496,450.313477 2651.708496,460.380951 2651.708496,470.882935 
	C2624.318604,470.882935 2596.917480,470.882935 2569.259766,470.882935 
	C2569.259766,486.045685 2569.259766,500.778503 2569.259766,515.945801 
	C2588.743408,515.945801 2608.146484,515.945801 2627.771973,515.945801 
	C2627.771973,526.444702 2627.771973,536.511108 2627.771973,546.834290 
	C2608.308350,546.834290 2589.025879,546.834290 2569.372070,546.834290 
	C2569.372070,570.151001 2569.372070,593.217957 2569.372070,616.717896 
	C2597.514404,616.717896 2625.915283,616.717896 2654.657227,616.717896 
	C2654.657227,626.874023 2654.657227,636.610046 2654.657227,646.674438 
	C2612.754639,646.674438 2570.690674,646.674438 2528.312988,646.674438 
	C2528.312988,578.064575 2528.312988,509.336853 2528.312988,440.000000 
	C2542.645264,440.000000 2557.072510,440.000000 2572.000000,440.000000 
z"/>
<path fill="#002E5A" opacity="1.000000" stroke="none" 
	d="
M2385.212891,497.455963 
	C2378.955322,516.535034 2378.120361,535.894470 2379.196533,555.246643 
	C2379.894531,567.794189 2381.471924,580.404968 2386.926270,592.154724 
	C2393.400879,606.102600 2403.902832,615.103516 2418.950439,617.833191 
	C2427.619629,619.405945 2436.711670,620.572693 2445.391357,619.703613 
	C2457.895996,618.451416 2470.200439,615.189392 2482.585449,612.760254 
	C2483.828369,612.516479 2485.037354,612.101074 2486.532471,611.691162 
	C2489.267578,621.787537 2491.905029,631.523743 2494.880371,642.507629 
	C2481.936035,644.776794 2469.917725,647.175598 2457.803711,648.905884 
	C2449.534668,650.086975 2441.092041,651.205627 2432.797363,650.824402 
	C2413.645264,649.944336 2394.546387,648.418579 2377.027832,639.077332 
	C2362.092041,631.113159 2352.122070,619.080566 2346.025391,603.584351 
	C2340.357178,589.176941 2338.104248,574.118530 2338.012695,558.705627 
	C2337.946533,547.527893 2337.212891,536.281860 2338.165527,525.185547 
	C2340.079834,502.887054 2344.620850,481.143707 2359.411621,463.276398 
	C2368.702148,452.053589 2381.225342,445.451050 2395.081787,441.455872 
	C2407.446289,437.890839 2420.291260,436.675598 2432.973145,437.231293 
	C2451.793213,438.055847 2470.547852,440.403290 2489.587891,447.911041 
	C2486.473633,457.611908 2483.221436,467.743011 2479.971924,477.866302 
	C2464.057617,472.185425 2448.299561,467.493774 2431.696045,468.138855 
	C2418.955811,468.633881 2406.145996,470.518463 2396.944336,480.734680 
	C2392.507080,485.661194 2389.205322,491.610565 2385.212891,497.455963 
z"/>
<path fill="#01507D" opacity="1.000000" stroke="none" 
	d="
M726.494019,602.566101 
	C703.410767,606.293884 683.292419,600.436829 666.663574,584.891968 
	C635.481384,555.742371 646.463074,506.163422 687.234497,490.999542 
	C712.503662,481.601318 737.562683,484.352081 762.276611,493.465271 
	C767.557556,495.412598 772.552124,498.124847 777.744751,500.328888 
	C780.205505,501.373322 781.083862,502.826874 781.068970,505.613708 
	C780.941284,529.420349 780.946960,553.228333 781.081726,577.034973 
	C781.098022,579.922852 780.100281,581.490417 777.758118,582.993835 
	C762.147949,593.013977 745.189514,599.427673 726.494019,602.566101 
z"/>
<path fill="#002E5A" opacity="1.000000" stroke="none" 
	d="
M881.000000,580.000000 
	C881.000000,533.192688 881.000000,486.885437 881.000000,440.289307 
	C922.321777,440.289307 963.388489,440.289307 1004.727905,440.289307 
	C1004.727905,450.354645 1004.727905,460.422272 1004.727905,470.927246 
	C977.274963,470.927246 949.871826,470.927246 922.236206,470.927246 
	C922.236206,486.095276 922.236206,500.829010 922.236206,515.823242 
	C941.677856,515.823242 960.961426,515.823242 980.622131,515.823242 
	C980.622131,526.137878 980.622131,536.208679 980.622131,546.717163 
	C961.488953,546.717163 942.084656,546.717163 922.247437,546.717163 
	C922.247437,580.215759 922.247437,613.284912 922.247437,646.676270 
	C908.417419,646.676270 895.015442,646.676270 881.000000,646.676270 
	C881.000000,624.687988 881.000000,602.593994 881.000000,580.000000 
z"/>
<path fill="#006591" opacity="1.000000" stroke="none" 
	d="
M780.833496,420.001953 
	C780.833496,426.948029 780.833496,433.894073 780.833496,441.391388 
	C773.380676,439.194824 766.398010,436.880585 759.282776,435.094116 
	C745.213806,431.561584 731.033630,429.148529 716.393677,428.846405 
	C693.713501,428.378418 671.639404,430.784241 650.541748,439.450775 
	C621.846924,451.238129 601.140625,471.387512 588.315125,499.632843 
	C587.790283,500.788757 587.308350,501.964233 586.133362,503.026215 
	C586.133362,479.545471 586.133362,456.064728 586.133362,432.000488 
	C580.624390,432.000488 575.525818,432.000488 570.427307,432.000488 
	C558.938904,432.000519 547.449890,431.940796 535.962891,432.067444 
	C534.316040,432.085602 532.094055,432.495422 531.139709,433.593964 
	C527.192871,438.137482 523.631042,443.015472 519.197021,447.906067 
	C516.689087,447.695984 514.909058,447.035675 513.135254,447.051971 
	C484.168579,447.317535 455.202698,447.668671 426.236633,448.000519 
	C422.487366,443.778290 418.464569,439.760468 415.096619,435.253296 
	C413.229401,432.754425 411.308685,432.112579 408.442230,432.114807 
	C378.950012,432.137726 349.447479,432.468475 319.971832,431.740662 
	C311.456024,431.530396 307.617950,435.737274 303.237061,441.907227 
	C299.387543,441.707794 296.275055,441.055847 293.160645,441.046722 
	C265.741791,440.966156 238.322174,440.928467 210.904083,441.093079 
	C207.583221,441.113007 204.270004,442.407196 200.953247,443.110840 
	C192.083008,432.161865 192.083008,432.161865 177.728149,432.161835 
	C172.637314,432.161804 167.546463,432.161835 162.021805,432.161835 
	C162.021805,428.119629 162.021805,424.519958 162.548172,420.460449 
	C368.994202,420.001038 574.913818,420.001495 780.833496,420.001953 
z"/>
<path fill="#002E5A" opacity="1.000000" stroke="none" 
	d="
M1534.979858,471.000000 
	C1518.513672,471.000000 1502.545166,471.000000 1486.289062,471.000000 
	C1486.289062,461.016663 1486.289062,451.284698 1486.289062,440.974304 
	C1539.654541,440.974304 1593.028198,440.974304 1646.698730,440.974304 
	C1646.698730,450.392578 1646.698730,460.394104 1646.698730,470.825012 
	C1627.042969,470.825012 1607.311401,470.825012 1587.174316,470.825012 
	C1587.174316,529.632812 1587.174316,588.016663 1587.174316,646.699707 
	C1573.373291,646.699707 1559.975708,646.699707 1546.167480,646.699707 
	C1546.167480,588.359863 1546.167480,529.976013 1546.167480,471.000000 
	C1542.350098,471.000000 1538.913818,471.000000 1534.979858,471.000000 
z"/>
<path fill="#006D99" opacity="1.000000" stroke="none" 
	d="
M780.833435,378.002472 
	C780.882568,383.693420 780.931641,389.384369 780.455933,395.537720 
	C574.009583,396.000427 368.088074,396.000702 162.166550,396.000946 
	C162.118652,390.310028 162.070755,384.619110 162.547485,378.464478 
	C368.992554,378.001312 574.913025,378.001892 780.833435,378.002472 
z"/>
<path fill="#0081AB" opacity="1.000000" stroke="none" 
	d="
M780.833313,283.001770 
	C780.882019,288.026855 780.930664,293.051910 780.448730,298.538513 
	C574.000916,299.000275 368.083557,299.000549 162.166245,299.000793 
	C162.118698,293.975708 162.071152,288.950653 162.551788,283.463013 
	C368.997742,283.000916 574.915527,283.001343 780.833313,283.001770 
z"/>
<path fill="#0075A0" opacity="1.000000" stroke="none" 
	d="
M780.833435,347.001434 
	C780.882629,352.026672 780.931885,357.051941 780.455017,362.538574 
	C574.007812,363.000275 368.086609,363.000580 162.165436,363.000885 
	C162.117691,357.975616 162.069962,352.950378 162.545563,347.462738 
	C368.990417,347.000732 574.911926,347.001099 780.833435,347.001434 
z"/>
<path fill="#006894" opacity="1.000000" stroke="none" 
	d="
M780.907410,419.542358 
	C574.913818,420.001495 368.994202,420.001038 162.620544,420.001282 
	C162.118240,415.308014 162.069901,410.614105 162.545654,405.460297 
	C368.990692,405.000763 574.911621,405.001129 780.832520,405.001465 
	C780.882080,409.695251 780.931702,414.389008 780.907410,419.542358 
z"/>
<path fill="#00719D" opacity="1.000000" stroke="none" 
	d="
M162.093430,363.459808 
	C368.086609,363.000580 574.007812,363.000275 780.381836,363.000427 
	C780.883484,367.695465 780.932312,372.390045 780.907349,377.543549 
	C574.913025,378.001892 368.992554,378.001312 162.619370,378.001587 
	C162.118225,373.307861 162.069824,368.613312 162.093430,363.459808 
z"/>
<path fill="#0086B0" opacity="1.000000" stroke="none" 
	d="
M162.165741,273.000488 
	C162.118378,268.640656 162.071014,264.280823 162.547485,259.460663 
	C368.992065,259.000702 574.912781,259.001068 780.833496,259.001404 
	C780.882019,263.361267 780.930542,267.721100 780.450012,272.540466 
	C574.002563,273.000122 368.084167,273.000305 162.165741,273.000488 
z"/>
<path fill="#007EA8" opacity="1.000000" stroke="none" 
	d="
M162.094849,299.460693 
	C368.083557,299.000549 574.000916,299.000275 780.375977,299.000397 
	C780.882202,303.360992 780.930603,307.721191 780.448486,312.540710 
	C574.000854,313.000244 368.083710,313.000488 162.166580,313.000732 
	C162.118866,308.640686 162.071167,304.280670 162.094849,299.460693 
z"/>
<path fill="#002E5A" opacity="1.000000" stroke="none" 
	d="
M1042.000000,608.000000 
	C1042.000000,551.875244 1042.000000,496.250427 1042.000000,440.312958 
	C1055.600952,440.312958 1068.998901,440.312958 1082.699463,440.312958 
	C1082.699463,508.946320 1082.699463,577.659912 1082.699463,646.686951 
	C1069.399292,646.686951 1056.001465,646.686951 1042.000000,646.686951 
	C1042.000000,634.017090 1042.000000,621.258545 1042.000000,608.000000 
z"/>
<path fill="#0088B2" opacity="1.000000" stroke="none" 
	d="
M780.906006,258.544403 
	C574.912781,259.001068 368.992065,259.000702 162.618958,259.000854 
	C162.118988,254.972565 162.071411,250.943710 162.095306,246.457855 
	C368.087372,246.000656 574.007996,246.000473 780.380981,246.000580 
	C780.881775,250.029724 780.930176,254.058563 780.906006,258.544403 
z"/>
<path fill="#007BA6" opacity="1.000000" stroke="none" 
	d="
M162.095032,313.456726 
	C368.083710,313.000488 574.000854,313.000244 780.375732,313.000366 
	C780.881836,316.696838 780.930237,320.392944 780.454956,324.544495 
	C574.009705,325.000122 368.088104,325.000244 162.166534,325.000366 
	C162.118851,321.304474 162.071182,317.608582 162.095032,313.456726 
z"/>
<path fill="#0076A1" opacity="1.000000" stroke="none" 
	d="
M780.906494,346.548950 
	C574.911926,347.001099 368.990417,347.000732 162.617767,347.000916 
	C162.118454,343.636322 162.070267,340.271210 162.545441,336.453247 
	C368.990387,336.000824 574.911926,336.001221 780.833496,336.001617 
	C780.882202,339.366547 780.930908,342.731506 780.906494,346.548950 
z"/>
<path fill="#0079A4" opacity="1.000000" stroke="none" 
	d="
M780.906555,335.549164 
	C574.911926,336.001221 368.990387,336.000824 162.617706,336.001038 
	C162.118454,332.636200 162.070343,329.270752 162.094391,325.452850 
	C368.088104,325.000244 574.009705,325.000122 780.382385,325.000244 
	C780.882202,328.365875 780.930908,331.731293 780.906555,335.549164 
z"/>
<path fill="#0083AE" opacity="1.000000" stroke="none" 
	d="
M162.094604,273.449982 
	C368.084167,273.000305 574.002563,273.000122 780.377686,273.000244 
	C780.882202,276.034637 780.930115,279.068756 780.905640,282.552307 
	C574.915527,283.001343 368.997742,283.000916 162.623352,283.001099 
	C162.118988,279.967621 162.071228,276.933563 162.094604,273.449982 
z"/>
<path fill="#006A96" opacity="1.000000" stroke="none" 
	d="
M780.906006,404.556396 
	C574.911621,405.001129 368.990692,405.000763 162.618637,405.000977 
	C162.119034,402.298096 162.070557,399.594696 162.094315,396.446106 
	C368.088074,396.000702 574.009583,396.000427 780.382324,396.000610 
	C780.882141,398.704468 780.930786,401.407898 780.906006,404.556396 
z"/>
<path fill="#034976" opacity="1.000000" stroke="none" 
	d="
M521.716980,621.558594 
	C489.071533,622.012390 456.526978,622.006165 423.517181,622.001221 
	C423.051941,594.266724 423.051941,566.530945 423.051941,537.507935 
	C440.046417,559.410522 456.288757,580.343689 473.072815,601.975037 
	C489.195190,580.787964 505.036804,559.969849 521.817871,537.917114 
	C521.817871,566.553833 521.817871,593.826233 521.716980,621.558594 
z"/>
<path fill="#034976" opacity="1.000000" stroke="none" 
	d="
M300.711304,605.560913 
	C268.068878,606.014954 235.528137,606.008728 202.522522,606.003845 
	C202.057648,583.557739 202.057648,561.110291 202.057648,537.303101 
	C219.132858,559.308960 235.466324,580.358887 252.246078,601.984009 
	C268.427765,580.710876 284.290009,559.857727 300.812927,538.135925 
	C300.812927,561.080933 300.812927,583.090820 300.711304,605.560913 
z"/>
<path fill="#01608C" opacity="1.000000" stroke="none" 
	d="
M201.076843,443.420044 
	C204.270004,442.407196 207.583221,441.113007 210.904083,441.093079 
	C238.322174,440.928467 265.741791,440.966156 293.160645,441.046722 
	C296.275055,441.055847 299.387543,441.707794 302.964355,442.098389 
	C297.950012,448.810150 292.451660,455.468414 286.998749,462.163696 
	C275.599396,476.160339 264.224060,490.176544 252.658432,504.406677 
	C235.313309,483.953949 218.256882,463.841614 201.076843,443.420044 
z"/>
<path fill="#01608C" opacity="1.000000" stroke="none" 
	d="
M426.343262,448.307404 
	C455.202698,447.668671 484.168579,447.317535 513.135254,447.051971 
	C514.909058,447.035675 516.689087,447.695984 518.912476,448.082489 
	C504.178802,466.783661 488.998749,485.443848 473.494904,504.502045 
	C457.619568,485.642731 442.034760,467.128510 426.343262,448.307404 
z"/>
<path fill="#FFFFFF" opacity="1.000000" stroke="none" 
	d="
M2266.000000,543.998657 
	C2266.210693,559.112488 2265.251709,573.682312 2260.866211,587.649902 
	C2255.429443,604.964661 2244.490723,616.508118 2225.458496,619.114929 
	C2213.740479,620.719849 2202.329834,620.650085 2191.351318,616.005310 
	C2176.742188,609.824524 2169.648193,597.587280 2166.045898,582.968689 
	C2162.084961,566.896057 2161.185791,550.425659 2162.192383,534.029663 
	C2163.021729,520.513672 2164.288574,507.016266 2169.755859,494.085602 
	C2175.516113,480.462250 2185.496338,472.448669 2199.133789,469.224884 
	C2210.526367,466.531738 2222.378662,466.895020 2233.679932,470.393616 
	C2247.239014,474.591064 2255.791016,484.442017 2259.821777,497.648560 
	C2262.445312,506.242828 2263.648193,515.322815 2264.893799,524.267883 
	C2265.776611,530.606934 2265.666748,537.084290 2266.000000,543.998657 
z"/>
<path fill="#FFFFFF" opacity="1.000000" stroke="none" 
	d="
M2028.560181,473.208557 
	C2046.889893,481.947998 2046.530518,514.073303 2029.868408,522.411926 
	C2024.945190,524.875732 2019.176270,526.404236 2013.681396,526.804810 
	C2004.076660,527.505066 1994.384033,526.999939 1984.364258,526.999939 
	C1984.364258,507.841461 1984.364258,488.781403 1984.364258,469.014099 
	C1998.921997,469.396454 2013.864014,467.276672 2028.560181,473.208557 
z"/>
<path fill="#FFFFFF" opacity="1.000000" stroke="none" 
	d="
M1175.000000,496.000000 
	C1175.000000,486.867920 1175.000000,478.235870 1175.000000,468.574982 
	C1185.243530,469.047760 1195.228394,469.618073 1205.221191,469.935913 
	C1213.546021,470.200653 1220.884644,472.686432 1226.481445,479.021637 
	C1234.886597,488.535797 1234.569946,499.591553 1230.875244,510.663574 
	C1227.744629,520.045105 1219.997437,525.050110 1210.668091,525.780701 
	C1199.039429,526.691345 1187.285156,525.999329 1175.000000,525.999329 
	C1175.000000,516.669189 1175.000000,506.584595 1175.000000,496.000000 
z"/>
<path fill="#FFFFFF" opacity="1.000000" stroke="none" 
	d="
M1802.000000,527.972778 
	C1802.000000,508.184753 1802.000000,488.892914 1802.000000,468.995880 
	C1816.148560,469.422211 1830.218628,467.289154 1843.858765,471.451965 
	C1857.472290,475.606720 1861.465576,483.841858 1862.821411,496.626221 
	C1863.506348,503.084930 1863.119629,509.902313 1861.817139,516.271179 
	C1859.696045,526.643860 1853.313477,533.698425 1842.867676,537.118042 
	C1829.491211,541.497009 1816.000244,539.921936 1802.000000,539.452271 
	C1802.000000,535.394775 1802.000000,531.931824 1802.000000,527.972778 
z"/>
</svg>