<?xml version="1.0" encoding="UTF-8"?>
<svg version="1.1" xmlns="http://www.w3.org/2000/svg" width="354" height="68">
<path d="M0 0 C3.19152678 1.29467596 5.42058117 2.84116233 7 6 C7.42667969 5.566875 7.85335937 5.13375 8.29296875 4.6875 C13.631262 -0.06743337 17.92730412 -0.80474911 25 -0.4609375 C29.9709153 0.30282292 32.23680028 2.07795241 35.62715149 5.77374268 C37.39648866 8.64295934 37.36210719 10.5112787 37.34057617 13.87011719 C37.34034958 15.05103943 37.34012299 16.23196167 37.33988953 17.44866943 C37.32440567 18.71857727 37.30892181 19.98848511 37.29296875 21.296875 C37.28872391 22.60078186 37.28447906 23.90468872 37.28010559 25.24810791 C37.26867549 28.70718772 37.23922477 32.16588698 37.20599365 35.62481689 C37.1752528 39.15737765 37.16159172 42.69000016 37.14648438 46.22265625 C37.11435275 53.14860917 37.06160016 60.07424711 37 67 C30.73 67 24.46 67 18 67 C17.67 50.17 17.34 33.34 17 16 C14.03 16.495 14.03 16.495 11 17 C9.80177128 19.39645744 9.84372685 20.95662027 9.79467773 23.63330078 C9.77473251 24.59414581 9.75478729 25.55499084 9.73423767 26.54495239 C9.70916893 28.10438065 9.70916893 28.10438065 9.68359375 29.6953125 C9.66281265 30.75789276 9.64203156 31.82047302 9.62062073 32.91525269 C9.55509739 36.31843438 9.49622727 39.72169489 9.4375 43.125 C9.39431743 45.42839366 9.35070323 47.73177926 9.30664062 50.03515625 C9.19941313 55.69002284 9.09815351 61.34496892 9 67 C2.73 67 -3.54 67 -10 67 C-10.33 50.17 -10.66 33.34 -11 16 C-13.97 16.495 -13.97 16.495 -17 17 C-18.19822872 19.39645744 -18.15627315 20.95662027 -18.20532227 23.63330078 C-18.22526749 24.59414581 -18.24521271 25.55499084 -18.26576233 26.54495239 C-18.29083107 28.10438065 -18.29083107 28.10438065 -18.31640625 29.6953125 C-18.33718735 30.75789276 -18.35796844 31.82047302 -18.37937927 32.91525269 C-18.44490261 36.31843438 -18.50377273 39.72169489 -18.5625 43.125 C-18.60568257 45.42839366 -18.64929677 47.73177926 -18.69335938 50.03515625 C-18.80058687 55.69002284 -18.90184649 61.34496892 -19 67 C-25.27 67 -31.54 67 -38 67 C-38.02187378 64.29719849 -38.02187378 64.29719849 -38.04418945 61.53979492 C-38.09582158 55.58846895 -38.16110199 49.63742414 -38.23571491 43.68635082 C-38.28045551 40.07795123 -38.31970305 36.46966549 -38.34643555 32.86108398 C-38.37243241 29.37900415 -38.41280795 25.89736161 -38.46318626 22.41555214 C-38.48800764 20.43974801 -38.49790939 18.4637748 -38.50764465 16.48783875 C-38.53733589 14.68631096 -38.53733589 14.68631096 -38.56762695 12.84838867 C-38.57873001 11.78915695 -38.58983307 10.72992523 -38.60127258 9.63859558 C-39.06132592 6.59417311 -39.64083383 5.87823195 -42 4 C-42.99 3.01 -43.98 2.02 -45 1 C-36.75 1 -28.5 1 -20 1 C-19.67 2.32 -19.34 3.64 -19 5 C-18.0925 4.175 -17.185 3.35 -16.25 2.5 C-11.23739111 -1.08335178 -5.92452757 -0.91083457 0 0 Z " fill="#0A3B61" transform="translate(245,0)"/>
<path d="M0 0 C3.34124522 1.46179478 5.56503461 3.30872246 8 6 C8.94875 5.195625 9.8975 4.39125 10.875 3.5625 C15.47809194 -0.34012143 18.96030703 -0.34193014 24.9453125 -0.27734375 C29.43750143 0.13051484 31.48791072 1.16043845 35 4 C39.14155117 9.80096465 38.37981485 16.23527716 38.29296875 23.0546875 C38.28872391 24.31137238 38.28447906 25.56805725 38.28010559 26.86282349 C38.26619122 30.18715735 38.23928624 33.5108623 38.20599365 36.83502197 C38.17518246 40.23370966 38.16157678 43.63246259 38.14648438 47.03125 C38.1134501 53.68769489 38.06168456 60.34376144 38 67 C31.73 67 25.46 67 19 67 C18.98541748 65.56164795 18.97083496 64.1232959 18.95581055 62.64135742 C18.89790839 57.31297746 18.82067493 51.98502369 18.73754883 46.65698242 C18.70426144 44.34943551 18.67624151 42.04180643 18.65356445 39.73413086 C18.62008892 36.42005338 18.56777602 33.10673155 18.51171875 29.79296875 C18.50532883 28.7585112 18.4989389 27.72405365 18.49235535 26.6582489 C18.47256119 25.6974794 18.45276703 24.7367099 18.43237305 23.74682617 C18.41571846 22.47774666 18.41571846 22.47774666 18.39872742 21.18302917 C17.90530075 18.4815224 17.24186843 17.56571629 15 16 C13.68 16 12.36 16 11 16 C10.67 32.83 10.34 49.66 10 67 C3.73 67 -2.54 67 -9 67 C-9.01458252 65.56164795 -9.02916504 64.1232959 -9.04418945 62.64135742 C-9.10209161 57.31297746 -9.17932507 51.98502369 -9.26245117 46.65698242 C-9.29573856 44.34943551 -9.32375849 42.04180643 -9.34643555 39.73413086 C-9.37991108 36.42005338 -9.43222398 33.10673155 -9.48828125 29.79296875 C-9.49467117 28.7585112 -9.5010611 27.72405365 -9.50764465 26.6582489 C-9.52743881 25.6974794 -9.54723297 24.7367099 -9.56762695 23.74682617 C-9.58428154 22.47774666 -9.58428154 22.47774666 -9.60127258 21.18302917 C-10.09469925 18.4815224 -10.75813157 17.56571629 -13 16 C-14.32 16 -15.64 16 -17 16 C-17.33 32.83 -17.66 49.66 -18 67 C-24.27 67 -30.54 67 -37 67 C-37.0093457 65.23366211 -37.01869141 63.46732422 -37.02832031 61.64746094 C-37.06385816 55.8078784 -37.11766275 49.96861738 -37.18390274 44.12931442 C-37.22339255 40.58928335 -37.25557317 37.04950156 -37.27099609 33.50927734 C-37.28905371 29.43807057 -37.33899725 25.36779546 -37.390625 21.296875 C-37.39185364 20.02696716 -37.39308228 18.75705933 -37.39434814 17.44866943 C-37.41406677 16.26774719 -37.4337854 15.08682495 -37.45410156 13.87011719 C-37.46298401 12.83087097 -37.47186646 11.79162476 -37.48101807 10.72088623 C-38.13507852 7.29181875 -39.36980128 6.22375209 -42 4 C-42.99 3.01 -43.98 2.02 -45 1 C-36.42 1 -27.84 1 -19 1 C-18.67 2.32 -18.34 3.64 -18 5 C-17.21625 4.360625 -16.4325 3.72125 -15.625 3.0625 C-10.67547393 -0.82641334 -6.13760713 -0.50628597 0 0 Z " fill="#0A3B61" transform="translate(162,0)"/>
<path d="M0 0 C9.57 0 19.14 0 29 0 C32.96 7.26 36.92 14.52 41 22 C41.33 14.74 41.66 7.48 42 0 C48.6 0 55.2 0 62 0 C62 21.78 62 43.56 62 66 C55.4 66 48.8 66 42 66 C37.33333333 56.66666667 32.66666667 47.33333333 28 38 C27.67 47.24 27.34 56.48 27 66 C20.4 66 13.8 66 7 66 C6.67 45.54 6.34 25.08 6 4 C4.02 3.34 2.04 2.68 0 2 C0 1.34 0 0.68 0 0 Z " fill="#0A3B61" transform="translate(0,1)"/>
<path d="M0 0 C8.39793863 5.24126666 14.4544202 11.69791195 17.203125 21.375 C18.71384406 31.56749084 18.52330548 41.8798409 13.1015625 50.890625 C9.90824542 55.06953377 6.50677881 58.35591065 2.203125 61.375 C1.57277344 61.82875 0.94242187 62.2825 0.29296875 62.75 C-7.74709792 67.35345766 -19.9528285 66.75280169 -28.74609375 64.6796875 C-30.96208301 63.75925915 -32.81323449 62.71984102 -34.796875 61.375 C-35.83328125 60.75625 -35.83328125 60.75625 -36.890625 60.125 C-44.26439914 55.28252146 -48.51659609 47.79130214 -50.796875 39.375 C-51.71803084 29.1351746 -51.44061173 19.69136229 -45.1484375 11.1328125 C-34.13401173 -1.99792215 -16.17112008 -7.92054861 0 0 Z M-39.796875 22.375 C-39.796875 28.315 -39.796875 34.255 -39.796875 40.375 C-34.69178121 40.4442303 -29.58834515 40.503853 -24.4831543 40.53979492 C-22.75002494 40.55479269 -21.01693296 40.57519772 -19.28393555 40.60131836 C-16.77903975 40.63810203 -14.2746498 40.65481651 -11.76953125 40.66796875 C-10.62521385 40.69119453 -10.62521385 40.69119453 -9.45777893 40.71488953 C-2.68553334 40.71696299 4.29500951 39.62601857 9.265625 34.6875 C10.2246875 33.5428125 10.2246875 33.5428125 11.203125 32.375 C8.86638318 27.1173309 5.33439216 25.38417179 0.203125 23.375 C-3.88319606 22.20303131 -7.84177525 22.24893471 -12.0625 22.27734375 C-12.85589783 22.2787587 -13.64929565 22.28017365 -14.46673584 22.28163147 C-16.99348772 22.28721585 -19.52015004 22.29976546 -22.046875 22.3125 C-23.76301955 22.31751702 -25.47916549 22.32207957 -27.1953125 22.32617188 C-31.39589535 22.33632802 -35.59628527 22.35590641 -39.796875 22.375 Z " fill="#0A3B61" transform="translate(336.796875,2.625)"/>
<path d="M0 0 C1.41249023 -0.0299707 1.41249023 -0.0299707 2.85351562 -0.06054688 C8.99446961 -0.05627342 13.87238111 0.796753 18.9375 4.4375 C23.03752427 9.48368372 24.0369329 13.40347398 24.14282227 19.75683594 C24.1727401 21.34803253 24.1727401 21.34803253 24.20326233 22.97137451 C24.21997482 24.11003967 24.23668732 25.24870483 24.25390625 26.421875 C24.27468735 27.59260559 24.29546844 28.76333618 24.31687927 29.96954346 C24.38225628 33.70880269 24.44120491 37.44813205 24.5 41.1875 C24.54319647 43.7226635 24.58681112 46.25781991 24.63085938 48.79296875 C24.73792563 55.00774065 24.83922671 61.22258309 24.9375 67.4375 C18.6675 67.4375 12.3975 67.4375 5.9375 67.4375 C5.6075 66.1175 5.2775 64.7975 4.9375 63.4375 C4.091875 64.2625 3.24625 65.0875 2.375 65.9375 C-3.2306419 69.96942686 -10.49726526 69.46442453 -17.0625 68.4375 C-22.11416292 65.56429312 -25.21227368 62.98817897 -27.0625 57.4375 C-27.69114583 48.49138632 -27.6698343 41.86936786 -21.875 34.75 C-16.11921932 30.01746922 -9.47325614 27.75400633 -2.48046875 25.3671875 C0.13915115 24.46133655 0.13915115 24.46133655 2.9375 22.4375 C3.2675 20.4575 3.5975 18.4775 3.9375 16.4375 C-6.2925 16.1075 -16.5225 15.7775 -27.0625 15.4375 C-25.37047882 10.36143645 -24.14714105 6.80434852 -20.0625 3.4375 C-13.6137495 0.27469404 -7.06287129 -0.05339628 0 0 Z M-7.125 43.3125 C-8.56673399 46.58043037 -7.88044698 49.03987407 -7.0625 52.4375 C-5.18111241 54.72680236 -5.18111241 54.72680236 -2.125 54.8125 C0.97082095 54.73774 0.97082095 54.73774 2.75 52.75 C5.43206345 47.52703433 5.04991799 42.17081728 4.9375 36.4375 C0.47530334 36.4375 -3.94181805 40.41869823 -7.125 43.3125 Z " fill="#0A3B61" transform="translate(94.0625,-0.4375)"/>
</svg>
