<svg version="1.1" id="Layer_1" xmlns="http://www.w3.org/2000/svg" xmlns:xlink="http://www.w3.org/1999/xlink" x="0px" y="0px" width="100%" viewBox="0 0 1072 280" enable-background="new 0 0 1072 280" xml:space="preserve">

<path fill="#005186" opacity="1.000000" stroke="none" d="
M1.000000,117.468658 
	C52.443302,117.000000 103.886604,117.000000 155.712067,117.000000 
	C155.827545,119.396545 155.987900,121.180473 155.988556,122.964478 
	C156.002884,162.127502 155.890259,201.290985 156.050903,240.453369 
	C156.119247,257.118042 142.098877,269.262238 127.497078,269.104492 
	C96.003677,268.764282 64.503082,268.855072 33.007408,269.065216 
	C18.636534,269.161072 9.408756,262.059204 3.359099,249.731720 
	C2.873018,248.741226 2.277432,247.804443 1.366364,246.921356 
	C1.000000,203.979111 1.000000,160.958206 1.000000,117.468658 
M152.000397,198.500000 
	C152.000397,172.774323 152.000397,147.048645 152.000397,121.457672 
	C102.478958,121.457672 53.936016,121.457672 5.371378,121.457672 
	C5.215908,122.554718 5.043307,123.205429 5.042959,123.856239 
	C5.022863,161.505280 4.849166,199.155365 5.080920,236.802933 
	C5.196176,255.525848 20.759069,265.446594 34.317139,265.185455 
	C64.958183,264.595306 95.624962,264.631683 126.267593,265.178986 
	C138.729279,265.401611 152.428085,254.432617 152.067276,239.479767 
	C151.745865,226.160400 152.000168,212.827133 152.000397,198.500000 
z" data-index="1" style="opacity: 1;"></path>
<path fill="#005186" opacity="1.000000" stroke="none" d="
M398.466858,281.000000 
	C396.724884,280.011414 395.248230,279.192108 394.234192,277.984314 
	C393.311188,276.884949 392.890594,275.363831 392.248566,274.028595 
	C393.573883,273.902863 395.137268,273.259064 396.183807,273.739990 
	C401.027618,275.965942 405.952057,276.869965 411.123718,275.384399 
	C416.440918,273.857025 418.319763,270.679474 417.620575,265.794067 
	C412.923645,266.756775 408.078156,268.901825 403.474335,268.470123 
	C391.332428,267.331482 389.156342,254.863571 390.370483,246.639496 
	C391.158966,241.298370 392.385925,235.204926 398.224152,233.164948 
	C402.702423,231.600159 407.924927,231.029785 412.614014,231.621490 
	C415.521057,231.988297 417.978943,233.836182 420.640625,231.164841 
	C420.923401,230.881012 421.888306,231.276886 422.936432,231.407074 
	C422.936432,244.113266 423.080353,256.750275 422.872070,269.381439 
	C422.776489,275.177368 417.587067,277.277039 413.901031,280.647461 
	C408.977905,281.000000 403.955811,281.000000 398.466858,281.000000 
M410.345581,263.236572 
	C416.001404,261.141815 418.936829,257.381104 418.038605,251.080078 
	C417.782898,249.286499 418.000793,247.425598 417.999084,245.595581 
	C417.991211,237.159012 410.082275,232.535965 402.320251,236.273849 
	C397.453217,238.617615 396.058685,242.888229 395.718658,247.624725 
	C394.865967,259.500916 398.989899,265.955719 410.345581,263.236572 
z" data-index="2" style="opacity: 1;"></path>

<path fill="#005186" opacity="1.000000" stroke="none" d="
M1073.000000,235.583344 
	C1071.343506,238.780258 1069.372803,241.423019 1068.085693,244.364883 
	C1062.871094,256.284088 1057.866577,268.295288 1052.892334,280.636292 
	C1051.933350,281.000000 1050.866577,281.000000 1049.399902,281.000000 
	C1049.622437,278.150726 1049.573364,274.893585 1051.005493,272.536163 
	C1054.093750,267.452637 1053.001221,263.046997 1050.688477,258.176300 
	C1047.155273,250.735397 1043.979248,243.119339 1040.868530,235.489182 
	C1040.384766,234.302444 1041.052612,232.646255 1041.187988,231.207138 
	C1042.573853,232.055634 1044.640625,232.577026 1045.231567,233.807343 
	C1048.369751,240.340408 1051.126465,247.056122 1054.041626,253.697083 
	C1054.696289,255.188278 1055.455078,256.633636 1056.635742,259.069489 
	C1060.021240,250.814972 1063.051880,243.413666 1066.093018,236.016647 
	C1067.226807,233.259247 1068.161377,230.239777 1072.597412,231.000854 
	C1073.000000,232.388885 1073.000000,233.777786 1073.000000,235.583344 
z" data-index="4" style="visibility: visible; opacity: 1;"></path>
<path fill="#005186" opacity="1.000000" stroke="none" d="
M80.571533,1.000000 
	C81.000000,3.454377 81.000000,5.908755 81.000000,8.601213 
	C83.808342,8.872509 86.062050,9.090226 88.696548,9.344728 
	C88.775475,11.078301 88.847023,12.649950 88.935982,14.603757 
	C86.339737,14.851730 84.083244,15.067253 81.482155,15.315690 
	C81.207855,17.267845 80.938797,19.182758 80.609238,21.528206 
	C78.984001,21.528206 77.299957,21.528206 75.333122,21.528206 
	C75.107445,19.505732 74.892776,17.581882 74.643036,15.343731 
	C71.899101,15.127489 69.311569,14.923573 66.335274,14.689018 
	C66.236717,12.950360 66.147659,11.379161 66.031067,9.322318 
	C68.958176,9.117366 71.546822,8.936113 74.999733,8.694345 
	C74.999733,6.377900 74.999733,4.133012 74.999863,1.444062 
	C76.714355,1.000000 78.428719,1.000000 80.571533,1.000000 
z" data-index="5"></path>
<path fill="#005186" opacity="1.000000" stroke="none" d="
M95.411301,77.058113 
	C96.543335,75.456718 97.846146,73.930969 97.895271,72.365868 
	C98.026482,68.186119 100.091805,66.841240 103.939789,66.982262 
	C108.213501,67.138863 109.418434,69.748657 109.834000,73.436478 
	C109.972046,74.661469 110.827148,76.671539 111.618599,76.809738 
	C115.392944,77.468765 115.969574,80.136299 115.896614,83.045486 
	C115.818970,86.141670 113.847908,87.744881 110.775093,88.027817 
	C110.169861,88.083542 109.584244,88.352333 109.050102,89.382408 
	C114.004204,89.382408 118.958305,89.382408 123.912415,89.382408 
	C120.403290,87.929604 116.859482,86.550461 118.172638,82.096558 
	C118.898972,79.633026 121.263336,77.652435 123.561684,74.545120 
	C124.366234,72.856865 125.021461,68.560036 127.252510,67.460411 
	C130.930634,65.647568 135.026596,67.373611 136.798584,70.291573 
	C133.674026,82.079315 130.794144,93.033325 127.851776,103.970528 
	C127.249207,106.210381 126.587807,108.082207 123.363960,108.067299 
	C92.369186,107.923958 61.373577,107.963158 30.378218,107.937126 
	C29.892801,107.936722 29.407524,107.772583 28.662447,107.637901 
	C26.797995,100.592049 25.025200,93.442276 22.987474,86.368835 
	C21.851519,82.425667 20.160122,78.644653 18.955647,74.717987 
	C18.500921,73.235558 18.165371,70.409157 18.712727,70.146187 
	C21.542448,68.786682 24.636225,67.659180 27.727261,67.353157 
	C28.664562,67.260361 30.211042,69.916855 30.874987,71.558220 
	C31.393650,72.840431 30.978874,74.500229 32.024384,75.401848 
	C33.978954,77.722504 37.493366,80.064850 37.461475,82.357872 
	C37.427723,84.784576 34.019516,87.164352 32.174980,89.453247 
	C35.980061,89.453247 40.886845,89.453247 45.793629,89.453247 
	C45.858448,89.221313 45.923267,88.989372 45.988087,88.757439 
	C45.223515,88.494873 44.256935,88.440552 43.731792,87.931152 
	C42.077404,86.326378 39.501640,84.643745 39.345295,82.814903 
	C39.192661,81.029510 41.572479,79.024605 42.848080,77.121109 
	C43.893173,75.561584 45.709213,74.073418 45.846577,72.441109 
	C46.157940,68.741241 47.540066,67.010490 51.348515,66.961632 
	C55.382065,66.909889 57.064732,68.643494 57.099422,72.652649 
	C57.111572,74.056770 58.036987,75.604698 58.918083,76.815796 
	C60.426517,78.889206 63.919857,81.208008 63.542252,82.599518 
	C62.835796,85.202896 59.956303,87.216591 58.068024,89.375900 
	C62.003944,89.375900 66.956474,89.375900 71.909004,89.375900 
	C71.940903,89.121056 71.972794,88.866219 72.004684,88.611374 
	C70.669167,88.204468 69.180359,88.049049 68.025780,87.345291 
	C63.944889,84.857796 64.085136,79.357666 68.606400,77.437157 
	C71.326012,76.281937 72.170647,74.938713 72.020050,72.306160 
	C71.801537,68.486549 73.767967,66.965652 77.497154,66.964615 
	C81.223923,66.963570 82.940033,68.482895 83.098061,72.296204 
	C83.162376,73.848106 84.001671,76.303673 85.090378,76.701805 
	C88.351021,77.894211 90.864052,79.850586 89.735886,83.111580 
	C88.884811,85.571617 86.026756,87.337326 84.158028,89.310661 
	C88.033264,89.310661 92.935402,89.310661 97.032951,89.310661 
	C95.223038,87.374184 92.457993,85.476479 91.458054,82.895058 
	C90.963707,81.618820 93.723213,79.082176 95.411301,77.058113 
z" data-index="6"></path>
<path fill="#005186" opacity="1.000000" stroke="none" d="
M302.440308,194.727478 
	C296.895081,193.994354 291.780334,193.012115 286.626801,192.318588 
	C285.265045,192.135315 282.938721,192.391342 282.498444,193.216049 
	C280.196198,197.528839 276.713348,197.505600 271.647003,196.357132 
	C272.473999,194.301666 272.807220,192.027222 274.085907,190.599518 
	C276.666809,187.717789 276.859589,185.601303 274.790497,181.987778 
	C267.941132,170.025696 268.870514,147.121094 283.937195,138.695251 
	C293.394745,133.406235 303.174927,133.661453 313.250244,138.401077 
	C316.026276,134.404022 319.775818,132.751526 325.517151,134.953812 
	C324.378876,137.116959 323.668671,139.524490 322.126404,141.135498 
	C320.099518,143.252640 320.245026,144.829865 321.629303,147.144119 
	C327.903107,157.632751 328.045746,168.737701 323.531464,179.715195 
	C319.846771,188.675369 312.345856,193.235153 302.440308,194.727478 
M292.523499,166.056641 
	C297.405731,159.695450 302.287964,153.334274 307.235229,146.888336 
	C300.109222,143.186783 293.536804,143.675659 288.825684,148.166489 
	C283.903381,152.858612 280.537598,164.714325 284.993988,175.689758 
	C287.515442,172.494156 289.818207,169.575699 292.523499,166.056641 
M307.982727,159.544113 
	C302.131622,167.238495 296.280487,174.932877 290.199554,182.929459 
	C294.971741,186.240921 299.672119,186.286087 304.613068,184.120422 
	C313.492126,180.228668 317.272034,165.257507 311.815918,154.709473 
	C310.647949,156.215103 309.556702,157.621841 307.982727,159.544113 
z" data-index="7" style="visibility: visible; opacity: 1;"></path>
<path fill="#005186" opacity="1.000000" stroke="none" d="
M545.242126,151.628860 
	C551.435425,133.982071 568.046631,131.250153 583.845581,139.179092 
	C583.845581,131.542404 583.845581,124.189804 583.845581,117.016129 
	C594.875671,113.951035 596.059631,118.308174 596.031738,124.991150 
	C595.943665,146.123077 596.004517,167.255600 595.988525,188.387878 
	C595.987305,190.019073 595.835388,191.650177 595.758545,193.180496 
	C586.884399,195.293839 585.235718,194.678680 583.564880,188.875580 
	C579.732056,190.580170 576.023743,192.724182 572.031189,193.917099 
	C556.879639,198.444168 545.160095,186.976028 544.170349,173.288956 
	C543.661804,166.256744 544.747864,159.109238 545.242126,151.628860 
M556.034363,159.997253 
	C556.028442,166.749695 555.258362,173.601807 558.950623,179.825775 
	C561.809875,184.645615 566.858398,186.498962 573.029663,184.884109 
	C579.770935,183.120102 583.970398,178.750580 583.992249,173.406982 
	C584.018005,167.087067 583.756775,160.754608 584.079346,154.451096 
	C584.309692,149.949173 581.982849,147.689972 578.342773,146.239410 
	C567.724304,142.008011 560.043945,146.486923 556.034363,159.997253 
z" data-index="8" style="opacity: 1;"></path>
<path fill="#005186" opacity="1.000000" stroke="none" d="
M201.264160,192.950027 
	C200.411789,192.663635 199.979584,192.396683 199.510895,192.236526 
	C190.722595,189.233459 190.228912,188.424255 191.557358,177.533020 
	C194.349625,178.484116 197.157318,178.941666 199.421616,180.303024 
	C206.921631,184.812302 214.610306,186.140244 222.988388,183.121216 
	C227.471756,181.505646 229.388275,178.162827 229.950500,173.802811 
	C230.522278,169.368790 228.795563,165.879898 224.743118,163.998367 
	C221.321686,162.409805 217.671890,161.311234 214.117233,160.012024 
	C210.408798,158.656647 206.521149,157.664810 203.013794,155.910355 
	C193.335159,151.068924 190.082336,141.984756 193.243393,130.101974 
	C195.324768,122.277817 202.648315,116.304214 213.386795,116.076492 
	C218.487869,115.968315 223.707596,116.125465 228.694229,117.089798 
	C238.283096,118.944107 238.873032,120.175110 237.434448,131.279999 
	C235.154388,130.650116 232.757538,130.447571 230.848831,129.375748 
	C224.764740,125.959320 218.438400,124.958130 211.726074,126.711014 
	C207.294327,127.868340 204.618179,130.834946 204.048737,135.400620 
	C203.461166,140.111450 205.586594,143.601120 209.869766,145.324417 
	C214.436966,147.162003 219.265366,148.338516 223.899902,150.023224 
	C231.396118,152.748169 239.113129,155.424561 241.190887,164.526093 
	C244.372971,178.465088 239.287766,191.212524 223.191864,194.129440 
	C215.795074,195.469879 208.765121,194.866074 201.264160,192.950027 
z" data-index="9" style="opacity: 1;"></path>
<path fill="#005186" opacity="1.000000" stroke="none" d="
M716.999756,172.999786 
	C716.999756,153.888443 716.999756,135.277054 716.999756,116.019524 
	C719.541626,116.019524 721.487915,115.930183 723.423157,116.038750 
	C727.073608,116.243523 729.121216,117.738121 729.061584,121.911690 
	C728.881348,134.528473 728.996460,147.149490 728.996460,161.332977 
	C733.478943,156.495712 737.066956,152.779099 740.472534,148.902130 
	C743.519470,145.433395 745.815674,140.995956 749.467346,138.461731 
	C752.597290,136.289566 757.177246,136.206604 761.115906,135.199692 
	C761.541809,135.789703 761.967712,136.379700 762.393555,136.969711 
	C761.543579,138.862015 761.068542,141.075317 759.774231,142.587234 
	C755.679749,147.370056 751.334656,151.944153 746.968689,156.485779 
	C745.256042,158.267426 744.668823,159.537872 746.290833,161.997803 
	C751.918335,170.532669 757.231445,179.277725 762.528381,188.025024 
	C763.444946,189.538589 763.701233,191.451996 764.272217,193.210800 
	C756.702515,195.280167 751.502808,194.122345 747.945312,187.220352 
	C744.716553,180.956238 740.517029,175.192505 736.436462,168.717773 
	C732.404480,172.005539 728.218079,174.430450 728.912903,180.588638 
	C729.375488,184.688614 729.000671,188.883041 729.000671,193.515961 
	C724.989319,193.515961 721.316345,193.515961 716.999756,193.515961 
	C716.999756,186.730942 716.999756,180.115341 716.999756,172.999786 
z" data-index="10" style="opacity: 1;"></path>
<path fill="#005186" opacity="1.000000" stroke="none" d="
M1022.146729,183.378448 
	C1025.323120,181.943634 1028.162354,180.732330 1031.257080,179.411987 
	C1032.866455,189.008438 1032.304932,190.291519 1024.637207,192.623444 
	C1013.143188,196.119110 1001.688965,196.901489 991.965149,188.305283 
	C988.826538,185.530609 986.154419,181.415695 984.955933,177.409225 
	C981.136719,164.641968 981.381104,152.174896 991.602783,141.969193 
	C999.650085,133.934540 1009.626953,133.242249 1019.734985,136.510284 
	C1029.694092,139.730179 1032.636597,148.486786 1033.920532,157.824020 
	C1034.342896,160.895584 1033.986938,164.074173 1033.986938,167.812500 
	C1021.295166,167.812500 1009.070068,167.812500 997.025024,167.812500 
	C994.814209,175.786118 1000.404297,184.401962 1008.084961,184.840851 
	C1012.621399,185.100052 1017.232178,184.058517 1022.146729,183.378448 
M1010.399719,144.001251 
	C1001.816528,142.412918 995.354919,151.973251 996.633789,158.539215 
	C1004.982788,158.539215 1013.333618,158.539215 1021.691101,158.539215 
	C1021.251709,148.923996 1018.098328,144.662979 1010.399719,144.001251 
z" data-index="11" style="visibility: visible; opacity: 1;"></path>
<path fill="#005186" opacity="1.000000" stroke="none" d="
M687.813110,194.990936 
	C659.238403,195.576904 652.790283,169.686310 661.091187,150.084137 
	C667.525269,134.890305 686.277222,129.968994 699.918823,139.398972 
	C706.298340,143.808929 708.079529,150.687729 708.925964,157.830414 
	C709.291748,160.917587 708.987244,164.084213 708.987244,167.830872 
	C696.273926,167.830872 684.040955,167.830872 671.979187,167.830872 
	C669.930603,175.723419 675.155334,183.988678 682.651428,184.860229 
	C688.951660,185.592758 695.223694,185.236435 700.879822,181.577713 
	C702.388428,180.601852 704.320435,180.280518 706.157776,179.622986 
	C708.634583,191.153046 705.601257,190.627151 695.583374,193.859421 
	C693.263916,194.607773 690.710266,194.629974 687.813110,194.990936 
M685.477600,159.000427 
	C689.210938,159.000427 692.944336,159.000427 696.613647,159.000427 
	C697.132568,148.720840 692.705811,143.826477 683.895874,144.002670 
	C676.235840,144.155853 670.794312,150.576920 671.620789,158.554626 
	C672.074890,158.676407 672.548218,158.908005 673.024719,158.914551 
	C676.847473,158.967178 680.670837,158.977295 685.477600,159.000427 
z" data-index="12" style="opacity: 1;"></path>
<path fill="#005186" opacity="1.000000" stroke="none" d="
M898.207825,172.730988 
	C901.808228,162.627350 907.287476,160.351105 919.860901,159.113632 
	C923.886841,158.717407 928.039551,159.609131 932.073242,159.907089 
	C935.114502,149.264175 930.195862,143.316147 919.718872,144.996414 
	C915.749573,145.632996 911.949829,147.278244 908.032654,148.311447 
	C906.338318,148.758331 904.542236,148.819595 902.857178,149.047302 
	C900.743958,140.447891 901.723816,139.212234 909.894043,136.825699 
	C917.735107,134.535339 925.540955,134.186966 933.393738,136.091919 
	C939.778564,137.640762 944.480347,141.912064 944.732117,148.386963 
	C945.312866,163.324417 944.916443,178.299881 944.916443,193.463318 
	C939.757690,194.470627 935.279968,194.972870 932.892761,189.392715 
	C924.521423,195.113831 915.751709,197.146759 906.608032,192.683701 
	C898.538208,188.744858 897.520874,181.148438 898.207825,172.730988 
M925.999817,184.897690 
	C933.798279,179.805588 934.509705,177.944870 931.986389,167.279526 
	C926.736755,167.715363 921.144653,167.531799 915.911743,168.813889 
	C911.526855,169.888229 909.415466,173.828705 910.105164,178.571548 
	C910.709106,182.724930 914.803467,185.974640 919.401062,185.943222 
	C921.339722,185.929977 923.274475,185.354492 925.999817,184.897690 
z" data-index="13" style="visibility: visible; opacity: 1;"></path>
<path fill="#005186" opacity="1.000000" stroke="none" d="
M374.571014,193.743958 
	C365.305359,191.046661 362.614807,182.632217 363.070801,175.364365 
	C363.552124,167.692978 369.481750,161.240952 377.614136,160.169189 
	C384.066223,159.318848 390.651733,159.480652 397.306641,159.187408 
	C400.015930,148.924545 395.337921,143.287460 384.765564,144.991013 
	C380.791565,145.631332 376.984070,147.259613 373.062897,148.294250 
	C371.364960,148.742279 369.571381,148.827850 367.884918,149.068954 
	C365.748871,140.714798 366.360229,139.602814 373.937317,137.101120 
	C381.993835,134.441116 390.166901,134.118484 398.383911,136.070343 
	C405.527161,137.767120 409.979218,143.522034 409.991882,150.798996 
	C410.016449,164.927994 409.999084,179.057068 409.999084,193.052704 
	C402.519196,195.066483 400.917511,194.526184 398.105896,189.162537 
	C391.180969,194.585266 383.480408,196.358444 374.571014,193.743958 
M375.135590,178.123901 
	C377.871460,185.410538 383.144318,187.695679 390.845642,184.932297 
	C397.668121,182.484283 399.795593,176.806259 397.102325,168.443924 
	C395.114868,168.018158 393.189240,167.587540 391.255920,167.194641 
	C383.033356,165.523529 375.898895,169.990829 375.135590,178.123901 
z" data-index="14" style="opacity: 1;"></path>
<path fill="#005186" opacity="1.000000" stroke="none" d="
M804.644104,149.783142 
	C811.765564,136.223358 823.671692,133.286804 835.332397,135.400131 
	C847.855469,137.669724 856.641602,148.819992 857.022583,160.869522 
	C857.282349,169.084198 856.832214,176.983765 851.642517,183.994141 
	C845.179382,192.724686 836.201477,196.072601 826.068237,194.707687 
	C808.259583,192.308899 802.195129,181.039261 801.255859,166.388107 
	C800.913513,161.049149 803.293518,155.535660 804.644104,149.783142 
M815.400574,155.160767 
	C813.278442,162.154053 813.198242,169.068619 815.884216,175.982285 
	C818.259705,182.096832 822.351807,185.003311 829.052551,184.998779 
	C835.668213,184.994293 840.947937,181.574402 842.916077,175.839020 
	C845.273865,168.968063 845.554443,162.120346 843.170898,155.083572 
	C840.794861,148.068939 835.584045,144.832108 829.352661,144.125748 
	C824.180847,143.539505 818.029175,148.492920 815.400574,155.160767 
z" data-index="15" style="opacity: 1;"></path>
<path fill="#005186" opacity="1.000000" stroke="none" d="
M527.908691,146.995331 
	C522.988403,146.255600 518.420166,145.051682 513.935242,145.307510 
	C511.883179,145.424561 509.083740,148.057037 508.246368,150.186874 
	C506.992828,153.375397 509.244293,155.989258 512.462036,156.916290 
	C517.190857,158.278641 522.117371,158.981659 526.803284,160.460815 
	C536.140808,163.408264 538.290222,167.241791 537.996704,179.225052 
	C537.836609,185.762009 532.826355,192.459915 525.666321,193.447647 
	C518.941040,194.375397 511.834808,194.457977 505.158966,193.341431 
	C496.836578,191.949478 496.094391,189.801056 497.653076,179.698471 
	C499.643005,180.381287 501.608551,180.779694 503.301208,181.687073 
	C508.895782,184.686111 514.807617,186.701767 520.801025,183.920929 
	C523.360352,182.733459 526.031738,179.663696 526.665222,176.980194 
	C527.480469,173.527191 524.310242,171.631454 520.891296,170.868469 
	C516.245850,169.831772 511.562286,168.871964 507.027710,167.454773 
	C500.318970,165.358093 497.348816,161.402191 496.976440,155.520874 
	C496.170319,142.787323 500.031036,139.942245 506.219696,137.208328 
	C514.594116,133.508804 523.360291,134.410385 531.831665,137.486969 
	C535.438843,138.796997 535.678345,140.316788 534.376221,149.317383 
	C532.227478,148.543594 530.261169,147.835510 527.908691,146.995331 
z" data-index="16"></path>
<path fill="#005186" opacity="1.000000" stroke="none" d="
M337.981323,132.882812 
	C338.644775,126.133545 338.987610,119.186752 346.350800,117.096054 
	C350.965424,115.785782 356.204529,115.936569 361.012665,116.572136 
	C362.194794,116.728386 362.787842,121.340965 363.524567,123.527443 
	C358.927429,125.000084 354.938049,125.409744 352.219604,127.484604 
	C350.665955,128.670441 351.181824,132.567642 350.699005,135.674194 
	C354.795197,135.903244 358.042480,136.084824 361.631104,136.285477 
	C361.631104,139.100525 361.631104,141.661270 361.631104,144.673553 
	C358.296295,144.876266 355.052368,145.073441 351.211182,145.306946 
	C351.211182,161.329651 351.211182,177.212051 351.211182,193.542938 
	C346.725861,193.542938 342.840027,193.542938 338.165924,193.542938 
	C338.165924,177.654907 338.165924,161.645432 338.165924,145.444901 
	C335.512787,145.127060 333.595398,144.897354 331.355469,144.628998 
	C331.355469,141.898468 331.355469,139.332367 331.355469,137.621292 
	C333.886261,135.975571 335.928497,134.647537 337.981323,132.882812 
z" data-index="17" style="opacity: 1;"></path>
<path fill="#005186" opacity="1.000000" stroke="none" d="
M460.958893,135.983490 
	C462.266205,134.700699 463.753113,133.489944 463.873749,132.155670 
	C464.213837,128.394440 463.992523,124.582451 463.992523,120.399216 
	C468.056580,120.399216 471.611786,120.399216 475.803131,120.399216 
	C475.803131,125.341980 475.803131,130.237366 475.803131,135.659836 
	C480.295502,135.868073 484.196808,136.048889 488.541077,136.250259 
	C488.541077,138.932251 488.541077,141.490417 488.541077,144.690903 
	C484.680450,144.877747 480.648590,145.072876 476.122345,145.291931 
	C476.122345,156.737732 475.878571,167.835831 476.254608,178.912888 
	C476.386139,182.787689 478.656708,185.758179 483.509125,185.044861 
	C485.416412,184.764481 487.399353,184.998932 489.667175,184.998932 
	C489.667175,188.174011 489.667175,190.737625 489.667175,194.117249 
	C484.647430,194.117249 479.791199,194.498108 475.018982,194.027237 
	C468.008850,193.335526 464.354095,189.678955 464.081573,180.179321 
	C463.753418,168.740189 464.003906,157.284454 464.003906,145.541519 
	C461.695770,145.207138 459.783997,144.930176 457.105713,144.542160 
	C458.527130,141.692703 453.547058,137.019089 460.958893,135.983490 
z" data-index="18"></path>
<path fill="#005186" opacity="1.000000" stroke="none" d="
M781.837585,120.007156 
	C785.127563,119.689407 786.138184,121.000145 786.028259,123.768562 
	C785.877563,127.565010 785.990601,131.371933 785.990601,135.687042 
	C790.345276,135.881653 794.254028,136.056320 798.570251,136.249191 
	C798.570251,138.993347 798.570251,141.557190 798.570251,144.697495 
	C794.736572,144.870956 790.822754,145.048035 786.000122,145.266235 
	C786.000122,149.275131 786.000000,153.188965 786.000122,157.102783 
	C786.000366,163.099640 785.980225,169.096573 786.006042,175.093323 
	C786.042419,183.543396 787.324585,184.833145 795.687744,185.012756 
	C796.836914,185.037445 797.983704,185.172119 799.556763,185.286880 
	C799.556763,187.946304 799.556763,190.502655 799.556763,194.164551 
	C794.868591,194.164551 790.062073,194.364594 785.278198,194.120178 
	C776.995667,193.696991 774.185730,186.825180 774.049255,179.805679 
	C773.835571,168.816544 773.927856,157.821503 773.874634,146.829041 
	C773.873108,146.516388 773.691589,146.204620 773.460876,145.466629 
	C771.739624,145.221237 769.829590,144.948914 767.461914,144.611359 
	C767.461914,141.994995 767.461914,139.309433 767.461914,136.362808 
	C769.520447,136.115372 771.441284,135.884476 773.956055,135.582199 
	C773.956055,130.533310 773.956055,125.619614 773.956055,120.003769 
	C776.838440,120.003769 779.108643,120.003769 781.837585,120.007156 
z" data-index="19" style="opacity: 1;"></path>
<path fill="#005186" opacity="1.000000" stroke="none" d="
M956.841187,186.746399 
	C956.487671,181.902939 956.086426,177.460388 956.032837,173.013641 
	C955.923096,163.898941 955.999878,154.781998 955.999878,145.433121 
	C953.536194,145.137436 951.618164,144.907227 949.365234,144.636826 
	C949.365234,141.922333 949.365234,139.354721 949.365234,136.468185 
	C951.346985,136.188599 953.267029,135.917725 955.795044,135.561066 
	C955.795044,130.717270 955.795044,125.807053 955.795044,120.452011 
	C959.953491,120.452011 963.511719,120.452011 967.712891,120.452011 
	C967.712891,125.244034 967.712891,130.142838 967.712891,135.634720 
	C972.336975,135.868835 976.372681,136.073151 980.684998,136.291473 
	C980.684998,139.215179 980.684998,141.774521 980.684998,144.965225 
	C976.500549,144.965225 972.592224,144.965225 968.072327,144.965225 
	C968.072327,157.178940 967.853394,168.782257 968.324036,180.357559 
	C968.389648,181.970749 971.643127,183.951141 973.800415,184.830505 
	C975.636047,185.578751 978.018677,184.985031 980.575195,184.985031 
	C980.575195,187.970764 980.575195,190.533295 980.575195,193.123978 
	C970.003540,197.179688 960.949707,194.900833 956.841187,186.746399 
z" data-index="20" style="visibility: visible; opacity: 1;"></path>
<path fill="#005186" opacity="1.000000" stroke="none" d="
M1044.002197,181.641815 
	C1044.001099,169.400452 1044.001099,157.618134 1044.001099,145.540680 
	C1041.689941,145.206436 1039.779541,144.930161 1037.437500,144.591446 
	C1037.437500,142.086380 1037.437500,139.519806 1037.437500,136.478714 
	C1039.299683,136.202316 1041.342529,135.899109 1043.970459,135.509048 
	C1043.970459,130.509689 1043.970459,125.601242 1043.970459,120.359024 
	C1048.136353,120.359024 1051.691284,120.359024 1055.881836,120.359024 
	C1055.881836,125.423409 1055.881836,130.323654 1055.881836,135.839630 
	C1060.386475,135.839630 1064.286621,135.839630 1068.583252,135.839630 
	C1068.583252,139.016968 1068.583252,141.577484 1068.583252,144.702362 
	C1064.719849,144.873962 1060.811035,145.047562 1055.999634,145.261261 
	C1055.999634,149.608475 1055.999634,153.850143 1055.999756,158.091812 
	C1055.999756,164.412201 1055.982910,170.732635 1056.005005,177.052948 
	C1056.027344,183.428818 1057.489746,184.870895 1063.901978,185.009415 
	C1065.366455,185.041046 1066.828491,185.182419 1068.571777,185.290665 
	C1068.727051,186.775955 1068.946045,188.050156 1068.969971,189.327988 
	C1068.994263,190.631149 1068.826660,191.937881 1068.749634,193.141098 
	C1056.499634,198.034042 1043.797852,193.239136 1044.002197,181.641815 
z" data-index="21" style="visibility: visible;"></path>
<path fill="#005186" opacity="1.000000" stroke="none" d="
M250.000000,188.959198 
	C250.000000,171.207367 250.000000,153.948456 250.000000,137.016724 
	C250.874481,136.524734 251.148132,136.240784 251.432602,136.229462 
	C264.309753,135.717346 261.848816,135.007233 262.699615,146.537476 
	C263.871857,162.424118 263.300568,178.470734 262.848877,194.431076 
	C262.657471,201.194397 262.446350,209.066208 253.870865,211.356415 
	C249.703796,212.469299 245.088272,211.902985 240.336273,212.111740 
	C240.336273,209.306198 240.336273,207.205994 240.336273,204.954697 
	C240.428665,204.838577 240.589249,204.416534 240.837555,204.356339 
	C250.802734,201.940170 249.977249,202.754364 250.000000,188.959198 
z" data-index="22" style="visibility: visible; opacity: 1;"></path>
<path fill="#005186" opacity="1.000000" stroke="none" d="
M580.000183,231.024872 
	C579.998047,242.675430 579.937988,253.831467 580.029968,264.986237 
	C580.056885,268.239471 579.128906,269.789276 575.103638,268.320221 
	C575.103638,255.662659 575.103638,242.803452 575.103638,229.944244 
	C574.742004,229.878693 574.380371,229.813141 574.018738,229.747604 
	C572.350037,233.976456 570.640198,238.189667 569.021729,242.437683 
	C566.205811,249.828735 563.547913,257.282410 560.584656,264.613129 
	C559.921692,266.253113 558.270447,267.493622 557.074219,268.918091 
	C555.873047,267.602081 554.182007,266.485870 553.550476,264.937531 
	C549.568054,255.173279 545.836121,245.307053 541.980469,235.490601 
	C541.345520,233.873932 540.508362,232.336670 538.969238,230.942749 
	C538.969238,243.354752 538.969238,255.766754 538.969238,268.347809 
	C536.165955,269.151093 534.007446,269.734589 534.016235,265.894470 
	C534.050354,250.910309 534.062744,235.926086 534.110352,220.941986 
	C534.111755,220.484299 534.413269,220.027557 534.607300,219.478714 
	C538.964294,218.283813 541.547668,218.841232 543.292297,224.025299 
	C547.225098,235.711273 552.133057,247.069092 557.115784,259.761688 
	C559.640869,253.402390 561.866943,247.901749 564.010681,242.369186 
	C566.392456,236.222229 568.921753,230.118729 570.961731,223.857803 
	C572.372498,219.527802 574.742981,217.932816 580.000183,219.689301 
	C580.000183,223.054581 580.000183,226.792236 580.000183,231.024872 
z" data-index="23" style="opacity: 1;"></path>
<path fill="#005186" opacity="1.000000" stroke="none" d="
M419.000427,165.000000 
	C419.000427,155.218613 419.000427,145.937241 419.000427,136.800232 
	C428.199799,134.872589 429.639465,135.401062 431.579865,140.884796 
	C435.289429,139.236542 438.885193,137.141647 442.762573,136.021652 
	C450.352081,133.829391 451.224335,134.676498 450.981018,142.342346 
	C450.950134,143.315552 450.797668,144.284912 450.769592,144.568497 
	C445.205963,146.309433 440.078949,147.838013 435.006165,149.529297 
	C431.924927,150.556595 430.901245,152.819092 430.941803,156.098007 
	C431.094177,168.409515 431.002838,180.724030 431.002838,193.516968 
	C427.110260,193.516968 423.554443,193.516968 419.000427,193.516968 
	C419.000427,184.301315 419.000427,174.900650 419.000427,165.000000 
z" data-index="24" style="opacity: 1;"></path>
<path fill="#005186" opacity="1.000000" stroke="none" d="
M627.019592,139.330688 
	C627.494873,133.960938 631.426147,135.949066 633.559387,136.226196 
	C635.905640,136.531006 638.029358,138.548004 641.016174,140.257568 
	C643.180054,139.285721 646.762512,137.159790 650.635986,136.046005 
	C658.415649,133.809036 659.249817,134.652451 658.974670,142.696426 
	C658.946716,143.513412 658.811890,144.326767 658.770630,144.721359 
	C653.671997,146.198685 648.829956,147.516693 644.044434,149.015228 
	C640.236084,150.207748 638.775818,152.730026 638.900757,156.923218 
	C639.207642,167.230392 639.000244,177.552887 638.999756,187.869217 
	C638.999695,189.661133 638.999756,191.453033 638.999756,193.619781 
	C634.906372,193.619781 631.350342,193.619781 627.009521,193.619781 
	C627.009521,175.601440 627.009521,157.699768 627.019592,139.330688 
z" data-index="25" style="opacity: 1;"></path>
<path fill="#005186" opacity="1.000000" stroke="none" d="
M873.376038,136.071930 
	C874.903809,137.760300 876.009583,139.411606 877.368225,141.440414 
	C882.615723,137.678543 888.180298,133.904449 895.688721,135.395340 
	C895.688721,138.886810 895.688721,142.121826 895.688721,144.938766 
	C890.876404,146.183624 886.376648,147.074020 882.075378,148.544754 
	C878.477539,149.774933 876.833191,152.459885 876.915710,156.614151 
	C877.156982,168.754730 877.001465,180.903183 877.001465,193.522400 
	C873.095947,193.522400 869.538635,193.522400 865.486755,193.522400 
	C865.486755,174.668045 865.486755,155.663132 865.486755,136.034882 
	C868.065613,136.034882 870.509827,136.034882 873.376038,136.071930 
z" data-index="26" style="visibility: visible; opacity: 1;"></path>
<path fill="#005186" opacity="1.000000" stroke="none" d="
M197.046906,221.482315 
	C199.947479,217.877319 202.420059,218.128555 205.010239,222.094437 
	C211.057327,231.353287 216.995331,240.683319 222.996628,249.972183 
	C224.598511,252.451599 226.269226,254.886566 228.471436,258.185425 
	C228.715546,256.228119 228.976105,255.094360 228.979858,253.959747 
	C229.013992,243.627548 229.064743,233.294632 228.970276,222.963211 
	C228.940048,219.658829 229.959229,218.221146 233.673248,219.618011 
	C233.673248,235.790436 233.673248,252.041321 233.673248,268.420624 
	C230.549438,269.456451 228.721771,269.037628 226.799133,265.883545 
	C219.758652,254.333572 212.238052,243.075943 204.868820,231.727325 
	C204.346313,230.922668 203.585434,230.272797 202.184235,228.716858 
	C202.184235,242.485519 202.184235,255.317413 202.184235,268.069580 
	C198.117172,269.815308 196.948792,268.523254 196.971252,264.927032 
	C197.060730,250.595703 197.016891,236.263550 197.046906,221.482315 
z" data-index="27" style="opacity: 1;"></path>
<path fill="#005186" opacity="1.000000" stroke="none" d="
M701.000610,258.945160 
	C700.996521,261.433868 700.900269,263.437927 701.009033,265.430786 
	C701.191895,268.781494 699.615723,269.533142 696.357422,268.449036 
	C696.357422,256.177979 696.357422,243.808182 696.357422,230.343292 
	C698.687988,231.906036 700.317627,232.998779 702.084045,234.183243 
	C709.253296,231.363586 716.702271,227.600601 722.676147,234.115387 
	C728.769226,232.999588 734.141296,231.522995 739.585510,231.174973 
	C743.932068,230.897125 746.787170,233.934921 746.903320,238.336700 
	C747.144897,247.492554 747.067017,256.661102 746.860901,265.818573 
	C746.837280,266.867859 745.161560,267.879883 744.251831,268.909180 
	C743.507690,267.880402 742.143616,266.866608 742.118347,265.820526 
	C741.929443,257.995392 742.035767,250.163651 741.988037,242.334351 
	C741.951416,236.325638 738.719788,234.053650 732.982544,235.916016 
	C725.044922,238.492630 724.001648,239.904022 723.999817,248.061493 
	C723.998535,253.725449 723.906677,259.391296 724.027039,265.052612 
	C724.097595,268.372772 723.011841,269.772614 718.999023,268.253845 
	C718.999023,260.340515 719.010620,252.221176 718.995361,244.101883 
	C718.983704,237.899323 717.046936,235.046494 712.909058,235.060623 
	C707.059021,235.080612 701.027893,240.083557 701.005920,244.961899 
	C700.985657,249.459671 701.000977,253.957611 701.000610,258.945160 
z" data-index="28" style="opacity: 1;"></path>
<path fill="#005186" opacity="1.000000" stroke="none" d="
M605.000488,182.965637 
	C605.000488,167.207382 605.000488,151.944275 605.000488,137.009598 
	C605.883911,136.519333 606.153809,136.250275 606.444641,136.225372 
	C616.999207,135.321320 616.999817,135.324432 617.000061,145.699585 
	C617.000366,161.490799 617.000122,177.281998 617.000122,193.534683 
	C613.076477,193.534683 609.522949,193.534683 605.000488,193.534683 
	C605.000488,190.272308 605.000488,186.866547 605.000488,182.965637 
z" data-index="29" style="opacity: 1;"></path>
<path fill="#005186" opacity="1.000000" stroke="none" d="
M334.000885,264.002045 
	C331.694611,256.422821 329.421173,249.246887 327.147705,242.070953 
	C326.826599,242.085205 326.505493,242.099472 326.184387,242.113724 
	C323.788177,249.747025 321.503876,257.418793 318.902496,264.981506 
	C318.374664,266.516022 316.650604,267.639008 315.477966,268.951691 
	C314.379181,267.750244 312.716614,266.726715 312.272369,265.318756 
	C309.198029,255.574982 306.347626,245.759750 303.509766,235.943069 
	C303.118469,234.589554 303.193207,233.101318 303.054169,231.695480 
	C307.875244,229.815948 308.076019,233.557343 308.802307,235.916000 
	C311.074036,243.293594 313.058380,250.759674 316.145264,258.265076 
	C318.088348,252.283890 320.047180,246.307739 321.962921,240.317795 
	C322.413910,238.907639 322.438232,237.286438 323.158752,236.054779 
	C324.208923,234.259735 325.711853,232.729523 327.021729,231.086395 
	C328.238251,232.850235 329.936340,234.454102 330.584869,236.406586 
	C332.943481,243.507401 334.950897,250.724884 338.218567,257.912018 
	C340.457581,250.558228 342.693512,243.203506 344.940002,235.851990 
	C345.180878,235.063751 345.321411,234.171967 345.795380,233.545135 
	C346.482941,232.635727 347.431976,231.923996 348.269501,231.127960 
	C348.837555,232.297226 350.000336,233.544479 349.859192,234.620728 
	C349.476379,237.540039 348.652802,240.420517 347.801910,243.255737 
	C345.670166,250.358734 343.559723,257.474304 341.132690,264.478058 
	C340.542694,266.180573 338.763519,267.471008 337.531189,268.950958 
	C336.365387,267.435730 335.199554,265.920502 334.000885,264.002045 
z" data-index="30"></path>
<path fill="#005186" opacity="1.000000" stroke="none" d="
M809.316040,252.370209 
	C813.247437,241.826553 816.917725,231.602371 820.884338,221.494492 
	C821.339050,220.335724 823.427795,219.249619 824.799866,219.197006 
	C825.923767,219.153915 827.754883,220.461441 828.168396,221.578827 
	C833.365723,235.622192 838.383423,249.732422 843.375305,263.850922 
	C843.847290,265.185944 843.834595,266.692383 844.047607,268.123474 
	C840.738953,269.868622 839.395996,268.643372 838.328796,265.761292 
	C833.962646,253.970337 833.883423,254.333557 821.289307,253.848145 
	C815.581482,253.628159 812.662537,255.285172 811.847656,260.942322 
	C811.572937,262.849213 810.863281,264.932526 809.685730,266.400482 
	C808.590271,267.766174 806.607605,268.420258 805.015503,269.387573 
	C804.637329,268.932129 804.259155,268.476685 803.880981,268.021240 
	C805.634949,262.922211 807.388916,257.823212 809.316040,252.370209 
M829.489136,240.983765 
	C827.909180,236.559235 826.329224,232.134705 824.226196,226.245514 
	C821.263000,234.603760 818.829224,241.468491 816.294922,248.616913 
	C821.879639,248.616913 826.754578,248.616913 832.178040,248.616913 
	C831.288391,245.968826 830.569214,243.828201 829.489136,240.983765 
z" data-index="31" style="visibility: visible; opacity: 1;"></path>
<path fill="#005186" opacity="1.000000" stroke="none" d="
M370.903137,268.999573 
	C360.691681,268.971405 355.115265,265.294495 353.057373,257.529816 
	C350.239777,246.898438 353.146729,237.406845 360.584564,232.952606 
	C365.541077,229.984375 374.487915,230.254715 378.966980,233.573349 
	C384.122009,237.392807 383.713135,243.414825 384.615112,248.820343 
	C384.695007,249.299164 381.916992,250.851837 380.437775,250.893570 
	C372.814941,251.108627 365.182800,250.993332 357.548370,250.993332 
	C357.879425,263.039215 367.948212,268.433624 378.503998,262.850677 
	C379.966583,262.077118 382.035065,262.449066 383.823059,262.290741 
	C382.536774,263.891052 381.561859,266.156281 379.892273,266.938110 
	C377.293976,268.154816 374.223633,268.363373 370.903137,268.999573 
M365.536438,235.797455 
	C359.957092,237.255295 358.406799,241.498322 357.838593,246.723541 
	C364.848511,246.723541 371.616058,246.723541 378.335205,246.723541 
	C379.694031,238.510239 375.152283,234.374039 365.536438,235.797455 
z" data-index="32" style="opacity: 1;"></path>
<path fill="#005186" opacity="1.000000" stroke="none" d="
M465.474243,267.845306 
	C464.189941,267.473694 463.155212,267.196747 462.161072,267.302246 
	C457.789337,267.766357 453.344208,269.139130 449.085358,268.684967 
	C442.971680,268.033081 440.465546,263.560272 441.014984,256.584808 
	C441.406128,251.619049 445.834229,247.474335 451.369110,247.048859 
	C453.518890,246.883606 455.690887,247.004044 457.852753,246.999985 
	C459.986237,246.995987 462.119720,246.999130 464.116791,246.999130 
	C466.203705,238.367050 461.527405,233.415146 453.549316,235.308136 
	C451.166168,235.873596 448.928802,237.066895 446.540985,237.592896 
	C445.536652,237.814148 444.315430,237.050919 443.192810,236.735199 
	C443.641327,235.598312 443.794556,233.772766 444.585205,233.433685 
	C450.798615,230.768967 457.250061,229.841003 463.856201,231.964661 
	C467.830902,233.242386 469.749481,236.492615 469.873138,240.233383 
	C470.180206,249.523361 469.974121,258.830292 469.974121,268.926239 
	C468.285706,268.602936 467.014099,268.359467 465.474243,267.845306 
M449.208893,252.410599 
	C444.983673,256.574066 444.823456,260.102020 448.720764,263.160553 
	C452.781555,266.347351 462.065552,264.382996 464.505981,259.820648 
	C466.002350,257.023163 464.906799,251.284851 462.659393,251.239548 
	C458.426392,251.154266 454.179871,251.738388 449.208893,252.410599 
z" data-index="33" style="opacity: 1;"></path>
<path fill="#005186" opacity="1.000000" stroke="none" d="
M938.000488,255.983337 
	C937.996094,259.479156 937.897034,262.482208 938.012634,265.476990 
	C938.143372,268.865875 936.543518,269.516510 932.999512,268.310791 
	C932.999512,260.404388 933.014465,252.286057 932.995483,244.167801 
	C932.975952,235.822525 929.360107,233.286453 921.681091,236.197433 
	C913.500366,239.298645 913.002075,240.026382 912.999512,248.847763 
	C912.997925,254.346710 912.894409,259.847992 913.026062,265.343719 
	C913.104614,268.619690 911.753906,269.565887 908.382812,268.482452 
	C908.382812,252.221375 908.382812,235.828766 908.382812,219.379929 
	C914.147278,218.454346 912.834229,222.538483 912.967896,225.387497 
	C913.107605,228.363922 912.999146,231.352020 912.999146,234.090317 
	C918.410400,233.014969 923.439453,231.500656 928.551331,231.129868 
	C934.966980,230.664520 937.828491,233.846008 937.973022,240.490265 
	C938.081726,245.487000 937.998291,250.487900 938.000488,255.983337 
z" data-index="34" style="visibility: visible; opacity: 1;"></path>
<path fill="#005186" opacity="1.000000" stroke="none" d="
M776.591919,263.928986 
	C778.966187,262.844788 780.942261,261.810120 782.918335,260.775421 
	C783.368164,261.142120 783.817993,261.508789 784.267822,261.875488 
	C783.388367,263.469147 782.901428,265.610565 781.565796,266.567657 
	C772.843018,272.818604 757.771240,269.152313 754.312073,259.130188 
	C750.841919,249.076187 752.060730,237.800461 761.497620,232.835678 
	C767.441895,229.708420 773.451477,229.897797 778.866150,233.604736 
	C784.711670,237.606628 785.437073,243.795792 784.689514,250.912537 
	C775.848938,250.912537 767.275696,250.912537 758.830872,250.912537 
	C756.824768,260.856262 765.136414,266.792938 776.591919,263.928986 
M778.097290,239.668655 
	C774.929504,235.690506 771.040649,233.770706 765.952881,235.576645 
	C760.890564,237.373505 758.706177,241.232956 758.199646,246.497894 
	C765.533569,246.497894 772.623657,246.497894 780.016296,246.497894 
	C779.466187,244.066345 779.035645,242.163330 778.097290,239.668655 
z" data-index="35" style="visibility: visible; opacity: 1;"></path>
<path fill="#005186" opacity="1.000000" stroke="none" d="
M615.000671,257.957336 
	C615.000671,261.763428 615.000671,265.076996 615.000671,268.182037 
	C614.313049,268.542175 613.879700,268.894989 613.764893,268.811218 
	C608.406006,264.900604 603.231567,269.624603 597.844299,269.162506 
	C588.491699,268.360321 583.698608,260.911743 587.801514,252.536209 
	C589.978943,248.091248 594.122559,247.504669 598.192932,247.085648 
	C601.797546,246.714584 605.470642,247.007889 610.395874,247.007889 
	C609.763489,243.373108 610.260925,239.019333 608.450439,237.591248 
	C606.007019,235.663834 601.798706,235.588867 598.327515,235.499161 
	C596.363525,235.448395 594.406799,237.139267 592.351013,237.684555 
	C591.443604,237.925262 590.298218,237.268890 589.260864,237.019821 
	C589.595886,235.829880 589.547241,234.163879 590.331726,233.531540 
	C593.939819,230.623230 609.156250,229.208710 612.348816,233.946152 
	C613.556702,235.738632 614.757019,237.919800 614.878784,239.987488 
	C615.220764,245.795502 614.999695,251.636688 615.000671,257.957336 
M592.905945,262.309082 
	C597.166870,265.516449 602.240784,265.873413 606.156677,263.249725 
	C610.658752,260.233246 610.606262,256.039703 609.347046,251.001404 
	C606.750854,251.001404 604.289734,250.988556 601.828796,251.003693 
	C593.055115,251.057632 591.355896,252.978531 592.905945,262.309082 
z" data-index="36" style="opacity: 1;"></path>
<path fill="#005086" opacity="1.000000" stroke="none" d="
M85.052666,47.922398 
	C80.877251,47.860031 76.551025,48.463593 72.565857,47.561111 
	C67.931915,46.511715 64.957565,41.041817 65.016335,35.886787 
	C65.080338,30.273165 67.946289,26.296734 73.683556,24.289371 
	C73.861160,26.620853 74.030876,28.848700 74.305321,32.451405 
	C74.743835,30.707319 74.947205,30.240812 74.967506,29.766472 
	C75.282448,22.408287 76.920074,21.473307 83.573242,24.878584 
	C90.815544,28.585398 92.614174,38.238285 87.205338,44.298073 
	C86.326378,45.282818 85.519691,46.332066 84.834305,47.671822 
	C84.989006,47.992142 85.052666,47.922398 85.052666,47.922398 
z" data-index="37"></path>
<path fill="#005186" opacity="1.000000" stroke="none" d="
M944.070801,256.526764 
	C944.018555,252.567398 943.726074,248.989471 944.045654,245.467117 
	C944.773926,237.440781 951.430176,231.148773 958.979431,231.002380 
	C969.977539,230.789093 976.217285,235.526779 978.086243,244.770081 
	C979.669800,252.602142 978.431824,259.480804 972.603271,265.073547 
	C965.283203,272.097534 948.286560,270.956238 944.070801,256.526764 
M953.425354,262.125061 
	C956.961365,262.906128 960.799133,264.975769 963.977905,264.231293 
	C974.304077,261.812927 977.107849,246.459641 969.053833,238.545486 
	C962.715088,232.316788 952.603882,234.575760 949.969299,243.115540 
	C947.965027,249.612183 947.961243,256.150513 953.425354,262.125061 
z" data-index="38" style="visibility: visible; opacity: 1;"></path>
<path fill="#005186" opacity="1.000000" stroke="none" d="
M243.709717,237.846527 
	C249.060989,231.136902 256.099976,229.210571 264.348511,231.983963 
	C271.184692,234.282501 274.798248,240.000626 275.051300,248.101944 
	C275.253754,254.584442 274.963837,260.631866 269.347900,265.220337 
	C264.068451,269.533905 258.100708,269.899506 252.034210,268.368927 
	C245.681274,266.766144 242.474045,261.986359 240.945984,255.707031 
	C239.414474,249.413544 240.445816,243.675842 243.709717,237.846527 
M269.996216,252.210953 
	C269.988617,250.215561 270.139374,248.204376 269.942108,246.227921 
	C269.459045,241.387558 266.790894,238.024734 262.433044,236.020432 
	C257.852570,233.913757 253.302292,234.800720 250.137878,238.220291 
	C247.869827,240.671234 246.307770,244.373718 245.787750,247.728180 
	C244.406845,256.636261 248.203705,262.909912 255.847626,264.807281 
	C261.460815,266.200531 269.696625,261.458527 269.996216,252.210953 
z" data-index="39" style="opacity: 1;"></path>
<path fill="#005186" opacity="1.000000" stroke="none" d="
M506.761414,234.562805 
	C507.300262,237.520340 507.912628,240.106216 507.951996,242.700806 
	C508.080597,251.168686 508.000214,259.639740 508.000214,268.116425 
	C504.167816,269.849579 502.921753,268.627869 502.972534,264.977905 
	C503.079102,257.321259 503.042175,249.661667 502.982361,242.003937 
	C502.939911,236.568619 499.958923,234.372986 494.606812,235.681534 
	C493.966736,235.838028 493.296265,235.872330 492.658630,236.036163 
	C484.577148,238.112610 483.001556,240.124664 483.000214,248.339493 
	C482.999146,254.969452 483.000000,261.599426 483.000000,268.229370 
	C482.569214,268.611084 482.138428,268.992798 481.707642,269.374481 
	C480.484528,268.359039 478.220428,267.366272 478.197754,266.324677 
	C477.944855,254.712769 478.038269,243.093323 478.038269,231.475922 
	C478.445221,231.179977 478.852173,230.884033 479.259125,230.588089 
	C480.858643,231.940506 482.458160,233.292938 484.256866,234.813766 
	C491.134308,231.740601 498.625519,227.496918 506.761414,234.562805 
z" data-index="40" style="opacity: 1;"></path>
<path fill="#005186" opacity="1.000000" stroke="none" d="
M848.999329,243.026184 
	C849.003662,239.866241 849.103149,237.196609 848.988281,234.536209 
	C848.842468,231.159515 850.435181,230.478333 854.000671,231.683319 
	C854.000671,239.913956 853.986633,248.362717 854.004761,256.811401 
	C854.021179,264.463959 856.949219,266.494415 864.335754,264.016418 
	C873.450500,260.958710 873.997253,260.201843 873.999573,250.666443 
	C874.000916,245.335342 873.939087,240.003036 874.033997,234.673553 
	C874.094238,231.292847 874.200073,231.294739 878.607666,231.389725 
	C878.607666,243.769623 878.607666,256.161011 878.607666,270.050415 
	C876.182922,268.327179 874.581482,267.189026 873.126343,266.154877 
	C868.262268,267.055176 863.050415,268.501038 857.763428,268.869843 
	C851.892273,269.279388 849.080322,266.045441 849.014832,260.013611 
	C848.955200,254.516525 849.000366,249.018311 848.999329,243.026184 
z" data-index="41" style="visibility: visible; opacity: 1;"></path>
<path fill="#005186" opacity="1.000000" stroke="none" d="
M1028.000000,254.879715 
	C1028.007324,263.246613 1028.019043,263.199310 1035.816284,265.129944 
	C1036.619019,265.328766 1037.176514,266.518097 1037.847778,267.247803 
	C1037.179810,267.811432 1036.590210,268.710388 1035.831909,268.887543 
	C1027.079468,270.932251 1023.005981,267.648224 1023.000793,258.651215 
	C1022.996399,251.015137 1022.999817,243.379074 1022.999817,236.733734 
	C1020.866394,235.052811 1019.500610,233.976746 1018.134827,232.900665 
	C1019.462158,231.979370 1020.789490,231.058075 1022.494080,229.874969 
	C1024.236450,221.305801 1024.236450,221.305801 1027.701782,221.398499 
	C1027.879761,224.278519 1028.060547,227.206467 1028.277832,230.723434 
	C1030.448730,230.834839 1032.569458,230.766800 1034.612061,231.134354 
	C1035.444946,231.284241 1036.107666,232.378754 1036.847900,233.043488 
	C1036.079102,233.681091 1035.372070,234.747726 1034.528809,234.869354 
	C1032.615234,235.145340 1030.634521,234.956299 1028.000000,234.956299 
	C1028.000000,241.843246 1028.000000,248.121246 1028.000000,254.879715 
z" data-index="42" style="visibility: visible;"></path>
<path fill="#005186" opacity="1.000000" stroke="none" d="
M893.000488,257.722748 
	C892.332947,263.289551 895.009583,264.991028 899.667114,265.106537 
	C900.744141,265.133270 901.790649,266.390533 902.851196,267.081543 
	C901.738586,267.717224 900.662476,268.824921 899.507568,268.914154 
	C889.839478,269.661133 888.011414,267.908813 887.998413,258.311707 
	C887.988892,251.315186 887.969421,244.318665 887.934082,237.322250 
	C887.931641,236.838654 887.759583,236.355911 887.758423,236.350052 
	C886.006165,235.101151 884.570862,234.078201 883.135559,233.055237 
	C884.520752,231.993484 885.905945,230.931732 887.811096,229.471451 
	C887.920837,227.436508 888.071350,224.645630 888.234436,221.621796 
	C890.766296,220.834213 892.943665,220.204132 892.975769,224.042374 
	C892.993530,226.157257 892.978943,228.272400 892.978943,230.731277 
	C895.406128,230.847870 897.235596,230.733261 898.965637,231.094711 
	C900.006470,231.312164 900.892334,232.271194 901.847839,232.896973 
	C900.961304,233.590256 900.152954,234.701019 899.170959,234.885086 
	C897.427124,235.211945 895.577881,234.976868 893.000061,234.976868 
	C893.000061,242.719971 893.000061,249.988007 893.000488,257.722748 
z" data-index="43"></path>
<path fill="#005186" opacity="1.000000" stroke="none" d="
M666.999878,243.095215 
	C667.000549,248.568405 667.213623,253.567764 666.939270,258.540222 
	C666.689087,263.075439 668.760986,264.795197 672.997437,265.080841 
	C674.317932,265.169861 675.570374,266.268097 676.854004,266.904327 
	C675.470276,267.601562 674.148010,268.709503 672.692566,268.927277 
	C664.997009,270.078705 661.398193,265.732300 661.880249,258.787323 
	C662.407288,251.193542 662.000122,243.534927 662.000122,236.453949 
	C660.041504,235.102737 658.588501,234.100388 657.135559,233.098022 
	C658.500122,232.024628 659.864685,230.951202 661.810303,229.420731 
	C661.913879,227.487518 662.063232,224.700256 662.228333,221.618546 
	C664.608887,220.992004 666.904480,219.985336 666.970886,223.956238 
	C667.006348,226.074646 666.977173,228.194122 666.977173,230.728470 
	C669.486145,230.848373 671.456787,230.774689 673.356506,231.106796 
	C674.256836,231.264175 675.021667,232.196915 675.847839,232.778397 
	C675.003418,233.508850 674.246338,234.687119 673.295593,234.872513 
	C671.547852,235.213333 669.686096,234.969742 666.999878,234.969742 
	C666.999878,237.774933 666.999878,240.192291 666.999878,243.095215 
z" data-index="44" style="opacity: 1;"></path>
<path fill="#005086" opacity="1.000000" stroke="none" d="
M280.999634,256.973877 
	C280.999634,248.188217 280.999634,239.897369 280.999634,231.606522 
	C281.407104,231.275436 281.814575,230.944336 282.222046,230.613251 
	C283.894287,231.899338 285.566528,233.185425 286.454559,233.868362 
	C290.667725,232.993881 294.835571,232.079910 299.044464,231.432373 
	C299.214355,231.406235 299.771851,233.899185 299.902863,234.357742 
	C296.144897,235.975662 292.788788,237.044373 289.837677,238.795593 
	C286.813721,240.590027 285.728516,243.521942 285.906372,247.270782 
	C286.235840,254.213974 286.000671,261.183929 286.000671,268.152588 
	C282.693298,269.545746 280.886261,269.216125 280.996399,265.447571 
	C281.074036,262.790161 281.003815,260.128479 280.999634,256.973877 
z" data-index="45"></path>
<path fill="#005186" opacity="1.000000" stroke="none" d="
M986.942017,268.896667 
	C985.674377,267.975922 984.144897,267.036865 984.130981,266.075775 
	C983.964661,254.616272 984.023743,243.153534 984.023743,229.805908 
	C986.849121,231.888382 988.523071,233.122192 989.563599,233.889130 
	C993.595459,233.021347 997.769043,232.069046 1001.986694,231.391769 
	C1002.176392,231.361313 1002.766296,233.823257 1003.239075,235.347733 
	C1000.969666,235.621338 999.208862,235.688126 997.517273,236.065170 
	C992.656311,237.148621 989.023743,241.749298 989.005981,246.720901 
	C988.984619,252.711212 989.096802,258.704529 988.922119,264.689850 
	C988.881042,266.096344 987.921326,267.476074 986.942017,268.896667 
z" data-index="46" style="visibility: visible;"></path>
<path fill="#005186" opacity="1.000000" stroke="none" d="
M623.999756,260.893311 
	C623.999756,250.790298 623.999756,241.171432 623.999756,230.337067 
	C626.489380,231.855850 628.141602,232.863785 629.829956,233.893738 
	C633.273865,232.796585 637.058594,231.590836 641.480835,230.181992 
	C641.703613,232.675293 641.826904,234.055145 641.885559,234.711456 
	C638.853638,235.784210 636.273926,236.567337 633.799561,237.602417 
	C629.933655,239.219559 628.749878,242.211685 628.918518,246.368576 
	C629.213440,253.639618 629.000732,260.931274 629.000732,268.337463 
	C625.680115,269.386047 623.786621,269.095276 623.998169,265.364563 
	C624.073242,264.039764 624.003357,262.706757 623.999756,260.893311 
z" data-index="47" style="opacity: 1;"></path>
<path fill="#005186" opacity="1.000000" stroke="none" d="
M36.528351,47.074860 
	C41.509968,47.309753 46.052795,47.583561 50.595619,47.857368 
	C50.736465,48.504360 50.877312,49.151348 51.018154,49.798340 
	C49.160572,50.530689 47.267776,51.966339 45.451416,51.875393 
	C36.934105,51.448944 30.691719,54.297768 27.050058,62.444656 
	C26.300552,64.121414 23.760857,64.997955 21.869707,66.371590 
	C18.894684,58.422558 24.429031,50.392239 32.267471,48.087856 
	C33.528011,47.717274 34.814869,47.436214 36.528351,47.074860 
z" data-index="48"></path>
<path fill="#005186" opacity="1.000000" stroke="none" d="
M105.221527,50.897079 
	C105.276497,50.000088 104.984253,48.589439 105.438164,48.282616 
	C113.109367,43.097141 130.704636,49.092178 133.295242,57.790878 
	C133.937057,59.945965 133.904480,62.301903 134.181885,64.565514 
	C133.805695,64.962814 133.429504,65.360115 133.053314,65.757416 
	C131.213715,64.513641 128.452866,63.675663 127.695091,61.955357 
	C124.530151,54.770218 119.093712,51.941006 111.608002,51.961781 
	C109.672203,51.967155 107.735100,51.497395 105.472351,51.051643 
	C105.146103,50.857399 105.221527,50.897079 105.221527,50.897079 
z" data-index="49"></path>
<path fill="#005186" opacity="1.000000" stroke="none" d="
M1008.433228,231.798920 
	C1011.303772,230.630310 1012.944580,231.434769 1012.953857,234.367996 
	C1012.989502,245.619644 1012.968323,256.871460 1012.968323,268.197845 
	C1009.770264,269.487396 1007.949524,269.316956 1007.992432,265.489380 
	C1008.116821,254.386093 1008.145508,243.281723 1008.433228,231.798920 
z" data-index="50" style="visibility: visible;"></path>
<path fill="#005186" opacity="1.000000" stroke="none" d="
M430.000183,252.995728 
	C430.000183,245.531342 430.000183,238.565765 430.000183,231.590668 
	C433.416351,230.615021 434.978149,231.518387 434.978241,234.678497 
	C434.978577,245.817596 434.978394,256.956696 434.978394,268.213806 
	C431.805634,269.458679 429.912079,269.357452 429.993805,265.486481 
	C430.078186,261.490906 430.004639,257.491974 430.000183,252.995728 
z" data-index="51" style="opacity: 1;"></path>
<path fill="#005186" opacity="1.000000" stroke="none" d="
M684.059265,268.896362 
	C683.115234,268.309174 682.182556,267.753632 682.178589,267.191498 
	C682.094421,255.295746 682.114929,243.399277 682.114929,231.593369 
	C685.587952,230.536453 686.984070,231.690582 686.982727,234.762039 
	C686.978333,245.039261 687.059631,255.317871 686.875549,265.591766 
	C686.855408,266.716614 685.330200,267.814514 684.059265,268.896362 
z" data-index="52" style="opacity: 1;"></path>
<path fill="#005186" opacity="1.000000" stroke="none" d="
M105.126373,50.819626 
	C105.712814,52.902168 106.435524,54.997574 106.895576,57.149136 
	C107.466980,59.821445 107.821144,62.540203 108.292694,65.380806 
	C103.976662,65.779633 102.099663,64.238693 100.814445,60.800938 
	C98.781403,55.362907 94.258232,52.630455 88.600494,52.080196 
	C86.285728,51.855072 84.645180,51.563175 85.039696,48.335022 
	C85.052666,47.922398 84.989006,47.992142 84.955254,48.025856 
	C92.075188,45.395359 98.389244,47.764458 104.862930,51.111675 
	C105.221527,50.897079 105.146103,50.857399 105.126373,50.819626 
z" data-index="53"></path>
<path fill="#005186" opacity="1.000000" stroke="none" d="
M649.007263,231.300415 
	C650.600159,232.802048 652.752869,234.409180 652.807800,236.085083 
	C653.133972,246.038452 653.085632,256.010590 652.833923,265.968109 
	C652.803345,267.179321 650.800171,268.340729 649.711182,269.525238 
	C649.340027,269.194061 648.968933,268.862885 648.597778,268.531708 
	C648.597778,256.167053 648.597778,243.802368 649.007263,231.300415 
z" data-index="54" style="opacity: 1;"></path>
<path fill="#005186" opacity="1.000000" stroke="none" d="
M47.094524,61.238869 
	C50.340137,50.561314 55.687557,46.431396 65.148773,47.042645 
	C66.426468,47.125191 67.784637,47.419147 68.904671,48.001530 
	C69.727974,48.429623 70.223145,49.488754 70.864548,50.266670 
	C70.036285,50.835983 69.230881,51.860188 68.376167,51.903145 
	C61.081505,52.269745 55.989208,55.248447 53.473461,62.562370 
	C52.899326,64.231544 49.903511,65.067749 47.363487,66.714409 
	C47.208248,64.232002 47.127258,62.936874 47.094524,61.238869 
z" data-index="55"></path>
<path fill="#005186" opacity="1.000000" stroke="none" d="
M249.682617,121.744347 
	C252.491013,116.652321 255.775055,115.401611 260.195312,117.663490 
	C263.926453,119.572769 264.429840,122.638031 263.026245,126.321609 
	C261.384827,130.629318 257.662292,130.457855 254.359421,129.793106 
	C250.506409,129.017609 248.914505,126.035423 249.682617,121.744347 
z" data-index="56"></path>
<path fill="#005186" opacity="1.000000" stroke="none" d="
M605.379272,127.572876 
	C603.581177,121.830132 604.771667,117.557671 608.580688,117.227921 
	C611.310608,116.991600 615.199097,117.631676 616.706421,119.437187 
	C618.102295,121.109268 618.131409,125.806839 616.736328,127.421280 
	C615.184692,129.216843 611.366760,129.216660 608.482483,129.599854 
	C607.606140,129.716263 606.554443,128.512146 605.379272,127.572876 
z" data-index="57"></path>
<path fill="#005186" opacity="1.000000" stroke="none" d="
M79.790054,50.073082 
	C80.824142,51.792789 81.768234,53.443668 81.920456,55.164589 
	C82.195770,58.277206 81.998405,61.431625 81.998405,64.625618 
	C79.437523,64.625618 77.140694,64.625618 74.418854,64.625618 
	C74.418854,60.016506 74.418854,55.365952 74.418854,50.300674 
	C76.144463,50.207863 77.743782,50.121841 79.790054,50.073082 
z" data-index="58"></path>
<path fill="#005186" opacity="1.000000" stroke="none" d="
M687.568115,224.726761 
	C685.903748,225.641815 684.442993,226.506714 682.925781,226.620575 
	C682.470398,226.654770 681.314148,224.507065 681.474731,223.521164 
	C681.626648,222.589081 683.522522,221.017899 683.893738,221.207932 
	C685.342346,221.949478 686.490295,223.278305 687.568115,224.726761 
z" data-index="59"></path>
<path fill="#005186" opacity="1.000000" stroke="none" d="
M435.867126,223.237183 
	C435.893951,227.453171 433.386292,227.102539 429.822723,226.577637 
	C430.342468,224.774216 430.815399,223.133163 431.288361,221.492111 
	C432.795959,221.940765 434.303589,222.389420 435.867126,223.237183 
z" data-index="60" style="visibility: visible;"></path>
<path fill="#005186" opacity="1.000000" stroke="none" d="
M1013.869141,224.781342 
	C1012.289490,225.618088 1010.774963,226.260544 1009.235168,226.328278 
	C1008.929504,226.341721 1008.118347,224.079315 1008.308044,223.001526 
	C1008.441895,222.240799 1010.321777,220.996063 1010.645020,221.199860 
	C1011.906494,221.995331 1012.858398,223.281586 1013.869141,224.781342 
z" data-index="61"></path>
<path fill="#005186" opacity="1.000000" stroke="none" d="
M649.215759,221.132721 
	C650.716553,222.140320 652.004517,223.089554 652.800354,224.349579 
	C653.005249,224.673996 651.764465,226.555771 651.004517,226.690811 
	C649.926758,226.882339 647.662537,226.074554 647.675537,225.769516 
	C647.741394,224.229523 648.381287,222.714081 649.215759,221.132721 
z" data-index="62" style="visibility: visible;"></path>

















<path fill="#005186" opacity="1.000000" stroke="none" d="
M50.257919,248.232803 
	C41.721069,256.682434 33.009529,258.592224 24.001154,253.394073 
	C13.260585,247.196411 13.011236,238.950806 14.603620,220.958969 
	C30.781908,224.886887 31.306242,237.528397 31.084848,250.607452 
	C31.559591,250.791504 32.034336,250.975571 32.509079,251.159622 
	C34.320732,248.704208 37.155529,246.473755 37.754009,243.751617 
	C39.619980,235.264343 41.255295,226.632858 41.843498,217.980026 
	C42.732147,204.907471 42.573338,191.766434 43.056938,178.661789 
	C43.189484,175.070053 41.981102,172.669022 38.888386,170.935974 
	C30.750982,166.376068 22.667683,161.719620 14.098071,156.836807 
	C20.340231,152.538910 27.457764,150.423965 35.008240,150.106491 
	C39.929588,149.899582 45.010399,150.141144 49.799973,151.187729 
	C53.729736,152.046402 55.670708,150.304611 57.588654,147.755341 
	C69.079552,132.482056 92.186386,125.032478 109.971581,130.915054 
	C110.906944,131.224426 112.072395,131.344696 112.706978,131.977768 
	C118.432594,137.689697 126.081978,138.279297 133.334122,140.013107 
	C134.796722,140.362778 136.072708,141.492966 137.434738,142.263306 
	C136.304962,143.502304 135.361389,145.011505 134.016510,145.938385 
	C121.141899,154.811432 107.527283,162.775177 95.542671,172.710007 
	C88.944672,178.179535 84.403809,186.550644 80.080757,194.256134 
	C71.359734,209.800629 63.462227,225.805862 55.113907,241.562164 
	C53.893082,243.866333 52.061703,245.846985 50.257919,248.232803 
z" data-index="80"></path>
<path fill="#005186" opacity="1.000000" stroke="none" d="
M61.774086,244.763397 
	C69.074257,230.826477 75.847267,217.003723 83.313866,203.566360 
	C87.535141,195.969498 92.344376,188.535629 97.962524,181.943466 
	C101.058624,178.310593 106.085358,175.389816 110.756760,174.239319 
	C118.902214,172.233215 127.445717,171.843338 135.584808,170.806305 
	C129.829865,179.601791 123.875511,187.681152 119.015053,196.372284 
	C111.913475,209.070862 105.734940,222.281860 98.899734,235.134460 
	C93.995430,244.356293 86.715775,251.696182 76.618301,254.376404 
	C69.082863,256.376556 60.895866,255.922043 52.115940,256.632080 
	C55.755486,252.153473 58.646343,248.596176 61.774086,244.763397 
z" data-index="81"></path>
<path fill="#005186" opacity="1.000000" stroke="none" d="
M124.002029,236.994171 
	C120.087555,245.253265 115.768326,252.894333 106.456673,255.086624 
	C101.738464,256.197449 96.696533,255.933258 91.551010,255.805984 
	C102.328239,245.233871 106.211403,230.980881 112.975418,218.448517 
	C119.785561,205.830719 129.655930,201.405121 142.472046,203.236267 
	C136.450516,214.193436 130.283173,225.415894 124.002029,236.994171 
z" data-index="82"></path>
</svg>