<svg version="1.1" id="Layer_1" xmlns="http://www.w3.org/2000/svg" xmlns:xlink="http://www.w3.org/1999/xlink" x="0px" y="0px"
	 width="100%" viewBox="0 0 4074 715" enable-background="new 0 0 4074 715" xml:space="preserve">
<path fill="#FFFFFF" opacity="1.000000" stroke="none" 
	d="
M1414.000000,1.000000 
	C2300.947754,1.000000 3187.895264,1.000000 4074.921387,1.000000 
	C4074.921387,239.266907 4074.921387,477.533844 4074.921387,716.000000 
	C3013.629150,716.000000 1952.258179,716.000000 890.639282,715.624451 
	C891.882019,715.165894 893.389648,714.896851 894.860596,715.031006 
	C902.665833,715.742981 910.632263,708.946777 911.888000,700.497681 
	C912.685303,695.132935 912.640198,689.644470 913.003967,684.213501 
	C913.664612,674.348755 913.743530,664.398132 915.154907,654.640930 
	C917.699768,637.047974 920.338684,619.413025 924.205200,602.078186 
	C932.738098,563.822937 945.687988,527.008606 962.739197,491.686188 
	C973.897400,468.571350 986.862122,446.485809 1001.331177,425.293915 
	C1016.819397,402.609283 1033.882690,381.146118 1053.121216,361.547211 
	C1065.420898,349.017151 1078.303467,337.027679 1091.374023,325.296600 
	C1100.512573,317.094696 1109.972656,309.103241 1120.068604,302.149384 
	C1136.974976,290.504639 1154.333252,279.486938 1171.812134,268.709473 
	C1194.810181,254.528946 1219.410889,243.469559 1244.730225,234.255325 
	C1263.352295,227.478348 1282.286743,221.250305 1301.511841,216.527054 
	C1320.472778,211.868698 1339.903076,208.912552 1359.261597,206.147690 
	C1374.207275,204.013077 1389.340454,202.636658 1404.426758,202.207397 
	C1417.772827,201.827682 1426.083374,194.245163 1426.049683,180.224426 
	C1425.924683,128.236267 1425.866821,76.246971 1426.113525,24.259674 
	C1426.162109,14.007325 1423.270996,6.033573 1414.000000,1.000000 
z"/>
<path fill="#FFFFFF" opacity="1.000000" stroke="none" 
	d="
M0.999992,678.000000 
	C1.000000,452.378479 1.000000,226.756973 1.000000,1.000000 
	C461.696045,1.000000 922.392090,1.000000 1383.338867,1.381555 
	C1370.635254,2.839851 1357.625854,3.479211 1344.739746,5.099310 
	C1326.915649,7.340263 1308.985474,9.400314 1291.459839,13.196422 
	C1264.617065,19.010658 1237.908447,25.624401 1211.461060,33.034500 
	C1183.213745,40.948883 1155.824463,51.562813 1129.418335,64.356766 
	C1106.493774,75.463928 1083.575684,86.743340 1061.527710,99.460190 
	C1035.369751,114.547638 1010.205811,131.361633 986.853394,150.645096 
	C969.880554,164.660507 952.547607,178.326248 936.483398,193.334152 
	C915.306580,213.118561 894.952637,233.835373 876.927429,256.633331 
	C864.449036,272.415771 851.588806,287.976715 840.252991,304.561890 
	C826.097046,325.273102 812.795166,346.621582 800.150269,368.293365 
	C791.439636,383.222168 783.979431,398.945099 776.850281,414.715363 
	C768.403259,433.400818 760.289734,452.287262 753.151917,471.502747 
	C742.267151,500.805359 733.737854,530.877869 727.090820,561.435120 
	C724.043030,575.446167 721.231384,589.540283 719.137695,603.718567 
	C716.911865,618.791992 715.365967,633.984314 714.069092,649.171326 
	C712.708618,665.104431 711.763550,681.082947 711.084290,697.060669 
	C710.655090,707.158203 717.990967,714.508057 727.986206,715.037903 
	C729.004944,715.091980 729.996094,715.666809 731.000000,716.000000 
	C552.303955,716.000000 373.607941,716.000000 194.577454,715.671875 
	C198.822037,713.581116 202.098450,710.565613 202.928391,705.571655 
	C203.492554,702.176941 203.418823,698.672058 204.039917,695.291687 
	C206.539871,681.685242 208.301971,667.859253 211.985443,654.571472 
	C219.758820,626.529785 233.623917,601.585144 252.210175,579.075928 
	C265.534027,562.939880 280.550049,548.858276 297.560913,536.783691 
	C319.852783,520.960632 344.151581,509.445862 370.405060,501.767975 
	C390.496368,495.892273 411.011993,492.877411 431.795013,492.190857 
	C443.624481,491.800049 455.632416,492.524902 467.352478,494.199615 
	C481.825378,496.267639 496.253601,499.197174 510.390320,502.931244 
	C528.418579,507.693207 545.413696,515.296570 561.490417,524.840027 
	C576.745178,533.895569 591.118774,544.090393 603.976196,556.409058 
	C618.314880,570.146973 631.269348,584.978149 642.078857,601.686218 
	C643.158142,603.354309 646.147949,604.893677 647.979553,604.627319 
	C649.523315,604.402710 651.471313,601.629700 651.867432,599.702576 
	C654.557800,586.613281 656.372986,573.328796 659.432495,560.333801 
	C666.143982,531.826599 673.494324,503.444092 684.141418,476.110962 
	C692.766724,453.967957 702.407837,432.222656 711.282715,410.173889 
	C715.535889,399.607269 713.292480,391.627899 705.273743,386.104126 
	C696.953979,380.373077 688.420715,374.950623 679.950928,369.439148 
	C651.622803,351.005554 621.111877,337.041443 589.258301,326.058899 
	C559.460571,315.785095 528.994690,308.017975 497.511169,305.020294 
	C480.641663,303.414062 463.741547,301.912476 446.819824,301.150360 
	C436.257202,300.674683 425.596466,301.259460 415.036865,302.092316 
	C398.519165,303.395111 381.889465,304.384033 365.600616,307.202026 
	C345.260986,310.720734 324.929382,314.956451 305.112610,320.677734 
	C270.999695,330.526489 238.780121,345.085449 208.001556,362.918304 
	C176.007004,381.455658 147.329971,404.223419 120.824394,429.814575 
	C113.590240,436.799194 106.829353,444.354340 100.485512,452.162933 
	C89.442558,465.755585 78.054054,479.186707 68.325539,493.701080 
	C52.233826,517.708984 38.656845,543.171387 28.239170,570.271729 
	C15.298091,603.936523 6.116755,638.447632 2.927679,674.458130 
	C2.818935,675.686035 1.666140,676.821472 0.999992,678.000000 
z"/>
<path fill="#FFFF00" opacity="1.000000" stroke="none" 
	d="
M731.468628,716.000000 
	C729.996094,715.666809 729.004944,715.091980 727.986206,715.037903 
	C717.990967,714.508057 710.655090,707.158203 711.084290,697.060669 
	C711.763550,681.082947 712.708618,665.104431 714.069092,649.171326 
	C715.365967,633.984314 716.911865,618.791992 719.137695,603.718567 
	C721.231384,589.540283 724.043030,575.446167 727.090820,561.435120 
	C733.737854,530.877869 742.267151,500.805359 753.151917,471.502747 
	C760.289734,452.287262 768.403259,433.400818 776.850281,414.715363 
	C783.979431,398.945099 791.439636,383.222168 800.150269,368.293365 
	C812.795166,346.621582 826.097046,325.273102 840.252991,304.561890 
	C851.588806,287.976715 864.449036,272.415771 876.927429,256.633331 
	C894.952637,233.835373 915.306580,213.118561 936.483398,193.334152 
	C952.547607,178.326248 969.880554,164.660507 986.853394,150.645096 
	C1010.205811,131.361633 1035.369751,114.547638 1061.527710,99.460190 
	C1083.575684,86.743340 1106.493774,75.463928 1129.418335,64.356766 
	C1155.824463,51.562813 1183.213745,40.948883 1211.461060,33.034500 
	C1237.908447,25.624401 1264.617065,19.010658 1291.459839,13.196422 
	C1308.985474,9.400314 1326.915649,7.340263 1344.739746,5.099310 
	C1357.625854,3.479211 1370.635254,2.839851 1383.794800,1.381555 
	C1393.687622,1.000000 1403.375122,1.000000 1413.531372,1.000000 
	C1423.270996,6.033573 1426.162109,14.007325 1426.113525,24.259674 
	C1425.866821,76.246971 1425.924683,128.236267 1426.049683,180.224426 
	C1426.083374,194.245163 1417.772827,201.827682 1404.426758,202.207397 
	C1389.340454,202.636658 1374.207275,204.013077 1359.261597,206.147690 
	C1339.903076,208.912552 1320.472778,211.868698 1301.511841,216.527054 
	C1282.286743,221.250305 1263.352295,227.478348 1244.730225,234.255325 
	C1219.410889,243.469559 1194.810181,254.528946 1171.812134,268.709473 
	C1154.333252,279.486938 1136.974976,290.504639 1120.068604,302.149384 
	C1109.972656,309.103241 1100.512573,317.094696 1091.374023,325.296600 
	C1078.303467,337.027679 1065.420898,349.017151 1053.121216,361.547211 
	C1033.882690,381.146118 1016.819397,402.609283 1001.331177,425.293915 
	C986.862122,446.485809 973.897400,468.571350 962.739197,491.686188 
	C945.687988,527.008606 932.738098,563.822937 924.205200,602.078186 
	C920.338684,619.413025 917.699768,637.047974 915.154907,654.640930 
	C913.743530,664.398132 913.664612,674.348755 913.003967,684.213501 
	C912.640198,689.644470 912.685303,695.132935 911.888000,700.497681 
	C910.632263,708.946777 902.665833,715.742981 894.860596,715.031006 
	C893.389648,714.896851 891.882019,715.165894 890.195679,715.624451 
	C885.310730,716.000000 880.621521,716.000000 875.259705,715.617676 
	C873.930725,715.157898 873.274353,715.013000 872.617920,715.012817 
	C834.580688,715.001038 796.543518,714.992249 758.506348,715.042236 
	C757.337158,715.043762 756.168762,715.666748 755.000000,716.000000 
	C747.312439,716.000000 739.624817,716.000000 731.468628,716.000000 
z"/>
<path fill="#FFFF00" opacity="1.000000" stroke="none" 
	d="
M0.999992,678.333313 
	C1.666140,676.821472 2.818935,675.686035 2.927679,674.458130 
	C6.116755,638.447632 15.298091,603.936523 28.239170,570.271729 
	C38.656845,543.171387 52.233826,517.708984 68.325539,493.701080 
	C78.054054,479.186707 89.442558,465.755585 100.485512,452.162933 
	C106.829353,444.354340 113.590240,436.799194 120.824394,429.814575 
	C147.329971,404.223419 176.007004,381.455658 208.001556,362.918304 
	C238.780121,345.085449 270.999695,330.526489 305.112610,320.677734 
	C324.929382,314.956451 345.260986,310.720734 365.600616,307.202026 
	C381.889465,304.384033 398.519165,303.395111 415.036865,302.092316 
	C425.596466,301.259460 436.257202,300.674683 446.819824,301.150360 
	C463.741547,301.912476 480.641663,303.414062 497.511169,305.020294 
	C528.994690,308.017975 559.460571,315.785095 589.258301,326.058899 
	C621.111877,337.041443 651.622803,351.005554 679.950928,369.439148 
	C688.420715,374.950623 696.953979,380.373077 705.273743,386.104126 
	C713.292480,391.627899 715.535889,399.607269 711.282715,410.173889 
	C702.407837,432.222656 692.766724,453.967957 684.141418,476.110962 
	C673.494324,503.444092 666.143982,531.826599 659.432495,560.333801 
	C656.372986,573.328796 654.557800,586.613281 651.867432,599.702576 
	C651.471313,601.629700 649.523315,604.402710 647.979553,604.627319 
	C646.147949,604.893677 643.158142,603.354309 642.078857,601.686218 
	C631.269348,584.978149 618.314880,570.146973 603.976196,556.409058 
	C591.118774,544.090393 576.745178,533.895569 561.490417,524.840027 
	C545.413696,515.296570 528.418579,507.693207 510.390320,502.931244 
	C496.253601,499.197174 481.825378,496.267639 467.352478,494.199615 
	C455.632416,492.524902 443.624481,491.800049 431.795013,492.190857 
	C411.011993,492.877411 390.496368,495.892273 370.405060,501.767975 
	C344.151581,509.445862 319.852783,520.960632 297.560913,536.783691 
	C280.550049,548.858276 265.534027,562.939880 252.210175,579.075928 
	C233.623917,601.585144 219.758820,626.529785 211.985443,654.571472 
	C208.301971,667.859253 206.539871,681.685242 204.039917,695.291687 
	C203.418823,698.672058 203.492554,702.176941 202.928391,705.571655 
	C202.098450,710.565613 198.822037,713.581116 194.121490,715.671875 
	C132.979111,716.000000 71.958206,716.000000 10.340937,715.669556 
	C6.829707,713.226013 3.914856,711.113037 1.000002,709.000000 
	C1.000000,702.312378 1.000000,695.624695 1.365622,688.288574 
	C1.487496,685.093445 1.243747,682.546692 0.999999,680.000000 
	C1.000000,679.555542 1.000000,679.111084 0.999992,678.333313 
z"/>
<path fill="#FFFFFF" opacity="1.000000" stroke="none" 
	d="
M755.468628,716.000000 
	C756.168762,715.666748 757.337158,715.043762 758.506348,715.042236 
	C796.543518,714.992249 834.580688,715.001038 872.617920,715.012817 
	C873.274353,715.013000 873.930725,715.157898 874.793579,715.617676 
	C835.312439,716.000000 795.624878,716.000000 755.468628,716.000000 
z"/>
<path fill="#FFFFFF" opacity="1.000000" stroke="none" 
	d="
M1.000002,709.497925 
	C3.914856,711.113037 6.829707,713.226013 9.872279,715.669556 
	C7.095971,716.000000 4.191942,716.000000 1.000000,716.000000 
	C1.000000,714.002869 1.000000,711.999329 1.000002,709.497925 
z"/>
<path fill="#FFFFFF" opacity="1.000000" stroke="none" 
	d="
M0.999999,680.444153 
	C1.243747,682.546692 1.487496,685.093445 1.365622,687.820068 
	C1.000000,685.629456 1.000000,683.258850 0.999999,680.444153 
z"/>
</svg>