<svg version="1.1" id="Layer_1" xmlns="http://www.w3.org/2000/svg" xmlns:xlink="http://www.w3.org/1999/xlink" x="0px" y="0px" width="100%" viewBox="0 0 4074 715" enable-background="new 0 0 4074 715" xml:space="preserve">



<path fill="#B9B9B9" opacity="1.000000" stroke="none" d="
M1605.938354,1.826346 
	C1605.938354,1.826346 1605.889160,1.407196 1605.944580,1.203598 
	C1682.687622,1.000000 1759.375122,1.000000 1836.531372,1.000000 
	C1837.000000,1.000000 1837.009399,1.461402 1836.555176,1.765006 
	C1760.535645,2.076719 1684.970337,2.086017 1609.405151,2.081844 
	C1608.249512,2.081780 1607.093994,1.915210 1605.938354,1.826346 
z" data-index="3"></path>
<path fill="#B9B9B9" opacity="1.000000" stroke="none" d="
M267.007446,715.016663 
	C267.007446,715.016663 266.959656,715.507996 266.979828,715.754028 
	C206.645767,716.000000 146.291550,716.000000 85.468658,716.000000 
	C85.016975,715.816833 85.033958,715.633728 85.521111,715.161987 
	C105.772888,714.881714 125.554497,714.882935 145.336090,714.899780 
	C185.893204,714.934326 226.450333,714.977173 267.007446,715.016663 
z" data-index="4"></path>
<path fill="#B9B9B9" opacity="1.000000" stroke="none" d="
M2001.531372,1.000000 
	C2002.000000,1.000000 2001.973145,1.469784 2001.535156,1.784212 
	C1955.725830,2.052722 1910.354492,2.006804 1864.983276,1.960886 
	C1864.983276,1.960887 1865.054932,1.481544 1865.027466,1.240772 
	C1910.354248,1.000000 1955.708496,1.000000 2001.531372,1.000000 
z" data-index="5"></path>
<path fill="#B9B9B9" opacity="1.000000" stroke="none" d="
M2197.963867,1.909156 
	C2197.963867,1.909156 2197.980469,1.454515 2197.990234,1.227258 
	C2224.687500,1.000000 2251.375000,1.000000 2278.531250,1.000000 
	C2278.989014,1.172060 2278.978271,1.344120 2278.509766,1.813858 
	C2251.355957,2.044077 2224.659912,1.976617 2197.963867,1.909156 
z" data-index="6"></path>
<path fill="#B9B9B9" opacity="1.000000" stroke="none" d="
M2466.531250,1.000000 
	C2467.000000,1.000000 2467.012451,1.447383 2466.565918,1.777676 
	C2444.738281,2.052750 2423.356689,1.997532 2401.975342,1.942314 
	C2401.975342,1.942314 2402.045654,1.472674 2402.022949,1.236337 
	C2423.354248,1.000000 2444.708252,1.000000 2466.531250,1.000000 
z" data-index="7"></path>
<path fill="#B9B9B9" opacity="1.000000" stroke="none" d="
M2692.981934,1.957842 
	C2692.981934,1.957842 2693.052490,1.480084 2693.026367,1.240042 
	C2714.354248,1.000000 2735.708252,1.000000 2757.531250,1.000000 
	C2758.000000,1.000000 2757.961670,1.473637 2757.527832,1.786879 
	C2735.723145,2.052694 2714.352539,2.005268 2692.981934,1.957842 
z" data-index="8"></path>
<path fill="#B9B9B9" opacity="1.000000" stroke="none" d="
M2569.531250,1.000000 
	C2570.000000,1.000000 2570.049316,1.435196 2569.586182,1.754027 
	C2551.437988,2.084609 2533.752930,2.096359 2516.067871,2.108109 
	C2516.063965,1.922973 2516.060059,1.737837 2516.028076,1.276350 
	C2533.687500,1.000000 2551.375000,1.000000 2569.531250,1.000000 
z" data-index="9"></path>
<path fill="#B9B9B9" opacity="1.000000" stroke="none" d="
M2251.468750,716.000000 
	C2251.000000,716.000000 2251.010498,715.537537 2251.453613,715.223267 
	C2264.600830,714.946350 2277.305176,714.983643 2290.009277,715.020874 
	C2290.009277,715.020874 2289.927734,715.509705 2289.963867,715.754883 
	C2277.312500,716.000000 2264.625000,716.000000 2251.468750,716.000000 
z" data-index="10"></path>
<path fill="#B9B9B9" opacity="1.000000" stroke="none" d="
M2901.531250,1.000000 
	C2902.000000,1.000000 2901.988525,1.493355 2901.531250,1.796929 
	C2889.407715,2.106353 2877.741455,2.112203 2866.075439,2.118054 
	C2866.069824,1.931236 2866.064453,1.744419 2866.029297,1.278801 
	C2877.687500,1.000000 2889.375000,1.000000 2901.531250,1.000000 
z" data-index="11"></path>
<path fill="#B9B9B9" opacity="1.000000" stroke="none" d="
M3111.948975,1.863310 
	C3111.948975,1.863310 3111.936279,1.429389 3111.968262,1.214694 
	C3123.020752,1.000000 3134.041748,1.000000 3145.531250,1.000000 
	C3146.000000,1.000000 3145.952881,1.494734 3145.513428,1.804673 
	C3134.032227,2.030844 3122.990723,1.947077 3111.948975,1.863310 
z" data-index="12"></path>
<path fill="#B9B9B9" opacity="1.000000" stroke="none" d="
M1439.531372,1.000000 
	C1440.000000,1.000000 1440.000000,1.462036 1439.553223,1.787478 
	C1428.389893,2.038465 1417.673462,1.964011 1406.957031,1.889558 
	C1406.957031,1.889558 1406.940918,1.442965 1406.970459,1.221483 
	C1417.687622,1.000000 1428.375122,1.000000 1439.531372,1.000000 
z" data-index="13"></path>
<path fill="#060606" opacity="1.000000" stroke="none" d="
M2197.625244,2.044338 
	C2224.659912,1.976617 2251.355957,2.044077 2278.518066,2.072325 
	C2285.828125,3.838337 2289.274658,8.928487 2291.228516,15.175419 
	C2301.242432,47.194244 2311.103516,79.260849 2321.125732,111.277077 
	C2328.195801,133.863159 2335.490723,156.378815 2342.586914,178.956879 
	C2349.223389,200.072418 2355.692139,221.240616 2362.305176,242.363678 
	C2369.424316,265.103546 2376.410156,287.888733 2383.869141,310.517303 
	C2388.388672,324.229492 2382.645264,332.962006 2368.297852,332.975983 
	C2349.302490,332.994446 2330.306885,332.994171 2311.311523,332.974854 
	C2301.571533,332.964966 2297.439941,329.947845 2294.592529,320.712616 
	C2289.688965,304.806946 2284.742188,288.913269 2280.046143,272.946106 
	C2279.131592,269.836914 2277.295166,269.805573 2274.837646,269.810150 
	C2253.194336,269.850616 2231.551270,269.833618 2209.907959,269.833618 
	C2196.234131,269.833649 2196.237305,269.834595 2192.273682,282.946930 
	C2188.266602,296.203186 2184.268311,309.462158 2180.234131,322.710114 
	C2178.310059,329.028625 2173.624023,332.686157 2167.410156,332.745514 
	C2145.774414,332.952271 2124.088135,333.311798 2102.521484,331.984314 
	C2096.197754,331.595062 2090.436768,333.080109 2084.379150,333.032532 
	C2066.051514,332.888611 2047.721680,332.998840 2029.392700,332.973083 
	C2019.658569,332.959412 2015.265503,329.857086 2011.436279,320.967560 
	C1998.033081,289.853241 1984.292114,258.880524 1971.300659,227.595978 
	C1968.655029,221.224655 1965.531982,219.102249 1959.024536,219.795624 
	C1953.631348,220.370239 1948.128174,219.913177 1942.073730,219.913177 
	C1942.073730,222.329315 1942.073608,224.276672 1942.073608,226.224030 
	C1942.073608,256.716827 1942.079346,287.209595 1942.069946,317.702393 
	C1942.067383,326.182281 1937.411865,332.074890 1928.888550,332.508728 
	C1916.097168,333.159851 1903.257812,332.962952 1890.438965,332.947754 
	C1881.960083,332.937683 1873.459106,332.928986 1865.010376,332.325806 
	C1858.869995,331.887421 1854.515869,326.950623 1853.820801,320.899506 
	C1853.687988,319.744415 1853.637573,318.573761 1853.637451,317.410309 
	C1853.629272,217.933838 1853.625244,118.457375 1853.640747,18.980906 
	C1853.641602,13.025190 1854.496460,7.364227 1860.353882,4.026523 
	C1861.608643,3.311534 1862.993408,2.824407 1864.650757,2.096606 
	C1910.354492,2.006804 1955.725830,2.052722 2001.561401,2.018016 
	C2008.723633,2.880447 2015.439697,3.711456 2022.115845,4.789240 
	C2037.357178,7.249815 2050.801025,13.558057 2062.389404,23.818378 
	C2081.611572,40.837097 2089.822266,63.210529 2091.846436,87.833809 
	C2093.173584,103.976982 2093.302490,120.429489 2091.805420,136.542511 
	C2089.784668,158.290115 2081.543945,177.942474 2065.071777,193.157608 
	C2060.533691,197.349396 2055.108398,200.581177 2049.908203,204.386658 
	C2064.813965,236.344574 2079.701904,268.264069 2094.589600,300.183563 
	C2094.983154,300.156738 2095.376709,300.129913 2095.770264,300.103119 
	C2098.966553,290.291046 2102.263672,280.510498 2105.339600,270.660950 
	C2114.008545,242.903015 2122.514893,215.094315 2131.216553,187.346802 
	C2144.461426,145.110794 2157.818115,102.909836 2171.124756,60.693176 
	C2176.141357,44.777821 2181.127686,28.852896 2186.173584,12.946901 
	C2187.933594,7.398860 2191.517090,3.636861 2197.625244,2.044338 
M2078.207764,88.548515 
	C2077.066406,82.496758 2076.342773,76.329880 2074.711914,70.412987 
	C2067.365479,43.756958 2051.228516,25.434383 2023.634277,19.125528 
	C2014.290405,16.989208 2004.536377,15.782402 1994.955811,15.696095 
	C1954.134399,15.328356 1913.307739,15.539442 1872.482910,15.539266 
	C1870.852051,15.539259 1869.221313,15.539265 1867.336914,15.539265 
	C1867.336914,117.044273 1867.336914,218.097122 1867.336914,319.207092 
	C1887.656250,319.207092 1907.703857,319.207092 1928.239502,319.207092 
	C1928.239502,281.439026 1928.239502,244.037613 1928.239502,207.000946 
	C1942.843994,207.000946 1956.961914,207.255234 1971.061890,206.861053 
	C1975.903809,206.725693 1977.883789,208.503403 1979.685547,212.705887 
	C1994.372192,246.960312 2009.359375,281.085846 2024.076294,315.327454 
	C2025.500244,318.640198 2027.215088,319.698059 2030.727295,319.657166 
	C2046.555054,319.472931 2062.386230,319.576782 2078.216309,319.576782 
	C2081.307129,319.576782 2084.397705,319.576752 2088.307861,319.576752 
	C2069.254639,278.530884 2050.586426,238.314743 2031.765015,197.768585 
	C2034.378540,196.463455 2036.708984,195.265503 2039.068237,194.126694 
	C2057.592529,185.184860 2069.324707,170.626221 2074.873047,150.926178 
	C2080.574463,130.683029 2080.241211,110.108307 2078.207764,88.548515 
M2340.316406,218.219376 
	C2319.564209,152.022629 2298.781738,85.835335 2278.145752,19.602346 
	C2277.072266,16.156240 2275.411377,15.445176 2272.114502,15.465486 
	C2249.619629,15.604055 2227.122070,15.645225 2204.628174,15.436358 
	C2200.715820,15.400030 2199.252686,16.714184 2198.125977,20.321812 
	C2170.500244,108.773674 2142.748291,197.186127 2115.018066,285.605377 
	C2111.546387,296.675018 2108.070312,307.743317 2104.441895,319.304230 
	C2106.507812,319.417938 2107.959961,319.566132 2109.412354,319.567444 
	C2127.075684,319.583435 2144.740479,319.469421 2162.401611,319.666718 
	C2166.058838,319.707550 2167.607422,318.581726 2168.611572,315.056549 
	C2173.855957,296.644958 2179.470215,278.338593 2184.698486,259.922516 
	C2185.599854,256.748047 2186.864014,255.787155 2190.109375,255.799667 
	C2221.769775,255.921768 2253.431396,255.919647 2285.091797,255.801971 
	C2288.301025,255.790054 2289.648926,256.686920 2290.577393,259.877319 
	C2295.925049,278.255371 2301.682861,296.514252 2306.995361,314.902039 
	C2308.085693,318.676086 2309.748535,319.713684 2313.539795,319.669312 
	C2331.200684,319.462524 2348.865723,319.577820 2366.529053,319.577850 
	C2368.152100,319.577881 2369.775391,319.577820 2372.063965,319.577820 
	C2361.440430,285.561462 2351.038330,252.253983 2340.316406,218.219376 
z" data-index="14" style="opacity: 1;"></path>
<path fill="#070704" opacity="1.000000" stroke="none" d="
M1406.581543,2.078805 
	C1417.673462,1.964011 1428.389893,2.038465 1439.568604,2.017983 
	C1451.134399,5.996519 1459.042358,13.096407 1461.714722,25.043892 
	C1462.142822,26.957850 1462.284668,28.972038 1462.285767,30.940033 
	C1462.315674,83.436356 1462.058350,135.934509 1462.441284,188.428055 
	C1462.582153,207.729919 1449.719849,219.852036 1430.804443,221.190277 
	C1410.832153,222.603256 1390.882324,224.705063 1371.025757,227.296097 
	C1342.247314,231.051376 1314.438354,238.998077 1287.161743,248.733429 
	C1255.319702,260.098267 1225.039551,274.695343 1196.240845,292.509308 
	C1174.193237,306.147278 1153.237427,321.254395 1133.821045,338.311127 
	C1112.890015,356.698456 1093.548096,376.698944 1075.949463,398.443237 
	C1057.505615,421.231750 1040.832886,445.163666 1027.071167,470.970551 
	C1018.275574,487.464691 1010.450012,504.555878 1003.373047,521.863342 
	C996.827393,537.871582 990.938599,554.275940 986.434814,570.957947 
	C981.272766,590.078003 977.051514,609.559570 974.095276,629.136902 
	C971.251038,647.972412 970.781128,667.155396 968.809387,686.138000 
	C967.633301,697.460266 962.316895,706.541138 951.589478,711.560486 
	C949.419067,712.575989 946.820251,713.126465 944.417847,713.130005 
	C887.255310,713.215271 830.092468,713.261169 772.930054,713.140015 
	C761.835388,713.116516 755.656799,705.540833 751.339722,696.644958 
	C749.398865,692.645569 748.530334,687.687195 748.654480,683.204956 
	C749.054260,668.766296 749.560547,654.284302 751.099548,639.934143 
	C753.480103,617.736389 756.037781,595.512634 759.792542,573.517090 
	C766.741394,532.810303 777.946655,493.122467 792.820862,454.641449 
	C802.048462,430.768707 812.498779,407.272339 823.957275,384.386688 
	C834.289734,363.750305 846.289612,343.897980 858.367126,324.198364 
	C875.291870,296.592651 894.497253,270.523254 916.131470,246.435654 
	C934.059570,226.474548 952.423706,206.821533 971.727173,188.206421 
	C986.476562,173.983078 1002.776123,161.321930 1018.775024,148.449234 
	C1052.217407,121.541504 1088.370605,98.786873 1126.502930,79.110855 
	C1162.008423,60.790264 1198.544678,44.941486 1236.897583,33.636086 
	C1258.954224,27.134441 1281.140015,20.925692 1303.546265,15.804276 
	C1319.956177,12.053461 1336.768555,9.886066 1353.495483,7.749327 
	C1369.885010,5.655690 1386.394287,4.499990 1402.848633,2.908268 
	C1403.977783,2.799035 1405.087402,2.486200 1406.581543,2.078805 
M956.451477,657.825806 
	C958.920776,640.533508 960.545837,623.070923 963.994263,605.976135 
	C989.268860,480.683044 1053.584839,379.680756 1155.810791,303.429047 
	C1236.555542,243.200317 1328.080444,211.926636 1428.737183,207.489120 
	C1443.174683,206.852631 1448.744507,201.069290 1448.745239,186.605988 
	C1448.748047,136.111633 1448.748169,85.617279 1448.745361,35.122925 
	C1448.744507,20.751623 1442.269653,14.396885 1427.847778,14.845505 
	C1379.589844,16.346651 1331.900635,22.266586 1285.055908,34.104599 
	C1126.940918,74.061470 997.982361,158.756927 899.769043,288.806183 
	C811.927063,405.122314 766.757080,536.987244 762.353210,682.741211 
	C762.026367,693.556335 768.996216,701.023987 779.633911,701.030945 
	C832.294678,701.065247 884.955505,701.066528 937.616272,701.028442 
	C947.630737,701.021179 954.440735,694.264221 954.941956,684.176392 
	C955.363342,675.695374 955.831299,667.216675 956.451477,657.825806 
z" data-index="15"></path>
<path fill="#070707" opacity="1.000000" stroke="none" d="
M3230.466309,471.372803 
	C3236.480469,452.278259 3242.336914,433.551880 3248.214111,414.832062 
	C3250.446533,407.721802 3252.743652,400.631866 3254.980225,393.522888 
	C3257.272949,386.236298 3261.974854,382.705383 3269.720215,382.696991 
	C3294.718018,382.669861 3319.715820,382.681183 3344.713623,382.691040 
	C3352.329590,382.694061 3357.258057,385.921936 3359.661621,393.291656 
	C3365.864502,412.311707 3371.846924,431.403961 3377.854980,450.487122 
	C3385.990967,476.330048 3394.114502,502.177094 3402.153564,528.050293 
	C3407.315430,544.664001 3412.205078,561.362549 3417.417480,577.959961 
	C3422.656738,594.643738 3428.250732,611.216064 3433.495850,627.898010 
	C3439.485352,646.947327 3445.250977,666.066895 3451.143311,685.146851 
	C3451.973877,687.836304 3453.004883,690.463318 3453.885986,693.138062 
	C3456.933105,702.386292 3451.229492,711.769165 3441.506836,711.967163 
	C3420.018555,712.404785 3398.513916,712.289978 3377.019775,712.058960 
	C3370.020996,711.983765 3365.193604,706.669556 3362.882080,698.712708 
	C3358.318115,683.002747 3353.597412,667.337219 3348.731201,651.718750 
	C3348.348633,650.490906 3346.336670,648.947021 3345.073242,648.938843 
	C3319.743652,648.775757 3294.412109,648.884155 3269.082520,648.734253 
	C3265.802490,648.714905 3265.298584,650.566589 3264.605713,652.862915 
	C3259.829102,668.693359 3254.938721,684.489990 3250.254639,700.347595 
	C3248.083496,707.697571 3243.261475,712.070435 3235.816406,712.115662 
	C3215.485596,712.239319 3195.137207,712.612976 3174.832275,711.877808 
	C3168.810791,711.659851 3162.927734,711.842712 3156.952393,711.908569 
	C3114.461182,712.376709 3071.907715,713.483948 3029.484375,711.723022 
	C2997.723145,710.404602 2974.038818,694.842163 2964.459717,661.646484 
	C2961.379150,650.970276 2960.122070,639.428467 2960.068359,628.272949 
	C2959.700928,551.948120 2959.872070,475.620605 2959.879639,399.293976 
	C2959.880615,388.185547 2965.320557,382.693604 2976.278809,382.689209 
	C2995.277100,382.681580 3014.275635,382.676910 3033.273926,382.691345 
	C3043.258057,382.698914 3049.008301,388.372711 3049.026611,398.419098 
	C3049.074219,424.583374 3049.042236,450.747803 3049.042236,476.912170 
	C3049.042236,524.074707 3049.038574,571.237244 3049.045410,618.399780 
	C3049.046875,627.437500 3049.890381,628.645203 3058.775146,629.901855 
	C3065.308105,630.825867 3071.920898,631.617737 3078.504639,631.669495 
	C3104.000732,631.870239 3129.499268,631.750916 3154.997070,631.751160 
	C3166.975342,631.751282 3171.930420,636.606201 3172.121826,648.536804 
	C3172.141602,649.769531 3172.124512,651.002869 3172.124512,652.235962 
	C3172.654053,652.324951 3173.183350,652.413879 3173.712891,652.502869 
	C3192.580811,592.249756 3211.448486,531.996643 3230.466309,471.372803 
M3365.818604,458.740906 
	C3359.698242,439.208832 3353.482666,419.705688 3347.542236,400.118958 
	C3346.446777,396.506531 3344.963867,395.170502 3341.036133,395.207794 
	C3318.876709,395.418243 3296.712891,395.456757 3274.554688,395.186584 
	C3270.056396,395.131744 3268.314453,396.579407 3267.010254,400.754944 
	C3239.887695,487.595306 3212.605469,574.385864 3185.379395,661.194031 
	C3181.457031,673.700378 3177.661865,686.246521 3173.781738,698.858765 
	C3174.702637,699.073059 3175.180176,699.280762 3175.657959,699.281311 
	C3194.819824,699.304565 3213.982422,699.244080 3233.143311,699.384155 
	C3236.105225,699.405823 3236.640137,697.852295 3237.303223,695.600525 
	C3242.799805,676.935730 3248.457031,658.317993 3253.885742,639.633789 
	C3254.722168,636.754456 3255.900879,635.707825 3258.983887,635.718933 
	C3290.809082,635.834045 3322.635254,635.835754 3354.460449,635.716248 
	C3357.543701,635.704712 3358.688477,636.658325 3359.559570,639.604614 
	C3365.027588,658.100098 3370.838867,676.494141 3376.307617,694.989441 
	C3377.268799,698.241638 3378.500488,699.456238 3382.069092,699.414795 
	C3400.395508,699.202148 3418.725830,699.323120 3437.054688,699.301208 
	C3438.283447,699.299744 3439.512451,699.081726 3441.021973,698.937744 
	C3438.614258,691.237732 3436.340576,683.951294 3434.057129,676.667908 
	C3411.363770,604.286255 3388.668701,531.905151 3365.818604,458.740906 
M3064.529053,644.123596 
	C3062.696289,644.112976 3060.860107,644.174927 3059.031494,644.080322 
	C3043.318115,643.267822 3035.381104,635.108887 3034.978760,619.379578 
	C3034.940430,617.880859 3034.967529,616.380493 3034.967529,614.880859 
	C3034.967285,543.731934 3034.967529,472.583069 3034.967529,401.434174 
	C3034.967529,399.507172 3034.967529,397.580139 3034.967529,395.554138 
	C3014.341553,395.554138 2994.404297,395.554138 2973.955322,395.554138 
	C2973.955322,397.753815 2973.955322,399.713593 2973.955322,401.673370 
	C2973.955322,476.154755 2973.931885,550.636169 2973.997559,625.117493 
	C2974.003174,631.433472 2974.271729,637.787048 2974.992432,644.057129 
	C2976.893311,660.586182 2982.090088,675.650208 2995.978760,686.198364 
	C3008.017334,695.341858 3022.207520,698.784058 3036.839600,698.959900 
	C3076.817871,699.440247 3116.805420,699.170105 3156.789307,699.177551 
	C3157.068604,699.177551 3157.348145,698.900879 3157.709473,698.710144 
	C3157.709473,680.685669 3157.709473,662.635986 3157.709473,644.123657 
	C3126.760010,644.123657 3096.140137,644.123657 3064.529053,644.123596 
z" data-index="16" style="opacity: 1;"></path>
<path fill="#070705" opacity="1.000000" stroke="none" d="
M267.329956,714.857056 
	C226.450333,714.977173 185.893204,714.934326 145.336090,714.899780 
	C125.554497,714.882935 105.772888,714.881714 85.526749,714.886230 
	C68.565620,709.699463 63.632744,694.694336 65.711510,680.871216 
	C67.310135,670.240967 67.475647,659.385620 69.254387,648.794250 
	C72.067459,632.044067 75.036308,615.266052 79.142418,598.799927 
	C84.791336,576.146912 93.278053,554.400269 103.293518,533.301697 
	C113.653442,511.477448 125.745705,490.649323 139.848526,471.007507 
	C154.728088,450.283813 171.265915,430.965790 189.606720,413.255646 
	C212.065918,391.568787 236.662430,372.474091 263.221283,356.130371 
	C301.247345,332.730011 341.974060,315.233429 385.320251,304.434784 
	C404.236237,299.722382 423.503265,295.872803 442.840942,293.533936 
	C468.563324,290.422852 494.553101,289.080231 520.472961,290.506042 
	C537.806396,291.459503 555.081787,293.810425 572.324768,295.996613 
	C609.223999,300.674896 644.388367,311.747009 678.572266,326.019104 
	C709.550293,338.952759 738.395996,355.777771 765.580811,375.431702 
	C777.111877,383.768372 780.605957,399.404205 774.875488,412.994263 
	C765.194397,435.953491 754.863647,458.708191 746.631104,482.188751 
	C738.778870,504.584930 732.870361,527.697144 726.858704,550.690918 
	C723.351074,564.107117 721.290649,577.903381 718.630798,591.538757 
	C717.179871,598.976807 713.932190,605.505066 706.156189,607.273560 
	C694.747253,609.868469 689.314697,607.144165 683.605225,598.437866 
	C661.641052,564.945190 632.632202,539.384949 596.577515,521.948608 
	C577.246948,512.600159 556.828064,506.266785 535.661926,503.044983 
	C522.154358,500.988922 508.334564,499.638245 494.715637,500.039154 
	C481.071228,500.440796 467.433929,503.014740 453.916107,505.347015 
	C431.893066,509.146698 411.406677,517.442688 391.852966,528.108459 
	C372.548676,538.638123 355.371796,552.052734 340.353638,568.006836 
	C313.413879,596.625305 296.240021,630.393677 289.224792,669.131348 
	C287.931274,676.274109 287.692688,683.615112 287.097504,690.875244 
	C286.376282,699.672302 280.833069,711.036133 267.329956,714.857056 
M289.474792,356.943787 
	C286.428955,358.655640 283.349945,360.311432 280.342072,362.087555 
	C199.162003,410.024017 139.558823,476.705597 104.828636,564.801697 
	C89.363304,604.030823 81.224556,644.864014 79.456284,687.001221 
	C79.063156,696.369324 83.390671,701.756287 92.673958,701.765747 
	C148.336823,701.822327 203.999802,701.812683 259.662720,701.773621 
	C268.315643,701.767517 272.518646,697.595459 273.111298,689.099609 
	C277.016754,633.111389 299.969727,586.029114 341.074524,548.256897 
	C392.263672,501.217957 453.381897,481.584839 522.244324,487.954559 
	C595.642456,494.743866 653.362488,529.165955 694.865112,590.395325 
	C696.214600,592.386169 699.071716,593.355164 701.225952,594.800537 
	C702.463074,592.637512 704.434326,590.600403 704.830017,588.293091 
	C715.130310,528.231445 732.699097,470.396149 758.705261,415.290802 
	C767.210449,397.268921 764.655518,391.076599 749.113708,380.577209 
	C655.032104,317.019714 551.602234,293.381378 439.301361,307.871002 
	C386.555237,314.676605 336.870087,331.237396 289.474792,356.943787 
z" data-index="17"></path>
<path fill="#080808" opacity="1.000000" stroke="none" d="
M2117.202881,473.000610 
	C2117.202881,547.481384 2117.203369,621.462097 2117.202637,695.442871 
	C2117.202393,706.927307 2111.976318,712.156616 2100.478027,712.162170 
	C2085.981934,712.169250 2071.482422,711.984802 2056.990723,712.238831 
	C2049.654541,712.367371 2044.454224,709.779724 2040.502197,703.445068 
	C2024.175171,677.275146 2007.602051,651.258667 1991.106689,625.193848 
	C1975.502808,600.537354 1959.884644,575.889832 1944.263062,551.244385 
	C1943.827759,550.557495 1943.281738,549.940796 1941.833252,548.038025 
	C1941.553345,551.007690 1941.243652,552.766785 1941.242554,554.525940 
	C1941.216187,601.347107 1941.222412,648.168213 1941.221313,694.989380 
	C1941.221069,707.024414 1936.025757,712.162231 1923.856689,712.163452 
	C1905.694702,712.165283 1887.532837,712.170471 1869.370850,712.161438 
	C1858.217896,712.155884 1852.451294,706.504211 1852.448730,695.347961 
	C1852.425659,596.706970 1852.421875,498.066010 1852.453369,399.425018 
	C1852.457153,387.751221 1857.756592,382.683258 1869.572632,382.681702 
	C1884.235474,382.679718 1898.901611,382.864899 1913.559692,382.598145 
	C1920.167847,382.477905 1925.062866,384.796478 1928.553101,390.302521 
	C1944.093872,414.818634 1959.607788,439.351776 1975.183350,463.845673 
	C1992.272827,490.719971 2009.419067,517.558289 2026.541138,544.411743 
	C2026.896362,544.969055 2027.259277,545.521301 2027.618652,546.075867 
	C2028.073120,545.956787 2028.527466,545.837646 2028.981812,545.718567 
	C2028.981812,543.861450 2028.981934,542.004272 2028.981934,540.147156 
	C2028.982056,493.159393 2028.980835,446.171631 2028.982788,399.183868 
	C2028.983276,388.063080 2034.332397,382.683411 2045.385376,382.681915 
	C2064.213867,382.679413 2083.042236,382.667389 2101.870605,382.687286 
	C2111.567383,382.697540 2117.193115,388.327545 2117.198730,398.019958 
	C2117.213135,422.846832 2117.203125,447.673737 2117.202881,473.000610 
M1927.589600,551.500427 
	C1927.589600,534.737488 1927.589600,517.974548 1927.589600,501.211639 
	C1929.669678,502.598816 1930.774780,504.211945 1931.820435,505.862885 
	C1971.911987,569.163330 2012.013550,632.457397 2052.029541,695.805481 
	C2053.638916,698.353333 2055.314697,699.421509 2058.381104,699.384094 
	C2072.042480,699.217529 2085.707275,699.320557 2099.370850,699.296875 
	C2100.630371,699.294678 2101.889160,699.085144 2102.875977,698.996338 
	C2102.875977,597.567627 2102.875977,496.543213 2102.875977,395.590698 
	C2082.688721,395.590698 2062.927979,395.590698 2042.617432,395.590698 
	C2042.617432,461.844269 2042.617432,527.824402 2042.617432,595.108398 
	C2040.907593,592.632446 2039.939697,591.326477 2039.070312,589.957886 
	C1998.799561,526.573181 1958.506714,463.202423 1918.358765,399.739990 
	C1916.199341,396.326630 1913.912354,395.149597 1909.976929,395.224823 
	C1897.317749,395.466797 1884.651123,395.314850 1871.987305,395.314819 
	C1870.239624,395.314819 1868.492065,395.314789 1866.622559,395.314789 
	C1866.622559,497.015594 1866.622559,597.911926 1866.622559,699.060059 
	C1886.944214,699.060059 1907.017578,699.060059 1927.589600,699.060059 
	C1927.589600,650.040405 1927.589600,601.270447 1927.589600,551.500427 
z" data-index="18" style="opacity: 1;"></path>
<path fill="#070707" opacity="1.000000" stroke="none" d="
M2515.825195,2.371697 
	C2533.752930,2.096359 2551.437988,2.084609 2569.585449,1.973034 
	C2573.596924,4.667233 2578.177734,6.784037 2580.527588,10.364881 
	C2595.988770,33.926197 2610.955566,57.811634 2626.109619,81.574928 
	C2644.164551,109.887276 2662.245605,138.183014 2681.322510,166.489334 
	C2681.322510,164.642303 2681.322510,162.795273 2681.322510,160.948242 
	C2681.322510,113.336258 2681.317627,65.724281 2681.327637,18.112303 
	C2681.329102,10.402317 2685.283936,4.733331 2692.652832,2.089795 
	C2714.352539,2.005268 2735.723145,2.052694 2757.558594,2.022468 
	C2767.050049,5.801461 2770.049561,10.366086 2770.049561,20.252890 
	C2770.049805,118.239120 2769.955811,216.225540 2770.159912,314.211334 
	C2770.187744,327.544861 2764.355469,333.383362 2751.341797,333.060394 
	C2737.519043,332.717407 2723.679932,332.880188 2709.850098,333.026520 
	C2702.848877,333.100586 2697.376953,330.767578 2693.610596,324.662292 
	C2684.601318,310.057251 2675.611328,295.438416 2666.422363,280.946564 
	C2648.127686,252.094452 2629.690430,223.333054 2611.343994,194.513763 
	C2605.977295,186.083511 2600.719482,177.584106 2594.171631,169.378036 
	C2594.171631,171.112381 2594.171631,172.846725 2594.171631,174.581070 
	C2594.171631,221.407822 2594.173096,268.234589 2594.171143,315.061340 
	C2594.170410,327.623718 2588.944580,332.948669 2576.465332,332.973816 
	C2558.134521,333.010712 2539.803711,333.019409 2521.472900,332.969849 
	C2510.417480,332.939972 2505.001953,327.449615 2505.001465,316.407776 
	C2504.996582,217.255051 2504.996826,118.102310 2505.000977,18.949583 
	C2505.001221,9.900500 2508.455322,4.602398 2515.825195,2.371697 
M2580.267090,171.500137 
	C2580.267090,154.846527 2580.267090,138.192917 2580.267090,121.539307 
	C2582.332031,122.909584 2583.342285,124.403702 2584.307373,125.926178 
	C2621.390869,184.433899 2658.460449,242.950378 2695.564453,301.445038 
	C2699.382568,307.464691 2702.151855,315.658630 2707.679688,318.661865 
	C2713.241211,321.683502 2721.639648,319.524902 2728.795410,319.560211 
	C2737.738037,319.604309 2746.681152,319.570770 2755.735840,319.570770 
	C2755.735840,217.939209 2755.735840,116.895012 2755.735840,15.780473 
	C2735.459473,15.780473 2715.516113,15.780473 2695.035645,15.780473 
	C2695.035645,81.857956 2695.035645,147.703506 2695.035645,214.940094 
	C2693.202148,212.332993 2692.138672,210.943893 2691.203613,209.473251 
	C2672.351318,179.827789 2653.506592,150.177231 2634.674561,120.518814 
	C2613.250732,86.777641 2591.863770,53.013149 2570.354492,19.326519 
	C2569.336426,17.731659 2567.308105,15.740942 2565.718750,15.713009 
	C2550.269043,15.441452 2534.812744,15.549738 2519.138672,15.549738 
	C2519.138672,117.001480 2519.138672,218.080933 2519.138672,319.232910 
	C2539.535889,319.232910 2559.732910,319.232910 2580.267090,319.232910 
	C2580.267090,270.097260 2580.267090,221.298706 2580.267090,171.500137 
z" data-index="19" style="opacity: 1;"></path>
<path fill="#070707" opacity="1.000000" stroke="none" d="
M3637.843994,442.999939 
	C3637.843994,428.002045 3637.828369,413.504120 3637.849121,399.006256 
	C3637.864990,387.903137 3643.146973,382.689056 3654.324219,382.687195 
	C3673.154785,382.684052 3691.985352,382.671783 3710.815918,382.692383 
	C3720.767578,382.703247 3726.663574,388.462067 3726.666504,398.398804 
	C3726.694092,497.717682 3726.691162,597.036560 3726.671143,696.355408 
	C3726.669189,706.086182 3720.714111,712.088379 3710.996826,712.139832 
	C3696.665771,712.215698 3682.319092,711.757935 3668.008789,712.305054 
	C3658.934570,712.652100 3653.084717,709.011292 3648.421143,701.580017 
	C3629.830566,671.955505 3610.975830,642.496643 3592.266602,612.946350 
	C3580.189697,593.871765 3568.199463,574.742432 3556.159668,555.644470 
	C3554.888184,553.627991 3553.543457,551.657593 3552.232666,549.665833 
	C3551.794678,549.789062 3551.356445,549.912292 3550.918457,550.035522 
	C3550.918457,551.931702 3550.918457,553.827942 3550.918457,555.724121 
	C3550.918457,602.050720 3550.920654,648.377319 3550.916748,694.703918 
	C3550.915771,706.728699 3545.458496,712.154114 3533.366211,712.158081 
	C3515.202148,712.164001 3497.029785,711.830383 3478.877197,712.283508 
	C3468.069824,712.553345 3461.659912,705.433289 3461.688721,695.264771 
	C3461.969482,596.613281 3461.979248,497.960297 3461.671631,399.308929 
	C3461.640381,389.289398 3469.029541,382.053864 3478.639404,382.501801 
	C3493.604736,383.199371 3508.629639,382.862701 3523.622803,382.601349 
	C3529.788574,382.493896 3534.289062,384.803345 3537.465820,389.813843 
	C3553.182617,414.601776 3568.793213,439.457031 3584.520508,464.238098 
	C3601.820312,491.496857 3619.206543,518.700806 3637.843994,545.790039 
	C3637.843994,511.693359 3637.843994,477.596680 3637.843994,442.999939 
M3712.690918,398.913208 
	C3713.220947,395.469757 3711.179199,395.246063 3708.495361,395.260895 
	C3693.830322,395.342072 3679.164795,395.299500 3664.499268,395.299438 
	C3660.378662,395.299438 3656.258057,395.299408 3651.634766,395.299408 
	C3651.634766,461.715088 3651.634766,527.573120 3651.634766,593.431091 
	C3646.422363,587.056213 3642.132812,580.409363 3637.891846,573.731567 
	C3601.015625,515.669189 3564.117676,457.620880 3527.359863,399.483612 
	C3525.289062,396.208496 3523.101074,395.058289 3519.332764,395.211975 
	C3512.012207,395.510590 3504.670898,395.299438 3497.338135,395.299438 
	C3490.214600,395.299438 3483.091309,395.299408 3475.860596,395.299408 
	C3475.860596,496.914490 3475.860596,597.958191 3475.860596,699.068420 
	C3496.295898,699.068420 3516.386475,699.068420 3537.110840,699.068420 
	C3537.110840,633.020447 3537.110840,567.218994 3537.110840,500.049316 
	C3538.845459,502.649445 3539.781982,503.992096 3540.656738,505.373779 
	C3580.747559,568.689392 3620.851074,631.997131 3660.859619,695.364807 
	C3662.647217,698.195862 3664.445557,699.545959 3667.948486,699.409851 
	C3675.602783,699.112549 3683.277100,699.317993 3690.943115,699.318054 
	C3698.052490,699.318054 3705.161865,699.318054 3712.691406,699.318054 
	C3712.691406,599.090515 3712.691406,499.467468 3712.690918,398.913208 
z" data-index="20" style="opacity: 1;"></path>
<path fill="#060606" opacity="1.000000" stroke="none" d="
M2865.781738,2.414764 
	C2877.741455,2.112203 2889.407715,2.106353 2901.539795,2.043519 
	C2904.272949,2.360758 2906.534424,3.016339 2908.808350,3.063487 
	C2923.442383,3.366916 2938.098633,3.141272 2952.710449,3.852013 
	C2970.729248,4.728465 2988.744141,6.017159 3006.696533,7.782918 
	C3015.949463,8.693038 3020.076172,14.385053 3020.079346,23.784586 
	C3020.083984,38.779835 3020.087402,53.775089 3020.077881,68.770332 
	C3020.071289,79.628593 3014.402588,85.241859 3003.414307,85.244606 
	C2967.592285,85.253578 2931.770264,85.247475 2895.948242,85.249039 
	C2894.448730,85.249100 2892.944336,85.190338 2891.450928,85.290894 
	C2883.035156,85.857536 2879.899170,89.120811 2879.830811,97.544510 
	C2879.761719,106.041260 2879.919434,114.540970 2879.758789,123.035240 
	C2879.703125,125.993736 2880.225342,127.805611 2883.650391,127.911469 
	C2886.948242,128.013382 2890.230957,128.720245 2893.526367,128.773132 
	C2923.468750,129.253616 2953.413574,129.597778 2983.355713,130.096237 
	C2994.337158,130.279022 2999.895752,136.192642 2999.905029,147.289078 
	C2999.916504,161.451263 2999.912354,175.613434 2999.906494,189.775620 
	C2999.902100,199.631668 2994.518799,205.540375 2984.726807,206.389526 
	C2983.238037,206.518631 2981.729248,206.408264 2980.229736,206.423782 
	C2948.443359,206.752686 2916.656738,207.075073 2884.870605,207.439911 
	C2883.265381,207.458344 2881.664062,207.847031 2880.557129,207.996399 
	C2880.557129,219.748734 2880.090576,231.033066 2880.741455,242.252609 
	C2881.101562,248.463440 2884.712646,250.774475 2891.110107,250.902237 
	C2898.104980,251.041931 2905.103271,251.030731 2912.100098,251.033508 
	C2942.423828,251.045547 2972.747559,251.032883 3003.071289,251.041656 
	C3014.572510,251.044998 3020.078613,256.562958 3020.079834,268.042145 
	C3020.081543,283.037384 3020.092285,298.032654 3020.075928,313.027893 
	C3020.066162,321.890778 3015.419434,327.657837 3006.660400,328.511047 
	C2993.465332,329.796326 2980.191650,330.273224 2966.993896,331.538208 
	C2933.830811,334.716797 2900.580566,334.417480 2867.340088,334.244904 
	C2850.105225,334.155396 2833.679443,330.137268 2819.664062,319.757416 
	C2805.714844,309.426361 2796.363525,295.583099 2793.626709,278.173706 
	C2792.218018,269.213226 2791.643311,260.037750 2791.619873,250.957031 
	C2791.468018,192.309662 2790.724121,133.644012 2791.941895,75.021072 
	C2792.573730,44.596539 2807.520752,20.683329 2837.541992,8.734107 
	C2846.273193,5.259004 2856.141113,4.639839 2865.781738,2.414764 
M2856.938721,17.181217 
	C2845.104004,19.435154 2834.186523,23.780107 2825.156982,31.949194 
	C2810.248047,45.437416 2805.211670,63.010464 2805.181885,82.375671 
	C2805.093506,140.038406 2805.122559,197.701416 2805.196289,255.364197 
	C2805.203125,260.678680 2805.500488,266.044312 2806.270508,271.297180 
	C2809.436279,292.890259 2820.810791,308.588379 2841.636230,315.625916 
	C2851.728271,319.036346 2862.812012,321.298523 2873.400391,321.132568 
	C2911.506104,320.535309 2949.594238,318.730804 2987.683838,317.254852 
	C2993.760742,317.019379 2999.812256,316.129852 3005.731934,315.556580 
	C3005.731934,298.147736 3005.731934,281.413391 3005.731934,264.271149 
	C3003.564941,264.271149 3001.761475,264.271149 2999.958008,264.271149 
	C2964.293701,264.271118 2928.629150,264.277527 2892.964844,264.256134 
	C2890.638672,264.254761 2888.290771,264.202362 2885.989746,263.897095 
	C2875.012939,262.440704 2867.708740,256.364868 2867.077393,245.308960 
	C2866.141602,228.926620 2866.835205,212.451233 2866.835205,195.527710 
	C2906.275635,194.456360 2945.992676,193.377487 2985.967529,192.291611 
	C2985.967529,176.152847 2985.967529,160.270264 2985.967529,144.011902 
	C2945.963867,142.913589 2906.271729,141.823837 2866.354004,140.727875 
	C2866.354004,124.291557 2865.749512,108.308197 2866.556641,92.396454 
	C2867.139160,80.907028 2874.184570,74.416252 2885.519531,72.490753 
	C2888.292725,72.019684 2891.158203,71.941788 2893.981445,71.938980 
	C2929.312500,71.903931 2964.643311,71.916008 2999.974365,71.916000 
	C3001.903076,71.916000 3003.831787,71.916000 3005.737305,71.916000 
	C3005.737305,54.439972 3005.737305,37.705742 3005.737305,20.769272 
	C3003.591797,20.536356 3001.785645,20.246204 2999.969482,20.157185 
	C2969.870117,18.681847 2939.781982,16.803215 2909.664795,15.941415 
	C2892.396729,15.447301 2875.081055,16.613424 2856.938721,17.181217 
z" data-index="21" style="opacity: 1;"></path>
<path fill="#060606" opacity="1.000000" stroke="none" d="
M3111.551758,1.978040 
	C3122.990723,1.947077 3134.032227,2.030844 3145.539551,2.051801 
	C3148.274658,2.362363 3150.538818,3.015702 3152.815430,3.063532 
	C3167.286865,3.367583 3181.780518,3.142204 3196.229492,3.851902 
	C3214.595703,4.754003 3232.929932,6.329263 3251.270508,7.713460 
	C3259.510254,8.335323 3264.767334,16.219593 3264.567627,23.526585 
	C3264.153809,38.680218 3264.465332,53.853100 3264.435059,69.017982 
	C3264.413574,79.759125 3258.879395,85.237663 3248.116455,85.239273 
	C3212.287109,85.244637 3176.458008,85.240822 3140.628662,85.242874 
	C3138.962158,85.242966 3137.287109,85.158401 3135.630859,85.295891 
	C3127.350586,85.983185 3124.354248,88.859291 3124.122803,97.141281 
	C3123.871826,106.133278 3123.950928,115.140678 3124.192871,124.133110 
	C3124.226562,125.380013 3125.821533,127.333481 3127.036621,127.652245 
	C3130.045898,128.441803 3133.248535,128.683899 3136.383301,128.764969 
	C3142.378418,128.919952 3148.382080,128.729462 3154.379883,128.824203 
	C3178.833496,129.210495 3203.287598,129.593216 3227.739014,130.097092 
	C3238.438232,130.317581 3244.229736,136.408920 3244.233154,147.051575 
	C3244.237305,161.216629 3244.239502,175.381699 3244.232178,189.546753 
	C3244.227051,199.943130 3238.687500,205.806107 3228.293701,206.404572 
	C3226.964600,206.481110 3225.627930,206.408218 3224.294678,206.422165 
	C3192.848145,206.750931 3161.401367,207.071945 3129.955078,207.439163 
	C3128.163818,207.460083 3126.376953,207.862381 3124.989990,208.036636 
	C3124.989990,220.231293 3124.726807,232.123932 3125.125000,243.994415 
	C3125.275391,248.476288 3129.818848,250.875488 3136.290039,250.915512 
	C3149.454102,250.996902 3162.618652,251.025513 3175.782959,251.035019 
	C3199.780273,251.052353 3223.781982,251.302643 3247.772705,250.909225 
	C3257.221680,250.754288 3264.955078,256.960266 3264.574707,267.884583 
	C3264.047363,283.031158 3264.451904,298.209869 3264.438721,313.374817 
	C3264.431641,321.459290 3259.542480,327.651306 3251.608887,328.476990 
	C3239.245361,329.763733 3226.812012,330.362122 3214.426758,331.462341 
	C3180.257812,334.497650 3146.003906,334.612152 3111.756592,334.223572 
	C3088.119873,333.955414 3067.130859,326.590210 3051.619873,307.783112 
	C3043.161133,297.526917 3037.260986,285.611877 3036.957031,272.151489 
	C3036.187256,238.037811 3036.001221,203.908707 3035.823975,169.784515 
	C3035.664795,139.122696 3035.511719,108.454559 3035.961670,77.798096 
	C3036.266113,57.050861 3043.069580,38.424419 3058.208008,23.736050 
	C3071.090088,11.236772 3086.940918,4.742759 3104.790771,3.071636 
	C3106.923828,2.871947 3109.033936,2.425087 3111.551758,1.978040 
M3049.497559,235.499725 
	C3049.638428,245.322189 3049.355713,255.172470 3049.999023,264.961945 
	C3052.002197,295.462677 3070.304932,315.332581 3100.540527,319.632996 
	C3110.067383,320.988007 3119.801758,321.840912 3129.401123,321.559998 
	C3162.177734,320.600830 3194.939697,319.109467 3227.699463,317.643860 
	C3235.278320,317.304810 3242.826172,316.262146 3250.386719,315.543396 
	C3250.386719,298.187408 3250.386719,281.449829 3250.386719,264.267761 
	C3248.274170,264.267761 3246.478027,264.267761 3244.681641,264.267761 
	C3209.022705,264.267761 3173.363770,264.272125 3137.704834,264.257050 
	C3135.542725,264.256134 3133.366211,264.233246 3131.221191,263.995087 
	C3119.150391,262.654938 3111.767578,255.820541 3111.026611,243.768051 
	C3110.230713,230.820465 3110.521240,217.805756 3110.354248,204.820129 
	C3110.316406,201.874603 3110.348877,198.928192 3110.348877,195.556717 
	C3150.741211,194.456909 3190.588379,193.371933 3230.894043,192.274475 
	C3230.894043,176.619415 3230.958252,161.491913 3230.725830,146.368942 
	C3230.712891,145.507446 3228.293701,143.985489 3226.958496,143.944641 
	C3199.666992,143.109467 3172.370117,142.465881 3145.075195,141.737686 
	C3133.648682,141.432831 3122.224854,141.020920 3110.684570,140.654007 
	C3110.684570,124.394333 3110.096680,108.581932 3110.873779,92.836914 
	C3111.474854,80.662857 3118.811523,73.970070 3130.887939,72.336586 
	C3133.517090,71.980995 3136.203613,71.937950 3138.863525,71.936081 
	C3174.189209,71.911232 3209.514893,71.919426 3244.840576,71.919380 
	C3246.619873,71.919373 3248.399170,71.919373 3250.433838,71.919373 
	C3250.433838,54.615822 3250.433838,37.881271 3250.433838,20.732994 
	C3247.750000,20.478451 3245.298340,20.122192 3242.836670,20.030878 
	C3201.912842,18.512720 3160.990479,16.953745 3120.060303,15.621745 
	C3114.445801,15.439023 3108.736328,16.058125 3103.167480,16.926176 
	C3073.194580,21.598190 3054.871094,40.116047 3050.540527,70.101456 
	C3049.782471,75.352287 3049.548340,80.718353 3049.540527,86.031883 
	C3049.467773,135.521072 3049.497559,185.010406 3049.497559,235.499725 
z" data-index="22"></path>
<path fill="#070707" opacity="1.000000" stroke="none" d="
M2427.634766,706.156433 
	C2426.639893,702.547485 2425.259521,699.217834 2425.255615,695.886536 
	C2425.140869,596.739197 2425.270020,497.591400 2424.987305,398.444733 
	C2424.960205,389.015808 2432.576172,382.445831 2441.123291,382.513306 
	C2486.944824,382.875153 2532.774902,382.312347 2578.593506,382.837646 
	C2602.351074,383.110046 2623.484619,391.362457 2639.887207,409.145172 
	C2651.468994,421.701599 2658.807129,436.858307 2661.320312,453.693024 
	C2663.538086,468.550751 2664.963135,483.653229 2665.098145,498.662384 
	C2665.255371,516.125793 2662.071289,533.254639 2654.373047,549.259094 
	C2647.229492,564.110413 2636.334229,575.403625 2621.615723,583.786072 
	C2624.942139,590.963867 2628.208008,598.001038 2631.465332,605.042236 
	C2642.554199,629.012329 2653.634766,652.986328 2664.732178,676.952515 
	C2666.870361,681.569702 2669.078613,686.154236 2671.240479,690.760376 
	C2676.409424,701.773376 2670.210938,711.998657 2657.989990,712.111145 
	C2638.162109,712.293762 2618.331543,712.133301 2598.501953,712.174622 
	C2590.851318,712.190613 2586.377197,707.894104 2583.548340,701.373901 
	C2569.511475,669.016296 2555.525146,636.636597 2541.444336,604.298096 
	C2540.853516,602.941162 2539.607178,601.012329 2538.487061,600.881226 
	C2530.749756,599.975281 2522.965332,599.467896 2515.193115,598.867615 
	C2514.738770,598.832581 2514.260986,599.102234 2513.400879,599.337769 
	C2513.400879,601.093323 2513.400879,602.883118 2513.400879,604.672852 
	C2513.400879,635.166931 2513.404541,665.661072 2513.399170,696.155151 
	C2513.397217,706.819519 2508.235596,712.095703 2497.479980,712.139404 
	C2478.650391,712.215820 2459.820557,712.137634 2440.990723,712.174927 
	C2435.743164,712.185364 2431.196533,710.771179 2427.634766,706.156433 
M2499.828125,630.500000 
	C2499.828125,615.772827 2499.828125,601.045715 2499.828125,586.935181 
	C2515.363281,586.935181 2530.006592,587.067566 2544.643799,586.837891 
	C2548.104004,586.783630 2549.491699,588.010803 2550.796631,591.041931 
	C2565.733887,625.735901 2580.885254,660.337769 2595.806641,695.038513 
	C2597.211670,698.305969 2598.836426,699.446960 2602.397705,699.402100 
	C2618.561035,699.198547 2634.728516,699.312988 2650.894531,699.313049 
	C2653.646729,699.313049 2656.398926,699.313110 2660.025879,699.313110 
	C2640.947021,658.231140 2622.269531,618.013672 2603.482666,577.560425 
	C2605.915771,576.343079 2607.952637,575.256165 2610.044189,574.287842 
	C2629.099121,565.467041 2641.423340,550.744690 2646.616943,530.603333 
	C2653.968018,502.096802 2653.606201,473.414368 2644.852783,445.286743 
	C2637.073975,420.290131 2620.098145,404.196625 2594.235107,398.640289 
	C2585.175049,396.693939 2575.772217,395.535187 2566.514160,395.458588 
	C2525.852051,395.122162 2485.185791,395.313354 2444.520996,395.313293 
	C2442.754883,395.313293 2440.989014,395.313324 2439.157715,395.313324 
	C2439.157715,496.947937 2439.157715,598.019165 2439.157715,699.078918 
	C2459.403320,699.078918 2479.345459,699.078918 2499.828125,699.078918 
	C2499.828125,676.399414 2499.828125,653.949707 2499.828125,630.500000 
z" data-index="23" style="opacity: 1;"></path>
<path fill="#090909" opacity="1.000000" stroke="none" d="
M1605.587646,1.941141 
	C1607.093994,1.915210 1608.249512,2.081780 1609.405151,2.081844 
	C1684.970337,2.086017 1760.535645,2.076719 1836.566650,1.995468 
	C1846.480347,5.505965 1848.843750,9.013231 1848.844116,19.454489 
	C1848.844604,35.118759 1848.530762,50.791370 1848.947510,66.444550 
	C1849.256714,78.060760 1843.248169,84.063385 1831.506104,83.998611 
	C1811.176514,83.886459 1790.845825,83.967506 1770.515625,83.967514 
	C1768.869507,83.967514 1767.223389,83.967514 1765.241821,83.967514 
	C1765.241821,86.329758 1765.241821,88.302811 1765.241821,90.275864 
	C1765.241821,165.597672 1765.245239,240.919464 1765.237427,316.241272 
	C1765.236572,324.668304 1762.452271,329.751129 1756.243408,331.809692 
	C1753.635254,332.674469 1750.724609,332.922577 1747.948730,332.937042 
	C1729.785400,333.031891 1711.620117,332.867218 1693.457764,333.030914 
	C1682.747559,333.127411 1676.799683,326.732117 1676.842163,316.700897 
	C1677.162231,241.213791 1677.016602,165.724731 1677.016602,90.236290 
	C1677.016602,88.407135 1677.016602,86.577980 1677.016602,83.967529 
	C1675.156616,83.967529 1673.407959,83.967529 1671.659180,83.967529 
	C1651.828857,83.967522 1631.995239,83.748665 1612.169312,84.043144 
	C1598.570923,84.245110 1592.829712,77.516098 1593.245972,65.110725 
	C1593.759766,49.796982 1593.366577,34.452877 1593.369751,19.121891 
	C1593.371826,9.167694 1595.962036,5.448253 1605.587646,1.941141 
M1690.392822,243.499634 
	C1690.392822,268.745972 1690.392822,293.992310 1690.392822,319.270905 
	C1711.101685,319.270905 1731.009277,319.270905 1751.413208,319.270905 
	C1751.413208,236.235168 1751.413208,153.494095 1751.413208,70.291199 
	C1779.481079,70.291199 1807.056274,70.291199 1834.865723,70.291199 
	C1834.865723,51.784740 1834.865723,33.743374 1834.865723,15.741694 
	C1758.895874,15.741694 1683.264404,15.741694 1607.377197,15.741694 
	C1607.377197,33.847214 1607.377197,51.760845 1607.377197,70.164902 
	C1634.993286,70.164902 1662.403687,70.164902 1690.392700,70.164902 
	C1690.392700,127.935196 1690.392700,185.217407 1690.392822,243.499634 
z" data-index="24" style="opacity: 1;"></path>
<path fill="#0A0A0A" opacity="1.000000" stroke="none" d="
M3993.018066,649.153809 
	C3987.300781,662.213562 3979.877930,673.843994 3970.092773,683.558228 
	C3954.638916,698.900391 3935.683838,707.868652 3914.150635,711.175720 
	C3909.746338,711.852173 3905.239014,712.124084 3900.778564,712.130737 
	C3855.625977,712.198364 3810.473389,712.174500 3765.320801,712.170593 
	C3753.326660,712.169556 3748.402344,707.237549 3748.402344,695.256531 
	C3748.402344,596.287476 3748.401855,497.318359 3748.402832,398.349274 
	C3748.403076,387.654633 3753.253906,382.687195 3763.822021,382.683533 
	C3811.140625,382.667114 3858.465332,382.222015 3905.775146,382.868286 
	C3929.365479,383.190552 3950.279785,391.868103 3967.944580,407.981262 
	C3989.525879,427.666779 3999.658691,453.234589 4004.621094,480.980774 
	C4007.614990,497.719452 4009.105225,514.847473 4009.726318,531.856934 
	C4010.371826,549.537354 4009.977295,567.352173 4008.547852,584.987549 
	C4006.768311,606.947327 4002.284180,628.495789 3993.018066,649.153809 
M3777.501465,699.305603 
	C3815.984375,699.305481 3854.467041,699.352295 3892.949951,699.292603 
	C3936.432373,699.225220 3966.735352,678.525208 3982.609375,638.030029 
	C3990.522705,617.842163 3994.128418,596.700867 3995.459229,575.187378 
	C3997.552734,541.340881 3996.889648,507.595581 3989.028564,474.395233 
	C3984.126221,453.691406 3975.940186,434.524109 3960.233398,419.423553 
	C3941.396484,401.313843 3918.061035,395.464844 3892.844482,395.366974 
	C3851.030518,395.204620 3809.215332,395.319580 3767.400635,395.332825 
	C3765.643311,395.333374 3763.885986,395.486664 3762.159668,395.567352 
	C3762.159668,497.071228 3762.159668,598.072998 3762.159668,699.305603 
	C3767.193359,699.305603 3771.847900,699.305603 3777.501465,699.305603 
z" data-index="25" style="opacity: 1;"></path>
<path fill="#080808" opacity="1.000000" stroke="none" d="
M2916.997070,666.979187 
	C2903.569580,687.659363 2885.221191,701.388550 2861.914062,708.036560 
	C2854.032227,710.284668 2845.675537,711.919006 2837.520996,711.984802 
	C2791.532959,712.355957 2745.539307,711.999817 2699.550049,712.283752 
	C2688.541016,712.351685 2681.737305,706.611816 2681.774902,694.436768 
	C2682.079346,595.956909 2682.044434,497.475433 2681.791504,398.995270 
	C2681.766357,389.238464 2688.746094,382.421448 2698.446533,382.502625 
	C2745.600830,382.897186 2792.764404,382.301453 2839.915527,382.846893 
	C2862.230225,383.105072 2882.123047,391.220581 2899.249512,405.804382 
	C2922.533691,425.631714 2933.425537,452.018768 2938.289307,481.182465 
	C2940.919189,496.954132 2941.969727,513.014160 2943.232666,528.983643 
	C2945.756592,560.903687 2943.373291,592.541931 2935.692627,623.615784 
	C2931.920410,638.876221 2926.197266,653.544434 2916.997070,666.979187 
M2923.955078,478.692139 
	C2923.257812,475.778748 2922.669434,472.834198 2921.845703,469.956970 
	C2916.127930,449.984009 2907.688477,431.542450 2891.814941,417.374969 
	C2873.364502,400.907562 2851.048828,395.478851 2827.110107,395.369751 
	C2785.124268,395.178406 2743.136963,395.316345 2701.150146,395.316345 
	C2699.517822,395.316345 2697.885254,395.316345 2695.958984,395.316345 
	C2695.958984,496.751709 2695.958984,597.788635 2695.958984,699.143494 
	C2696.854980,699.203308 2697.645752,699.302246 2698.436523,699.302368 
	C2741.922607,699.309326 2785.410156,699.503540 2828.894287,699.214966 
	C2847.328125,699.092712 2864.916992,694.958313 2880.608887,684.657227 
	C2902.279297,670.431030 2914.237793,649.328491 2920.760986,625.153748 
	C2933.759766,576.978882 2932.581299,528.291321 2923.955078,478.692139 
z" data-index="26" style="opacity: 1;"></path>
<path fill="#070707" opacity="1.000000" stroke="none" d="
M2290.394287,714.852051 
	C2277.305176,714.983643 2264.600830,714.946350 2251.432617,714.992981 
	C2243.440430,714.133057 2235.910889,713.200684 2228.384521,712.243469 
	C2192.683838,707.702576 2165.040039,691.303223 2148.989258,658.035217 
	C2140.275391,639.974670 2136.159912,620.664490 2133.806396,600.880676 
	C2130.933350,576.727295 2130.468018,552.496704 2131.230713,528.223999 
	C2132.027832,502.840820 2134.515137,477.603058 2142.561035,453.417664 
	C2154.642578,417.101227 2178.181152,392.173706 2216.685059,384.171661 
	C2229.232666,381.563995 2242.219971,380.383148 2255.049805,379.994446 
	C2271.639160,379.491821 2288.379639,379.363556 2304.860352,381.017639 
	C2327.983154,383.338440 2349.750732,389.890625 2367.902100,405.954651 
	C2385.308105,421.358856 2394.217529,441.180176 2400.143066,462.821716 
	C2409.881104,498.389313 2409.140625,534.853638 2408.441650,571.195862 
	C2407.995117,594.397217 2405.182861,617.427979 2398.081787,639.743774 
	C2391.886963,659.211548 2382.345703,676.537537 2366.586182,689.917358 
	C2355.309326,699.491089 2342.382080,706.242249 2327.923340,709.197998 
	C2315.679688,711.700928 2303.170898,712.904663 2290.394287,714.852051 
M2182.197754,679.333984 
	C2191.427979,687.017700 2201.823486,692.617676 2213.482422,695.371155 
	C2251.060547,704.245728 2288.799561,704.533386 2326.311035,695.408752 
	C2350.146729,689.610718 2368.012451,675.225159 2377.887207,652.658142 
	C2383.172119,640.579895 2387.071045,627.663269 2389.798096,614.745544 
	C2395.571533,587.396973 2395.484375,559.517395 2394.850098,531.697388 
	C2394.294678,507.348053 2391.981445,483.221344 2384.924316,459.747253 
	C2374.636230,425.523834 2353.002197,403.462616 2317.220215,396.760803 
	C2284.775879,390.684143 2252.311768,390.724548 2219.945312,397.429779 
	C2204.988525,400.528320 2191.602783,406.923401 2180.278564,417.338196 
	C2165.891113,430.570282 2158.331543,447.634247 2153.342285,466.020477 
	C2147.150635,488.837891 2145.396973,512.242920 2144.958252,535.762939 
	C2144.420166,564.612427 2145.142090,593.402954 2151.305908,621.747375 
	C2156.056396,643.592712 2164.127686,663.775635 2182.197754,679.333984 
z" data-index="27" style="opacity: 1;"></path>
<path fill="#070707" opacity="1.000000" stroke="none" d="
M2401.635742,2.045249 
	C2423.356689,1.997532 2444.738281,2.052750 2466.580322,2.001003 
	C2475.195068,4.769951 2478.795410,9.593384 2478.797852,18.223804 
	C2478.827148,118.013992 2478.828857,217.804199 2478.796631,317.594391 
	C2478.793701,326.761627 2473.255127,332.786499 2464.083252,332.903198 
	C2444.428223,333.153351 2424.765137,333.167847 2405.110840,332.896698 
	C2395.676758,332.766571 2390.546143,327.118256 2390.542480,317.589508 
	C2390.504150,217.466125 2390.507080,117.342728 2390.541748,17.219358 
	C2390.544189,9.754566 2394.290039,4.730741 2401.635742,2.045249 
M2404.141357,219.499969 
	C2404.141357,252.736389 2404.141357,285.972809 2404.141357,319.369934 
	C2424.831543,319.369934 2444.758301,319.369934 2464.757568,319.369934 
	C2464.757568,218.001678 2464.757568,116.838310 2464.757568,15.861422 
	C2444.443115,15.861422 2424.514893,15.861422 2404.141357,15.861422 
	C2404.141357,83.619949 2404.141357,151.059952 2404.141357,219.499969 
z" data-index="28" style="opacity: 1;"></path>
<path fill="#070707" opacity="1.000000" stroke="none" d="
M1679.064331,561.000000 
	C1679.064331,506.521515 1679.062622,452.542999 1679.065918,398.564514 
	C1679.066528,388.317871 1684.724731,382.692719 1695.034424,382.689270 
	C1714.360107,382.682770 1733.685669,382.672363 1753.011353,382.694427 
	C1761.924927,382.704590 1767.620728,388.213409 1768.002075,397.120453 
	C1768.052002,398.284576 1768.012817,399.452576 1768.012939,400.618774 
	C1768.013062,498.246552 1768.051270,595.874390 1767.884644,693.501892 
	C1767.877319,697.752869 1766.454102,702.185303 1764.857178,706.201843 
	C1762.969604,710.949219 1758.178589,712.026611 1753.720703,712.071045 
	C1733.730591,712.270020 1713.736694,712.263855 1693.745850,712.108643 
	C1684.701660,712.038452 1679.073975,706.010864 1679.071045,696.946045 
	C1679.056396,651.797363 1679.064331,606.648682 1679.064331,561.000000 
M1693.029175,421.500000 
	C1693.029175,514.026917 1693.029175,606.553833 1693.029175,699.057007 
	C1713.711792,699.057007 1733.641846,699.057007 1753.740967,699.057007 
	C1753.740967,597.797852 1753.740967,496.798920 1753.740967,395.673004 
	C1733.389526,395.673004 1713.341309,395.673004 1693.029175,395.673004 
	C1693.029175,404.195099 1693.029175,412.347565 1693.029175,421.500000 
z" data-index="29" style="opacity: 1;"></path>
<path fill="#FDFDFD" opacity="1.000000" stroke="none" d="
M2078.256348,88.995049 
	C2080.241211,110.108307 2080.574463,130.683029 2074.873047,150.926178 
	C2069.324707,170.626221 2057.592529,185.184860 2039.068237,194.126694 
	C2036.708984,195.265503 2034.378540,196.463455 2031.765015,197.768585 
	C2050.586426,238.314743 2069.254639,278.530884 2088.307861,319.576752 
	C2084.397705,319.576752 2081.307129,319.576782 2078.216309,319.576782 
	C2062.386230,319.576782 2046.555054,319.472931 2030.727295,319.657166 
	C2027.215088,319.698059 2025.500244,318.640198 2024.076294,315.327454 
	C2009.359375,281.085846 1994.372192,246.960312 1979.685547,212.705887 
	C1977.883789,208.503403 1975.903809,206.725693 1971.061890,206.861053 
	C1956.961914,207.255234 1942.843994,207.000946 1928.239502,207.000946 
	C1928.239502,244.037613 1928.239502,281.439026 1928.239502,319.207092 
	C1907.703857,319.207092 1887.656250,319.207092 1867.336914,319.207092 
	C1867.336914,218.097122 1867.336914,117.044273 1867.336914,15.539265 
	C1869.221313,15.539265 1870.852051,15.539259 1872.482910,15.539266 
	C1913.307739,15.539442 1954.134399,15.328356 1994.955811,15.696095 
	C2004.536377,15.782402 2014.290405,16.989208 2023.634277,19.125528 
	C2051.228516,25.434383 2067.365479,43.756958 2074.711914,70.412987 
	C2076.342773,76.329880 2077.066406,82.496758 2078.256348,88.995049 
M1928.095459,138.499481 
	C1928.095459,144.923996 1928.095459,151.348511 1928.095459,157.848618 
	C1948.057983,157.848618 1967.377808,158.389816 1986.651733,157.683182 
	C2003.076660,157.081024 2013.332886,147.858719 2016.765015,132.082443 
	C2019.336060,120.263351 2019.557373,108.300606 2017.091187,96.397514 
	C2013.739868,80.223366 2004.885864,72.265266 1988.511475,70.567322 
	C1986.527588,70.361603 1984.525513,70.238998 1982.531738,70.235947 
	C1965.711670,70.210182 1948.891479,70.212013 1932.071411,70.239792 
	C1930.814575,70.241867 1929.558228,70.508965 1928.095459,70.676483 
	C1928.095459,93.220520 1928.095459,115.360138 1928.095459,138.499481 
z" data-index="30" style="visibility: visible; opacity: 1;"></path>
<path fill="#FDFDFD" opacity="1.000000" stroke="none" d="
M2340.476318,218.582947 
	C2351.038330,252.253983 2361.440430,285.561462 2372.063965,319.577820 
	C2369.775391,319.577820 2368.152100,319.577881 2366.529053,319.577850 
	C2348.865723,319.577820 2331.200684,319.462524 2313.539795,319.669312 
	C2309.748535,319.713684 2308.085693,318.676086 2306.995361,314.902039 
	C2301.682861,296.514252 2295.925049,278.255371 2290.577393,259.877319 
	C2289.648926,256.686920 2288.301025,255.790054 2285.091797,255.801971 
	C2253.431396,255.919647 2221.769775,255.921768 2190.109375,255.799667 
	C2186.864014,255.787155 2185.599854,256.748047 2184.698486,259.922516 
	C2179.470215,278.338593 2173.855957,296.644958 2168.611572,315.056549 
	C2167.607422,318.581726 2166.058838,319.707550 2162.401611,319.666718 
	C2144.740479,319.469421 2127.075684,319.583435 2109.412354,319.567444 
	C2107.959961,319.566132 2106.507812,319.417938 2104.441895,319.304230 
	C2108.070312,307.743317 2111.546387,296.675018 2115.018066,285.605377 
	C2142.748291,197.186127 2170.500244,108.773674 2198.125977,20.321812 
	C2199.252686,16.714184 2200.715820,15.400030 2204.628174,15.436358 
	C2227.122070,15.645225 2249.619629,15.604055 2272.114502,15.465486 
	C2275.411377,15.445176 2277.072266,16.156240 2278.145752,19.602346 
	C2298.781738,85.835335 2319.564209,152.022629 2340.476318,218.582947 
M2206.292969,179.672318 
	C2204.421631,186.636047 2202.550049,193.599792 2200.613770,200.805420 
	C2225.651855,200.805420 2249.925049,200.805420 2274.764404,200.805420 
	C2262.438477,156.784622 2250.213623,113.124573 2237.638184,68.212433 
	C2227.030273,105.986877 2216.791504,142.446457 2206.292969,179.672318 
z" data-index="31" style="visibility: visible; opacity: 1;"></path>
<path fill="#FEFE00" opacity="1.000000" stroke="none" d="
M956.365051,658.281372 
	C955.831299,667.216675 955.363342,675.695374 954.941956,684.176392 
	C954.440735,694.264221 947.630737,701.021179 937.616272,701.028442 
	C884.955505,701.066528 832.294678,701.065247 779.633911,701.030945 
	C768.996216,701.023987 762.026367,693.556335 762.353210,682.741211 
	C766.757080,536.987244 811.927063,405.122314 899.769043,288.806183 
	C997.982361,158.756927 1126.940918,74.061470 1285.055908,34.104599 
	C1331.900635,22.266586 1379.589844,16.346651 1427.847778,14.845505 
	C1442.269653,14.396885 1448.744507,20.751623 1448.745361,35.122925 
	C1448.748169,85.617279 1448.748047,136.111633 1448.745239,186.605988 
	C1448.744507,201.069290 1443.174683,206.852631 1428.737183,207.489120 
	C1328.080444,211.926636 1236.555542,243.200317 1155.810791,303.429047 
	C1053.584839,379.680756 989.268860,480.683044 963.994263,605.976135 
	C960.545837,623.070923 958.920776,640.533508 956.365051,658.281372 
z" data-index="32" style="opacity: 1;"></path>
<path fill="#FDFDFD" opacity="1.000000" stroke="none" d="
M3365.896240,459.132446 
	C3388.668701,531.905151 3411.363770,604.286255 3434.057129,676.667908 
	C3436.340576,683.951294 3438.614258,691.237732 3441.021973,698.937744 
	C3439.512451,699.081726 3438.283447,699.299744 3437.054688,699.301208 
	C3418.725830,699.323120 3400.395508,699.202148 3382.069092,699.414795 
	C3378.500488,699.456238 3377.268799,698.241638 3376.307617,694.989441 
	C3370.838867,676.494141 3365.027588,658.100098 3359.559570,639.604614 
	C3358.688477,636.658325 3357.543701,635.704712 3354.460449,635.716248 
	C3322.635254,635.835754 3290.809082,635.834045 3258.983887,635.718933 
	C3255.900879,635.707825 3254.722168,636.754456 3253.885742,639.633789 
	C3248.457031,658.317993 3242.799805,676.935730 3237.303223,695.600525 
	C3236.640137,697.852295 3236.105225,699.405823 3233.143311,699.384155 
	C3213.982422,699.244080 3194.819824,699.304565 3175.657959,699.281311 
	C3175.180176,699.280762 3174.702637,699.073059 3173.781738,698.858765 
	C3177.661865,686.246521 3181.457031,673.700378 3185.379395,661.194031 
	C3212.605469,574.385864 3239.887695,487.595306 3267.010254,400.754944 
	C3268.314453,396.579407 3270.056396,395.131744 3274.554688,395.186584 
	C3296.712891,395.456757 3318.876709,395.418243 3341.036133,395.207794 
	C3344.963867,395.170502 3346.446777,396.506531 3347.542236,400.118958 
	C3353.482666,419.705688 3359.698242,439.208832 3365.896240,459.132446 
M3271.940430,580.915039 
	C3295.817871,580.915039 3319.695312,580.915039 3343.951904,580.915039 
	C3331.566406,536.707092 3319.380371,493.212006 3307.025391,449.113495 
	C3306.368408,450.155182 3306.131836,450.393005 3306.052734,450.674927 
	C3294.151855,493.132385 3282.254883,535.590881 3270.428955,578.069275 
	C3270.200684,578.888794 3270.816406,579.943359 3271.940430,580.915039 
z" data-index="33" style="visibility: visible; opacity: 1;"></path>
<path fill="#FDFDFD" opacity="1.000000" stroke="none" d="
M3065.024414,644.123657 
	C3096.140137,644.123657 3126.760010,644.123657 3157.709473,644.123657 
	C3157.709473,662.635986 3157.709473,680.685669 3157.709473,698.710144 
	C3157.348145,698.900879 3157.068604,699.177551 3156.789307,699.177551 
	C3116.805420,699.170105 3076.817871,699.440247 3036.839600,698.959900 
	C3022.207520,698.784058 3008.017334,695.341858 2995.978760,686.198364 
	C2982.090088,675.650208 2976.893311,660.586182 2974.992432,644.057129 
	C2974.271729,637.787048 2974.003174,631.433472 2973.997559,625.117493 
	C2973.931885,550.636169 2973.955322,476.154755 2973.955322,401.673370 
	C2973.955322,399.713593 2973.955322,397.753815 2973.955322,395.554138 
	C2994.404297,395.554138 3014.341553,395.554138 3034.967529,395.554138 
	C3034.967529,397.580139 3034.967529,399.507172 3034.967529,401.434174 
	C3034.967529,472.583069 3034.967285,543.731934 3034.967529,614.880859 
	C3034.967529,616.380493 3034.940430,617.880859 3034.978760,619.379578 
	C3035.381104,635.108887 3043.318115,643.267822 3059.031494,644.080322 
	C3060.860107,644.174927 3062.696289,644.112976 3065.024414,644.123657 
z" data-index="34" style="visibility: visible; opacity: 1;"></path>
<path fill="#FEFE00" opacity="1.000000" stroke="none" d="
M289.795319,356.764069 
	C336.870087,331.237396 386.555237,314.676605 439.301361,307.871002 
	C551.602234,293.381378 655.032104,317.019714 749.113708,380.577209 
	C764.655518,391.076599 767.210449,397.268921 758.705261,415.290802 
	C732.699097,470.396149 715.130310,528.231445 704.830017,588.293091 
	C704.434326,590.600403 702.463074,592.637512 701.225952,594.800537 
	C699.071716,593.355164 696.214600,592.386169 694.865112,590.395325 
	C653.362488,529.165955 595.642456,494.743866 522.244324,487.954559 
	C453.381897,481.584839 392.263672,501.217957 341.074524,548.256897 
	C299.969727,586.029114 277.016754,633.111389 273.111298,689.099609 
	C272.518646,697.595459 268.315643,701.767517 259.662720,701.773621 
	C203.999802,701.812683 148.336823,701.822327 92.673958,701.765747 
	C83.390671,701.756287 79.063156,696.369324 79.456284,687.001221 
	C81.224556,644.864014 89.363304,604.030823 104.828636,564.801697 
	C139.558823,476.705597 199.162003,410.024017 280.342072,362.087555 
	C283.349945,360.311432 286.428955,358.655640 289.795319,356.764069 
z" data-index="35"></path>
<path fill="#FDFDFD" opacity="1.000000" stroke="none" d="
M1927.589600,552.000488 
	C1927.589600,601.270447 1927.589600,650.040405 1927.589600,699.060059 
	C1907.017578,699.060059 1886.944214,699.060059 1866.622559,699.060059 
	C1866.622559,597.911926 1866.622559,497.015594 1866.622559,395.314789 
	C1868.492065,395.314789 1870.239624,395.314819 1871.987305,395.314819 
	C1884.651123,395.314850 1897.317749,395.466797 1909.976929,395.224823 
	C1913.912354,395.149597 1916.199341,396.326630 1918.358765,399.739990 
	C1958.506714,463.202423 1998.799561,526.573181 2039.070312,589.957886 
	C2039.939697,591.326477 2040.907593,592.632446 2042.617432,595.108398 
	C2042.617432,527.824402 2042.617432,461.844269 2042.617432,395.590698 
	C2062.927979,395.590698 2082.688721,395.590698 2102.875977,395.590698 
	C2102.875977,496.543213 2102.875977,597.567627 2102.875977,698.996338 
	C2101.889160,699.085144 2100.630371,699.294678 2099.370850,699.296875 
	C2085.707275,699.320557 2072.042480,699.217529 2058.381104,699.384094 
	C2055.314697,699.421509 2053.638916,698.353333 2052.029541,695.805481 
	C2012.013550,632.457397 1971.911987,569.163330 1931.820435,505.862885 
	C1930.774780,504.211945 1929.669678,502.598816 1927.589600,501.211639 
	C1927.589600,517.974548 1927.589600,534.737488 1927.589600,552.000488 
z" data-index="36" style="visibility: visible; opacity: 1;"></path>
<path fill="#FEFEFE" opacity="1.000000" stroke="none" d="
M2580.267090,172.000153 
	C2580.267090,221.298706 2580.267090,270.097260 2580.267090,319.232910 
	C2559.732910,319.232910 2539.535889,319.232910 2519.138672,319.232910 
	C2519.138672,218.080933 2519.138672,117.001480 2519.138672,15.549738 
	C2534.812744,15.549738 2550.269043,15.441452 2565.718750,15.713009 
	C2567.308105,15.740942 2569.336426,17.731659 2570.354492,19.326519 
	C2591.863770,53.013149 2613.250732,86.777641 2634.674561,120.518814 
	C2653.506592,150.177231 2672.351318,179.827789 2691.203613,209.473251 
	C2692.138672,210.943893 2693.202148,212.332993 2695.035645,214.940094 
	C2695.035645,147.703506 2695.035645,81.857956 2695.035645,15.780473 
	C2715.516113,15.780473 2735.459473,15.780473 2755.735840,15.780473 
	C2755.735840,116.895012 2755.735840,217.939209 2755.735840,319.570770 
	C2746.681152,319.570770 2737.738037,319.604309 2728.795410,319.560211 
	C2721.639648,319.524902 2713.241211,321.683502 2707.679688,318.661865 
	C2702.151855,315.658630 2699.382568,307.464691 2695.564453,301.445038 
	C2658.460449,242.950378 2621.390869,184.433899 2584.307373,125.926178 
	C2583.342285,124.403702 2582.332031,122.909584 2580.267090,121.539307 
	C2580.267090,138.192917 2580.267090,154.846527 2580.267090,172.000153 
z" data-index="37" style="visibility: visible; opacity: 1;"></path>
<path fill="#FDFDFD" opacity="1.000000" stroke="none" d="
M3712.691162,399.378815 
	C3712.691406,499.467468 3712.691406,599.090515 3712.691406,699.318054 
	C3705.161865,699.318054 3698.052490,699.318054 3690.943115,699.318054 
	C3683.277100,699.317993 3675.602783,699.112549 3667.948486,699.409851 
	C3664.445557,699.545959 3662.647217,698.195862 3660.859619,695.364807 
	C3620.851074,631.997131 3580.747559,568.689392 3540.656738,505.373779 
	C3539.781982,503.992096 3538.845459,502.649445 3537.110840,500.049316 
	C3537.110840,567.218994 3537.110840,633.020447 3537.110840,699.068420 
	C3516.386475,699.068420 3496.295898,699.068420 3475.860596,699.068420 
	C3475.860596,597.958191 3475.860596,496.914490 3475.860596,395.299408 
	C3483.091309,395.299408 3490.214600,395.299438 3497.338135,395.299438 
	C3504.670898,395.299438 3512.012207,395.510590 3519.332764,395.211975 
	C3523.101074,395.058289 3525.289062,396.208496 3527.359863,399.483612 
	C3564.117676,457.620880 3601.015625,515.669189 3637.891846,573.731567 
	C3642.132812,580.409363 3646.422363,587.056213 3651.634766,593.431091 
	C3651.634766,527.573120 3651.634766,461.715088 3651.634766,395.299408 
	C3656.258057,395.299408 3660.378662,395.299438 3664.499268,395.299438 
	C3679.164795,395.299500 3693.830322,395.342072 3708.495361,395.260895 
	C3711.179199,395.246063 3713.220947,395.469757 3712.691162,399.378815 
z" data-index="38" style="visibility: visible; opacity: 1;"></path>
<path fill="#FDFDFD" opacity="1.000000" stroke="none" d="
M2857.362793,17.106667 
	C2875.081055,16.613424 2892.396729,15.447301 2909.664795,15.941415 
	C2939.781982,16.803215 2969.870117,18.681847 2999.969482,20.157185 
	C3001.785645,20.246204 3003.591797,20.536356 3005.737305,20.769272 
	C3005.737305,37.705742 3005.737305,54.439972 3005.737305,71.916000 
	C3003.831787,71.916000 3001.903076,71.916000 2999.974365,71.916000 
	C2964.643311,71.916008 2929.312500,71.903931 2893.981445,71.938980 
	C2891.158203,71.941788 2888.292725,72.019684 2885.519531,72.490753 
	C2874.184570,74.416252 2867.139160,80.907028 2866.556641,92.396454 
	C2865.749512,108.308197 2866.354004,124.291557 2866.354004,140.727875 
	C2906.271729,141.823837 2945.963867,142.913589 2985.967529,144.011902 
	C2985.967529,160.270264 2985.967529,176.152847 2985.967529,192.291611 
	C2945.992676,193.377487 2906.275635,194.456360 2866.835205,195.527710 
	C2866.835205,212.451233 2866.141602,228.926620 2867.077393,245.308960 
	C2867.708740,256.364868 2875.012939,262.440704 2885.989746,263.897095 
	C2888.290771,264.202362 2890.638672,264.254761 2892.964844,264.256134 
	C2928.629150,264.277527 2964.293701,264.271118 2999.958008,264.271149 
	C3001.761475,264.271149 3003.564941,264.271149 3005.731934,264.271149 
	C3005.731934,281.413391 3005.731934,298.147736 3005.731934,315.556580 
	C2999.812256,316.129852 2993.760742,317.019379 2987.683838,317.254852 
	C2949.594238,318.730804 2911.506104,320.535309 2873.400391,321.132568 
	C2862.812012,321.298523 2851.728271,319.036346 2841.636230,315.625916 
	C2820.810791,308.588379 2809.436279,292.890259 2806.270508,271.297180 
	C2805.500488,266.044312 2805.203125,260.678680 2805.196289,255.364197 
	C2805.122559,197.701416 2805.093506,140.038406 2805.181885,82.375671 
	C2805.211670,63.010464 2810.248047,45.437416 2825.156982,31.949194 
	C2834.186523,23.780107 2845.104004,19.435154 2857.362793,17.106667 
z" data-index="39" style="visibility: visible;"></path>
<path fill="#FDFDFD" opacity="1.000000" stroke="none" d="
M3049.497559,234.999725 
	C3049.497559,185.010406 3049.467773,135.521072 3049.540527,86.031883 
	C3049.548340,80.718353 3049.782471,75.352287 3050.540527,70.101456 
	C3054.871094,40.116047 3073.194580,21.598190 3103.167480,16.926176 
	C3108.736328,16.058125 3114.445801,15.439023 3120.060303,15.621745 
	C3160.990479,16.953745 3201.912842,18.512720 3242.836670,20.030878 
	C3245.298340,20.122192 3247.750000,20.478451 3250.433838,20.732994 
	C3250.433838,37.881271 3250.433838,54.615822 3250.433838,71.919373 
	C3248.399170,71.919373 3246.619873,71.919373 3244.840576,71.919380 
	C3209.514893,71.919426 3174.189209,71.911232 3138.863525,71.936081 
	C3136.203613,71.937950 3133.517090,71.980995 3130.887939,72.336586 
	C3118.811523,73.970070 3111.474854,80.662857 3110.873779,92.836914 
	C3110.096680,108.581932 3110.684570,124.394333 3110.684570,140.654007 
	C3122.224854,141.020920 3133.648682,141.432831 3145.075195,141.737686 
	C3172.370117,142.465881 3199.666992,143.109467 3226.958496,143.944641 
	C3228.293701,143.985489 3230.712891,145.507446 3230.725830,146.368942 
	C3230.958252,161.491913 3230.894043,176.619415 3230.894043,192.274475 
	C3190.588379,193.371933 3150.741211,194.456909 3110.348877,195.556717 
	C3110.348877,198.928192 3110.316406,201.874603 3110.354248,204.820129 
	C3110.521240,217.805756 3110.230713,230.820465 3111.026611,243.768051 
	C3111.767578,255.820541 3119.150391,262.654938 3131.221191,263.995087 
	C3133.366211,264.233246 3135.542725,264.256134 3137.704834,264.257050 
	C3173.363770,264.272125 3209.022705,264.267761 3244.681641,264.267761 
	C3246.478027,264.267761 3248.274170,264.267761 3250.386719,264.267761 
	C3250.386719,281.449829 3250.386719,298.187408 3250.386719,315.543396 
	C3242.826172,316.262146 3235.278320,317.304810 3227.699463,317.643860 
	C3194.939697,319.109467 3162.177734,320.600830 3129.401123,321.559998 
	C3119.801758,321.840912 3110.067383,320.988007 3100.540527,319.632996 
	C3070.304932,315.332581 3052.002197,295.462677 3049.999023,264.961945 
	C3049.355713,255.172470 3049.638428,245.322189 3049.497559,234.999725 
z" data-index="40" style="visibility: visible;"></path>
<path fill="#FEFEFE" opacity="1.000000" stroke="none" d="
M2499.828125,631.000000 
	C2499.828125,653.949707 2499.828125,676.399414 2499.828125,699.078918 
	C2479.345459,699.078918 2459.403320,699.078918 2439.157715,699.078918 
	C2439.157715,598.019165 2439.157715,496.947937 2439.157715,395.313324 
	C2440.989014,395.313324 2442.754883,395.313293 2444.520996,395.313293 
	C2485.185791,395.313354 2525.852051,395.122162 2566.514160,395.458588 
	C2575.772217,395.535187 2585.175049,396.693939 2594.235107,398.640289 
	C2620.098145,404.196625 2637.073975,420.290131 2644.852783,445.286743 
	C2653.606201,473.414368 2653.968018,502.096802 2646.616943,530.603333 
	C2641.423340,550.744690 2629.099121,565.467041 2610.044189,574.287842 
	C2607.952637,575.256165 2605.915771,576.343079 2603.482666,577.560425 
	C2622.269531,618.013672 2640.947021,658.231140 2660.025879,699.313110 
	C2656.398926,699.313110 2653.646729,699.313049 2650.894531,699.313049 
	C2634.728516,699.312988 2618.561035,699.198547 2602.397705,699.402100 
	C2598.836426,699.446960 2597.211670,698.305969 2595.806641,695.038513 
	C2580.885254,660.337769 2565.733887,625.735901 2550.796631,591.041931 
	C2549.491699,588.010803 2548.104004,586.783630 2544.643799,586.837891 
	C2530.006592,587.067566 2515.363281,586.935181 2499.828125,586.935181 
	C2499.828125,601.045715 2499.828125,615.772827 2499.828125,631.000000 
M2580.508545,458.999176 
	C2573.306641,451.566345 2563.999023,450.160248 2554.339600,450.093964 
	C2537.693115,449.979736 2521.045410,450.055298 2504.398193,450.074951 
	C2502.965088,450.076630 2501.531982,450.255524 2500.110596,450.351318 
	C2500.110596,479.711334 2500.110596,508.602417 2500.110596,537.164307 
	C2520.978516,537.164307 2541.584229,537.714417 2562.141846,536.960205 
	C2574.685547,536.500000 2583.226074,528.720276 2586.757324,516.850281 
	C2588.951416,509.475586 2589.900635,501.550964 2590.182617,493.828400 
	C2590.629395,481.601654 2589.489014,469.489410 2580.508545,458.999176 
z" data-index="41" style="visibility: visible; opacity: 1;"></path>
<path fill="#FDFDFD" opacity="1.000000" stroke="none" d="
M1690.392822,242.999634 
	C1690.392700,185.217407 1690.392700,127.935196 1690.392700,70.164902 
	C1662.403687,70.164902 1634.993286,70.164902 1607.377197,70.164902 
	C1607.377197,51.760845 1607.377197,33.847214 1607.377197,15.741694 
	C1683.264404,15.741694 1758.895874,15.741694 1834.865723,15.741694 
	C1834.865723,33.743374 1834.865723,51.784740 1834.865723,70.291199 
	C1807.056274,70.291199 1779.481079,70.291199 1751.413208,70.291199 
	C1751.413208,153.494095 1751.413208,236.235168 1751.413208,319.270905 
	C1731.009277,319.270905 1711.101685,319.270905 1690.392822,319.270905 
	C1690.392822,293.992310 1690.392822,268.745972 1690.392822,242.999634 
z" data-index="42" style="visibility: visible;"></path>
<path fill="#FEFEFE" opacity="1.000000" stroke="none" d="
M3777.001953,699.305603 
	C3771.847900,699.305603 3767.193359,699.305603 3762.159668,699.305603 
	C3762.159668,598.072998 3762.159668,497.071228 3762.159668,395.567352 
	C3763.885986,395.486664 3765.643311,395.333374 3767.400635,395.332825 
	C3809.215332,395.319580 3851.030518,395.204620 3892.844482,395.366974 
	C3918.061035,395.464844 3941.396484,401.313843 3960.233398,419.423553 
	C3975.940186,434.524109 3984.126221,453.691406 3989.028564,474.395233 
	C3996.889648,507.595581 3997.552734,541.340881 3995.459229,575.187378 
	C3994.128418,596.700867 3990.522705,617.842163 3982.609375,638.030029 
	C3966.735352,678.525208 3936.432373,699.225220 3892.949951,699.292603 
	C3854.467041,699.352295 3815.984375,699.305481 3777.001953,699.305603 
M3888.093018,644.475464 
	C3906.047852,643.506042 3917.836182,633.788513 3924.668945,617.827515 
	C3927.531738,611.140747 3929.580322,603.997070 3931.115479,596.870667 
	C3935.674072,575.706238 3935.635010,554.188782 3935.105225,532.679688 
	C3934.686035,515.652466 3933.410889,498.700073 3928.237061,482.338287 
	C3921.010742,459.487274 3908.192383,450.140533 3884.304443,450.072510 
	C3865.304688,450.018402 3846.304688,450.055847 3827.304688,450.072144 
	C3825.885010,450.073364 3824.465332,450.230652 3823.094727,450.312439 
	C3823.094727,515.274536 3823.094727,579.729614 3823.094727,644.584961 
	C3844.594971,644.584961 3865.883789,644.584961 3888.093018,644.475464 
z" data-index="43" style="visibility: visible; opacity: 1;"></path>
<path fill="#FDFDFD" opacity="1.000000" stroke="none" d="
M2924.035645,479.108826 
	C2932.581299,528.291321 2933.759766,576.978882 2920.760986,625.153748 
	C2914.237793,649.328491 2902.279297,670.431030 2880.608887,684.657227 
	C2864.916992,694.958313 2847.328125,699.092712 2828.894287,699.214966 
	C2785.410156,699.503540 2741.922607,699.309326 2698.436523,699.302368 
	C2697.645752,699.302246 2696.854980,699.203308 2695.958984,699.143494 
	C2695.958984,597.788635 2695.958984,496.751709 2695.958984,395.316345 
	C2697.885254,395.316345 2699.517822,395.316345 2701.150146,395.316345 
	C2743.136963,395.316345 2785.124268,395.178406 2827.110107,395.369751 
	C2851.048828,395.478851 2873.364502,400.907562 2891.814941,417.374969 
	C2907.688477,431.542450 2916.127930,449.984009 2921.845703,469.956970 
	C2922.669434,472.834198 2923.257812,475.778748 2924.035645,479.108826 
M2839.502441,453.916534 
	C2835.821533,452.908569 2832.176270,451.211853 2828.453125,451.019592 
	C2816.490479,450.401764 2804.500732,450.233490 2792.519043,450.093384 
	C2780.718750,449.955383 2768.915527,450.063232 2756.807861,450.063232 
	C2756.807861,515.037354 2756.807861,579.589233 2756.807861,644.155334 
	C2757.510498,644.364136 2757.969727,644.619507 2758.428955,644.619934 
	C2779.090820,644.639771 2799.758057,644.928528 2820.412842,644.547485 
	C2837.683594,644.228882 2850.322998,635.850891 2857.273193,620.020569 
	C2860.588135,612.470215 2863.218018,604.461731 2864.945068,596.400879 
	C2870.292236,571.441345 2869.793701,546.111450 2868.400391,520.806885 
	C2867.537598,505.140106 2865.456299,489.651642 2859.267334,475.026520 
	C2855.381348,465.843964 2849.577637,458.361969 2839.502441,453.916534 
z" data-index="44" style="visibility: visible; opacity: 1;"></path>
<path fill="#FDFDFD" opacity="1.000000" stroke="none" d="
M2181.917969,679.115173 
	C2164.127686,663.775635 2156.056396,643.592712 2151.305908,621.747375 
	C2145.142090,593.402954 2144.420166,564.612427 2144.958252,535.762939 
	C2145.396973,512.242920 2147.150635,488.837891 2153.342285,466.020477 
	C2158.331543,447.634247 2165.891113,430.570282 2180.278564,417.338196 
	C2191.602783,406.923401 2204.988525,400.528320 2219.945312,397.429779 
	C2252.311768,390.724548 2284.775879,390.684143 2317.220215,396.760803 
	C2353.002197,403.462616 2374.636230,425.523834 2384.924316,459.747253 
	C2391.981445,483.221344 2394.294678,507.348053 2394.850098,531.697388 
	C2395.484375,559.517395 2395.571533,587.396973 2389.798096,614.745544 
	C2387.071045,627.663269 2383.172119,640.579895 2377.887207,652.658142 
	C2368.012451,675.225159 2350.146729,689.610718 2326.311035,695.408752 
	C2288.799561,704.533386 2251.060547,704.245728 2213.482422,695.371155 
	C2201.823486,692.617676 2191.427979,687.017700 2181.917969,679.115173 
M2328.290771,609.831543 
	C2329.249512,605.103149 2330.462158,600.409973 2331.125000,595.640442 
	C2334.993652,567.809143 2334.744629,539.870972 2332.735840,511.932129 
	C2331.791504,498.793854 2329.959961,485.754669 2324.834473,473.441040 
	C2319.608887,460.886719 2310.557861,452.842438 2297.117676,449.924255 
	C2281.635010,446.562622 2266.097656,446.611542 2250.438232,448.568573 
	C2229.464844,451.189758 2217.487061,463.516663 2211.985352,483.208435 
	C2207.330078,499.869659 2206.231445,516.956848 2205.941162,534.117371 
	C2205.538818,557.930664 2205.255371,581.771484 2210.098877,605.263306 
	C2214.185791,625.084290 2223.745361,640.297668 2245.244385,644.630310 
	C2261.770508,647.960754 2278.341309,648.004700 2294.868164,644.613098 
	C2310.394531,641.426758 2320.624268,632.106873 2325.934082,617.269287 
	C2326.719238,615.075317 2327.374268,612.834656 2328.290771,609.831543 
z" data-index="45" style="visibility: visible; opacity: 1;"></path>
<path fill="#FDFDFD" opacity="1.000000" stroke="none" d="
M2404.141357,218.999954 
	C2404.141357,151.059952 2404.141357,83.619949 2404.141357,15.861422 
	C2424.514893,15.861422 2444.443115,15.861422 2464.757568,15.861422 
	C2464.757568,116.838310 2464.757568,218.001678 2464.757568,319.369934 
	C2444.758301,319.369934 2424.831543,319.369934 2404.141357,319.369934 
	C2404.141357,285.972809 2404.141357,252.736389 2404.141357,218.999954 
z" data-index="46" style="visibility: visible; opacity: 1;"></path>
<path fill="#FDFDFD" opacity="1.000000" stroke="none" d="
M1693.029175,421.000000 
	C1693.029175,412.347565 1693.029175,404.195099 1693.029175,395.673004 
	C1713.341309,395.673004 1733.389526,395.673004 1753.740967,395.673004 
	C1753.740967,496.798920 1753.740967,597.797852 1753.740967,699.057007 
	C1733.641846,699.057007 1713.711792,699.057007 1693.029175,699.057007 
	C1693.029175,606.553833 1693.029175,514.026917 1693.029175,421.000000 
z" data-index="47" style="visibility: visible; opacity: 1;"></path>
<path fill="#070707" opacity="1.000000" stroke="none" d="
M1928.095459,137.999619 
	C1928.095459,115.360138 1928.095459,93.220520 1928.095459,70.676483 
	C1929.558228,70.508965 1930.814575,70.241867 1932.071411,70.239792 
	C1948.891479,70.212013 1965.711670,70.210182 1982.531738,70.235947 
	C1984.525513,70.238998 1986.527588,70.361603 1988.511475,70.567322 
	C2004.885864,72.265266 2013.739868,80.223366 2017.091187,96.397514 
	C2019.557373,108.300606 2019.336060,120.263351 2016.765015,132.082443 
	C2013.332886,147.858719 2003.076660,157.081024 1986.651733,157.683182 
	C1967.377808,158.389816 1948.057983,157.848618 1928.095459,157.848618 
	C1928.095459,151.348511 1928.095459,144.923996 1928.095459,137.999619 
M1991.981689,85.070213 
	C1990.365112,84.790459 1988.751587,84.287605 1987.131592,84.266609 
	C1975.142456,84.111168 1963.151978,84.047462 1951.161987,83.964989 
	C1948.230225,83.944824 1945.298096,83.961983 1942.445801,83.961983 
	C1942.445801,104.715538 1942.445801,124.777809 1942.445801,146.131668 
	C1958.745850,145.132874 1974.624023,144.355301 1990.463257,143.089478 
	C1996.471802,142.609299 2000.308594,138.520157 2002.034668,132.849503 
	C2005.792114,120.505135 2006.055542,107.997177 2002.618042,95.568344 
	C2001.246582,90.610191 1998.291504,86.573807 1991.981689,85.070213 
z" data-index="48" style="opacity: 1;"></path>
<path fill="#080808" opacity="1.000000" stroke="none" d="
M2206.422852,179.289185 
	C2216.791504,142.446457 2227.030273,105.986877 2237.638184,68.212433 
	C2250.213623,113.124573 2262.438477,156.784622 2274.764404,200.805420 
	C2249.925049,200.805420 2225.651855,200.805420 2200.613770,200.805420 
	C2202.550049,193.599792 2204.421631,186.636047 2206.422852,179.289185 
M2253.050293,174.501968 
	C2248.100342,156.876877 2243.150391,139.251770 2238.200439,121.626686 
	C2237.787842,121.675468 2237.375244,121.724243 2236.962891,121.773026 
	C2230.922119,143.439453 2224.881592,165.105865 2218.745850,187.113007 
	C2231.623535,187.113007 2243.804932,187.113007 2256.562744,187.113007 
	C2255.386719,182.870667 2254.334717,179.075958 2253.050293,174.501968 
z" data-index="49" style="opacity: 1;"></path>
<path fill="#070707" opacity="1.000000" stroke="none" d="
M3271.489258,580.901611 
	C3270.816406,579.943359 3270.200684,578.888794 3270.428955,578.069275 
	C3282.254883,535.590881 3294.151855,493.132385 3306.052734,450.674927 
	C3306.131836,450.393005 3306.368408,450.155182 3307.025391,449.113495 
	C3319.380371,493.212006 3331.566406,536.707092 3343.951904,580.915039 
	C3319.695312,580.915039 3295.817871,580.915039 3271.489258,580.901611 
M3308.046631,504.390991 
	C3307.727783,503.576630 3307.408691,502.762238 3306.511475,500.471649 
	C3299.926025,523.841064 3293.753662,545.744202 3287.496826,567.946716 
	C3300.328369,567.946716 3312.694824,567.946716 3325.868896,567.946716 
	C3319.975586,546.668213 3314.217285,525.877747 3308.046631,504.390991 
z" data-index="50" style="opacity: 1;"></path>
<path fill="#070707" opacity="1.000000" stroke="none" d="
M2580.758301,459.253052 
	C2589.489014,469.489410 2590.629395,481.601654 2590.182617,493.828400 
	C2589.900635,501.550964 2588.951416,509.475586 2586.757324,516.850281 
	C2583.226074,528.720276 2574.685547,536.500000 2562.141846,536.960205 
	C2541.584229,537.714417 2520.978516,537.164307 2500.110596,537.164307 
	C2500.110596,508.602417 2500.110596,479.711334 2500.110596,450.351318 
	C2501.531982,450.255524 2502.965088,450.076630 2504.398193,450.074951 
	C2521.045410,450.055298 2537.693115,449.979736 2554.339600,450.093964 
	C2563.999023,450.160248 2573.306641,451.566345 2580.758301,459.253052 
M2548.487549,524.390869 
	C2551.642578,524.278687 2554.827148,524.401306 2557.946289,524.006714 
	C2564.916992,523.125000 2571.152344,520.934509 2573.491211,513.284485 
	C2577.576660,499.921265 2577.625244,486.509735 2573.475830,473.181091 
	C2572.181885,469.024658 2569.032959,466.120056 2564.746338,465.232697 
	C2559.776123,464.203857 2554.697266,463.310822 2549.642090,463.163452 
	C2539.006836,462.853302 2528.355957,463.054688 2517.711670,463.085083 
	C2516.302246,463.089111 2514.893311,463.320404 2513.755859,463.422150 
	C2513.755859,483.985382 2513.755859,504.015930 2513.755859,524.391113 
	C2525.246582,524.391113 2536.369385,524.391113 2548.487549,524.390869 
z" data-index="51" style="opacity: 1;"></path>
<path fill="#070707" opacity="1.000000" stroke="none" d="
M3887.632812,644.530212 
	C3865.883789,644.584961 3844.594971,644.584961 3823.094727,644.584961 
	C3823.094727,579.729614 3823.094727,515.274536 3823.094727,450.312439 
	C3824.465332,450.230652 3825.885010,450.073364 3827.304688,450.072144 
	C3846.304688,450.055847 3865.304688,450.018402 3884.304443,450.072510 
	C3908.192383,450.140533 3921.010742,459.487274 3928.237061,482.338287 
	C3933.410889,498.700073 3934.686035,515.652466 3935.105225,532.679688 
	C3935.635010,554.188782 3935.674072,575.706238 3931.115479,596.870667 
	C3929.580322,603.997070 3927.531738,611.140747 3924.668945,617.827515 
	C3917.836182,633.788513 3906.047852,643.506042 3887.632812,644.530212 
M3906.815918,621.237976 
	C3909.173340,616.723328 3912.072510,612.404541 3913.789062,607.658081 
	C3919.368652,592.232483 3920.823975,576.001831 3921.358154,559.799438 
	C3921.790283,546.694580 3921.593994,533.476624 3920.348145,520.435791 
	C3919.192627,508.342773 3917.182373,496.166016 3913.928467,484.477020 
	C3908.812256,466.096832 3900.723633,464.950104 3885.987549,463.505798 
	C3870.477051,461.985596 3854.707031,463.103699 3839.050537,463.102753 
	C3838.296387,463.102722 3837.542236,463.428070 3837.006348,463.551636 
	C3837.006348,519.731934 3837.006348,575.595825 3837.006348,631.726624 
	C3852.675537,631.726624 3868.002930,632.230103 3883.274658,631.528870 
	C3891.794678,631.137634 3900.380859,629.110535 3906.815918,621.237976 
z" data-index="52" style="opacity: 1;"></path>
<path fill="#060606" opacity="1.000000" stroke="none" d="
M2839.868408,454.021790 
	C2849.577637,458.361969 2855.381348,465.843964 2859.267334,475.026520 
	C2865.456299,489.651642 2867.537598,505.140106 2868.400391,520.806885 
	C2869.793701,546.111450 2870.292236,571.441345 2864.945068,596.400879 
	C2863.218018,604.461731 2860.588135,612.470215 2857.273193,620.020569 
	C2850.322998,635.850891 2837.683594,644.228882 2820.412842,644.547485 
	C2799.758057,644.928528 2779.090820,644.639771 2758.428955,644.619934 
	C2757.969727,644.619507 2757.510498,644.364136 2756.807861,644.155334 
	C2756.807861,579.589233 2756.807861,515.037354 2756.807861,450.063232 
	C2768.915527,450.063232 2780.718750,449.955383 2792.519043,450.093384 
	C2804.500732,450.233490 2816.490479,450.401764 2828.453125,451.019592 
	C2832.176270,451.211853 2835.821533,452.908569 2839.868408,454.021790 
M2770.145996,598.500000 
	C2770.145996,609.447937 2770.145996,620.395935 2770.145996,631.694214 
	C2786.281006,631.694214 2801.927734,632.202942 2817.526123,631.551819 
	C2833.267822,630.894714 2843.993652,622.705750 2847.614014,607.004700 
	C2850.279053,595.445435 2852.997803,583.753479 2853.972168,571.978271 
	C2856.304199,543.794617 2856.381104,515.600464 2849.272461,487.879333 
	C2846.129395,475.622925 2840.112793,465.986511 2826.274902,464.535309 
	C2817.382568,463.602753 2808.404785,463.338013 2799.457031,463.123413 
	C2789.845459,462.892914 2780.223633,463.071381 2770.145996,463.071381 
	C2770.145996,508.261169 2770.145996,552.880554 2770.145996,598.500000 
z" data-index="53" style="opacity: 1;"></path>
<path fill="#080808" opacity="1.000000" stroke="none" d="
M2328.190186,610.223511 
	C2327.374268,612.834656 2326.719238,615.075317 2325.934082,617.269287 
	C2320.624268,632.106873 2310.394531,641.426758 2294.868164,644.613098 
	C2278.341309,648.004700 2261.770508,647.960754 2245.244385,644.630310 
	C2223.745361,640.297668 2214.185791,625.084290 2210.098877,605.263306 
	C2205.255371,581.771484 2205.538818,557.930664 2205.941162,534.117371 
	C2206.231445,516.956848 2207.330078,499.869659 2211.985352,483.208435 
	C2217.487061,463.516663 2229.464844,451.189758 2250.438232,448.568573 
	C2266.097656,446.611542 2281.635010,446.562622 2297.117676,449.924255 
	C2310.557861,452.842438 2319.608887,460.886719 2324.834473,473.441040 
	C2329.959961,485.754669 2331.791504,498.793854 2332.735840,511.932129 
	C2334.744629,539.870972 2334.993652,567.809143 2331.125000,595.640442 
	C2330.462158,600.409973 2329.249512,605.103149 2328.190186,610.223511 
M2223.199463,494.969116 
	C2221.843750,514.291321 2220.266113,533.601868 2219.246582,552.941833 
	C2218.864014,560.200867 2219.280762,567.592529 2220.212158,574.810242 
	C2221.773193,586.906006 2223.427246,599.053711 2226.195801,610.910217 
	C2228.549561,620.990295 2235.189209,627.688354 2245.757080,630.493347 
	C2259.132568,634.043579 2272.596924,634.265259 2286.105957,632.573669 
	C2300.950684,630.714966 2310.740479,622.738342 2314.652100,607.775696 
	C2318.833008,591.782654 2319.853760,575.447632 2320.223633,559.103943 
	C2320.554443,544.490784 2320.095947,529.828674 2319.260742,515.229614 
	C2318.535400,502.555115 2316.786621,489.938660 2311.667969,478.093323 
	C2309.009766,471.942322 2305.213135,466.971344 2298.454346,464.830719 
	C2282.677490,459.833984 2266.830811,458.957947 2250.556885,462.560699 
	C2241.326904,464.604065 2233.432617,468.129028 2229.311768,476.926849 
	C2226.755859,482.383362 2225.392334,488.398254 2223.199463,494.969116 
z" data-index="54" style="opacity: 1;"></path>







</svg>