<?xml version="1.0" encoding="UTF-8"?>
<svg id="svg2" width="594.6" height="226.15" version="1.1" viewBox="0 0 594.6 226.15" xml:space="preserve" xmlns="http://www.w3.org/2000/svg" xmlns:cc="http://creativecommons.org/ns#" xmlns:dc="http://purl.org/dc/elements/1.1/" xmlns:rdf="http://www.w3.org/1999/02/22-rdf-syntax-ns#"><metadata id="metadata8"><rdf:RDF><cc:Work rdf:about=""><dc:format>image/svg+xml</dc:format><dc:type rdf:resource="http://purl.org/dc/dcmitype/StillImage"/><dc:title/></cc:Work></rdf:RDF></metadata><defs id="defs6"><clipPath id="clipPath42"><path id="path40" d="m715.35 1643.9-103.28-476.97c72.18-39.02 121.23-115.39 121.23-203.2 0-122.18-94.957-222.13-215.09-230.25l-119.6-552.37h184.74c32.109 0.801 118.32-8.441 139.32 88.18 17.481 80.441 282.23 1374.6 282.23 1374.6z"/></clipPath><linearGradient id="linearGradient54" x2="1" gradientTransform="matrix(-280 60 60 280 844.8 881.81)" gradientUnits="userSpaceOnUse"><stop id="stop44" stop-color="#1e254a" offset="0"/><stop id="stop46" stop-color="#21316b" offset=".30568"/><stop id="stop48" stop-color="#21316b" offset=".44506"/><stop id="stop50" stop-color="#21316b" offset=".45874"/><stop id="stop52" stop-color="#1e254a" offset="1"/></linearGradient><clipPath id="clipPath64"><path id="path62" d="m271.6 963.69c0 127.5 103.36 230.86 230.85 230.86 8.739 0 17.352-0.54 25.836-1.49l97.614 450.8h-241.21c-57.094-4.37-94.375-48.89-102.45-88.18-16.765-81.62-282.23-1374.6-282.23-1374.6h309.15l121.93 563.08c-92.551 30.07-159.48 116.98-159.48 219.54z"/></clipPath><linearGradient id="linearGradient76" x2="1" gradientTransform="matrix(-300 60 60 300 465.9 881.87)" gradientUnits="userSpaceOnUse"><stop id="stop66" stop-color="#1e254a" offset="0"/><stop id="stop68" stop-color="#21316b" offset=".30568"/><stop id="stop70" stop-color="#21316b" offset=".44506"/><stop id="stop72" stop-color="#21316b" offset=".45874"/><stop id="stop74" stop-color="#1e254a" offset="1"/></linearGradient><clipPath id="clipPath86"><path id="path84" d="m659.16 966.64c0-84.52-70.164-153.04-156.72-153.04-86.546 0-156.71 68.523-156.71 153.04 0 84.525 70.165 153.04 156.71 153.04 86.551 0 156.72-68.52 156.72-153.04z"/></clipPath><radialGradient id="radialGradient92" cx="0" cy="0" r="1" gradientTransform="matrix(153.95 0 0 -153.95 549.08 1003.1)" gradientUnits="userSpaceOnUse"><stop id="stop88" stop-color="#c75661" offset="0"/><stop id="stop90" stop-color="#a60c2f" offset="1"/></radialGradient></defs><g id="g10" transform="matrix(1.3333 0 0 -1.3333 0 226.15)"><g id="g12" transform="scale(.1)"><g fill="#162a61"><path id="path14" d="m1318.7 1641.7h161.19l-47.41-230.16h190.49l47.42 230.16h161.19l-125-601.68h-161.18l53.44 257.73h-190.49l-53.44-257.73h-161.2l124.99 601.68"/><path id="path16" d="m2016.1 1133.1c66.37 0 106.03 45.69 117.23 106.02-12.94 2.6-31.89 2.6-41.38 2.6-74.14 2.59-128.42-24.13-128.42-63.78 0-20.7 19.81-44.84 52.57-44.84zm103.43-30.15-1.72 1.72v-1.72c-32.75-51.73-90.51-73.27-150.84-73.27-96.55 0-150 43.08-150 130.16 0 110.33 110.34 164.62 247.39 164.62 31.03 0 62.08-2.59 83.62-4.29 1.73 6.02 1.73 12.07 1.73 18.09 0 31.89-31.9 57.76-82.75 57.76-56.03 0-93.97-8.61-145.68-35.35l15.52 112.94c45.68 15.49 94.82 25.84 164.64 25.84 106.88 0 194.79-42.24 194.79-152.57 0-70.67-39.65-171.54-56.88-306.87h-126.71l6.89 62.94"/><path id="path18" d="m2568.6 1489.1-17.25-92.22h1.71c25 52.57 74.99 102.57 138.79 102.57 20.69 0 44.8-2.58 65.5-11.21l-35.34-137.05c-19.81 15.53-42.25 18.96-71.54 18.96-65.53 0-104.31-56.87-115.52-123.25l-43.94-206.89h-155.15l69.81 331.88c7.75 38.78 14.64 76.7 18.97 117.21h143.96"/><path id="path20" d="m3071.1 1307.2c0 48.25-18.96 88.78-75.86 88.78-67.24 0-103.43-45.69-114.62-88.78zm41.38-252.57c-54.31-16.37-112.06-24.99-156.86-24.99-150 0-231.03 92.21-231.03 205.15 0 104.29 68.96 264.62 268.94 264.62 118.08 0 206.86-59.46 206.86-195.69 0-18.08-5.17-57.71-11.18-84.45h-318.1c1.73-48.27 25.87-86.21 120.69-86.21 41.37 0 97.41 10.35 140.5 31.06l-19.82-109.49"/><path id="path22" d="m3378.8 1676.2h156.88l-24.1-113.8h-156.89zm-39.64-187.07h156.9l-93.11-449.09h-156.88l93.09 449.09"/><path id="path24" d="m3890 1289.1c0 44.81-22.4 91.38-74.15 91.38-73.23 0-117.19-69.82-117.19-139.64 0-55.19 24.99-92.24 74.1-92.24 73.27 0 117.24 81.02 117.24 140.5zm-19.83-177.57h-1.72c-39.65-49.99-76.7-81.88-162.91-81.88-96.53 0-167.24 84.47-167.24 185.33 0 147.38 74.13 284.44 227.57 284.44 78.46 0 132.73-34.48 156.01-82.76h1.73l54.3 269.81h152.57l-120.67-579.24c-5.16-26.74-7.74-49.13-9.48-67.25h-142.24l12.08 71.55"/><path id="path26" d="m1626.6 641.53c-52.6 23.278-104.33 32.758-174.18 32.758-161.24 0-225.91-113.82-225.91-227.64 0-106.92 68.12-156.94 150.03-156.94 20.7 0 41.39 3.461 63.81 10.348l26.73 119h-95.71l23.28 113.82h252.65l-71.57-335.42c-60.36-18.121-157.8-26.742-209.53-26.742-194.02 0-305.25 114.69-305.25 280.24 0 200.05 119.86 342.33 399.24 342.33 73.29 0 135.37-12.07 200.9-29.316l-34.49-122.44"/><path id="path28" d="m1894.6 630.32-17.24-92.269h1.73c25 52.597 75.01 102.61 138.82 102.61 20.7 0 44.84-2.59 65.54-11.211l-35.36-137.1c-19.83 15.527-42.25 18.968-71.57 18.968-65.53 0-104.33-56.91-115.54-123.31l-43.98-206.94h-155.21l69.85 331.97c7.76 38.813 14.65 76.75 18.97 117.28h143.99"/><path id="path30" d="m2352.8 532.02c-75.02 0-121.58-81.059-121.58-152.63 0-60.36 31.9-100.88 84.5-100.02 72.43 0 118.14 60.359 118.14 162.11 0 46.559-20.71 90.54-81.06 90.54zm-48.29-361.3c-166.41 0-233.67 92.261-233.67 205.22 0 157.8 113.82 264.72 289.72 264.72 152.62 0 233.67-87.949 233.67-200.91 0-187.11-121.57-269.03-289.72-269.03"/><path id="path32" d="m3117.6 298.34c-7.77-38.801-14.66-76.738-18.97-117.27h-144l12.07 73.289h-1.72c-44.84-50.007-91.41-83.64-173.32-83.64-90.55 0-139.69 67.261-139.69 155.21 0 30.179 2.58 47.429 12.07 94.859l41.39 209.53h160.38l-43.12-210.4c-4.3-22.41-10.34-44.84-10.34-68.121 0-26.731 17.24-53.461 60.36-51.742 65.53 0 104.34 56.921 115.55 123.31l43.97 206.95h155.21l-69.84-331.98"/><path id="path34" d="m3463.4 289.71c73.28 0 117.26 69.848 117.26 139.69 0 55.204-25.01 92.274-74.16 92.274-73.29 0-117.26-81.063-117.26-140.55 0-45.699 22.42-91.41 74.16-91.41zm-192.3 273.35c6.05 26.73 7.77 49.14 9.49 67.261h142.28l-12.07-71.57h1.72c47.42 57.77 105.19 81.91 161.25 81.91 110.36 0 167.27-84.5 167.27-185.39 0-147.44-74.16-284.55-236.26-284.55-68.12 0-112.09 29.32-144.86 85.371l-56.91-256.09h-156.94l125.03 563.06"/></g><g id="g36"><g id="g38" clip-path="url(#clipPath42)"><path id="path56" d="m715.35 1643.9-103.28-476.97c72.18-39.02 121.23-115.39 121.23-203.2 0-122.18-94.957-222.13-215.09-230.25l-119.6-552.37h184.74c32.109 0.801 118.32-8.441 139.32 88.18 17.481 80.441 282.23 1374.6 282.23 1374.6h-289.54" fill="url(#linearGradient54)"/></g></g><g id="g58"><g id="g60" clip-path="url(#clipPath64)"><path id="path78" d="m271.6 963.69c0 127.5 103.36 230.86 230.85 230.86 8.739 0 17.352-0.54 25.836-1.49l97.614 450.8h-241.21c-57.094-4.37-94.375-48.89-102.45-88.18-16.765-81.62-282.23-1374.6-282.23-1374.6h309.15l121.93 563.08c-92.551 30.07-159.48 116.98-159.48 219.54" fill="url(#linearGradient76)"/></g></g><g id="g80"><g id="g82" clip-path="url(#clipPath86)"><path id="path94" d="m659.16 966.64c0-84.52-70.164-153.04-156.72-153.04-86.546 0-156.71 68.523-156.71 153.04 0 84.525 70.165 153.04 156.71 153.04 86.551 0 156.72-68.52 156.72-153.04" fill="url(#radialGradient92)"/></g></g><path id="path96" d="m4318.5 1586.4h22.27c14.96 0 27.93 1.99 27.93 20.28 0 15.96-14.63 18.62-27.6 18.62h-22.6zm-25.28 58.18h50.54c32.59 0 50.2-11.3 50.2-39.9 0-23.27-13.29-34.58-35.57-36.57l36.58-59.52h-25.94l-35.24 58.52h-15.29v-58.52h-25.28zm136.99-68.49c0 56.19-40.56 96.75-90.77 96.75-50.2 0-90.77-40.56-90.77-96.75s40.57-96.76 90.77-96.76c50.21 0 90.77 40.57 90.77 96.76zm-210.8 0c0 66.16 53.86 120.03 120.03 120.03 66.16 0 120.03-53.87 120.03-120.03 0-66.17-53.87-120.03-120.03-120.03-66.17 0-120.03 53.86-120.03 120.03" fill="#162a61"/></g></g></svg>
