<?xml version="1.0" encoding="UTF-8"?>
<svg xmlns="http://www.w3.org/2000/svg" xmlns:xlink="http://www.w3.org/1999/xlink" id="VARD_rgb" data-name="VARD rgb" version="1.1" viewBox="0 0 348.44 111.4">
  <defs>
    <style>
      .cls-1 {
        fill: url(#New_Gradient_Swatch_4);
      }

      .cls-1, .cls-2, .cls-3, .cls-4, .cls-5 {
        stroke-width: 0px;
      }

      .cls-2 {
        fill: url(#New_Gradient_Swatch_4-3);
      }

      .cls-3 {
        fill: url(#New_Gradient_Swatch_4-2);
      }

      .cls-4 {
        fill: url(#New_Gradient_Swatch_4-4);
      }

      .cls-5 {
        fill: none;
      }
    </style>
    <linearGradient id="New_Gradient_Swatch_4" data-name="New Gradient Swatch 4" x1="131.59" y1="27.59" x2="131.59" y2="82.8" gradientUnits="userSpaceOnUse">
      <stop offset="0" stop-color="red"></stop>
      <stop offset="1" stop-color="#600"></stop>
    </linearGradient>
    <linearGradient id="New_Gradient_Swatch_4-2" data-name="New Gradient Swatch 4" x1="70.69" y1="27.55" x2="70.69" y2="82.76" xlink:href="#New_Gradient_Swatch_4"></linearGradient>
    <linearGradient id="New_Gradient_Swatch_4-3" data-name="New Gradient Swatch 4" x1="210.3" y1="27.55" x2="210.3" y2="82.76" xlink:href="#New_Gradient_Swatch_4"></linearGradient>
    <linearGradient id="New_Gradient_Swatch_4-4" data-name="New Gradient Swatch 4" x1="282.67" y1="27.55" x2="282.67" y2="82.76" xlink:href="#New_Gradient_Swatch_4"></linearGradient>
  </defs>
  <rect class="cls-5" x="0" y="0" width="348.44" height="111.4"></rect>
  <g>
    <path class="cls-1" d="M132.32,27.59c-4.71,0-7.58,2.21-10.49,6.81l-30.08,47.44h15.88l24.7-39.85,17.96,29.8h-23.26c-3.24,0-5.03.79-6.97,3.91l-3.8,6.14h55.18l-28.6-47.44c-2.66-4.43-5.94-6.81-10.51-6.81Z"></path>
    <path class="cls-3" d="M94.89,28.47l-24.2,39.83-24.2-39.83h-15.88l30.11,47.49c2.79,4.39,5.51,6.8,9.97,6.8s7.18-2.42,9.96-6.8l30.11-47.49h-15.88Z"></path>
    <path class="cls-2" d="M228.02,63.56c7.85-1.75,13.01-8.17,13.01-16.47,0-15.24-12.16-18.63-23.01-18.63h-34.42c-5.82,0-7.04,3.98-7.04,7.04v46.33h12.48v-15.89h25.62l9.75,12.5c1.96,2.4,4.01,3.39,7.1,3.39h12.51l-8.78-10.37c-3.28-3.75-5.59-6.54-7.23-7.9ZM219.99,55.34h-30.94v-13.37c0-.96.5-2.17,2.16-2.17h28.77c5.06,0,8.14,3.22,8.14,7.91,0,4.14-3.57,7.64-8.14,7.64Z"></path>
    <path class="cls-4" d="M285.33,28.47h-27.03c-5.83,0-7.04,3.98-7.04,7.04v39.3c0,3.06,1.21,7.04,7.04,7.04h27.03c17.69,0,28.74-11.29,28.74-26.69s-10.98-26.68-28.74-26.68ZM287.62,70.5h-21.75c-1.54-.05-2.04-1.18-2.06-2.11v-26.48c.02-.93.52-2.06,2.06-2.11h21.75c7.98,0,14.11,6.55,14.11,15.35s-6.13,15.35-14.11,15.35Z"></path>
  </g>
</svg>
