<svg width="464" height="182" viewBox="0 0 464 182" fill="none" xmlns="http://www.w3.org/2000/svg">
<path d="M135.037 53.4229L115.822 2.84791C115.445 1.88721 115.675 1.24009 116.93 1.05479C118.047 0.875196 119.762 0.741211 121.668 0.741211C123.248 0.741211 124.871 0.783972 125.985 0.920808C127.145 1.05764 127.375 1.43109 127.743 2.4431L142.828 45.4779C142.975 45.8856 143.205 46.0224 143.755 46.0224H144.457C145.007 46.0224 145.246 45.8856 145.384 45.4779L160.468 2.4431C160.837 1.43109 161.07 1.05764 162.23 0.920808C163.347 0.783972 165.019 0.741211 166.599 0.741211C168.409 0.741211 169.981 0.920808 171.098 1.05479C172.35 1.24294 172.583 1.88721 172.214 2.84791L152.994 53.4229C152.53 54.6231 151.834 55.0308 150.211 55.0308H137.814C136.191 55.0308 135.497 54.6231 135.034 53.4229" fill="#EA5E0B"/>
<path d="M206.338 48.1348C218.682 48.1348 223.558 41.2816 223.558 28C223.558 14.7184 218.682 7.8652 206.338 7.8652C193.993 7.8652 189.118 14.7098 189.118 28C189.118 41.2902 193.993 48.1348 206.338 48.1348ZM206.338 0C225.792 0 235.071 9.51578 235.071 28C235.071 46.4842 225.792 56 206.338 56C186.884 56 177.605 46.4757 177.605 28C177.605 9.52433 186.884 0 206.338 0Z" fill="#EA5E0B"/>
<path d="M257.034 9.10246H239.906C239.117 9.10246 238.789 8.96562 238.654 8.13321C238.516 7.36065 238.424 6.25457 238.424 5.0544C238.424 3.85424 238.519 2.75955 238.654 1.9756C238.792 1.15174 239.117 1.00635 239.906 1.00635H287.483C288.271 1.00635 288.599 1.15174 288.735 1.9756C288.873 2.7567 288.965 3.86279 288.965 5.0544C288.965 6.24601 288.87 7.3578 288.735 8.13321C288.596 8.96562 288.271 9.10246 287.483 9.10246H270.354C269.609 9.10246 269.333 9.46735 269.333 10.1145V53.326C269.333 54.3894 269.143 54.797 267.986 54.9852C266.869 55.1733 265.436 55.3073 263.668 55.3073C261.901 55.3073 260.465 55.1705 259.403 54.9852C258.243 54.797 258.056 54.3894 258.056 53.326V10.1145C258.056 9.46735 257.782 9.10246 257.034 9.10246Z" fill="#EA5E0B"/>
<path d="M391.564 19.4932C390.542 19.305 390.309 19.0342 390.309 17.9794V10.0202C390.309 9.42437 390.119 9.14499 389.425 8.91408C388.317 8.54919 385.022 7.99614 380.376 7.99614C367.283 7.99614 361.806 14.6213 361.806 27.8174C361.806 41.0135 367.609 47.4932 382.598 47.4932C390.677 47.4932 397.735 45.2411 399.965 44.6881C400.892 44.4571 401.537 44.4572 401.727 45.5632C402.009 47.1283 402.095 49.7481 401.865 51.6268C401.778 52.4592 401.54 52.6388 400.705 52.9609C398.713 53.6508 391.656 55.8088 382.187 55.8088C361.481 55.8088 350.293 48.089 350.293 28.0454C350.293 9.09938 360.364 0.222168 380.84 0.222168C389.612 0.222168 396.249 1.65039 399.45 2.61964C400.662 2.98454 401.073 3.58034 401.073 4.91449V17.9766C401.073 19.0314 400.843 19.3022 399.821 19.4903C398.756 19.6785 397.176 19.8125 395.691 19.8125C394.206 19.8125 392.626 19.6756 391.561 19.4903" fill="#EA5E0B"/>
<path d="M308.796 21.9935V10.1145C308.796 9.46735 309.069 9.10246 309.817 9.10246H340.036C340.824 9.10246 341.152 8.96562 341.288 8.13321C341.426 7.36065 341.518 6.25457 341.518 5.0544C341.518 3.85424 341.423 2.75955 341.288 1.9756C341.149 1.15174 340.824 1.00635 340.036 1.00635H299.652C298.21 1.00635 297.513 1.42256 297.513 3.03038V21.9907H308.793L308.796 21.9935Z" fill="#EA5E0B"/>
<path d="M342.542 47.9066C342.404 47.0828 342.079 46.9374 341.288 46.9374H309.815C309.066 46.9374 308.793 46.5725 308.793 45.9254V32.3644C308.793 32.2446 308.819 32.1506 308.836 32.0508H297.513V53.0094C297.513 54.6173 298.21 55.0335 299.652 55.0335H341.288C342.079 55.0335 342.404 54.8966 342.542 54.0642C342.681 53.2917 342.773 52.1856 342.773 50.9854C342.773 49.7853 342.678 48.6906 342.542 47.9066Z" fill="#EA5E0B"/>
<path d="M78.1204 21.9935V10.1145C78.1204 9.46735 78.3938 9.10246 79.1421 9.10246H109.36C110.149 9.10246 110.477 8.96562 110.612 8.13321C110.75 7.36065 110.842 6.25457 110.842 5.0544C110.842 3.85424 110.747 2.75955 110.612 1.9756C110.474 1.15174 110.149 1.00635 109.36 1.00635H68.9764C67.5344 1.00635 66.8379 1.42256 66.8379 3.03038V21.9907H78.1175L78.1204 21.9935Z" fill="#EA5E0B"/>
<path d="M111.867 47.9066C111.729 47.0828 111.404 46.9374 110.612 46.9374H79.1393C78.3996 46.9374 78.1175 46.5725 78.1175 45.9254V32.3644C78.1175 32.2446 78.1434 32.1506 78.1607 32.0508H66.8379V53.0094C66.8379 54.6173 67.5344 55.0335 68.9764 55.0335H110.612C111.404 55.0335 111.729 54.8966 111.867 54.0642C112.005 53.2917 112.097 52.1856 112.097 50.9854C112.097 49.7853 112.002 48.6906 111.867 47.9066Z" fill="#EA5E0B"/>
<path d="M94.3102 27.0221C94.3102 29.8615 91.9846 32.1677 89.1151 32.1677C86.2455 32.1677 83.9229 29.8643 83.9229 27.0221C83.9229 24.1799 86.2484 21.8794 89.1151 21.8794C91.9818 21.8794 94.3102 24.1828 94.3102 27.0221Z" fill="#EA5E0B"/>
<path d="M327.199 26.7658C327.199 29.6051 324.873 31.9114 322.004 31.9114C319.134 31.9114 316.812 29.608 316.812 26.7658C316.812 23.9236 319.137 21.623 322.004 21.623C324.87 21.623 327.199 23.9264 327.199 26.7658Z" fill="#EA5E0B"/>
<path d="M19.5466 26.8599C19.5466 28.9238 17.8571 30.5972 15.7733 30.5972C13.6895 30.5972 12 28.9238 12 26.8599C12 24.7959 13.6895 23.1226 15.7733 23.1226C17.8571 23.1226 19.5466 24.7959 19.5466 26.8599Z" fill="#EA5E0B"/>
<path d="M52.5451 26.8597C52.5451 29.873 50.0785 32.3132 47.0392 32.3132C43.9998 32.3132 41.5332 29.8701 41.5332 26.8597C41.5332 23.8493 43.9998 21.4062 47.0392 21.4062C50.0785 21.4062 52.5451 23.8493 52.5451 26.8597Z" fill="#EA5E0B"/>
<path d="M35.0026 26.8596C35.0026 29.3284 32.9821 31.3296 30.4896 31.3296C27.997 31.3296 25.9766 29.3284 25.9766 26.8596C25.9766 24.3909 27.997 22.3896 30.4896 22.3896C32.9821 22.3896 35.0026 24.3909 35.0026 26.8596Z" fill="#EA5E0B"/>
<path d="M100.719 124V107.2H104.703L108.663 116.728C109.575 118.936 109.959 120.256 109.959 120.256C109.959 120.256 110.343 118.936 111.255 116.728L115.215 107.2H119.103V124H116.271V114.76C116.271 112.36 116.367 110.968 116.367 110.968C116.367 110.968 115.887 112.288 114.975 114.496L111.039 124H108.783L104.847 114.52C103.911 112.288 103.479 110.968 103.479 110.968C103.479 110.968 103.551 112.36 103.551 114.784V124H100.719ZM126.311 124.192C123.479 124.192 121.703 122.728 121.703 120.4C121.703 117.976 123.431 116.464 127.319 116.032L130.511 115.672V115.312C130.511 113.68 129.287 112.72 127.535 112.72C125.783 112.72 124.607 113.68 124.415 115.288H121.727C122.087 112.552 124.391 110.512 127.535 110.512C130.871 110.512 133.247 112.384 133.247 115.624V124H130.511V122.032C129.911 123.328 128.231 124.192 126.311 124.192ZM124.463 120.304C124.463 121.312 125.375 122.008 126.671 122.008C128.927 122.008 130.511 120.496 130.511 117.856V117.76L127.367 118.12C125.399 118.336 124.463 119.128 124.463 120.304ZM145.465 124L140.857 117.688L138.961 119.488V124H136.201V107.008H138.961V116.056L144.793 110.704H148.297L142.897 115.768L148.777 124H145.465ZM150.005 124V110.704H152.765V124H150.005ZM151.397 109C150.437 109 149.717 108.328 149.717 107.392C149.717 106.456 150.437 105.76 151.397 105.76C152.357 105.76 153.077 106.456 153.077 107.392C153.077 108.328 152.357 109 151.397 109ZM155.888 124V110.704H158.648V112.72C159.44 111.472 161.168 110.512 163.088 110.512C165.92 110.512 168.056 112.384 168.056 115.216V124H165.296V115.888C165.296 114.112 164.192 112.96 162.464 112.96C160.232 112.96 158.648 114.688 158.648 118.024V124H155.888ZM176.884 128.56C173.644 128.56 171.316 126.952 170.908 124.48H173.668C174.028 125.632 175.108 126.352 176.956 126.352C179.236 126.352 180.652 125.08 180.652 122.968V121.528C179.812 122.728 178.156 123.472 176.428 123.472C172.804 123.472 170.284 120.88 170.284 117.064C170.284 113.104 172.804 110.512 176.38 110.512C178.204 110.512 179.788 111.256 180.652 112.408V110.704H183.388V122.848C183.388 126.52 180.628 128.56 176.884 128.56ZM176.836 121.12C179.068 121.12 180.652 119.392 180.652 116.992C180.652 114.592 179.068 112.864 176.836 112.864C174.628 112.864 173.044 114.592 173.044 116.992C173.044 119.392 174.628 121.12 176.836 121.12ZM196.409 124.168C194.033 124.168 192.257 122.704 192.257 119.968V112.936H190.289V110.704H192.257V107.944H194.993V110.704H197.945V112.936H194.993V119.728C194.993 121.072 195.713 121.792 196.769 121.792C197.201 121.792 197.729 121.672 198.137 121.528V123.856C197.633 124.048 197.081 124.168 196.409 124.168ZM200.138 124V107.008H202.898V112.72C203.714 111.472 205.418 110.512 207.338 110.512C210.17 110.512 212.306 112.384 212.306 115.216V124H209.546V115.888C209.546 114.112 208.442 112.96 206.714 112.96C204.482 112.96 202.898 114.688 202.898 118.048V124H200.138ZM221.183 124.192C217.127 124.192 214.559 121.36 214.559 117.352C214.559 113.344 217.319 110.512 221.111 110.512C225.287 110.512 227.879 113.728 227.351 117.856H217.295C217.463 120.4 219.023 121.864 221.183 121.864C222.935 121.864 224.159 121.024 224.471 119.68H227.303C226.751 122.2 224.615 124.192 221.183 124.192ZM217.415 115.768H224.519C224.471 113.896 223.103 112.72 221.111 112.72C219.167 112.72 217.847 113.8 217.415 115.768ZM239.574 124.192C236.43 124.192 234.294 122.416 234.126 119.68H236.814C236.934 121.096 237.966 121.936 239.574 121.936C241.014 121.936 241.902 121.24 241.902 120.136C241.902 117.28 234.486 119.104 234.486 114.232C234.486 112.12 236.358 110.512 239.118 110.512C242.166 110.512 244.062 112.024 244.302 114.568H241.638C241.446 113.368 240.558 112.696 239.142 112.696C237.942 112.696 237.126 113.248 237.126 114.136C237.126 116.704 244.59 114.832 244.59 120.064C244.59 122.56 242.526 124.192 239.574 124.192ZM252.847 124.192C248.791 124.192 246.223 121.36 246.223 117.352C246.223 113.344 248.983 110.512 252.775 110.512C256.951 110.512 259.543 113.728 259.015 117.856H248.959C249.127 120.4 250.687 121.864 252.847 121.864C254.599 121.864 255.823 121.024 256.135 119.68H258.967C258.415 122.2 256.279 124.192 252.847 124.192ZM249.079 115.768H256.183C256.135 113.896 254.767 112.72 252.775 112.72C250.831 112.72 249.511 113.8 249.079 115.768ZM264.915 124L259.659 110.704H262.635L266.307 120.376L269.979 110.704H272.859L267.603 124H264.915ZM280.011 124.192C275.955 124.192 273.387 121.36 273.387 117.352C273.387 113.344 276.147 110.512 279.939 110.512C284.115 110.512 286.707 113.728 286.179 117.856H276.123C276.291 120.4 277.851 121.864 280.011 121.864C281.763 121.864 282.987 121.024 283.299 119.68H286.131C285.579 122.2 283.443 124.192 280.011 124.192ZM276.243 115.768H283.347C283.299 113.896 281.931 112.72 279.939 112.72C277.995 112.72 276.675 113.8 276.243 115.768ZM288.638 124V110.704H291.398V112.72C292.19 111.472 293.918 110.512 295.838 110.512C298.67 110.512 300.806 112.384 300.806 115.216V124H298.046V115.888C298.046 114.112 296.942 112.96 295.214 112.96C292.982 112.96 291.398 114.688 291.398 118.024V124H288.638ZM313.566 124.192C310.422 124.192 308.286 122.416 308.118 119.68H310.806C310.926 121.096 311.958 121.936 313.566 121.936C315.006 121.936 315.894 121.24 315.894 120.136C315.894 117.28 308.478 119.104 308.478 114.232C308.478 112.12 310.35 110.512 313.11 110.512C316.158 110.512 318.054 112.024 318.294 114.568H315.63C315.438 113.368 314.55 112.696 313.134 112.696C311.934 112.696 311.118 113.248 311.118 114.136C311.118 116.704 318.582 114.832 318.582 120.064C318.582 122.56 316.518 124.192 313.566 124.192ZM326.839 124.192C322.783 124.192 320.215 121.36 320.215 117.352C320.215 113.344 322.975 110.512 326.767 110.512C330.943 110.512 333.535 113.728 333.007 117.856H322.951C323.119 120.4 324.679 121.864 326.839 121.864C328.591 121.864 329.815 121.024 330.127 119.68H332.959C332.407 122.2 330.271 124.192 326.839 124.192ZM323.071 115.768H330.175C330.127 113.896 328.759 112.72 326.767 112.72C324.823 112.72 323.503 113.8 323.071 115.768ZM339.498 124.192C336.666 124.192 334.89 122.728 334.89 120.4C334.89 117.976 336.618 116.464 340.506 116.032L343.698 115.672V115.312C343.698 113.68 342.474 112.72 340.722 112.72C338.97 112.72 337.794 113.68 337.602 115.288H334.914C335.274 112.552 337.578 110.512 340.722 110.512C344.058 110.512 346.434 112.384 346.434 115.624V124H343.698V122.032C343.098 123.328 341.418 124.192 339.498 124.192ZM337.65 120.304C337.65 121.312 338.562 122.008 339.858 122.008C342.114 122.008 343.698 120.496 343.698 117.856V117.76L340.554 118.12C338.586 118.336 337.65 119.128 337.65 120.304ZM353.996 124.192C350.852 124.192 348.716 122.416 348.548 119.68H351.236C351.356 121.096 352.388 121.936 353.996 121.936C355.436 121.936 356.324 121.24 356.324 120.136C356.324 117.28 348.908 119.104 348.908 114.232C348.908 112.12 350.78 110.512 353.54 110.512C356.588 110.512 358.484 112.024 358.724 114.568H356.06C355.868 113.368 354.98 112.696 353.564 112.696C352.364 112.696 351.548 113.248 351.548 114.136C351.548 116.704 359.012 114.832 359.012 120.064C359.012 122.56 356.948 124.192 353.996 124.192ZM139.104 163.368L140.976 158.904L135.768 145.704H138.744L142.392 155.4L146.016 145.704H148.92L141.984 163.368H139.104ZM156.218 159.192C152.258 159.192 149.402 156.36 149.402 152.352C149.402 148.344 152.258 145.512 156.218 145.512C160.178 145.512 163.034 148.344 163.034 152.352C163.034 156.36 160.178 159.192 156.218 159.192ZM156.218 156.816C158.57 156.816 160.25 154.992 160.25 152.352C160.25 149.712 158.57 147.864 156.218 147.864C153.842 147.864 152.186 149.712 152.186 152.352C152.186 154.992 153.842 156.816 156.218 156.816ZM170.228 159.192C167.396 159.192 165.26 157.32 165.26 154.152V145.704H168.02V153.672C168.02 155.592 169.196 156.744 170.9 156.744C173.252 156.744 174.692 154.704 174.692 151.44V145.704H177.452V159H174.692V156.816C173.948 158.136 172.316 159.192 170.228 159.192ZM180.568 159V145.704H183.328V147.816C184 146.472 185.632 145.512 187.264 145.512C187.84 145.512 188.416 145.608 188.848 145.776V148.416C188.32 148.224 187.768 148.104 187.096 148.104C185.008 148.104 183.328 150 183.328 154.032V159H180.568ZM195.099 163.368V145.704H197.859V147.624C198.699 146.376 200.427 145.512 202.299 145.512C206.067 145.512 208.683 148.2 208.683 152.352C208.683 156.504 206.067 159.192 202.275 159.192C200.403 159.192 198.699 158.328 197.859 157.104V163.368H195.099ZM201.867 156.816C204.243 156.816 205.899 155.016 205.899 152.352C205.899 149.688 204.243 147.864 201.867 147.864C199.515 147.864 197.859 149.688 197.859 152.352C197.859 155.016 199.515 156.816 201.867 156.816ZM211.107 159V142.008H213.867V159H211.107ZM221.022 159.192C218.19 159.192 216.414 157.728 216.414 155.4C216.414 152.976 218.142 151.464 222.03 151.032L225.222 150.672V150.312C225.222 148.68 223.998 147.72 222.246 147.72C220.494 147.72 219.318 148.68 219.126 150.288H216.438C216.798 147.552 219.102 145.512 222.246 145.512C225.582 145.512 227.958 147.384 227.958 150.624V159H225.222V157.032C224.622 158.328 222.942 159.192 221.022 159.192ZM219.174 155.304C219.174 156.312 220.086 157.008 221.382 157.008C223.638 157.008 225.222 155.496 225.222 152.856V152.76L222.078 153.12C220.11 153.336 219.174 154.128 219.174 155.304ZM232.409 163.368L234.281 158.904L229.073 145.704H232.049L235.697 155.4L239.321 145.704H242.225L235.289 163.368H232.409ZM249.353 163.56C246.113 163.56 243.785 161.952 243.377 159.48H246.137C246.497 160.632 247.577 161.352 249.425 161.352C251.705 161.352 253.121 160.08 253.121 157.968V156.528C252.281 157.728 250.625 158.472 248.897 158.472C245.273 158.472 242.753 155.88 242.753 152.064C242.753 148.104 245.273 145.512 248.849 145.512C250.673 145.512 252.257 146.256 253.121 147.408V145.704H255.857V157.848C255.857 161.52 253.097 163.56 249.353 163.56ZM249.305 156.12C251.537 156.12 253.121 154.392 253.121 151.992C253.121 149.592 251.537 147.864 249.305 147.864C247.097 147.864 245.513 149.592 245.513 151.992C245.513 154.392 247.097 156.12 249.305 156.12ZM258.826 159V145.704H261.586V147.816C262.258 146.472 263.89 145.512 265.522 145.512C266.098 145.512 266.674 145.608 267.106 145.776V148.416C266.578 148.224 266.026 148.104 265.354 148.104C263.266 148.104 261.586 150 261.586 154.032V159H258.826ZM274.413 159.192C270.453 159.192 267.597 156.36 267.597 152.352C267.597 148.344 270.453 145.512 274.413 145.512C278.373 145.512 281.229 148.344 281.229 152.352C281.229 156.36 278.373 159.192 274.413 159.192ZM274.413 156.816C276.765 156.816 278.445 154.992 278.445 152.352C278.445 149.712 276.765 147.864 274.413 147.864C272.037 147.864 270.381 149.712 270.381 152.352C270.381 154.992 272.037 156.816 274.413 156.816ZM288.423 159.192C285.591 159.192 283.455 157.32 283.455 154.152V145.704H286.215V153.672C286.215 155.592 287.391 156.744 289.095 156.744C291.447 156.744 292.887 154.704 292.887 151.44V145.704H295.647V159H292.887V156.816C292.143 158.136 290.511 159.192 288.423 159.192ZM298.763 159V145.704H301.523V147.72C302.315 146.472 304.043 145.512 305.963 145.512C308.795 145.512 310.931 147.384 310.931 150.216V159H308.171V150.888C308.171 149.112 307.067 147.96 305.339 147.96C303.107 147.96 301.523 149.688 301.523 153.024V159H298.763ZM319.615 159.192C315.823 159.192 313.207 156.504 313.207 152.352C313.207 148.2 315.823 145.512 319.591 145.512C321.463 145.512 323.191 146.376 324.031 147.624V142.008H326.791V159H324.031V157.104C323.191 158.328 321.487 159.192 319.615 159.192ZM320.023 156.816C322.375 156.816 324.031 155.016 324.031 152.352C324.031 149.688 322.375 147.864 320.023 147.864C317.647 147.864 315.991 149.688 315.991 152.352C315.991 155.016 317.647 156.816 320.023 156.816Z" fill="#EA5E0B"/>
</svg>
