<svg width="252" height="40" viewBox="0 0 252 40" fill="none" xmlns="http://www.w3.org/2000/svg">
<path fill-rule="evenodd" clip-rule="evenodd" d="M233.257 7.58109C233.86 7.80587 234.401 8.09195 234.881 8.42912L234.871 8.43933C235.351 8.77649 235.74 9.18518 236.026 9.68582C236.322 10.1762 236.465 10.7893 236.465 11.5045C236.465 12.6283 236.179 13.5479 235.617 14.2631C235.045 14.9681 234.268 15.4891 233.288 15.8059C232.297 16.1226 231.173 16.2861 229.906 16.2861C229.048 16.2861 228.23 16.1941 227.433 16.0204C226.646 15.8467 225.941 15.5607 225.328 15.1724C224.715 14.7842 224.235 14.2835 223.888 13.6807C223.53 13.0779 223.357 12.3525 223.357 11.5147C223.357 11.4673 223.359 11.42 223.362 11.3741C223.364 11.3308 223.367 11.2887 223.367 11.249C223.377 11.1673 223.377 11.0958 223.377 11.0345H225.942C225.942 11.0508 225.94 11.0721 225.938 11.0976C225.935 11.1358 225.931 11.1836 225.931 11.2388C225.921 11.3308 225.921 11.4023 225.921 11.4636C225.921 12.0255 226.085 12.5057 226.422 12.9042C226.759 13.2925 227.229 13.599 227.832 13.7931C228.434 13.9872 229.129 14.0894 229.906 14.0894C230.335 14.0894 230.744 14.0587 231.142 14.0077C231.54 13.9463 231.908 13.8646 232.235 13.7522C232.562 13.6296 232.848 13.4866 233.093 13.3129C233.339 13.129 233.533 12.9246 233.666 12.6794C233.798 12.4342 233.87 12.1481 233.87 11.8314C233.87 11.341 233.737 10.9323 233.451 10.6156C233.165 10.2988 232.787 10.0332 232.307 9.81864C231.827 9.60408 231.285 9.40996 230.682 9.24649L230.446 9.1823L230.275 9.13571L230.268 9.13365C229.795 9.00457 229.31 8.87215 228.813 8.74584C228.169 8.58237 227.546 8.37803 226.943 8.15325C226.34 7.91826 225.798 7.6424 225.318 7.31546C224.838 6.98851 224.46 6.57982 224.174 6.07918C223.898 5.58876 223.755 4.94508 223.755 4.26053C223.755 3.57599 223.908 2.96295 224.194 2.43166C224.48 1.90037 224.899 1.45082 225.451 1.09322C226.003 0.725407 226.657 0.459759 227.423 0.275851C228.179 0.0919428 229.048 0 230.008 0C230.835 0 231.612 0.0919484 232.348 0.265639C233.073 0.449547 233.717 0.715195 234.268 1.08301C234.82 1.45083 235.249 1.92081 235.566 2.48275C235.883 3.04469 236.036 3.71902 236.036 4.49552V4.77139H233.492V4.47508C233.492 3.98466 233.339 3.57599 233.053 3.23882C232.756 2.90166 232.358 2.64624 231.837 2.46233C231.316 2.27842 230.713 2.18646 230.028 2.18646C229.211 2.18646 228.537 2.26819 227.985 2.43166C227.433 2.59514 227.025 2.8097 226.738 3.09578C226.463 3.38186 226.32 3.71903 226.32 4.11749C226.32 4.56705 226.473 4.92464 226.759 5.21072C227.045 5.4968 227.433 5.74201 227.913 5.93614C228.394 6.14048 228.935 6.31417 229.538 6.47764C230.045 6.60649 230.566 6.74978 231.096 6.89537L231.397 6.97829C232.031 7.15198 232.654 7.35632 233.257 7.58109ZM132.69 0.909354C131.515 0.316762 130.105 0.0204546 128.45 0.0204546C126.795 0.0204546 125.425 0.316762 124.25 0.909354C123.065 1.50195 122.156 2.40104 121.522 3.59644C120.889 4.79185 120.572 6.31421 120.572 8.14307C120.572 9.97193 120.889 11.4739 121.522 12.6795C122.156 13.8851 123.065 14.7842 124.25 15.387C125.436 15.9796 126.835 16.2759 128.45 16.2759C130.064 16.2759 131.515 15.9796 132.69 15.387C133.865 14.7944 134.774 13.8953 135.408 12.6795C136.041 11.4739 136.358 9.96172 136.358 8.14307C136.358 6.32443 136.041 4.79185 135.408 3.59644C134.774 2.40104 133.865 1.50195 132.69 0.909354ZM133.722 8.41892C133.722 9.36911 133.599 10.1967 133.364 10.9119C133.129 11.6271 132.782 12.2299 132.332 12.6999C131.883 13.1699 131.331 13.5275 130.687 13.7523C130.033 13.977 129.298 14.0996 128.45 14.0996C127.602 14.0996 126.886 13.9872 126.243 13.7523C125.589 13.5275 125.047 13.1699 124.598 12.6999C124.148 12.2299 123.811 11.6271 123.576 10.9119C123.351 10.1967 123.229 9.3589 123.229 8.41892V7.91829C123.229 6.93745 123.341 6.08943 123.576 5.37423C123.801 4.65903 124.148 4.05622 124.598 3.58623C125.047 3.11625 125.599 2.75865 126.243 2.53387C126.897 2.30909 127.632 2.18649 128.45 2.18649C129.267 2.18649 130.033 2.29888 130.687 2.53387C131.331 2.75865 131.883 3.11625 132.332 3.58623C132.782 4.05622 133.129 4.65903 133.364 5.37423C133.599 6.08943 133.722 6.93745 133.722 7.91829V8.41892ZM89.1439 0.296305H84.536C84.3725 0.296305 84.2397 0.398476 84.1886 0.551733L71.6114 37.599C71.4785 37.9975 70.8859 37.8953 70.8859 37.4764V2.88123C70.8859 1.45084 69.7314 0.296305 68.301 0.296305H62.467C61.3636 0.296305 60.3725 1.00129 60.0252 2.05365L47.9587 37.599C47.8259 37.9975 47.2333 37.8953 47.2333 37.4764V2.88123C47.2333 1.45084 46.0788 0.296305 44.6484 0.296305H38.8144C37.711 0.296305 36.7199 1.00129 36.3725 2.05365L24.3061 37.599C24.1733 37.9975 23.5807 37.8953 23.5807 37.4764V2.88123C23.5807 1.45084 22.4262 0.296305 20.9958 0.296305H15.1618C14.0584 0.296305 13.0673 1.00129 12.7199 2.05365L0.00984092 39.4891C-0.0310275 39.6117 0.0609246 39.7344 0.18353 39.7344H4.79145C4.95492 39.7344 5.08775 39.6322 5.13883 39.4789L17.7161 2.43168C17.8489 2.03321 18.4415 2.13539 18.4415 2.55429V37.0983C18.4415 38.5594 19.6267 39.7344 21.0775 39.7344H26.8604C27.9639 39.7344 28.9549 39.0294 29.3023 37.977L41.3687 2.43168C41.5015 2.03321 42.0941 2.13539 42.0941 2.55429V37.0983C42.0941 38.5594 43.2793 39.7344 44.7301 39.7344H50.513C51.6165 39.7344 52.6075 39.0294 52.9549 37.977L65.0213 2.43168C65.1541 2.03321 65.7467 2.13539 65.7467 2.55429V37.0983C65.7467 38.5594 66.9319 39.7344 68.3828 39.7344H74.1656C75.2691 39.7344 76.2601 39.0294 76.6075 37.977L89.3176 0.541522C89.3585 0.418916 89.2665 0.296305 89.1439 0.296305ZM240.521 37.4049H241.42V39.7241H241.86V37.4049H242.759V37.0268H240.521V37.4049ZM244.608 38.8353C244.618 38.7739 244.628 38.7126 244.648 38.6616L244.71 38.6718L245.241 37.037H245.915V39.7344H245.476V38.2529V37.9464V37.6603V37.4968H245.445C245.44 37.5072 245.435 37.5255 245.428 37.5503L245.424 37.5677L245.424 37.5688L245.414 37.6066L245.405 37.6399L245.391 37.6868L245.38 37.7276L245.367 37.7729L245.357 37.8124L245.348 37.8452L245.343 37.8646C245.323 37.9464 245.302 38.0077 245.282 38.069L244.73 39.7344H244.342L243.79 38.069C243.77 38.0179 243.749 37.9566 243.739 37.8953C243.729 37.834 243.708 37.7625 243.688 37.6909C243.683 37.6746 243.679 37.6587 243.674 37.6433C243.659 37.5914 243.645 37.5441 243.637 37.4968H243.606V37.7318V38.0077V38.2529V39.7344H243.177V37.037H243.862L244.383 38.6718C244.395 38.7015 244.403 38.7313 244.412 38.7631L244.412 38.7634L244.42 38.7907L244.426 38.8118L244.434 38.8353C244.44 38.8706 244.449 38.9059 244.458 38.9392C244.464 38.9638 244.47 38.9873 244.475 39.0089C244.485 39.06 244.505 39.152 244.505 39.152H244.536C244.546 39.1111 244.556 39.06 244.567 39.0089L244.571 38.9909C244.573 38.9826 244.575 38.9741 244.577 38.9653L244.584 38.9391C244.592 38.9058 244.602 38.8705 244.608 38.8353ZM141.711 16.0102H139.504C139.412 16.0102 139.341 15.9387 139.341 15.8467V0.459781C139.341 0.367827 139.412 0.296303 139.504 0.296303H147.607C148.72 0.296303 149.64 0.49043 150.375 0.888897C151.101 1.28736 151.653 1.83909 152.02 2.55429C152.388 3.25927 152.572 4.08685 152.572 5.03704C152.572 6.0894 152.327 7.00895 151.857 7.78545C151.407 8.51086 150.794 9.06259 149.997 9.4304C149.916 9.47127 149.875 9.57344 149.916 9.65518L152.991 15.765C153.042 15.8774 152.96 16.0102 152.838 16.0102H150.416C150.345 16.0102 150.294 15.9796 150.263 15.9183L147.372 10.0332C147.341 9.98212 147.28 9.94126 147.218 9.94126H142.038C141.946 9.94126 141.875 10.0128 141.875 10.1047V15.8467C141.875 15.9387 141.803 16.0102 141.711 16.0102ZM142.038 2.49299C141.946 2.49299 141.875 2.5645 141.875 2.65645V2.66668V7.62197C141.875 7.71392 141.946 7.78545 142.038 7.78545H147.372C148.189 7.78545 148.833 7.54024 149.282 7.04981C149.732 6.55939 149.957 5.87485 149.957 5.00639C149.957 4.4751 149.854 4.02555 149.66 3.64751C149.466 3.2797 149.17 2.98341 148.792 2.78928C148.414 2.59516 147.934 2.49299 147.372 2.49299H142.038ZM154.156 2.49299H159.019C159.111 2.49299 159.183 2.5645 159.183 2.65645V15.8365C159.183 15.9285 159.254 16 159.346 16H161.584C161.676 16 161.747 15.9285 161.747 15.8365V2.65645C161.747 2.5645 161.819 2.49299 161.91 2.49299H166.825C166.917 2.49299 166.988 2.42147 166.988 2.32951V0.459781C166.988 0.367827 166.917 0.296303 166.825 0.296303H154.145C154.054 0.296303 153.982 0.367827 153.982 0.459781V2.32951C153.982 2.42147 154.054 2.49299 154.145 2.49299H154.156ZM182.468 0.459781V15.8467C182.468 15.9387 182.396 16.0102 182.304 16.0102H180.066C179.975 16.0102 179.903 15.9387 179.903 15.8467V9.23628C179.903 9.14432 179.831 9.0728 179.74 9.0728H172.097C172.005 9.0728 171.934 9.14432 171.934 9.23628V15.8467C171.934 15.9387 171.862 16.0102 171.77 16.0102H169.533C169.441 16.0102 169.369 15.9387 169.369 15.8467V0.459781C169.369 0.367827 169.441 0.296303 169.533 0.296303H171.77C171.862 0.296303 171.934 0.367827 171.934 0.459781V6.70244C171.934 6.79439 172.005 6.86591 172.097 6.86591H179.74C179.831 6.86591 179.903 6.79439 179.903 6.70244V0.459781C179.903 0.367827 179.975 0.296303 180.066 0.296303H182.304C182.396 0.296303 182.468 0.367827 182.468 0.459781ZM220.822 13.8135H211.392C211.3 13.8135 211.228 13.742 211.228 13.6501V9.23628C211.228 9.14433 211.3 9.0728 211.392 9.0728H219.678C219.77 9.0728 219.841 9.00129 219.841 8.90934V7.03961C219.841 6.94765 219.77 6.87613 219.678 6.87613H211.392C211.3 6.87613 211.228 6.80461 211.228 6.71265V2.66668C211.228 2.57473 211.3 2.50321 211.392 2.50321H220.679C220.771 2.50321 220.843 2.43168 220.843 2.33973V0.469996C220.843 0.378042 220.771 0.306534 220.679 0.306534H208.827C208.735 0.306534 208.664 0.378042 208.664 0.469996V15.857C208.664 15.9489 208.735 16.0204 208.827 16.0204H220.822C220.914 16.0204 220.986 15.9489 220.986 15.857V13.9872C220.986 13.8953 220.914 13.8238 220.822 13.8238V13.8135ZM250.932 0.296303H238.263C238.171 0.296303 238.1 0.367827 238.1 0.459781V2.32951C238.1 2.42147 238.171 2.49299 238.263 2.49299H243.126C243.218 2.49299 243.29 2.5645 243.29 2.65645V15.8365C243.29 15.9285 243.361 16 243.453 16H245.691C245.783 16 245.854 15.9285 245.854 15.8365V2.65645C245.854 2.5645 245.926 2.49299 246.018 2.49299H250.932C251.024 2.49299 251.096 2.42147 251.096 2.32951V0.459781C251.096 0.367827 251.024 0.296303 250.932 0.296303ZM115.535 0.306534H117.681C117.773 0.306534 117.844 0.378042 117.844 0.469996V15.8263C117.844 15.9183 117.773 15.9898 117.681 15.9898H112.705C112.633 15.9898 112.582 15.9489 112.552 15.8876L111.203 12.6284L107.494 3.67817L106.421 1.09324C106.35 0.91955 106.105 0.970633 106.105 1.15454V15.8365C106.105 15.9285 106.033 16 105.941 16H103.796C103.704 16 103.632 15.9285 103.632 15.8365V0.480223C103.632 0.388269 103.704 0.316746 103.796 0.316746H108.771C108.843 0.316746 108.894 0.35762 108.925 0.418923L110.273 3.67817L113.982 12.6284L115.055 15.2133C115.126 15.387 115.372 15.3359 115.372 15.152V0.469996C115.372 0.378042 115.443 0.306534 115.535 0.306534ZM115.137 32.143C114.656 31.8058 114.115 31.5198 113.512 31.295C112.909 31.0702 112.286 30.8659 111.653 30.6922L111.351 30.6094C110.821 30.4638 110.3 30.3204 109.793 30.1916C109.19 30.0281 108.649 29.8544 108.169 29.65C107.688 29.4559 107.3 29.2107 107.014 28.9246C106.728 28.6385 106.575 28.2809 106.575 27.8314C106.575 27.4329 106.718 27.0958 106.994 26.8097C107.28 26.5236 107.688 26.309 108.24 26.1456C108.792 25.9821 109.466 25.9004 110.284 25.9004C110.968 25.9004 111.571 25.9923 112.092 26.1762C112.613 26.3601 113.012 26.6156 113.308 26.9527C113.594 27.2899 113.747 27.6986 113.747 28.189V28.4853H116.291V28.2094C116.291 27.4329 116.138 26.7586 115.821 26.1967C115.505 25.6347 115.075 25.1647 114.524 24.7969C113.972 24.4291 113.328 24.1635 112.603 23.9795C111.867 23.8059 111.091 23.7139 110.263 23.7139C109.303 23.7139 108.434 23.8059 107.678 23.9898C106.912 24.1737 106.258 24.4393 105.706 24.8071C105.155 25.1647 104.736 25.6143 104.45 26.1456C104.164 26.6769 104.01 27.2899 104.01 27.9744C104.01 28.659 104.153 29.3027 104.429 29.7931C104.715 30.2937 105.093 30.7024 105.573 31.0293C106.054 31.3563 106.595 31.6322 107.198 31.8672C107.801 32.0919 108.424 32.2963 109.068 32.4597C109.564 32.5858 110.048 32.7179 110.52 32.8467L110.522 32.8473L110.523 32.8476L110.523 32.8476L110.526 32.8482L110.544 32.8532C110.676 32.8892 110.807 32.9251 110.937 32.9604C111.54 33.1239 112.082 33.318 112.562 33.5325C113.042 33.7471 113.42 34.0127 113.706 34.3295C113.992 34.6462 114.125 35.0549 114.125 35.5453C114.125 35.862 114.054 36.1481 113.921 36.3933C113.788 36.6385 113.594 36.8429 113.349 37.0268C113.103 37.2005 112.817 37.3435 112.49 37.4661C112.164 37.5785 111.796 37.6603 111.397 37.7216C110.999 37.7726 110.59 37.8033 110.161 37.8033C109.384 37.8033 108.69 37.7011 108.087 37.507C107.484 37.3129 107.014 37.0064 106.677 36.6181C106.34 36.2196 106.176 35.7394 106.176 35.1775C106.176 35.1162 106.176 35.0447 106.187 34.9527C106.187 34.8975 106.19 34.8497 106.193 34.8115C106.195 34.786 106.197 34.7647 106.197 34.7484H103.632C103.632 34.8097 103.632 34.8812 103.622 34.9629C103.622 35.0025 103.62 35.0445 103.617 35.0878V35.0879V35.088C103.614 35.1339 103.612 35.1813 103.612 35.2286C103.612 36.0664 103.785 36.7918 104.143 37.3946C104.49 37.9974 104.971 38.4981 105.584 38.8863C106.197 39.2746 106.902 39.5606 107.688 39.7343C108.485 39.908 109.303 40 110.161 40C111.428 40 112.552 39.8365 113.543 39.5198C114.524 39.203 115.3 38.682 115.872 37.977C116.434 37.2618 116.72 36.3423 116.72 35.2184C116.72 34.5032 116.577 33.8901 116.281 33.3997C115.995 32.8991 115.607 32.4904 115.126 32.1532L115.137 32.143ZM126.836 23.7446C128.491 23.7446 129.901 24.0409 131.076 24.6335C132.251 25.2261 133.16 26.1252 133.793 27.3206C134.427 28.516 134.744 30.0485 134.744 31.8672C134.744 33.6858 134.427 35.198 133.793 36.4036C133.16 37.6194 132.251 38.5185 131.076 39.1111C129.901 39.7037 128.45 40 126.836 40C125.221 40 123.821 39.7037 122.636 39.1111C121.451 38.5083 120.542 37.6092 119.908 36.4036C119.275 35.198 118.958 33.6961 118.958 31.8672C118.958 30.0383 119.275 28.516 119.908 27.3206C120.542 26.1252 121.451 25.2261 122.636 24.6335C123.811 24.0409 125.18 23.7446 126.836 23.7446ZM131.75 34.636C131.985 33.9208 132.108 33.0932 132.108 32.143V31.6424C132.108 30.6616 131.985 29.8135 131.75 29.0983C131.515 28.3832 131.168 27.7803 130.718 27.3104C130.268 26.8404 129.727 26.4828 129.073 26.258C128.419 26.023 127.653 25.9106 126.836 25.9106C126.018 25.9106 125.283 26.0332 124.629 26.258C123.985 26.4828 123.433 26.8404 122.984 27.3104C122.534 27.7803 122.187 28.3832 121.962 29.0983C121.727 29.8135 121.615 30.6616 121.615 31.6424V32.143C121.615 33.083 121.737 33.9208 121.962 34.636C122.197 35.3512 122.534 35.954 122.984 36.424C123.433 36.894 123.975 37.2516 124.629 37.4764C125.272 37.7114 125.988 37.8238 126.836 37.8238C127.684 37.8238 128.419 37.7012 129.073 37.4764C129.717 37.2516 130.268 36.894 130.718 36.424C131.168 35.954 131.515 35.3512 131.75 34.636ZM147.923 37.507H140.424C140.332 37.507 140.26 37.4355 140.26 37.3435V24.1839C140.26 24.0919 140.189 24.0204 140.097 24.0204H137.859C137.767 24.0204 137.696 24.0919 137.696 24.1839V39.5708C137.696 39.6628 137.767 39.7343 137.859 39.7343H147.923C148.015 39.7343 148.086 39.6628 148.086 39.5708V37.6807C148.086 37.5887 148.015 37.5172 147.923 37.5172V37.507ZM160.173 24.0102H162.411C162.503 24.0102 162.574 24.0817 162.574 24.1737V33.8391C162.574 35.249 162.319 36.4036 161.788 37.3231C161.256 38.2324 160.5 38.9067 159.519 39.3461C158.539 39.7854 157.333 40 155.984 40C154.636 40 153.481 39.7854 152.5 39.3461C151.519 38.917 150.774 38.2426 150.252 37.3231C149.731 36.4036 149.476 35.249 149.476 33.8391V24.1737C149.476 24.0817 149.547 24.0102 149.639 24.0102H151.877C151.969 24.0102 152.04 24.0817 152.04 24.1737V33.9004C152.04 35.1979 152.388 36.1788 153.072 36.8327C153.767 37.4866 154.717 37.8135 155.984 37.8135C157.251 37.8135 158.232 37.4866 158.947 36.8327C159.652 36.1788 160.01 35.1979 160.01 33.9004V24.1737C160.01 24.0817 160.081 24.0102 160.173 24.0102ZM177.696 24.0102H165.027C164.935 24.0102 164.863 24.0817 164.863 24.1737V26.0434C164.863 26.1353 164.935 26.2069 165.027 26.2069H169.89C169.982 26.2069 170.053 26.2784 170.053 26.3704V39.5504C170.053 39.6424 170.125 39.7139 170.217 39.7139H172.454C172.546 39.7139 172.618 39.6424 172.618 39.5504V26.3704C172.618 26.2784 172.689 26.2069 172.781 26.2069H177.696C177.788 26.2069 177.859 26.1353 177.859 26.0434V24.1737C177.859 24.0817 177.788 24.0102 177.696 24.0102ZM180.403 24.0102H182.641C182.731 24.0102 182.804 24.0834 182.804 24.1737V39.5606C182.804 39.6509 182.731 39.7241 182.641 39.7241H180.403C180.313 39.7241 180.24 39.6509 180.24 39.5606V24.1737C180.24 24.0834 180.313 24.0102 180.403 24.0102ZM197.875 24.6335C196.7 24.0409 195.29 23.7446 193.635 23.7446C191.979 23.7446 190.61 24.0409 189.435 24.6335C188.25 25.2261 187.341 26.1252 186.707 27.3206C186.074 28.516 185.757 30.0383 185.757 31.8672C185.757 33.6961 186.074 35.198 186.707 36.4036C187.341 37.6092 188.25 38.5083 189.435 39.1111C190.621 39.7037 192.02 40 193.635 40C195.249 40 196.7 39.7037 197.875 39.1111C199.05 38.5185 199.959 37.6194 200.592 36.4036C201.226 35.198 201.543 33.6858 201.543 31.8672C201.543 30.0485 201.226 28.516 200.592 27.3206C199.959 26.1252 199.05 25.2261 197.875 24.6335ZM198.907 32.143C198.907 33.0932 198.784 33.9208 198.549 34.636C198.314 35.3512 197.967 35.954 197.517 36.424C197.068 36.894 196.516 37.2516 195.872 37.4764C195.218 37.7012 194.483 37.8238 193.635 37.8238C192.787 37.8238 192.071 37.7114 191.428 37.4764C190.774 37.2516 190.232 36.894 189.783 36.424C189.333 35.954 188.996 35.3512 188.761 34.636C188.536 33.9208 188.414 33.083 188.414 32.143V31.6424C188.414 30.6616 188.526 29.8135 188.761 29.0983C188.986 28.3832 189.333 27.7803 189.783 27.3104C190.232 26.8404 190.784 26.4828 191.428 26.258C192.082 26.0332 192.817 25.9106 193.635 25.9106C194.452 25.9106 195.218 26.023 195.872 26.258C196.516 26.4828 197.068 26.8404 197.517 27.3104C197.967 27.7803 198.314 28.3832 198.549 29.0983C198.784 29.8135 198.907 30.6616 198.907 31.6424V32.143ZM231.571 31.295C232.174 31.5198 232.715 31.8058 233.195 32.143L233.185 32.1532C233.665 32.4904 234.054 32.8991 234.34 33.3997C234.636 33.8901 234.779 34.5032 234.779 35.2184C234.779 36.3423 234.493 37.2618 233.931 37.977C233.359 38.682 232.582 39.203 231.601 39.5198C230.61 39.8365 229.486 40 228.22 40C227.361 40 226.544 39.908 225.747 39.7343C224.96 39.5606 224.255 39.2746 223.642 38.8863C223.029 38.4981 222.549 37.9974 222.202 37.3946C221.844 36.7918 221.67 36.0664 221.67 35.2286C221.67 35.1813 221.673 35.1339 221.676 35.088L221.676 35.0874C221.678 35.0443 221.681 35.0024 221.681 34.9629C221.691 34.8812 221.691 34.8097 221.691 34.7484H224.255C224.255 34.7647 224.254 34.786 224.252 34.8115L224.252 34.8119V34.8121C224.249 34.8502 224.245 34.8978 224.245 34.9527C224.235 35.0447 224.235 35.1162 224.235 35.1775C224.235 35.7394 224.398 36.2196 224.736 36.6181C225.073 37.0064 225.543 37.3129 226.145 37.507C226.748 37.7011 227.443 37.8033 228.22 37.8033C228.649 37.8033 229.057 37.7726 229.456 37.7216C229.854 37.6603 230.222 37.5785 230.549 37.4661C230.876 37.3435 231.162 37.2005 231.407 37.0268C231.652 36.8429 231.847 36.6385 231.979 36.3933C232.112 36.1481 232.184 35.862 232.184 35.5453C232.184 35.0549 232.051 34.6462 231.765 34.3295C231.479 34.0127 231.101 33.7471 230.621 33.5325C230.14 33.318 229.599 33.1239 228.996 32.9604C228.86 32.9234 228.723 32.886 228.584 32.8482L228.582 32.8476L228.582 32.8475L228.579 32.8469C228.107 32.718 227.623 32.5858 227.126 32.4597C226.483 32.2963 225.859 32.0919 225.257 31.8672C224.654 31.6322 224.112 31.3563 223.632 31.0293C223.152 30.7024 222.774 30.2937 222.488 29.7931C222.212 29.3027 222.069 28.659 222.069 27.9744C222.069 27.2899 222.222 26.6769 222.508 26.1456C222.794 25.6143 223.213 25.1647 223.765 24.8071C224.317 24.4393 224.971 24.1737 225.737 23.9898C226.493 23.8059 227.361 23.7139 228.322 23.7139C229.149 23.7139 229.926 23.8059 230.661 23.9795C231.387 24.1635 232.031 24.4291 232.582 24.7969C233.134 25.1647 233.563 25.6347 233.88 26.1967C234.197 26.7586 234.35 27.4329 234.35 28.2094V28.4853H231.806V28.189C231.806 27.6986 231.653 27.2899 231.366 26.9527C231.07 26.6156 230.672 26.3601 230.151 26.1762C229.63 25.9923 229.027 25.9004 228.342 25.9004C227.525 25.9004 226.85 25.9821 226.299 26.1456C225.747 26.309 225.338 26.5236 225.052 26.8097C224.776 27.0958 224.633 27.4329 224.633 27.8314C224.633 28.2809 224.787 28.6385 225.073 28.9246C225.359 29.2107 225.747 29.4559 226.227 29.65C226.707 29.8544 227.249 30.0281 227.852 30.1916C228.359 30.3205 228.88 30.4638 229.41 30.6095L229.711 30.6922C230.345 30.8659 230.968 31.0702 231.571 31.295ZM218.544 24.0204H216.398C216.306 24.0204 216.235 24.0919 216.235 24.1839V38.8659C216.235 39.0498 215.99 39.1009 215.918 38.9272L214.845 36.3422L211.137 27.3921L209.788 24.1328C209.757 24.0715 209.706 24.0306 209.635 24.0306H204.659C204.567 24.0306 204.495 24.1021 204.495 24.1941V39.5504C204.495 39.6424 204.567 39.7139 204.659 39.7139H206.805C206.896 39.7139 206.968 39.6424 206.968 39.5504V24.8684C206.968 24.6845 207.213 24.6334 207.285 24.8071L208.358 27.3921L212.066 36.3422L213.415 39.6015C213.446 39.6628 213.497 39.7037 213.568 39.7037H218.544C218.636 39.7037 218.707 39.6322 218.707 39.5402V24.1839C218.707 24.0919 218.636 24.0204 218.544 24.0204ZM205.803 0.296291C205.916 0.296291 205.998 0.398469 205.957 0.510857L205.946 0.50063L200.736 15.8467C200.715 15.9183 200.654 15.9591 200.582 15.9591H195.923C195.831 15.9591 195.76 15.8876 195.76 15.7956V1.18519C195.76 1.0115 195.525 0.970628 195.474 1.1341L190.478 15.8467C190.457 15.9183 190.396 15.9591 190.324 15.9591H185.665C185.574 15.9591 185.502 15.8876 185.502 15.7956V0.561946C185.502 0.408689 185.625 0.28608 185.778 0.28608H187.709C187.862 0.28608 187.985 0.408689 187.985 0.561946V15.0702C187.985 15.2439 188.22 15.2848 188.271 15.1213L193.267 0.40868C193.287 0.33716 193.349 0.296291 193.42 0.296291H198.079C198.171 0.296291 198.243 0.367815 198.243 0.459769V15.0702C198.243 15.2439 198.478 15.2848 198.529 15.1213L203.525 0.40868C203.545 0.33716 203.607 0.296291 203.678 0.296291H205.803Z" fill="#1E0E05"/>
</svg>
